<svg id="Layer_1" data-name="Layer 1" xmlns="http://www.w3.org/2000/svg" viewBox="0 0 106.61 109.65"><defs><style>.cls-1{fill:#687478;}.cls-2{fill:#485258;}.cls-3{fill:#4a5357;}.cls-4{fill:#3c4345;}.cls-5{fill:#393f43;}.cls-6{fill:#606765;}.cls-7{fill:#585e5b;}.cls-8{fill:#41474a;}.cls-9{fill:#5a646a;}.cls-10{fill:#50595d;}.cls-11{fill:#606b70;}.cls-12{fill:#404749;}.cls-13{fill:#646c70;}.cls-14{fill:#40474b;}.cls-15{fill:#393c3e;}.cls-16{fill:#3e4549;}.cls-17{fill:#738083;}.cls-18{fill:#72828a;}.cls-19{fill:#6f7a78;}.cls-20{fill:#66777e;}.cls-21{fill:#6b7d86;}.cls-22{fill:#697d82;}.cls-23{fill:#515f65;}.cls-24{fill:#54626a;}.cls-25{fill:#404a4e;}.cls-26{fill:#566268;}.cls-27{fill:#575f61;}.cls-28{fill:#4b595f;}.cls-29{fill:#424c51;}.cls-30{fill:#49545a;}.cls-31{fill:#606b6e;}.cls-32{fill:#68706e;}.cls-33{fill:#5d6e75;}.cls-34{fill:#63727a;}.cls-35{fill:#79898e;}.cls-36{fill:#73848d;}.cls-37{fill:#6d7c83;}.cls-38{fill:#70868f;}.cls-39{fill:#7d909a;}.cls-40{fill:#697679;}.cls-41{fill:#6c7e87;}.cls-42{fill:#5a6970;}.cls-43{fill:#516167;}.cls-44{fill:#627178;}.cls-45{fill:#5b6c72;}.cls-46{fill:#56666d;}.cls-47{fill:#66757e;}.cls-48{fill:#5e6d76;}.cls-49{fill:#788c97;}.cls-50{fill:#738992;}.cls-51{fill:#829295;}.cls-52{fill:#70848d;}.cls-53{fill:#6d8089;}.cls-54{fill:#677a82;}.cls-55{fill:#7a919a;}.cls-56{fill:#768c95;}.cls-57{fill:#7f97a0;}.cls-58{fill:#87999d;}.cls-59{fill:#8198a2;}.cls-60{fill:#5c6d74;}.cls-61{fill:#60727a;}.cls-62{fill:#607379;}.cls-63{fill:#7d939d;}.cls-64{fill:#778c96;}.cls-65{fill:#6d838b;}.cls-66{fill:#849ba6;}.cls-67{fill:#839ca7;}.cls-68{fill:#859aa4;}.cls-69{fill:#879ca6;}.cls-70{fill:#87a1ab;}.cls-71{fill:#879fa9;}.cls-72{fill:#8aa2ad;}.cls-73{fill:#8da2aa;}.cls-74{fill:#8aa5b0;}.cls-75{fill:#8ba6b0;}.cls-76{fill:#8ba3ae;}.cls-77{fill:#8fa6b1;}.cls-78{fill:#90abb6;}.cls-79{fill:#8fa7b3;}.cls-80{fill:#92aab4;}.cls-81{fill:#95acb9;}.cls-82{fill:#93aeba;}.cls-83{fill:#91aeba;}.cls-84{fill:#91abb6;}.cls-85{fill:#95b1bc;}.cls-86{fill:#98afbc;}.cls-87{fill:#98b5c1;}.cls-88{fill:#9ab3c0;}.cls-89{fill:#97b0be;}.cls-90{fill:#9bb8c5;}.cls-91{fill:#9eb6c5;}.cls-92{fill:#9ebbc8;}.cls-93{fill:#9cbbc7;}.cls-94{fill:#a2bbca;}.cls-95{fill:#a1bfcc;}.cls-96{fill:#a6c0cf;}.cls-97{fill:#a6c3d1;}.cls-98{fill:#a8c7d4;}</style></defs><path class="cls-1" d="M946.86,487.43c16.76-4.61,32-1.35,45.82,8.95a44.51,44.51,0,0,1,9.93,10.06c-.28,2.73,1.51,4.56,2.89,6.56l.5,2,.5.5h0l.5.5v.5a2.67,2.67,0,0,0,1.49,3L1008,522l-1.5-2c.19-2.18-1.39-3.47-2.49-5,0-.16,0-.33,0-.49l-.5-1h0c.47-2.64-1.31-4-3-5.5-3.52-5.57-8.47-9.6-14-13-1.38-1.48-2.55-3.31-5-3h0l-.5-.5h-.5c-2.6-2.79-6.18-2.49-9.5-3-3.68-1.69-7.59-1.56-11.5-1.5-1.66.24-3.42-.54-5,.5h0l-1,.5H949Z" transform="translate(-907.48 -485.38)"/><path class="cls-2" d="M910.92,521.23l.18-.74.34-.58,0,.06a2.51,2.51,0,0,0,1-2.71.18.18,0,0,1,.11-.27l.41-.65a.25.25,0,0,1,.11-.32l.45,3h0l-.5,2h0a8.62,8.62,0,0,0-2,5c-.08,6.16-1.22,12.33,0,18.49.36,5.2,1,10.28,3.68,15,1.64,2.9,2.89,6,4.32,9l-2-1-.49-.5h0c0-.17,0-.33,0-.5l-.5-1-.5-.5a1,1,0,0,0-1-1V562.5l-.5-.5h0l-.5-1v-.5l-.5-1V559c-.35-1.08-.3-2.35-1.5-3h0l-.5-1v-1l-.5-1.5V551l-.5-.51V550c-.29-1,.73-2.47-1-3V545.5a18.64,18.64,0,0,0,.31-2.77,31.58,31.58,0,0,0-.48-3.61s-.48,0-.54,0c-.65,1.06,0,2.07.14,3.11s0,2.15.07,3.22l.07,2.52.42.49,0,4a51.9,51.9,0,0,1,0-24.56,8.63,8.63,0,0,0,1.54-5.52v0Z" transform="translate(-907.48 -485.38)"/><path class="cls-3" d="M1013.06,550.71c-1.94,9.69-5.64,18.53-12.5,25.84-.86-1.7-1.24.06-1.62.32-2.69,1.87-4.9,4.32-7.41,6.41-3.42,2.85-7.74,3.89-11,6.71h-1c-.84-.86-1.13,0-1.5.5h-1l-.51.49H976l-1.5-.5a3.75,3.75,0,0,1,1.93-.84c3.55-1.1,7.41-1.62,10.07-4.66,5.34-3.58,10.4-7.48,14.5-12.5,2.46-.24,2.79-2.07,3-4h0c.59-.12,1.27-.2.5-1h0c.41-.27,1-.44,1.2-.81,3.19-6.21,6.33-12.44,6.3-19.68a27.29,27.29,0,0,0,1-8.29,5.26,5.26,0,0,1,.26-1.13,6.33,6.33,0,0,1,.21,1.19C1013.36,542.76,1013.21,546.73,1013.06,550.71Z" transform="translate(-907.48 -485.38)"/><path class="cls-4" d="M979.5,590h1c0,.36,0,.72,0,1.08l0,0c-1.7,0-3.33.15-4.52,1.59l.06,0c-.61-.09-1.23-.21-1.57.52l.05,0c-2.44.09-4.89.11-7.09,1.41a48.11,48.11,0,0,1-25-2.84c-.27-.71-.89-.64-1.47-.64h0l-1-.47,0,0-1.46-.57h0c0-.16,0-.32,0-.48l1-.5c1.39.09,2.41,1.7,4,1,6.89,2.89,14.12,3.64,21.5,3.49l2-.49h1l1.5-.5H971l1-.49h.5l1-.5h1l1.5-.5h.49l.51-.49h1Z" transform="translate(-907.48 -485.38)"/><path class="cls-5" d="M933.34,587.06a46,46,0,0,1-16.38-16,1.39,1.39,0,0,0-1-1.57l0,0-.58-1,0,.06c-.14-.2-.27-.41-.41-.62v0l-.55-1v0c.37-.84-.83-1.7,0-2.54h0l.5.5h0a.94.94,0,0,0,1,1v.5l.51.5h0a2.9,2.9,0,0,0,1,2.5c1.4,1.12,1.73,3.19,3.5,4h0c.39,2.1,2.6,2.79,3.5,4.5,2.79,3.39,6.62,5.56,10,8.31.22.18,1.26,1.82,2,.18h.5l.5.5h0l.5,1.5-2-.5-1.07,0,0,.05A1.36,1.36,0,0,0,933.34,587.06Z" transform="translate(-907.48 -485.38)"/><path class="cls-6" d="M1006,515l-.5-2c0-.85.46-.74,1-.5h0c0,1.25.28,2.39,1.6,3l0,0,.49,1.06,0,0,.48,1h0c0,.6-.08,1.23.68,1.46l.77,2.06c-1.11.22-.79.78-.62,1.63.79,3.85,2.5,7.48,2.21,11.6s-.06,8.18-.06,12.27c-.86,1.06-.24,3-2,3.5v-1.5c.77-6.33,2-12.67,0-19-.6-2.52,0-5.35-2-7.5h0c.17-.83.33-1.66.49-2.5.13-1.31-.72-2.13-1.49-3V516l-.5-.5h0Z" transform="translate(-907.48 -485.38)"/><path class="cls-7" d="M1012,546.5c0-4.09-.22-8.2.06-12.27s-1.42-7.75-2.21-11.6c-.17-.85-.49-1.41.62-1.63a.32.32,0,0,1,.08.37c.16.38.31.75.46,1.13v0a4.52,4.52,0,0,0,1,3.5l0,0c.13.34.26.69.38,1a53.52,53.52,0,0,1,.64,23.72c.15-4,.3-8,.42-11.93a6.33,6.33,0,0,0-.21-1.19,5.26,5.26,0,0,0-.26,1.13,27.29,27.29,0,0,1-1,8.29Z" transform="translate(-907.48 -485.38)"/><path class="cls-8" d="M980.53,591.07c0-.36,0-.72,0-1.08,3.3-2.82,7.62-3.86,11-6.71,2.51-2.09,4.72-4.54,7.41-6.41.38-.26.76-2,1.62-.32v0l-.49.59,0,0a2.13,2.13,0,0,0-1.67,1.84l-.05.05a4.49,4.49,0,0,0-2.85,2.71A42.47,42.47,0,0,1,980.53,591.07Z" transform="translate(-907.48 -485.38)"/><path class="cls-9" d="M921.88,502.93a41.57,41.57,0,0,1,9.6-8.44c1.69,1.63-.93,1.57-1,2.51h0l-.5.5c-3.29,3.43-7.15,6.39-9,11h-2a7.3,7.3,0,0,0,1.37-2.2C920.64,505,923.52,505,921.88,502.93Z" transform="translate(-907.48 -485.38)"/><path class="cls-10" d="M921.88,502.93c1.64,2-1.24,2.11-1.5,3.38a7.3,7.3,0,0,1-1.37,2.2q-2,4.49-4,9l-1.5,1.5-.45-3A44.35,44.35,0,0,1,921.88,502.93Z" transform="translate(-907.48 -485.38)"/><path class="cls-11" d="M930.5,497c0-.94,2.67-.88,1-2.51,4.74-3.2,9.71-5.89,15.38-7.06L949,488h0l-2,.5a42.78,42.78,0,0,0-15.5,8.5Z" transform="translate(-907.48 -485.38)"/><path class="cls-12" d="M914.5,564.5c-.86.84.34,1.7,0,2.54-.83-1.67-1.66-3.33-2.48-5,0-1,.16-2-1-2.54l-.11-.1.05-.14a13,13,0,0,0-2-6.75v0c0-1.35,0-2.69,0-4l-.42-.49c0-.84-.05-1.68-.07-2.52h.5V547l1,3v.49l.5.51v1.5l.5,1.5v1c.17.34.34.67.5,1h0a3.21,3.21,0,0,0,1.5,3v.5l.5,1v.5l.5,1h0l.5.5v2Z" transform="translate(-907.48 -485.38)"/><path class="cls-13" d="M1006.5,512.5c-.54-.24-1-.35-1,.5-1.38-2-3.17-3.83-2.89-6.56A21.28,21.28,0,0,1,1006.5,512.5Z" transform="translate(-907.48 -485.38)"/><path class="cls-8" d="M967.5,594.49c2.2-1.3,4.65-1.32,7.09-1.41A19.11,19.11,0,0,1,967.5,594.49Z" transform="translate(-907.48 -485.38)"/><path class="cls-14" d="M909,552.51a13,13,0,0,1,2,6.75Q910,555.89,909,552.51Z" transform="translate(-907.48 -485.38)"/><path class="cls-10" d="M910.48,522.47a8.63,8.63,0,0,1-1.54,5.52Z" transform="translate(-907.48 -485.38)"/><path class="cls-8" d="M976.05,592.64c1.19-1.44,2.82-1.61,4.52-1.59Z" transform="translate(-907.48 -485.38)"/><path class="cls-15" d="M936,588l2,.5,1.5.5-1,.5h-1l-1.56-.88Z" transform="translate(-907.48 -485.38)"/><path class="cls-3" d="M995.56,581.67a4.49,4.49,0,0,1,2.85-2.71Z" transform="translate(-907.48 -485.38)"/><path class="cls-13" d="M1008.1,515.46c-1.32-.57-1.55-1.71-1.6-3Z" transform="translate(-907.48 -485.38)"/><path class="cls-6" d="M1012.06,526a4.52,4.52,0,0,1-1-3.5Z" transform="translate(-907.48 -485.38)"/><path class="cls-10" d="M912.42,517.26a2.51,2.51,0,0,1-1,2.71Z" transform="translate(-907.48 -485.38)"/><path class="cls-3" d="M998.46,578.91a2.13,2.13,0,0,1,1.67-1.84Z" transform="translate(-907.48 -485.38)"/><path class="cls-14" d="M911,559.5c1.15.52,1,1.56,1,2.54Z" transform="translate(-907.48 -485.38)"/><path class="cls-16" d="M933.34,587.06a1.36,1.36,0,0,1,1.62,1Z" transform="translate(-907.48 -485.38)"/><path class="cls-14" d="M915.93,569.53a1.39,1.39,0,0,1,1,1.57Z" transform="translate(-907.48 -485.38)"/><path class="cls-13" d="M1009.7,518.94c-.76-.23-.69-.86-.68-1.46C1009.24,518,1009.47,518.45,1009.7,518.94Z" transform="translate(-907.48 -485.38)"/><path class="cls-16" d="M938.52,590l1.46.57Z" transform="translate(-907.48 -485.38)"/><path class="cls-16" d="M941,591c.58,0,1.2-.07,1.47.64Z" transform="translate(-907.48 -485.38)"/><path class="cls-8" d="M974.54,593.12c.34-.73,1-.61,1.57-.52Z" transform="translate(-907.48 -485.38)"/><path class="cls-6" d="M1012.42,527c-.12-.35-.25-.7-.38-1C1012.17,526.29,1012.3,526.64,1012.42,527Z" transform="translate(-907.48 -485.38)"/><path class="cls-14" d="M914.46,567l.55,1Z" transform="translate(-907.48 -485.38)"/><path class="cls-16" d="M936,588l0,.61-1-.56Z" transform="translate(-907.48 -485.38)"/><path class="cls-14" d="M915.38,568.55l.58,1Z" transform="translate(-907.48 -485.38)"/><path class="cls-16" d="M937.52,589.49h1c0,.16,0,.32,0,.48Z" transform="translate(-907.48 -485.38)"/><path class="cls-16" d="M940,590.54l1,.47Z" transform="translate(-907.48 -485.38)"/><path class="cls-13" d="M1008.56,516.48l-.49-1.06C1008.24,515.77,1008.4,516.13,1008.56,516.48Z" transform="translate(-907.48 -485.38)"/><path class="cls-13" d="M1009,517.49l-.48-1Z" transform="translate(-907.48 -485.38)"/><path class="cls-10" d="M910.92,521.23l-.45,1.26Z" transform="translate(-907.48 -485.38)"/><path class="cls-6" d="M1011,522.5c-.15-.38-.3-.75-.46-1.13C1010.71,521.75,1010.86,522.12,1011,522.5Z" transform="translate(-907.48 -485.38)"/><path class="cls-14" d="M915,568c.14.21.27.42.41.62C915.29,568.41,915.16,568.2,915,568Z" transform="translate(-907.48 -485.38)"/><path class="cls-10" d="M911.44,519.91l-.34.58Z" transform="translate(-907.48 -485.38)"/><path class="cls-3" d="M1000.08,577.12l.49-.59Z" transform="translate(-907.48 -485.38)"/><path class="cls-10" d="M912.94,516.34l-.41.65Z" transform="translate(-907.48 -485.38)"/><path class="cls-17" d="M1004,515c1.1,1.54,2.68,2.83,2.49,5,.11.9.18,1.8.33,2.7,1.62,9.78,1.89,19.56-.33,29.3-1.65,3-3.63,5.93-4,9.5l-1,.5,1-4.5c1.66-4.58,3.54-9.1,3.78-14.07.44-9,.76-17.89-2.78-26.43Z" transform="translate(-907.48 -485.38)"/><path class="cls-18" d="M1004,515l-.51,2a34.43,34.43,0,0,0-10-14.5c-1.8-2.51-4.49-3.89-7-5.5-.21-1.79-2.19-1.82-3-3l3,1c5.53,3.4,10.48,7.43,14,13a8.62,8.62,0,0,0,3,5.5h0l.5,1C1004,514.66,1004,514.83,1004,515Z" transform="translate(-907.48 -485.38)"/><path class="cls-19" d="M1006.5,552c2.22-9.74,2-19.52.33-29.3-.15-.9-.22-1.8-.33-2.7l1.5,2h0a16.6,16.6,0,0,0,1.5,8.5V534c-.1,3.5.33,7-.5,10.5-1,1.7-1,3.6-1,5.5v.5l-1.5,2.5Z" transform="translate(-907.48 -485.38)"/><path class="cls-20" d="M931.5,497a42.78,42.78,0,0,1,15.5-8.5l2-.5h3.5c-1.51,1.06-3.84.06-5,2-4.84.88-8.44,4.12-12.5,6.5l-4.5,2.5Z" transform="translate(-907.48 -485.38)"/><path class="cls-21" d="M947.5,490c1.16-1.94,3.49-.94,5-2h1l1-.5h0c1.66-.24,3.42.53,5-.5,3.91-.06,7.82-.19,11.5,1.5v.5a33,33,0,0,0-9.5-1C956.71,487.92,952.12,489.06,947.5,490Z" transform="translate(-907.48 -485.38)"/><path class="cls-22" d="M971,489v-.5c3.32.51,6.9.21,9.5,3l-.5.5C977.29,490.11,973.88,490.37,971,489Z" transform="translate(-907.48 -485.38)"/><path class="cls-17" d="M1003.5,513.5a8.62,8.62,0,0,1-3-5.5C1002.19,509.46,1004,510.86,1003.5,513.5Z" transform="translate(-907.48 -485.38)"/><path class="cls-22" d="M986.5,495l-3-1h0l-1-.5h0l-1-1.5C984,491.69,985.12,493.52,986.5,495Z" transform="translate(-907.48 -485.38)"/><path class="cls-13" d="M1007,516.5c.77.87,1.62,1.69,1.49,3A2.67,2.67,0,0,1,1007,516.5Z" transform="translate(-907.48 -485.38)"/><path class="cls-20" d="M959.5,487c-1.58,1-3.34.26-5,.5C956.08,486.46,957.84,487.24,959.5,487Z" transform="translate(-907.48 -485.38)"/><path class="cls-18" d="M981.5,492l1,1.5L980,492l.5-.5h.5c.16.17.33.34.5.5Z" transform="translate(-907.48 -485.38)"/><path class="cls-20" d="M954.5,487.5l-1,.5Z" transform="translate(-907.48 -485.38)"/><path class="cls-17" d="M1004,514.5l-.5-1Z" transform="translate(-907.48 -485.38)"/><path class="cls-13" d="M1006.5,515.5l.5.5Z" transform="translate(-907.48 -485.38)"/><path class="cls-13" d="M1006,515l.5.5Z" transform="translate(-907.48 -485.38)"/><path class="cls-22" d="M981.5,492c-.17-.16-.34-.33-.5-.5C981.16,491.67,981.33,491.84,981.5,492Z" transform="translate(-907.48 -485.38)"/><path class="cls-23" d="M919,568.5c-1.43-3-2.68-6.14-4.32-9-2.65-4.68-3.32-9.76-3.68-15,1.57,1.89.18,4.69,2,6.5,1.61,6.58,5.44,12.1,8.5,18,.83,3.36,4.33,4.88,5.5,8-.67-.59-1.31-1.21-2-1.75-1.37-1-1.5-3.6-4-3.26C921.25,570.3,919.57,569.72,919,568.5Z" transform="translate(-907.48 -485.38)"/><path class="cls-24" d="M913,551c-1.82-1.81-.43-4.61-2-6.5-1.21-6.16-.07-12.33,0-18.49,1.64-1.29,1.88-3.12,2-5h0l.5-2h0l1.5-1.5c.41,3.55-2.64,6.4-2,10-1.1.92-.86,2.2-1,3.42C911.06,537.69,912.82,544.3,913,551Z" transform="translate(-907.48 -485.38)"/><path class="cls-25" d="M919,568.5c.57,1.22,2.25,1.8,2,3.49,0,.5,0,1,0,1.51-1.77-.81-2.1-2.88-3.5-4l-.5-2Z" transform="translate(-907.48 -485.38)"/><path class="cls-14" d="M909,545.5h-.5c0-1.07,0-2.16-.07-3.22s-.79-2-.14-3.11c.06-.1.54-.07.54,0a31.58,31.58,0,0,1,.48,3.61A18.64,18.64,0,0,1,909,545.5Z" transform="translate(-907.48 -485.38)"/><path class="cls-10" d="M913,521c-.11,1.89-.35,3.72-2,5A8.62,8.62,0,0,1,913,521Z" transform="translate(-907.48 -485.38)"/><path class="cls-14" d="M913,559a3.21,3.21,0,0,1-1.5-3C912.7,556.65,912.65,557.92,913,559Z" transform="translate(-907.48 -485.38)"/><path class="cls-14" d="M910,550l-1-3C910.73,547.53,909.71,549,910,550Z" transform="translate(-907.48 -485.38)"/><path class="cls-12" d="M917,567.5l.5,2a2.9,2.9,0,0,1-1-2.5Z" transform="translate(-907.48 -485.38)"/><path class="cls-10" d="M913.5,519l-.5,2Z" transform="translate(-907.48 -485.38)"/><path class="cls-14" d="M911,554l-.5-1.5Z" transform="translate(-907.48 -485.38)"/><path class="cls-14" d="M914.5,564.5V564a1,1,0,0,1,1,1H915l-.5-.5Z" transform="translate(-907.48 -485.38)"/><path class="cls-14" d="M911.5,556c-.16-.34-.33-.67-.5-1C911.17,555.33,911.34,555.66,911.5,556Z" transform="translate(-907.48 -485.38)"/><path class="cls-14" d="M913.5,560.5l-.5-1Z" transform="translate(-907.48 -485.38)"/><path class="cls-14" d="M914,562l-.5-1Z" transform="translate(-907.48 -485.38)"/><path class="cls-14" d="M916,566.5v-1h0l.5,1Z" transform="translate(-907.48 -485.38)"/><path class="cls-12" d="M916,566.5h.5c0,.17,0,.33,0,.5Z" transform="translate(-907.48 -485.38)"/><path class="cls-14" d="M908.58,548l.42.49Z" transform="translate(-907.48 -485.38)"/><path class="cls-14" d="M910.5,551l-.5-.51Z" transform="translate(-907.48 -485.38)"/><path class="cls-14" d="M914.5,562.5l-.5-.5Z" transform="translate(-907.48 -485.38)"/><path class="cls-14" d="M915.5,565l.5.5h0l-.5-.5Z" transform="translate(-907.48 -485.38)"/><path class="cls-26" d="M1001,572.5c-4.1,5-9.16,8.92-14.5,12.5-2.32.72-4.28,2.68-7,2,1-1.32,3.19-.82,4-2.5,5.33-3,10.59-6.11,14.5-11l.5-.5c2.45-1.44,3.44-4.21,5.5-6l.5.5h0l-.5,1h0C1002.47,569.43,1001.84,571.05,1001,572.5Z" transform="translate(-907.48 -485.38)"/><path class="cls-27" d="M1004.5,567.5l-.5-.5a10.13,10.13,0,0,1,1.48-3.33A30.94,30.94,0,0,0,1010,550c1.76-.54,1.14-2.44,2-3.5V547c0,7.24-3.11,13.47-6.3,19.68C1005.51,567.06,1004.91,567.23,1004.5,567.5Z" transform="translate(-907.48 -485.38)"/><path class="cls-28" d="M979.5,587c2.72.68,4.68-1.28,7-2-2.66,3-6.52,3.56-10.07,4.66a3.75,3.75,0,0,0-1.93.84H971c1.36-2,4-.27,5.5-2l3-1.5Z" transform="translate(-907.48 -485.38)"/><path class="cls-27" d="M1001,572.5c.84-1.45,1.47-3.07,3-4C1003.79,570.43,1003.46,572.26,1001,572.5Z" transform="translate(-907.48 -485.38)"/><path class="cls-8" d="M976,591l-1.5.5v-1h0Z" transform="translate(-907.48 -485.38)"/><path class="cls-8" d="M979.5,590l-1.5.5C978.37,590,978.66,589.14,979.5,590Z" transform="translate(-907.48 -485.38)"/><path class="cls-27" d="M1004,568.5l.5-1C1005.27,568.3,1004.59,568.38,1004,568.5Z" transform="translate(-907.48 -485.38)"/><path class="cls-8" d="M977,590.5l-.51.49Z" transform="translate(-907.48 -485.38)"/><path class="cls-29" d="M968,593h-1l-2,.49c-7.38.15-14.61-.6-21.5-3.49l-.5-1a60.77,60.77,0,0,0,25,3.5Z" transform="translate(-907.48 -485.38)"/><path class="cls-16" d="M943,589l.5,1c-1.59.7-2.61-.91-4-1l-1.5-.5c-.16-.5-.33-1-.5-1.5C939.6,586.94,940.71,589.59,943,589Z" transform="translate(-907.48 -485.38)"/><path class="cls-3" d="M974.5,590.5v1h-1l-1,.5H972l-1,.49H968.5c.64-.81,2.13-.22,2.5-1.49v-.5h3.5Z" transform="translate(-907.48 -485.38)"/><path class="cls-8" d="M965,593.49l2-.49Z" transform="translate(-907.48 -485.38)"/><path class="cls-8" d="M968.5,592.49h1l-1.5.5v-.5Z" transform="translate(-907.48 -485.38)"/><path class="cls-8" d="M972.5,592l1-.5Z" transform="translate(-907.48 -485.38)"/><path class="cls-8" d="M971,592.49l1-.49Z" transform="translate(-907.48 -485.38)"/><path class="cls-30" d="M968.5,592.49H968a60.77,60.77,0,0,1-25-3.5c-2.29.59-3.4-2.06-5.5-2h0l-.5-.5h-.5l-10.49-8a9.91,9.91,0,0,0-5-5h0c0-.5,0-1,0-1.51,2.48-.34,2.61,2.22,4,3.26.7.54,1.34,1.16,2,1.75,7.31,6.74,15.59,11.65,25.5,13.5,6.13,1.53,12.29,2.06,18.5.5C970.63,592.27,969.14,591.68,968.5,592.49Z" transform="translate(-907.48 -485.38)"/><path class="cls-16" d="M926,578.49l10.49,8c-.79,1.64-1.83,0-2-.18-3.33-2.75-7.16-4.92-10-8.31Z" transform="translate(-907.48 -485.38)"/><path class="cls-25" d="M926,578.49,924.5,578c-.9-1.71-3.11-2.4-3.5-4.5A9.91,9.91,0,0,1,926,578.49Z" transform="translate(-907.48 -485.38)"/><path class="cls-12" d="M915.5,565l.5.5v.5a.94.94,0,0,1-1-1Z" transform="translate(-907.48 -485.38)"/><path class="cls-16" d="M937,586.5l.5.5Z" transform="translate(-907.48 -485.38)"/><path class="cls-12" d="M914.5,564.5l.5.5Z" transform="translate(-907.48 -485.38)"/><path class="cls-31" d="M1010,550a30.94,30.94,0,0,1-4.52,13.67A10.13,10.13,0,0,0,1004,567c-2.06,1.79-3,4.56-5.5,6,.44-2.85,3.54-4.17,4-7,2.22-4.91,5.33-9.47,6-15,1.27-.37.67-1.86,1.5-2.5Z" transform="translate(-907.48 -485.38)"/><path class="cls-32" d="M1010,548.5c-.83.64-.23,2.13-1.5,2.5l-.5-.5V550c1.57-1.61,1.45-3.52,1-5.5.83-3.47.4-7,.5-10.5.48-.33.49-.67,0-1v-2.5l.5-1C1012.05,535.83,1010.77,542.17,1010,548.5Z" transform="translate(-907.48 -485.38)"/><path class="cls-1" d="M1010,529.5l-.5,1a16.6,16.6,0,0,1-1.5-8.5C1010,524.15,1009.4,527,1010,529.5Z" transform="translate(-907.48 -485.38)"/><path class="cls-33" d="M913,527.5c-.64-3.6,2.41-6.45,2-10q2-4.5,4-9h2l-3,6.5h0a2.93,2.93,0,0,0-1,2.5c-2,2.87-1.19,6.46-2.5,9.5l-1.5,2.5Z" transform="translate(-907.48 -485.38)"/><path class="cls-34" d="M918,515l3-6.5c1.85-4.61,5.71-7.57,9-11l.5-.5h1l-1,2c-4.73,3.94-7.75,9.13-10.5,14.5C918.9,513.42,918.66,514.5,918,515Z" transform="translate(-907.48 -485.38)"/><path class="cls-11" d="M930.5,497l-.5.5Z" transform="translate(-907.48 -485.38)"/><path class="cls-1" d="M949,488l-2,.5Z" transform="translate(-907.48 -485.38)"/><path class="cls-35" d="M993.5,502.5a34.43,34.43,0,0,1,10,14.5c3.54,8.54,3.22,17.47,2.78,26.43-.24,5-2.12,9.49-3.78,14.07-2.31,1.35-2.42,4.16-4,6l-.5-.5,3-8.5a51.81,51.81,0,0,0,0-39l-.5-.5h0a11.06,11.06,0,0,0-.83-3.05C997.7,508.75,995.57,505.64,993.5,502.5Z" transform="translate(-907.48 -485.38)"/><path class="cls-36" d="M998.5,563.5c1.58-1.84,1.69-4.65,4-6-.33,1.5-.67,3-1,4.5-4.62,7.35-11.06,12.72-18.5,17h-2.5c.57-.45,1.11-.94,1.71-1.35C988.13,573.49,994.44,569.79,998.5,563.5Z" transform="translate(-907.48 -485.38)"/><path class="cls-37" d="M983,579c7.44-4.28,13.88-9.65,18.5-17l1-.5h0c-1.07,5.87-5.55,9.24-9.5,13l-.5.5h0c-1.13.48-2.27.94-3.38,1.46-3.16,1.46-5.37,4.64-9.12,5Z" transform="translate(-907.48 -485.38)"/><path class="cls-37" d="M1006.5,552v1a31.19,31.19,0,0,1-4,8.5h0C1002.87,557.93,1004.85,555,1006.5,552Z" transform="translate(-907.48 -485.38)"/><path class="cls-38" d="M980,492l2.5,1.5h0l1,.5h0c.81,1.18,2.79,1.21,3,3l-3-1.5a51.69,51.69,0,0,0-13.21-5,45.61,45.61,0,0,0-21.79,1c-7.67,1.91-13.68,6.54-19,12.08-3.78,4-5.8,9.21-8.55,13.92v-2h0a1.79,1.79,0,0,0,1-2h0a5.47,5.47,0,0,0,2-3.5h0c1.47-1.15,2-2.84,2.5-4.5,1.85-3.92,6-5.64,8.5-9,4.06-2.38,7.66-5.62,12.5-6.5,4.62-.94,9.21-2.08,14-2a33,33,0,0,1,9.5,1C973.88,490.37,977.29,490.11,980,492Z" transform="translate(-907.48 -485.38)"/><path class="cls-39" d="M983.5,495.5l3,1.5c2.51,1.61,5.2,3,7,5.5,2.07,3.14,4.2,6.25,6.17,9.45a11.06,11.06,0,0,1,.83,3.05l-1.5-.5-.5-.5c-1.11-3.89-3.76-6.73-6.5-9.5a8.09,8.09,0,0,0-1.48-2.16c-2.95-2.19-6-4.24-9-6.34Z" transform="translate(-907.48 -485.38)"/><path class="cls-40" d="M1002.5,561.5a31.19,31.19,0,0,0,4-8.5l1.5-2.5.5.5c-.67,5.53-3.78,10.09-6,15a36.31,36.31,0,0,1-2.91,3.27c-2.78,2.5-4.6,6.16-8.59,7.23l1.5-1.5h0l.5-.5C997,570.74,1001.43,567.37,1002.5,561.5Z" transform="translate(-907.48 -485.38)"/><path class="cls-40" d="M1009,544.5c.45,2,.57,3.89-1,5.5C1008,548.1,1008,546.2,1009,544.5Z" transform="translate(-907.48 -485.38)"/><path class="cls-1" d="M1009.5,533c.49.33.48.67,0,1Z" transform="translate(-907.48 -485.38)"/><path class="cls-41" d="M935,496.5c-2.46,3.36-6.65,5.08-8.5,9A7.1,7.1,0,0,0,924,510h0a4.53,4.53,0,0,0-2,3.5h0l-1,2h0c-3.55,5.87-4.31,12.44-4.33,19A65,65,0,0,0,921,559v.5h-.5A5.11,5.11,0,0,0,919,556c-1-3.82-2.22-7.6-3-11.46-2.25-10.78-.54-21.11,4-31,2.75-5.37,5.77-10.56,10.5-14.5Z" transform="translate(-907.48 -485.38)"/><path class="cls-18" d="M983.5,494l-1-.5Z" transform="translate(-907.48 -485.38)"/><path class="cls-42" d="M913,527.5v4l-.5,1c.17,3.56.23,7.13.52,10.68A41.19,41.19,0,0,0,920,563h0l1,2,1.5,2.5a8.36,8.36,0,0,0,2.42,3.68A72.71,72.71,0,0,0,941.5,584.5H940c-7.43-3.66-13.06-9.47-18.5-15.5-3.06-5.9-6.89-11.42-8.5-18-.18-6.7-1.94-13.31-1-20.08C912.14,529.7,911.9,528.42,913,527.5Z" transform="translate(-907.48 -485.38)"/><path class="cls-43" d="M921.5,569c5.44,6,11.07,11.84,18.5,15.5,3.31,2.33,7.18,3.1,11,4l3.5.5c.62,1.26,1.79.94,2.83,1a68.9,68.9,0,0,0,18.17-1.5h1c-1.45,1.73-4.14,0-5.5,2h0c-4.73-.09-9.45.76-14.21.08-1.36-.19-2.86-1.08-4.29-.08-9.91-1.85-18.19-6.76-25.5-13.5C925.83,573.88,922.33,572.36,921.5,569Z" transform="translate(-907.48 -485.38)"/><path class="cls-44" d="M991,576.5c4-1.07,5.81-4.73,8.59-7.23a36.31,36.31,0,0,0,2.91-3.27c-.46,2.83-3.56,4.15-4,7l-.5.5c-1.49-.19-2.11,1.06-3.06,1.8-4.77,3.7-9.11,8.12-15.44,9.2l2.5-2Z" transform="translate(-907.48 -485.38)"/><path class="cls-45" d="M979.5,584.5c6.33-1.08,10.67-5.5,15.44-9.2.95-.74,1.57-2,3.06-1.8-3.91,4.89-9.17,8-14.5,11-4.8,1.45-9.4,3.64-14.5,4h-2l5.5-1.5.5-.5h0c1.26,0,2.56.14,3.5-1l1.5-.5,1-.5Z" transform="translate(-907.48 -485.38)"/><path class="cls-46" d="M969,588.5c5.1-.36,9.7-2.55,14.5-4-.81,1.68-3,1.18-4,2.5h0a6.44,6.44,0,0,0-4,1.5,68.9,68.9,0,0,1-18.17,1.5c-1-.06-2.21.26-2.83-1,.89.1,1.78.28,2.67.29C961.13,589.33,965.17,590.38,969,588.5Z" transform="translate(-907.48 -485.38)"/><path class="cls-26" d="M975.5,588.5a6.44,6.44,0,0,1,4-1.5l-3,1.5Z" transform="translate(-907.48 -485.38)"/><path class="cls-28" d="M952.5,590.5c1.43-1,2.93-.11,4.29.08,4.76.68,9.48-.17,14.21-.08v.5C964.79,592.56,958.63,592,952.5,590.5Z" transform="translate(-907.48 -485.38)"/><path class="cls-47" d="M920,513.5c-4.56,9.93-6.27,20.26-4,31,.8,3.86,2,7.64,3,11.46l.5,2.5L917,555c-3.11-9.13-5-18.37-2.5-28,1.31-3,.54-6.63,2.5-9.5a2.93,2.93,0,0,0,1-2.5h0C918.66,514.5,918.9,513.42,920,513.5Z" transform="translate(-907.48 -485.38)"/><path class="cls-48" d="M914.5,527c-2.53,9.63-.61,18.87,2.5,28l3,8a41.19,41.19,0,0,1-7-19.82c-.29-3.55-.35-7.12-.52-10.68l.5-1v-2Z" transform="translate(-907.48 -485.38)"/><path class="cls-34" d="M918,515a2.93,2.93,0,0,1-1,2.5A2.93,2.93,0,0,1,918,515Z" transform="translate(-907.48 -485.38)"/><path class="cls-49" d="M1001,554.5l-3,8.5a42.93,42.93,0,0,1-13.5,11.5,2.11,2.11,0,0,0-.72.17c-7.45,4.52-15.66,5.4-24.15,5.43-4.62,0-8.72-2-13.13-2.6h0l-11-7h0a3,3,0,0,0-3-2h0l-.5-.5h0l-.5-.5a2.4,2.4,0,0,0-1.5-2h0a3.13,3.13,0,0,0-1.5-2.5h0c-2-5.32-6.88-8.77-9-14v-.5L919,547l-.5-1.5V530h.5v12.73a10.16,10.16,0,0,0,2.29,7,28.86,28.86,0,0,1,4.46,6.79,41.86,41.86,0,0,0,25.87,21.32c6.09,1.87,12.07,1.43,18.31.36A39.76,39.76,0,0,0,997,561l.5-.5h0C999.36,558.91,999.56,556.34,1001,554.5Z" transform="translate(-907.48 -485.38)"/><path class="cls-50" d="M984.5,574.5A42.93,42.93,0,0,0,998,563l.5.5c-4.06,6.29-10.37,10-16.29,14.15-.6.41-1.14.9-1.71,1.35l-6,1.5-.5.5a26.89,26.89,0,0,0-2.7.33c-11,2.61-21.36.45-31-5-5.9-3.33-10.49-8.22-14.36-13.73-3-4.31-7.51-8-6.9-14.07h.5v.5c.39,6.34,6.07,9.29,9,14h0a3.13,3.13,0,0,0,1.5,2.5h0a2.4,2.4,0,0,0,1.5,2l.5.5h0l.5.5h0a5.09,5.09,0,0,0,3,2h0c3.19,3.08,6.4,6.13,11,7h0a18.41,18.41,0,0,0,2.17,1.1,38.3,38.3,0,0,0,23.41,1.18C976.52,578.62,981.21,578.27,984.5,574.5Z" transform="translate(-907.48 -485.38)"/><path class="cls-51" d="M1001,554.5c-1.44,1.84-1.64,4.41-3.5,6,.25-2.39,2-4.45,1.5-7,3.1-6.37,3-13.34,3.41-20.13.38-6.48-1.2-12.77-3.41-18.87l1.5.5h0l.5.5A51.81,51.81,0,0,1,1001,554.5Z" transform="translate(-907.48 -485.38)"/><path class="cls-39" d="M1001,515.5l-.5-.5Z" transform="translate(-907.48 -485.38)"/><path class="cls-52" d="M919,548.5c-.61,6.11,3.88,9.76,6.9,14.07,3.87,5.51,8.46,10.4,14.36,13.73,9.68,5.48,20,7.64,31,5A26.89,26.89,0,0,1,974,581l.5-.5,6-1.5h1c-4.24,2.84-9.17,3.24-14,4a56,56,0,0,1-13,0h-1l-1.5-.5h0l-1.5-.5-1.5-.5a8.91,8.91,0,0,0-6-2.5h-.5l-1-.5-.5-.5h-.5l-.5-.5h0l-1-.5c-1.13-1.56-2.34-3-4.5-3L921,559a65,65,0,0,1-4.33-24.45c0-6.61.78-13.18,4.33-19v2c-1.1,4.11-2.69,8.13-2.5,12.5v2a22.85,22.85,0,0,0,0,10.5v3c.1.85-.3,1.79.5,2.5Z" transform="translate(-907.48 -485.38)"/><path class="cls-53" d="M942.5,579h.5c2,.88,3.74,2.29,6,2.5l1.5.5,1.5.5h0l1.5.5h1a20.71,20.71,0,0,0,13,0c4.83-.76,9.76-1.16,14-4H983l-3,2.5c-8.78,3-17.87,4.14-26.92,2.35a40.68,40.68,0,0,1-24.14-14.07c-2.75-3.33-6.58-5.87-7.94-10.28V559l13.5,15,4.5,3,1,.5h0l.5.5h.5l.5.5Z" transform="translate(-907.48 -485.38)"/><path class="cls-54" d="M921,559.5c1.36,4.41,5.19,7,7.94,10.28a40.68,40.68,0,0,0,24.14,14.07c9,1.79,18.14.7,26.92-2.35,3.75-.4,6-3.58,9.12-5,1.11-.52,2.25-1,3.38-1.46l-1.5,1.5-9,6c-5.77,1.44-11.31,3.75-17.36,4-8.35.39-16-2.07-23.64-5A57.82,57.82,0,0,1,921.5,563l-.5-1h0l-.5-1h0v-1.5h.5Z" transform="translate(-907.48 -485.38)"/><path class="cls-54" d="M993,574.5l-.5.5Z" transform="translate(-907.48 -485.38)"/><path class="cls-55" d="M983.5,495.5l-2,.5h0a4,4,0,0,0-4-2,43.91,43.91,0,0,0-18.14-3c-10.26.58-18.83,5.21-26.36,12-2.25,2.38-4.82,4.54-5.5,8h0l-.5,1h0c-1.21,2.22-2.32,4.5-3.64,6.66-2.06,3.35-2,7.43-3.86,10.84,1.71-13.28,7.94-23.88,18.52-32.1,3.25-2.52,7.5-3,10.48-5.9a45.61,45.61,0,0,1,21.79-1A51.69,51.69,0,0,1,983.5,495.5Z" transform="translate(-907.48 -485.38)"/><path class="cls-56" d="M948.5,491.5c-3,2.85-7.23,3.38-10.48,5.9-10.58,8.22-16.81,18.82-18.52,32.1l-.5.5h-.5c-.19-4.37,1.4-8.39,2.5-12.5,2.75-4.71,4.77-9.95,8.55-13.92C934.82,498,940.83,493.41,948.5,491.5Z" transform="translate(-907.48 -485.38)"/><path class="cls-52" d="M924,510a7.1,7.1,0,0,1,2.5-4.5C926,507.16,925.47,508.85,924,510Z" transform="translate(-907.48 -485.38)"/><path class="cls-52" d="M922,513.5a4.53,4.53,0,0,1,2-3.5A5.47,5.47,0,0,1,922,513.5Z" transform="translate(-907.48 -485.38)"/><path class="cls-52" d="M921,515.5l1-2A1.79,1.79,0,0,1,921,515.5Z" transform="translate(-907.48 -485.38)"/><path class="cls-57" d="M933,503c7.53-6.77,16.1-11.4,26.36-12a43.91,43.91,0,0,1,18.14,3l4,2h0c3,2.1,6.07,4.15,9,6.34A8.09,8.09,0,0,1,992,504.5c-6.9-5.56-14.26-10.21-23.17-11.8-8-1.42-15.75-1.48-22.83,3.3h0a15.51,15.51,0,0,0-9,5.5c-5.57,4.44-8.74,10.42-11,17a16.22,16.22,0,0,0-2,9.5h0c-1,2.27-.25,4.67-.5,7v.5c-.49.33-.49.67,0,1v.5c-.41,24.69,26,46.19,51,37,3.9-.8,7.72-1.75,10-5.5l.5-.5c6.18-1.82,8.87-7.13,12-12l.5-.5V555l.5-.5V554h.5a7.19,7.19,0,0,1-1.44,4.41,41.66,41.66,0,0,1-25.47,17.88c-10.74,2.64-20.36.79-30-4.57-12.1-6.75-15.63-19.21-21.39-30.17-1.68-3.21-.57-7.22.3-10.71A130.06,130.06,0,0,1,927,512h0l.5-1h0Z" transform="translate(-907.48 -485.38)"/><path class="cls-58" d="M998.5,554H998l1.5-9a137.16,137.16,0,0,0,.68-13.78A65,65,0,0,0,997.5,515l1-1,.5.5c2.21,6.1,3.79,12.39,3.41,18.87-.41,6.79-.31,13.76-3.41,20.13Z" transform="translate(-907.48 -485.38)"/><path class="cls-59" d="M998.5,514l-1,1c-3.12-9.47-19.57-21.26-30-21.5-3.31-.26-6.62-.64-9.94-.74-4.16-.12-7.68,2.26-11.56,3.24,7.08-4.78,14.86-4.72,22.83-3.3,8.91,1.59,16.27,6.24,23.17,11.8C994.74,507.27,997.39,510.11,998.5,514Z" transform="translate(-907.48 -485.38)"/><path class="cls-54" d="M919.5,558.5,919,556a5.11,5.11,0,0,1,1.5,3.5h0l-1-1Z" transform="translate(-907.48 -485.38)"/><path class="cls-60" d="M972.5,587l-5.5,1.5h-7.5c-3.68.74-6.93-1.46-10.5-1.5h0l-7.5-2.5h0a72.71,72.71,0,0,1-16.58-13.32,8.36,8.36,0,0,1-2.42-3.68c3,2.87,5.74,5.93,8.9,8.55,2.67,2.21,4.85,5.26,8.6,6,9.6,5.13,19.68,7.33,30.5,5Z" transform="translate(-907.48 -485.38)"/><path class="cls-61" d="M940,582c-3.75-.69-5.93-3.74-8.6-6-3.16-2.62-5.95-5.68-8.9-8.55L921,565a1.79,1.79,0,0,0-1-2h0l-3-8,2.5,3.5h0a2.93,2.93,0,0,0,1,2.5h0l.5,1h0l.5,1A57.82,57.82,0,0,0,941,581.5Z" transform="translate(-907.48 -485.38)"/><path class="cls-46" d="M951,588.5c-3.82-.9-7.69-1.67-11-4h1.5A14.91,14.91,0,0,0,949,587h0Z" transform="translate(-907.48 -485.38)"/><path class="cls-48" d="M920,563a1.79,1.79,0,0,1,1,2Z" transform="translate(-907.48 -485.38)"/><path class="cls-33" d="M913,531.5l-.5,1Z" transform="translate(-907.48 -485.38)"/><path class="cls-42" d="M951,588.5l-2-1.5c3.57,0,6.82,2.24,10.5,1.5a11.88,11.88,0,0,0,7.5,0h2c-3.83,1.88-7.87.83-11.83.79-.89,0-1.78-.19-2.67-.29Z" transform="translate(-907.48 -485.38)"/><path class="cls-62" d="M940,582l1-.5c7.6,3,15.29,5.42,23.64,5,6.05-.28,11.59-2.59,17.36-4l-2.5,2H979l-1,.5-1.5.5-3.5,1h0c-.85.11-1.79-.3-2.5.5C959.68,589.33,949.6,587.13,940,582Z" transform="translate(-907.48 -485.38)"/><path class="cls-44" d="M973,586.5l3.5-1C975.56,586.64,974.26,586.51,973,586.5Z" transform="translate(-907.48 -485.38)"/><path class="cls-44" d="M970.5,587c.71-.8,1.65-.39,2.5-.5l-.5.5Z" transform="translate(-907.48 -485.38)"/><path class="cls-44" d="M976.5,585.5l1.5-.5Z" transform="translate(-907.48 -485.38)"/><path class="cls-44" d="M978,585l1-.5Z" transform="translate(-907.48 -485.38)"/><path class="cls-63" d="M998.5,554l.5-.5c.49,2.55-1.25,4.61-1.5,7h0l-.5.5a39.76,39.76,0,0,1-27.07,17.17c-6.24,1.07-12.22,1.51-18.31-.36a41.86,41.86,0,0,1-25.87-21.32,28.86,28.86,0,0,0-4.46-6.79,10.16,10.16,0,0,1-2.29-7V530l.5-.5c1.85-3.41,1.8-7.49,3.86-10.84,1.32-2.16,2.43-4.44,3.64-6.66a130.06,130.06,0,0,0-6.46,18.84c-.87,3.49-2,7.5-.3,10.71,5.76,11,9.29,23.42,21.39,30.17,9.6,5.36,19.22,7.21,30,4.57a41.66,41.66,0,0,0,25.47-17.88A7.19,7.19,0,0,0,998.5,554Z" transform="translate(-907.48 -485.38)"/><path class="cls-64" d="M984.5,574.5c-3.29,3.77-8,4.12-12.42,5.28a38.3,38.3,0,0,1-23.41-1.18,18.41,18.41,0,0,1-2.17-1.1c4.41.65,8.51,2.62,13.13,2.6,8.49,0,16.7-.91,24.15-5.43A2.11,2.11,0,0,1,984.5,574.5Z" transform="translate(-907.48 -485.38)"/><path class="cls-64" d="M928.5,563c-2.93-4.71-8.61-7.66-9-14C921.62,554.23,926.52,557.68,928.5,563Z" transform="translate(-907.48 -485.38)"/><path class="cls-64" d="M946.5,577.5c-4.6-.87-7.81-3.92-11-7Z" transform="translate(-907.48 -485.38)"/><path class="cls-56" d="M918.5,542.5a22.85,22.85,0,0,1,0-10.5Z" transform="translate(-907.48 -485.38)"/><path class="cls-64" d="M935.5,570.5a5.09,5.09,0,0,1-3-2A3,3,0,0,1,935.5,570.5Z" transform="translate(-907.48 -485.38)"/><path class="cls-64" d="M930,565.5a3.13,3.13,0,0,1-1.5-2.5A3.13,3.13,0,0,1,930,565.5Z" transform="translate(-907.48 -485.38)"/><path class="cls-64" d="M931.5,567.5a2.4,2.4,0,0,1-1.5-2A2.4,2.4,0,0,1,931.5,567.5Z" transform="translate(-907.48 -485.38)"/><path class="cls-56" d="M919,548c-.8-.71-.4-1.65-.5-2.5l.5,1.5Z" transform="translate(-907.48 -485.38)"/><path class="cls-64" d="M919,548v-1l.5,1.5H919Z" transform="translate(-907.48 -485.38)"/><path class="cls-64" d="M932,568l-.5-.5Z" transform="translate(-907.48 -485.38)"/><path class="cls-64" d="M932.5,568.5l-.5-.5Z" transform="translate(-907.48 -485.38)"/><path class="cls-51" d="M997,561l.5-.5Z" transform="translate(-907.48 -485.38)"/><path class="cls-36" d="M974.5,580.5l-.5.5Z" transform="translate(-907.48 -485.38)"/><path class="cls-65" d="M967.5,583a20.71,20.71,0,0,1-13,0A56,56,0,0,0,967.5,583Z" transform="translate(-907.48 -485.38)"/><path class="cls-65" d="M949,581.5c-2.26-.21-4-1.62-6-2.5A8.91,8.91,0,0,1,949,581.5Z" transform="translate(-907.48 -485.38)"/><path class="cls-65" d="M939,577l-4.5-3C936.66,574,937.87,575.44,939,577Z" transform="translate(-907.48 -485.38)"/><path class="cls-65" d="M952,582.5l-1.5-.5Z" transform="translate(-907.48 -485.38)"/><path class="cls-65" d="M953.5,583l-1.5-.5Z" transform="translate(-907.48 -485.38)"/><path class="cls-65" d="M950.5,582l-1.5-.5Z" transform="translate(-907.48 -485.38)"/><path class="cls-65" d="M940,577.5l-1-.5Z" transform="translate(-907.48 -485.38)"/><path class="cls-65" d="M942.5,579l-1-.5Z" transform="translate(-907.48 -485.38)"/><path class="cls-65" d="M940.5,578l-.5-.5Z" transform="translate(-907.48 -485.38)"/><path class="cls-65" d="M941.5,578.5l-.5-.5Z" transform="translate(-907.48 -485.38)"/><path class="cls-47" d="M920.5,561a2.93,2.93,0,0,1-1-2.5l1,1Z" transform="translate(-907.48 -485.38)"/><path class="cls-47" d="M921,562l-.5-1Z" transform="translate(-907.48 -485.38)"/><path class="cls-47" d="M921.5,563l-.5-1Z" transform="translate(-907.48 -485.38)"/><path class="cls-63" d="M933,503l-5.5,8C928.18,507.54,930.75,505.38,933,503Z" transform="translate(-907.48 -485.38)"/><path class="cls-39" d="M981.5,496l-4-2A4,4,0,0,1,981.5,496Z" transform="translate(-907.48 -485.38)"/><path class="cls-63" d="M927.5,511l-.5,1Z" transform="translate(-907.48 -485.38)"/><path class="cls-66" d="M974.5,574c-25,9.19-51.41-12.31-51-37l1.5,4c2.4,12.5,8.88,22.12,20,28.5,6.28,5.59,14.06,5,21.53,4.76,3.84-.12,7.65-1.79,11.47-2.76C977.43,573.16,975.42,572.82,974.5,574Z" transform="translate(-907.48 -485.38)"/><path class="cls-67" d="M925,541l-1.5-4v-2c1-2.27.25-4.67.5-7h0c.46-3.21,2.12-6.17,2-9.5,2.26-6.58,5.43-12.56,11-17l9-5.5h0c3.88-1,7.4-3.36,11.56-3.24,3.32.1,6.63.48,9.94.74h-10c-.85.11-1.79-.3-2.5.5h-1l-.5.5h-1l-.5.5h-1l-.5.5A22.67,22.67,0,0,0,943,499a6,6,0,0,0-3.5,2.5h0l-1,.5h0l-.5.5h0a2.1,2.1,0,0,0-2,2h0l-2.5,2.5A42.23,42.23,0,0,0,927,519.4C924.78,526.5,924.78,533.72,925,541Z" transform="translate(-907.48 -485.38)"/><path class="cls-68" d="M999.5,545l-1.5,9v.5l-.5.5v.5l-.5.5c-3.13,4.87-5.82,10.18-12,12h0l3.5-3,.5-.5.5-.5.5-.5.5-.5,1-1.5.5-.5v-.5l.5-.5.5-.5.5-.5.5-.5C997.21,554.56,998,549.63,999.5,545Z" transform="translate(-907.48 -485.38)"/><path class="cls-68" d="M974.5,574c.92-1.18,2.93-.84,3.5-2.5l.5-.5,1.5-.5.5-.5h1l3-1.5h0C982.22,572.25,978.4,573.2,974.5,574Z" transform="translate(-907.48 -485.38)"/><path class="cls-59" d="M946,496l-9,5.5A15.51,15.51,0,0,1,946,496Z" transform="translate(-907.48 -485.38)"/><path class="cls-66" d="M926,518.5c.12,3.33-1.54,6.29-2,9.5A16.22,16.22,0,0,1,926,518.5Z" transform="translate(-907.48 -485.38)"/><path class="cls-66" d="M924,528c-.25,2.33.55,4.73-.5,7C923.75,532.67,923,530.27,924,528Z" transform="translate(-907.48 -485.38)"/><path class="cls-66" d="M923.5,535.5v1C923,536.17,923,535.83,923.5,535.5Z" transform="translate(-907.48 -485.38)"/><path class="cls-58" d="M997.5,555l.5-.5Z" transform="translate(-907.48 -485.38)"/><path class="cls-68" d="M985,568l-.5.5h0l.5-.5Z" transform="translate(-907.48 -485.38)"/><path class="cls-58" d="M997,556l.5-.5Z" transform="translate(-907.48 -485.38)"/><path class="cls-69" d="M980,570.5l-1.5.5-.5.5c-3.82,1-7.63,2.64-11.47,2.76-7.47.21-15.25.83-21.53-4.76,1.38.52,2.8,1,4.15,1.58,9.89,4.32,19.46,3.12,28.85-1.58h.5l.5-.5h.5l1-.5h0l1-.5h0l.5-.5h0a.93.93,0,0,0,1-1h0l.5-.5h0l.5-.5h0l.5-.5h0l1.5-.5h0l1-.5h.5l1-.5h0l.5-.5h0l.5-1,2.5-4,.5-.5h0l.5-.5h0l.5-.5h0l.5-.5.5-1.5a10.46,10.46,0,0,0,2.21-3.84c3.66-10.1,3.31-20.34,1.29-30.66l-.5-1v-1l-.5-.5V517l-.5-.5h0c-1.67-8.3-8.26-12.37-14.47-16.7-5-3.45-10.79-4.8-16.53-6.3h2c10.43.24,26.88,12,30,21.5a65,65,0,0,1,2.68,16.22A137.16,137.16,0,0,1,999.5,545c-1.52,4.63-2.29,9.56-5.5,13.5l-.5.5-.5.5-.5.5-.5.5v.5l-.5.5-1,1.5-.5.5-.5.5-.5.5-.5.5c-3.07.63-5.06,2.78-7,5h-1Z" transform="translate(-907.48 -485.38)"/><path class="cls-42" d="M949,587a14.91,14.91,0,0,1-7.5-2.5Z" transform="translate(-907.48 -485.38)"/><path class="cls-45" d="M967,588.5a11.88,11.88,0,0,1-7.5,0Z" transform="translate(-907.48 -485.38)"/><path class="cls-70" d="M978,569.5c-9.39,4.7-19,5.9-28.85,1.58-1.35-.59-2.77-1.06-4.15-1.58-11.12-6.38-17.6-16-20-28.5-.22-7.28-.22-14.5,2-21.6A42.23,42.23,0,0,1,933.5,507a3,3,0,0,0,2.5-2.5h0l2-2h0l.5-.5h0l1-.5h0A5.93,5.93,0,0,0,943,499c1.45-.56,2.94-1.05,4.36-1.69A32.89,32.89,0,0,1,971.5,496c-1.63-.24-3.25-.54-4.89-.7-6.65-.63-13.23-.78-19.11,3.2h0l-1,.5h0a9.29,9.29,0,0,0-5.5,3h0l-1.5,1h0l-.5.5h0l-.5.5h0l-.5.5c-4.06,3.86-7.81,8.16-9.29,13.55-1.92,7-3.2,14.21-2.16,21.52,1,6.65,3,12.9,8.45,17.43h0l1,1.5,1,2c2.08,3.34,5.26,5.47,8.52,7.37,5,2.89,10.05,5.4,16.23,4.76C967.28,572.06,972.56,570.42,978,569.5Z" transform="translate(-907.48 -485.38)"/><path class="cls-71" d="M971.5,496a32.89,32.89,0,0,0-24.14,1.31c-1.42.64-2.91,1.13-4.36,1.69a22.67,22.67,0,0,1,7.5-3.5l.5-.5h1l.5-.5h1l.5-.5h1c.85-.11,1.79.3,2.5-.5h8c5.74,1.5,11.57,2.85,16.53,6.3,6.21,4.33,12.8,8.4,14.47,16.7l-2-3c-1.79-3.06-3.44-6.2-6.34-8.43A64.63,64.63,0,0,0,971.5,496Z" transform="translate(-907.48 -485.38)"/><path class="cls-71" d="M943,499a5.93,5.93,0,0,1-3.5,2.5A6,6,0,0,1,943,499Z" transform="translate(-907.48 -485.38)"/><path class="cls-71" d="M936,504.5a3,3,0,0,1-2.5,2.5Z" transform="translate(-907.48 -485.38)"/><path class="cls-71" d="M938,502.5l-2,2A2.1,2.1,0,0,1,938,502.5Z" transform="translate(-907.48 -485.38)"/><path class="cls-69" d="M957.5,493.5c-.71.8-1.65.39-2.5.5C955.71,493.2,956.65,493.61,957.5,493.5Z" transform="translate(-907.48 -485.38)"/><path class="cls-71" d="M939.5,501.5l-1,.5Z" transform="translate(-907.48 -485.38)"/><path class="cls-71" d="M938.5,502l-.5.5Z" transform="translate(-907.48 -485.38)"/><path class="cls-69" d="M951,495l-.5.5Z" transform="translate(-907.48 -485.38)"/><path class="cls-69" d="M952.5,494.5l-.5.5Z" transform="translate(-907.48 -485.38)"/><path class="cls-69" d="M954,494l-.5.5Z" transform="translate(-907.48 -485.38)"/><path class="cls-66" d="M981.5,570c1.94-2.22,3.93-4.37,7-5l-3.5,3-.5.5Z" transform="translate(-907.48 -485.38)"/><path class="cls-66" d="M990.5,563l1-1.5Z" transform="translate(-907.48 -485.38)"/><path class="cls-66" d="M993.5,559l.5-.5Z" transform="translate(-907.48 -485.38)"/><path class="cls-66" d="M993,559.5l.5-.5Z" transform="translate(-907.48 -485.38)"/><path class="cls-66" d="M992.5,560l.5-.5Z" transform="translate(-907.48 -485.38)"/><path class="cls-66" d="M992,560.5l.5-.5Z" transform="translate(-907.48 -485.38)"/><path class="cls-66" d="M991.5,561.5l.5-.5Z" transform="translate(-907.48 -485.38)"/><path class="cls-66" d="M990,563.5l.5-.5Z" transform="translate(-907.48 -485.38)"/><path class="cls-66" d="M989.5,564l.5-.5Z" transform="translate(-907.48 -485.38)"/><path class="cls-66" d="M989,564.5l.5-.5Z" transform="translate(-907.48 -485.38)"/><path class="cls-66" d="M988.5,565l.5-.5Z" transform="translate(-907.48 -485.38)"/><path class="cls-66" d="M980,570.5l.5-.5Z" transform="translate(-907.48 -485.38)"/><path class="cls-66" d="M978,571.5l.5-.5Z" transform="translate(-907.48 -485.38)"/><path class="cls-72" d="M978,569.5c-5.44.92-10.72,2.56-16.25,3.13-6.18.64-11.26-1.87-16.23-4.76-3.26-1.9-6.44-4-8.52-7.37a6.6,6.6,0,0,1,1.82,1.13c3.08,3.78,7.53,5.32,11.68,7.37h0l.5.5h1c.88.88,2,.35,3,.5,2,.12,3.65,1.51,5.79.86a38.68,38.68,0,0,1,10.28-1.4c6.54-.19,11.21-4.62,16-8.14,3.36-2.5,5.36-6.82,8-10.32l-.5,3.5L994,556l-.5.5h0l-.5.5h0l-.5.5h0l-.5.5-2.5,4-.5,1h0l-.5.5h0l-1,.5H987l-1,.5h0l-1.5.5h0l-.5.5h0l-.5.5h0l-.5.5h0l-1,1h0l-.5.5h0l-1,.5h0l-1,.5H979l-.5.5Z" transform="translate(-907.48 -485.38)"/><path class="cls-73" d="M994.5,554.5l.5-3.5a71.76,71.76,0,0,0,1-32l-.5-.5v-1l-.5-1h0l-.5-3,2,3h0l.5.5v.5l.5.5v1l.5,1c2,10.32,2.37,20.56-1.29,30.66A10.46,10.46,0,0,1,994.5,554.5Z" transform="translate(-907.48 -485.38)"/><path class="cls-70" d="M982,567.5l1-1A.93.93,0,0,1,982,567.5Z" transform="translate(-907.48 -485.38)"/><path class="cls-70" d="M984.5,565l1.5-.5Z" transform="translate(-907.48 -485.38)"/><path class="cls-70" d="M989,563l.5-1Z" transform="translate(-907.48 -485.38)"/><path class="cls-70" d="M987.5,564l1-.5Z" transform="translate(-907.48 -485.38)"/><path class="cls-70" d="M986,564.5l1-.5Z" transform="translate(-907.48 -485.38)"/><path class="cls-70" d="M980.5,568.5l1-.5Z" transform="translate(-907.48 -485.38)"/><path class="cls-70" d="M979.5,569l1-.5Z" transform="translate(-907.48 -485.38)"/><path class="cls-71" d="M998,520l-.5-1Z" transform="translate(-907.48 -485.38)"/><path class="cls-70" d="M981.5,568l.5-.5Z" transform="translate(-907.48 -485.38)"/><path class="cls-70" d="M978.5,569.5l.5-.5Z" transform="translate(-907.48 -485.38)"/><path class="cls-73" d="M993.5,556.5l.5-.5Z" transform="translate(-907.48 -485.38)"/><path class="cls-73" d="M993,557l.5-.5Z" transform="translate(-907.48 -485.38)"/><path class="cls-73" d="M992.5,557.5l.5-.5Z" transform="translate(-907.48 -485.38)"/><path class="cls-73" d="M992,558l.5-.5Z" transform="translate(-907.48 -485.38)"/><path class="cls-71" d="M997.5,518l-.5-.5Z" transform="translate(-907.48 -485.38)"/><path class="cls-71" d="M997,517l-.5-.5Z" transform="translate(-907.48 -485.38)"/><path class="cls-70" d="M988.5,563.5l.5-.5Z" transform="translate(-907.48 -485.38)"/><path class="cls-70" d="M984,565.5l.5-.5Z" transform="translate(-907.48 -485.38)"/><path class="cls-70" d="M983.5,566l.5-.5Z" transform="translate(-907.48 -485.38)"/><path class="cls-70" d="M983,566.5l.5-.5Z" transform="translate(-907.48 -485.38)"/><path class="cls-74" d="M935,557c-5.46-4.53-7.5-10.78-8.45-17.43-1-7.31.24-14.54,2.16-21.52,1.48-5.39,5.23-9.69,9.29-13.55l.5-.5h0l.5-.5h0l.5-.5h0l1.5-1h0c2-.71,4-1.34,5.5-3h0l1-.5h0L953,497c-1,1.32-3.19.83-4,2.5h0l-1,.5h0l-.5.5a21.16,21.16,0,0,0-10.22,7.56c-3.36,4.26-6.54,8.69-8.28,13.94-3,7.73-2,15.47-.18,23.26C929.84,549.76,933.26,552.92,935,557Z" transform="translate(-907.48 -485.38)"/><path class="cls-75" d="M935,557c-1.74-4.08-5.16-7.24-6.18-11.74-1.77-7.79-2.78-15.53.18-23.26-2.41,13.2-1,25.46,9,35.5.39.6.76,1.21,1.17,1.8,2.89,4.16,8.2,5.33,11.33,9.2v.5c-4.15-2-8.6-3.59-11.68-7.37A6.6,6.6,0,0,0,937,560.5l-1-2-1-1.5Z" transform="translate(-907.48 -485.38)"/><path class="cls-76" d="M953,497l-5.5,1.5c5.88-4,12.46-3.83,19.11-3.2,1.64.16,3.26.46,4.89.7a64.63,64.63,0,0,1,16.66,9.07c2.9,2.23,4.55,5.37,6.34,8.43l.5,3c-2-3-3.51-6.47-6-9-5.18-5.23-12-8-18.8-10.47-5-1.85-10.43-1.32-15.7-.56Z" transform="translate(-907.48 -485.38)"/><path class="cls-76" d="M946.5,499c-1.47,1.66-3.51,2.29-5.5,3A9.29,9.29,0,0,1,946.5,499Z" transform="translate(-907.48 -485.38)"/><path class="cls-76" d="M941,502l-1.5,1Z" transform="translate(-907.48 -485.38)"/><path class="cls-74" d="M935,557l1,1.5Z" transform="translate(-907.48 -485.38)"/><path class="cls-76" d="M947.5,498.5l-1,.5Z" transform="translate(-907.48 -485.38)"/><path class="cls-76" d="M938.5,504l-.5.5Z" transform="translate(-907.48 -485.38)"/><path class="cls-76" d="M939,503.5l-.5.5Z" transform="translate(-907.48 -485.38)"/><path class="cls-76" d="M939.5,503l-.5.5Z" transform="translate(-907.48 -485.38)"/><path class="cls-77" d="M954.5,496.5c5.27-.76,10.68-1.29,15.7.56,6.76,2.5,13.62,5.24,18.8,10.47,2.49,2.5,4,6,6,9h0l.5,1v1l.5.5a71.76,71.76,0,0,1-1,32c-2.61,3.5-4.61,7.82-8,10.32-4.75,3.52-9.42,7.95-16,8.14a38.68,38.68,0,0,0-10.28,1.4c-2.14.65-3.84-.74-5.79-.86-.88-.88-2-.35-3-.5h-1l-.5-.5h0v-.5c8.47,1.58,16.81.52,25.1-1.31,3.56-.79,5.17-4.24,7.9-6.19h0a3.13,3.13,0,0,0,2.5-1.5h0l.5-.5h0l.5-.5h0l1-1.5h0l.5-1,1-2a9,9,0,0,0,4.5-6c4.64-13.79,3.28-26.87-5.59-38.53-2.16-2.83-4.58-6.41-8.91-7-3.6-1.13-6.6-3.54-10.3-4.56-7-1.93-13.58-.41-20.2,1.56.81-1.67,3-1.18,4-2.5Z" transform="translate(-907.48 -485.38)"/><path class="cls-75" d="M952,569.5c1,.15,2.12-.38,3,.5C954,569.85,952.88,570.38,952,569.5Z" transform="translate(-907.48 -485.38)"/><path class="cls-75" d="M950.5,569l.5.5Z" transform="translate(-907.48 -485.38)"/><path class="cls-76" d="M995.5,517.5l-.5-1Z" transform="translate(-907.48 -485.38)"/><path class="cls-76" d="M996,519l-.5-.5Z" transform="translate(-907.48 -485.38)"/><path class="cls-78" d="M949,499.5c6.62-2,13.22-3.49,20.2-1.56,3.7,1,6.7,3.43,10.3,4.56h0L975,502h0l-1-.5-1-.5c-4.45-4.21-17.23-3.94-24,.5h0l-1.5.5-1,.5-.5.5h-.5l-.5.5h0l-.5.5c-6.2,4.65-10.76,10.49-13,18-2.55,9-2.67,17.75,2.5,26a30.54,30.54,0,0,0,9.61,12c4.28,3.16,8.86,6.74,13.93,6.71A58,58,0,0,0,975,564l2-.5v1c-.57.44-1.1,1.17-1.73,1.28-5.43,1-10.9,2.52-16.33,2.4-3.13-.07-6.93.15-9.91-2.33-3.54-3-7.34-5.58-11-8.35-10-10-11.41-22.3-9-35.5,1.74-5.25,4.92-9.68,8.28-13.94a21.16,21.16,0,0,1,10.22-7.56l.5-.5h0l1-.5Z" transform="translate(-907.48 -485.38)"/><path class="cls-77" d="M949,499.5l-1,.5Z" transform="translate(-907.48 -485.38)"/><path class="cls-77" d="M948,500l-.5.5Z" transform="translate(-907.48 -485.38)"/><path class="cls-79" d="M938,557.5c3.69,2.77,7.49,5.4,11,8.35,3,2.48,6.78,2.26,9.91,2.33,5.43.12,10.9-1.44,16.33-2.4.63-.11,1.16-.84,1.73-1.28,2.46-.63,3.87-3.19,6.5-3.5-2.73,2-4.34,5.4-7.9,6.19-8.29,1.83-16.63,2.89-25.1,1.31-3.13-3.87-8.44-5-11.33-9.2C938.76,558.71,938.39,558.1,938,557.5Z" transform="translate(-907.48 -485.38)"/><path class="cls-74" d="M954.5,496.5l-1.5.5Z" transform="translate(-907.48 -485.38)"/><path class="cls-80" d="M983.5,561c-2.63.31-4,2.87-6.5,3.5v-1c2.76-3.28,7.48-4.48,9.74-7.91A57.31,57.31,0,0,0,994.49,538c2.56-10.3-2.5-18.79-7.16-27.13-1.43-2.55-3.26-5.46-6.33-6.83l-1.5-1.5h0c4.33.56,6.75,4.14,8.91,7,8.87,11.66,10.23,24.74,5.59,38.53-2.29,1.4-3.16,3.88-4.5,6a1.79,1.79,0,0,0-1,2l-.5,1h0l-1,1.5h0l-.5.5h0l-.5.5h0a3.13,3.13,0,0,0-2.5,1.5Z" transform="translate(-907.48 -485.38)"/><path class="cls-79" d="M989.5,554c1.34-2.12,2.21-4.6,4.5-6A9,9,0,0,1,989.5,554Z" transform="translate(-907.48 -485.38)"/><path class="cls-79" d="M983.5,561a3.13,3.13,0,0,1,2.5-1.5A3.13,3.13,0,0,1,983.5,561Z" transform="translate(-907.48 -485.38)"/><path class="cls-79" d="M988.5,556a1.79,1.79,0,0,1,1-2Z" transform="translate(-907.48 -485.38)"/><path class="cls-79" d="M987,558.5l1-1.5Z" transform="translate(-907.48 -485.38)"/><path class="cls-79" d="M988,557l.5-1Z" transform="translate(-907.48 -485.38)"/><path class="cls-79" d="M986.5,559l.5-.5Z" transform="translate(-907.48 -485.38)"/><path class="cls-79" d="M986,559.5l.5-.5Z" transform="translate(-907.48 -485.38)"/><path class="cls-81" d="M981,504c3.07,1.37,4.9,4.28,6.33,6.83,4.66,8.34,9.72,16.83,7.16,27.13a57.31,57.31,0,0,1-7.75,17.63c-2.26,3.43-7,4.63-9.74,7.91l-2,.5,1.5-3,.5-.5c1-1.08,1.88-2.76,3.12-3.13,5.08-1.51,7.08-5.38,9.23-9.79,5.82-11.92,4.27-23.33-2.12-34.14-2.22-3.75-5.38-7.63-10.23-8.94l-2-1,1-1Z" transform="translate(-907.48 -485.38)"/><path class="cls-82" d="M976.5,561l-1.5,3a58,58,0,0,1-17.46,2.67c-5.07,0-9.65-3.55-13.93-6.71A30.54,30.54,0,0,1,934,548c-.26-.85-.51-1.71-.79-2.56-1.75-5.36-3.49-10.72-1.71-16.44a37.58,37.58,0,0,0,4,18.83c4.81,9.28,15.8,18.38,29.29,16,3.58-.63,7.77.28,10.75-2.85Z" transform="translate(-907.48 -485.38)"/><path class="cls-83" d="M976,502.5l-1,1c-11.7-7.19-28.53-2.88-36.5,8.5l-.5.5h0a2.4,2.4,0,0,0-1.5,2h0l-5,7.5h0c2.24-7.51,6.8-13.35,13-18l.5-.5h0l.5-.5h.5l.5-.5,1-.5,1.5-.5h0a9.72,9.72,0,0,0,2.94-.38c7-3.24,14-2.18,21.06-.12l1,.5,1,.5h0Z" transform="translate(-907.48 -485.38)"/><path class="cls-83" d="M931.5,529c-1.78,5.72,0,11.08,1.71,16.44.28.85.53,1.71.79,2.56-5.17-8.25-5-17-2.5-26h0c.18,1.16-.44,2.44.5,3.5v.5c-.8.71-.39,1.65-.5,2.5Z" transform="translate(-907.48 -485.38)"/><path class="cls-84" d="M973,501c-7-2.06-14-3.12-21.06.12a9.72,9.72,0,0,1-2.94.38C955.77,497.06,968.55,496.79,973,501Z" transform="translate(-907.48 -485.38)"/><path class="cls-84" d="M976,502.5l-1-.5,4.5.5L981,504Z" transform="translate(-907.48 -485.38)"/><path class="cls-84" d="M949,501.5l-1.5.5Z" transform="translate(-907.48 -485.38)"/><path class="cls-84" d="M974,501.5l-1-.5Z" transform="translate(-907.48 -485.38)"/><path class="cls-84" d="M975,502l-1-.5Z" transform="translate(-907.48 -485.38)"/><path class="cls-84" d="M947.5,502l-1,.5Z" transform="translate(-907.48 -485.38)"/><path class="cls-84" d="M945,503.5l-.5.5Z" transform="translate(-907.48 -485.38)"/><path class="cls-84" d="M945.5,503l-.5.5Z" transform="translate(-907.48 -485.38)"/><path class="cls-84" d="M946.5,502.5l-.5.5Z" transform="translate(-907.48 -485.38)"/><path class="cls-85" d="M932,526v-.5l4.5-11h0a2.4,2.4,0,0,0,1.5-2h0l.5-.5c8-11.38,24.8-15.69,36.5-8.5l2,1h0a9.38,9.38,0,0,1-4.47-1.05c-4.12-1.89-8.47-2.92-13-1.45-.89.18-1.77.39-2.67.53-13.72,2.07-22.8,15.38-23.21,28.06A31.84,31.84,0,0,0,942,553.5l.5.5.5.5.5.5h0l1,.5h0l.5.5h0c3.15,4.44,8.53,5.35,12.94,6,5.17.82,10.91-.34,16.06-2.55l1.5,1.5c-3,3.13-7.17,2.22-10.75,2.85-13.49,2.36-24.48-6.74-29.29-16a37.58,37.58,0,0,1-4-18.83v-.5C932.3,527.79,931.9,526.85,932,526Z" transform="translate(-907.48 -485.38)"/><path class="cls-86" d="M975.5,561l-1.5-1.5c3.29-2,6-4.7,9.47-6.49,4.37-2.22,4.56-7.52,6.53-11.51.8-.71.39-1.65.5-2.5v-.5l.5-1v-1l.5-1h0c1.07-4,1.87-8-1.5-11.5h0l-.5-.5c-.67-2.33-1.33-4.67-2-7l-.5-.5v-.5l-.5-.5v-.5l-.5-.5h0c-2.62-3.52-5.29-7-9-9.5h0c4.85,1.31,8,5.19,10.23,8.94,6.39,10.81,7.94,22.22,2.12,34.14-2.15,4.41-4.15,8.28-9.23,9.79-1.24.37-2.09,2-3.12,3.13l-.5.5Z" transform="translate(-907.48 -485.38)"/><path class="cls-82" d="M976.5,561l.5-.5Z" transform="translate(-907.48 -485.38)"/><path class="cls-82" d="M936.5,514.5l-4.5,11c-.94-1.06-.32-2.34-.5-3.5Z" transform="translate(-907.48 -485.38)"/><path class="cls-82" d="M938,512.5a2.4,2.4,0,0,1-1.5,2A2.4,2.4,0,0,1,938,512.5Z" transform="translate(-907.48 -485.38)"/><path class="cls-82" d="M938.5,512l-.5.5Z" transform="translate(-907.48 -485.38)"/><path class="cls-82" d="M932,526c-.1.85.3,1.79-.5,2.5C931.61,527.65,931.2,526.71,932,526Z" transform="translate(-907.48 -485.38)"/><path class="cls-87" d="M942,553.5a31.84,31.84,0,0,1-8.38-22.91c.41-12.68,9.49-26,23.21-28.06.9-.14,1.78-.35,2.67-.53,5.25-.19,10.42-.06,14.5,4l1.5,2c-1.32.17-2.14-.8-3.1-1.4A17.86,17.86,0,0,0,959.86,504c-10.94,1.55-17.84,8-21.92,17.74-2.74,6.53-2,13.21.29,19.82,3.15,9,9.21,15.5,18.35,17.08,6.18,1.07,13.16.44,18.92-3.6h.5c-3.86,5.16-9.44,5.78-15.24,5.65S950.16,557.87,945,556h0l-.5-.5h0l-1-.5h0l-.5-.5-.5-.5Z" transform="translate(-907.48 -485.38)"/><path class="cls-88" d="M975.5,508l-1.5-2c2.6-.28,4.5.93,6.43,2.57s2.86,4.52,5.57,5.43h0l.5.5v.5l.5.5v.5l.5.5c.67,2.33,1.33,4.67,2,7l.5.5h0l1.5,11.5h0l-.5,1v1l-.5,1v.5c-.8.71-.39,1.65-.5,2.5-2,4-2.16,9.29-6.53,11.51-3.51,1.79-6.18,4.53-9.47,6.49-5.15,2.21-10.89,3.37-16.06,2.55-4.41-.7-9.79-1.61-12.94-6,5.16,1.87,10.11,4.53,15.76,4.65s11.38-.49,15.24-5.65h0l.5-.5c4.42-2.33,8.87-5.08,10.28-10,2.3-8,4.24-16.52-.48-24.23-2.62-4.28-3.85-10.11-9.8-11.75l-1-.5Z" transform="translate(-907.48 -485.38)"/><path class="cls-89" d="M986,514c-2.71-.91-3.58-3.74-5.57-5.43S976.6,505.72,974,506c-4.08-4.06-9.25-4.19-14.5-4,4.56-1.47,8.91-.44,13,1.45A9.38,9.38,0,0,0,977,504.5C980.71,507,983.38,510.48,986,514Z" transform="translate(-907.48 -485.38)"/><path class="cls-88" d="M943.5,555l1,.5Z" transform="translate(-907.48 -485.38)"/><path class="cls-88" d="M944.5,555.5l.5.5Z" transform="translate(-907.48 -485.38)"/><path class="cls-88" d="M942,553.5l.5.5Z" transform="translate(-907.48 -485.38)"/><path class="cls-88" d="M943,554.5l.5.5Z" transform="translate(-907.48 -485.38)"/><path class="cls-89" d="M991.5,535.5,990,524C993.37,527.46,992.57,531.46,991.5,535.5Z" transform="translate(-907.48 -485.38)"/><path class="cls-89" d="M990,541.5c.11-.85-.3-1.79.5-2.5C990.39,539.85,990.8,540.79,990,541.5Z" transform="translate(-907.48 -485.38)"/><path class="cls-89" d="M991,536.5l.5-1Z" transform="translate(-907.48 -485.38)"/><path class="cls-89" d="M990.5,538.5l.5-1Z" transform="translate(-907.48 -485.38)"/><path class="cls-89" d="M987,515.5l-.5-.5Z" transform="translate(-907.48 -485.38)"/><path class="cls-89" d="M986.5,514.5l-.5-.5Z" transform="translate(-907.48 -485.38)"/><path class="cls-89" d="M990,524l-.5-.5Z" transform="translate(-907.48 -485.38)"/><path class="cls-89" d="M987.5,516.5l-.5-.5Z" transform="translate(-907.48 -485.38)"/><path class="cls-90" d="M975.5,555c-5.76,4-12.74,4.67-18.92,3.6-9.14-1.58-15.2-8.12-18.35-17.08-2.32-6.61-3-13.29-.29-19.82,4.08-9.74,11-16.19,21.92-17.74a17.86,17.86,0,0,1,12.54,2.64c1,.6,1.78,1.57,3.1,1.4h0v.5l-1.5,2-3.5-2.5c-4.11-3.9-16.68-3-20.5,1.5l-.5.5-.5.5h0c-6.43,3.39-9,9.17-10.55,15.93-2.68,12.05,4.83,25.73,16.55,29.57l1,.5h2.5l1.5-.5h1c1.83,1.27,3.67-.57,5.5,0h.5q.75.93,1.5,0h.5l1-.5.5-.5,3.5-2.5Z" transform="translate(-907.48 -485.38)"/><path class="cls-91" d="M974,510.5l1.5-2h1c6,1.64,7.18,7.47,9.8,11.75,4.72,7.71,2.78,16.21.48,24.23-1.41,4.94-5.86,7.69-10.28,10l-.5.5h-.5l-1.5-2.5,3-2h0l.5-.5c1.25-2,2.16-4.24,3.8-5.77,5.22-4.88,7.27-14.12,3.66-20.09-2.26-3.74-3.82-7.95-7-11.14Z" transform="translate(-907.48 -485.38)"/><path class="cls-87" d="M976.5,508.5h-1V508Z" transform="translate(-907.48 -485.38)"/><path class="cls-87" d="M976,555l.5-.5Z" transform="translate(-907.48 -485.38)"/><path class="cls-92" d="M974,510.5l4,2.5c-2.21,1.23-4.34,2.52-5.89-1-.26-.61-1.71-.69-2.61-1h0l-.5-.5h0l-1-.5h0l-.5-.5h0l-.5-.5h0a1.22,1.22,0,0,0-2,0h-5.5l-1.5-.5h-1.5l-1,.5h0l-.5.5h0l-.5.5h0l-.5.5h-.5l-1.5.5h-1l-.5.5h0l-.5.5h0l-.5.5h0l-.5.5c-1.93,2.36-4.58,4.44-5.66,7.14-3.45,8.64-2.73,17.11,2.2,25.22,2.43,4,6.52,6.28,10.2,7.56,3.91,1.35,8.8-.16,13.26-.42,2.64-.76,4.09-6.32,8-2l-3,2-3.5,2.5-.5.5-1,.5h-2.5c-1.83-1.11-3.67-.1-5.5,0h-1l-1.5.5H956l-1-.5c-5.58-3.3-10.52-6.89-12.55-13.75-1.64-5.53-3.18-10.72-2.09-16.64,1.13-6.21,5.27-10.37,8.64-15.11h0l.5-.5.5-.5c6.59-3.87,13.46-3.76,20.5-1.5Z" transform="translate(-907.48 -485.38)"/><path class="cls-93" d="M949,510.5c-3.37,4.74-7.51,8.9-8.64,15.11-1.09,5.92.45,11.11,2.09,16.64,2,6.86,7,10.45,12.55,13.75-11.72-3.84-19.23-17.52-16.55-29.57C940,519.67,942.57,513.89,949,510.5Z" transform="translate(-907.48 -485.38)"/><path class="cls-93" d="M970.5,508c-7-2.26-13.91-2.37-20.5,1.5C953.82,505,966.39,504.1,970.5,508Z" transform="translate(-907.48 -485.38)"/><path class="cls-93" d="M961,556c1.83-.1,3.67-1.11,5.5,0C964.67,555.43,962.83,557.27,961,556Z" transform="translate(-907.48 -485.38)"/><path class="cls-93" d="M958.5,556.5l1.5-.5Z" transform="translate(-907.48 -485.38)"/><path class="cls-93" d="M967,556h1.5Q967.75,556.93,967,556Z" transform="translate(-907.48 -485.38)"/><path class="cls-93" d="M969,556l1-.5Z" transform="translate(-907.48 -485.38)"/><path class="cls-93" d="M955,556l1,.5Z" transform="translate(-907.48 -485.38)"/><path class="cls-93" d="M970,555.5l.5-.5Z" transform="translate(-907.48 -485.38)"/><path class="cls-93" d="M949.5,510l-.5.5Z" transform="translate(-907.48 -485.38)"/><path class="cls-93" d="M950,509.5l-.5.5Z" transform="translate(-907.48 -485.38)"/><path class="cls-94" d="M969.5,511c.9.33,2.35.41,2.61,1,1.55,3.5,3.68,2.21,5.89,1,3.14,3.19,4.7,7.4,7,11.14,3.61,6,1.56,15.21-3.66,20.09-1.64,1.53-2.55,3.82-3.8,5.77l-.5.5h0c-3.91-4.32-5.36,1.24-8,2,1.72-2.94,2.8-6.49,7.16-6.72,1,0,1.16-1.19,1.43-2.12.74-2.62,1.29-5.38,2.56-7.74,2.26-4.24,1.43-14.12-2.65-16.36C973.67,517.44,972.91,513.1,969.5,511Z" transform="translate(-907.48 -485.38)"/><path class="cls-92" d="M977,550.5l.5-.5Z" transform="translate(-907.48 -485.38)"/><path class="cls-95" d="M969.5,511c3.41,2.1,4.17,6.44,8,8.56,4.08,2.24,4.91,12.12,2.65,16.36-1.27,2.36-1.82,5.12-2.56,7.74-.27.93-.48,2.07-1.43,2.12-4.36.23-5.44,3.78-7.16,6.72-4.46.26-9.35,1.77-13.26.42-3.68-1.28-7.77-3.56-10.2-7.56-4.93-8.11-5.65-16.58-2.2-25.22,1.08-2.7,3.73-4.78,5.66-7.14l.5-.5h0l.5-.5h0l.5-.5h0l.5-.5h1l1.5-.5h.5l.5-.5h0l.5-.5h0l.5-.5h0l1-.5H958l1.5.5h0a5.63,5.63,0,0,0,5,0H967l.5.5h0l.5.5h0l1,.5h0l.5.5Zm11.07,21.59c-.25-3.19-.27-5.53-.66-7.8-.32-1.85-1.23-3.31-3.64-2.48-1.72.59-2.76-.14-3.41-1.9-.79-2.15-1.31-5.09-2.94-6.13-7.13-4.53-16.52-2.58-21.79,4.17s-3.31,16.78,1.24,23.76c3.31,5.06,6.54,6.83,11.92,5.76,2.88-.57,5.89,2.24,8.81-1,1.71-1.9,1.73-7,6.61-4.73,0,0,.35-.34.43-.56C978.39,538.39,979.62,535.11,980.57,532.59Z" transform="translate(-907.48 -485.38)"/><path class="cls-94" d="M964.5,509a5.63,5.63,0,0,1-5,0Z" transform="translate(-907.48 -485.38)"/><path class="cls-94" d="M967,509h-2A1.22,1.22,0,0,1,967,509Z" transform="translate(-907.48 -485.38)"/><path class="cls-94" d="M953.5,510.5l-1.5.5Z" transform="translate(-907.48 -485.38)"/><path class="cls-94" d="M959.5,509l-1.5-.5Z" transform="translate(-907.48 -485.38)"/><path class="cls-94" d="M956.5,508.5l-1,.5Z" transform="translate(-907.48 -485.38)"/><path class="cls-94" d="M969,510.5l-1-.5Z" transform="translate(-907.48 -485.38)"/><path class="cls-94" d="M949.5,512.5l-.5.5Z" transform="translate(-907.48 -485.38)"/><path class="cls-94" d="M950,512l-.5.5Z" transform="translate(-907.48 -485.38)"/><path class="cls-94" d="M950.5,511.5l-.5.5Z" transform="translate(-907.48 -485.38)"/><path class="cls-94" d="M951,511l-.5.5Z" transform="translate(-907.48 -485.38)"/><path class="cls-94" d="M969.5,511l-.5-.5Z" transform="translate(-907.48 -485.38)"/><path class="cls-94" d="M954.5,510l-.5.5Z" transform="translate(-907.48 -485.38)"/><path class="cls-94" d="M968,510l-.5-.5Z" transform="translate(-907.48 -485.38)"/><path class="cls-94" d="M955,509.5l-.5.5Z" transform="translate(-907.48 -485.38)"/><path class="cls-94" d="M967.5,509.5l-.5-.5Z" transform="translate(-907.48 -485.38)"/><path class="cls-94" d="M955.5,509l-.5.5Z" transform="translate(-907.48 -485.38)"/><path class="cls-96" d="M980.57,532.59c-1,2.52-2.18,5.8-3.43,9.07-.08.22-.38.58-.43.56-4.88-2.29-4.9,2.83-6.61,4.73-2.92,3.26-5.93.45-8.81,1-5.38,1.07-8.61-.7-11.92-5.76-4.55-7-6.42-17.13-1.24-23.76s14.66-8.7,21.79-4.17c1.63,1,2.15,4,2.94,6.13.65,1.76,1.69,2.49,3.41,1.9,2.41-.83,3.32.63,3.64,2.48C980.3,527.06,980.32,529.4,980.57,532.59ZM973,533.81c-.21-3.75-.15-6.59-.59-9.35a14.45,14.45,0,0,0-2.95-7.25c-3.8-4.63-9.11-1.86-13.57-3.11-.36-.1-1.21.6-1.43,1.1a5.17,5.17,0,0,1-3.05,2.78,7.65,7.65,0,0,0-5,6.85,71.68,71.68,0,0,0-.21,11.16c.09,1.59.56,3.7,2.78,4,1.9.21,2.65,1.33,3.27,2.91.7,1.79,1.53,3.79,3.93,3.45,1.68-.24,3.5.34,4.85,0,2.6-.76,5.73,1.56,7.68-.92C971.5,541.75,971.72,537.08,973,533.81Z" transform="translate(-907.48 -485.38)"/><path class="cls-97" d="M973,533.81c-1.28,3.27-1.5,7.94-4.31,11.52-2,2.48-5.08.16-7.68.92-1.35.39-3.17-.19-4.85,0-2.4.34-3.23-1.66-3.93-3.45-.62-1.58-1.37-2.7-3.27-2.91-2.22-.25-2.69-2.36-2.78-4a71.68,71.68,0,0,1,.21-11.16,7.65,7.65,0,0,1,5-6.85,5.17,5.17,0,0,0,3.05-2.78c.22-.5,1.07-1.2,1.43-1.1,4.46,1.25,9.77-1.52,13.57,3.11a14.45,14.45,0,0,1,2.95,7.25C972.85,527.22,972.79,530.06,973,533.81Zm-2.62-6.26a9.76,9.76,0,0,0-1.53-6.75c-.78-1.28-2.14-2.08-3.26-.73-2.8,3.37-5.79,2.24-8.28.16-2.08-1.74-2.8-.93-3.58.85-.52,1.21-.86,2.5-1.28,3.76-.33,1-.63,2-2.05,1.35-.67-.31-1.5-.82-1.79.33s-.84,2.55.33,3c2.91,1,2.5,3.24,2.59,5.47.17,4.52,2.49,5.83,6.28,3.66a1.68,1.68,0,0,1,1.87,0,1.12,1.12,0,0,1,.43,1.69c-.26.5-.62,1.13.14,1.49.31.14,1.06.05,1.12-.1,1-3.07,2.93-2.2,5.06-1.35,1.15.46,1.66-.75,2.2-1.59C971,535,968.43,530.49,970.38,527.55Z" transform="translate(-907.48 -485.38)"/><path class="cls-98" d="M970.38,527.55c-2,2.94.66,7.45-1.75,11.19-.54.84-1,2-2.2,1.59-2.13-.85-4-1.72-5.06,1.35-.06.15-.81.24-1.12.1-.76-.36-.4-1-.14-1.49a1.12,1.12,0,0,0-.43-1.69,1.68,1.68,0,0,0-1.87,0c-3.79,2.17-6.11.86-6.28-3.66-.09-2.23.32-4.45-2.59-5.47-1.17-.41-.59-2-.33-3s1.12-.64,1.79-.33c1.42.66,1.72-.36,2.05-1.35.42-1.26.76-2.55,1.28-3.76.78-1.78,1.5-2.59,3.58-.85,2.49,2.08,5.48,3.21,8.28-.16,1.12-1.35,2.48-.55,3.26.73A9.76,9.76,0,0,1,970.38,527.55Z" transform="translate(-907.48 -485.38)"/></svg>