<svg id="Layer_1" data-name="Layer 1" xmlns="http://www.w3.org/2000/svg" viewBox="0 0 169.36 110.49"><defs><style>.cls-1{fill:#837c77;}.cls-2{fill:#827c77;}.cls-3{fill:#877e75;}.cls-4{fill:#89827d;}.cls-5{fill:#89827b;}.cls-6{fill:#66635e;}.cls-7{fill:#75726e;}.cls-8{fill:#3e3c3b;}.cls-9{fill:#383634;}.cls-10{fill:#565352;}.cls-11{fill:#313130;}.cls-12{fill:#514f4c;}.cls-13{fill:#59534f;}.cls-14{fill:#635e5a;}.cls-15{fill:#4b4744;}.cls-16{fill:#57534f;}.cls-17{fill:#767068;}.cls-18{fill:#dededf;}.cls-19{fill:#dcdcdc;}.cls-20{fill:#9c9c9c;}.cls-21{fill:#8f867d;}.cls-22{fill:#887e73;}.cls-23{fill:#6b645f;}.cls-24{fill:#a7a4a0;}.cls-25{fill:#8d867e;}.cls-26{fill:#aba7a5;}.cls-27{fill:#b2b1af;}.cls-28{fill:#211f1f;}.cls-29{fill:#776e67;}.cls-30{fill:#393734;}.cls-31{fill:#aeabab;}.cls-32{fill:#877c70;}.cls-33{fill:#9c9791;}.cls-34{fill:#887f76;}.cls-35{fill:#605953;}.cls-36{fill:#7f766d;}.cls-37{fill:#524f4c;}.cls-38{fill:#6d6661;}.cls-39{fill:#8c847a;}.cls-40{fill:#6b6560;}.cls-41{fill:#504b47;}.cls-42{fill:#1e1c1b;}.cls-43{fill:#121212;}.cls-44{fill:#7b736a;}.cls-45{fill:#4a4846;}.cls-46{fill:#978b7d;}.cls-47{fill:#8f7f6e;}.cls-48{fill:#9a8d7f;}.cls-49{fill:#7c746b;}.cls-50{fill:#756c64;}.cls-51{fill:#c7c7c6;}.cls-52{fill:#bfbcbb;}.cls-53{fill:#443b31;}.cls-54{fill:#37322c;}.cls-55{fill:#57524b;}.cls-56{fill:#a59788;}.cls-57{fill:#9d9183;}.cls-58{fill:#746b62;}.cls-59{fill:#928679;}.cls-60{fill:#b8b6b5;}.cls-61{fill:#36302a;}.cls-62{fill:#786d62;}.cls-63{fill:#6c645d;}.cls-64{fill:#6f6559;}.cls-65{fill:#6c645b;}.cls-66{fill:#8f8476;}.cls-67{fill:#86796a;}.cls-68{fill:#867a6f;}.cls-69{fill:#60564a;}.cls-70{fill:#a59481;}.cls-71{fill:#b09a85;}.cls-72{fill:#66594d;}.cls-73{fill:#6a5c4e;}.cls-74{fill:#ad9d8b;}.cls-75{fill:#c8c7c6;}.cls-76{fill:#bdb9b8;}.cls-77{fill:#9c8d7e;}.cls-78{fill:#928270;}.cls-79{fill:#9a8b79;}.cls-80{fill:#af9a85;}.cls-81{fill:#b9a28d;}.cls-82{fill:#b69f88;}.cls-83{fill:#ac967f;}.cls-84{fill:#a18e79;}.cls-85{fill:#897666;}.cls-86{fill:#ccaf93;}.cls-87{fill:#caaf95;}.cls-88{fill:#a3907c;}.cls-89{fill:#aa9885;}.cls-90{fill:#af957b;}.cls-91{fill:#a09384;}.cls-92{fill:#a18c76;}.cls-93{fill:#a49380;}.cls-94{fill:#bea288;}.cls-95{fill:#c2a991;}.cls-96{fill:#ab957f;}.cls-97{fill:#d7b89a;}.cls-98{fill:#b8a18c;}.cls-99{fill:#b09b86;}.cls-100{fill:#b9a694;}.cls-101{fill:#bda590;}</style></defs><path class="cls-1" d="M1018.48,488.94c6.51-2.56,13.12-4.79,20.2-4.84,5,0,7,2.7,5,7.27-3.59,8.39-10.26,14.41-16.62,20.63A216.9,216.9,0,0,1,1006,530c-2.27,1.72-3.45,3.52-3,6.43a16.5,16.5,0,0,1-.43,4.15c0-2.49,0-5-.07-7.48l-1.44-.55c-3-3.27,1.3-2.34,2-3.5,2.61.48,4.37-2.1,5.4-3.12,3.68-3.7,7.76-7,11.52-10.57C1025,510.43,1030,505.52,1033,499h0l.5-1h0l.49-1c1.09-2.09.56-3.89-1-5.51,0-.16,0-.32,0-.48,1-.86,1,.33,1.36.68.73.64,1.16,2.42,2.19,1.71s.42-2.34-.37-3.32c-.53-.66-1.43-1.51-2.13-1.47-4.55.23-9.27-1.49-13.65,1.11C1019.91,490,1018.39,491,1018.48,488.94Z" transform="translate(-875.07 -484.1)"/><path class="cls-2" d="M905,588.51l-.14.09-.16,0-1.18.49,0,0-.54.34a.46.46,0,0,1-.45.16c-.72,0-1.54-.28-2.05.56l.05,0c-.59,0-1.2-.15-1.55.52l.05,0L898,591l-.14.09-.16,0c-.63,0-1.29-.2-1.67.54l.05,0L895,592l-.17.1-.2,0-1.62.52a33.28,33.28,0,0,1-13.91,1.91c-3.47-.3-4.55-2.42-3.83-5.55,1-4.44,3.83-7.92,6.78-11.15A214.79,214.79,0,0,1,917,547.4l.55,1.1h0v2c-1.2-.81-2.25-.34-3.17.47-4.31,3.76-8.64,7.49-12.86,11.34C896.54,566.8,891.32,571,888,577h0l-.52,1h0l-.49.53c-1,3-4.12,6,0,9-.25.26-.49.74-.74.74-.68,0-1.69-.73-1.93.22s.93,1.44,1.74,1.76a11.7,11.7,0,0,0,5.8.53c4.81-1.69,10.1-1.55,14.7-4,1.16-.63,2.79-2.19,4.53-.67h0l-1.08.43-.12.1-.15,0L909,587h0l-1,.41a.52.52,0,0,1-.45.12l-.54.31-.91.22Z" transform="translate(-875.07 -484.1)"/><path class="cls-3" d="M994.5,499.51a.27.27,0,0,1,.29-.09c.92.1,1.16.69,1.24,1.53.35,3.72,1.77,4.52,4.47,1.55h.5l.5-.5c5.75-1.72,11.51-3.37,17.23-5.17,3.56-1.13,5.25.43,6.22,3.66.66,2.2-1.86,2.7-2,4-.82,6.07-6.23,8.26-9.74,12s-7.15,7.46-11.68,10.07c-.17-.83-.34-1.66-.5-2.49,3.27-1.64,5.29-4.69,7.82-7.14,2.8-2.71,5.32-5.72,6.48-9.56.52-1.73.46-3.57-1.88-3.75-6.13-.48-11.75,1.27-17,4.34L996,508l-1.52.5-1,.5c-.63,0-.89.4-1,1l-.54-1.47h0l1.67-.86c3-.11,3.16-1.85,2.35-4.13-.62-1.14.16-2.87-1.51-3.57Z" transform="translate(-875.07 -484.1)"/><path class="cls-4" d="M1000.5,502.5c-2.7,3-4.12,2.17-4.47-1.55-.08-.84-.32-1.43-1.24-1.53a196.91,196.91,0,0,1,23.69-10.48c-.09,2,1.43,1.06,1.92.77,4.38-2.6,9.1-.88,13.65-1.11.7,0,1.6.81,2.13,1.47.79,1,1.5,2.55.37,3.32s-1.46-1.07-2.19-1.71c-.4-.35-.36-1.54-1.36-.68l-.53,0-1.47,0c-1.73-.92-3.54-.5-5.32-.28-9.2,1.15-17.54,4.63-25.4,9.41-.78.47-2.34.3-2.11,1.67S999.69,502.31,1000.5,502.5Z" transform="translate(-875.07 -484.1)"/><path class="cls-5" d="M911.1,586.08c-1.74-1.52-3.37,0-4.53.67-4.6,2.47-9.89,2.33-14.7,4a11.7,11.7,0,0,1-5.8-.53c-.81-.32-2-.72-1.74-1.76s1.25-.21,1.93-.22c.25,0,.49-.48.74-.74h1c3,1.3,6,0,9,0,1.62-.28,3.25-.52,4.85-.87a73.93,73.93,0,0,0,19.22-7.53c3.18-1.75,7.51-2.25,9.44-6.09l3.5,2,1,.49q-10.23,4.63-20.46,9.26C913.42,585.25,912.25,585.64,911.1,586.08Z" transform="translate(-875.07 -484.1)"/><path class="cls-6" d="M917.43,546.34A39.87,39.87,0,0,1,922,524.52c2.87.53,2.49-2.18,3.49-3.52h0l.5-.5h0l.51-1h0l.5-.5h0a2.9,2.9,0,0,0,3-2.52l6-4.49,3-1-6,5.5c-3.52,2.75-7.08,5.47-8.5,10H924c-2.63,1.59-2.86,4.55-4,7V535c-1.09,2.71-1.11,5.52-1.28,8.4-.15,2.5.7,5.2-.72,7.6v-.49l-.5-2h0Z" transform="translate(-875.07 -484.1)"/><path class="cls-7" d="M935,575.49l-1-.49c.93-1.58,2.35-1.84,4-1.5h0c-1.4,1.12-.7,2,.47,2.52,1.93.86,3.73,2.19,6,2h.5l.5.5c2.46,1.26,5.18.6,7.76,1,6.21,1,11.93-1.35,17.74-3L970,578l-1,0-1,.49h0c-1.08.08-2.33-.35-3,1l-.91.17,2.08.45A39.48,39.48,0,0,1,935,575.49Z" transform="translate(-875.07 -484.1)"/><path class="cls-8" d="M928,515.58a42.91,42.91,0,0,1,18.35-13.2c-.62.46-1.48.78-1.82,1.4-.87,1.57.72.32.94.72-.53,1.56-2.11,1.51-3.26,2-5.6,2.18-9.46,6.78-14.27,10Z" transform="translate(-875.07 -484.1)"/><path class="cls-9" d="M945.5,504.5c-.22-.4-1.81.85-.94-.72.34-.62,1.2-.94,1.82-1.4h0l1.09-.47-.05,0c1.36,0,2.67-.18,3.57-1.37l.79-.14,1.21-.38a.25.25,0,0,1,.36-.1,107.45,107.45,0,0,1,15.83-1l5.4,1a3.07,3.07,0,0,1-.26.25l-1.33,0,.5.36c0,.15,0,.3,0,.45a11.05,11.05,0,0,1-5-1,6.06,6.06,0,0,0,.74,0l2.06-.35c-1-.14-1.95-.43-2.8.36l-9,0c-.86.08-1.8-.32-2.52.49h0c-3.25.71-6.61,1.12-9.5,3h0l-1,.49H946l-.51.49Z" transform="translate(-875.07 -484.1)"/><path class="cls-10" d="M969,578l1,0,12-6,1.07.59a40,40,0,0,1-16.9,7.52l-2.08-.45.91-.17,3-1h0Z" transform="translate(-875.07 -484.1)"/><path class="cls-11" d="M994.5,499.93c1.67.7.89,2.43,1.51,3.57-2.57-.69-4.21,1.37-6.29,2.09a7.5,7.5,0,0,1-1.85.16c.16-.31.25-.72.51-.91,1.3-.95,2.64-1.84,4-2.76-2-.1-3.19,1.62-5,2a3.83,3.83,0,0,0-.89.43l0-.63,7.5-3.94Z" transform="translate(-875.07 -484.1)"/><path class="cls-12" d="M1002.45,533.05c0,2.49,0,5,.07,7.48q-.53,3-1.06,6l-1.37,1.89L1000,546a34.08,34.08,0,0,0,1-10.31C1001,534.59,1000.68,533.23,1002.45,533.05Z" transform="translate(-875.07 -484.1)"/><path class="cls-13" d="M998.56,554.65A37.29,37.29,0,0,1,990,567c-.65-1.74-1.36.55-2,0,0-.16,0-.33,0-.49l.5-.49.5-.51.49-.51.5-.5.5-.5a16.46,16.46,0,0,0,5-6c.66-1.3,1.28-2.61,2-3.88.16-.28.55-.43.83-.64Z" transform="translate(-875.07 -484.1)"/><path class="cls-14" d="M998.56,554.65l-.26-1.17c-.28.21-.67.36-.83.64-.7,1.27-1.32,2.58-2,3.88l-.5-.51L999.5,546h.5l.09,2.39,1.37-1.89A23.07,23.07,0,0,1,998.56,554.65Z" transform="translate(-875.07 -484.1)"/><path class="cls-15" d="M988,567c.67.58,1.38-1.71,2,0h0l-.52.52,0,0L989,568l0,0-.53.53-2.48,2a1.37,1.37,0,0,0-1.5,1.07l0,0L984,572h0l-1,.59h0L982,572h0l2-1.5h0l.5-.49,3.49-2.5V567Z" transform="translate(-875.07 -484.1)"/><path class="cls-8" d="M969.18,498.94a107.45,107.45,0,0,0-15.83,1A34.08,34.08,0,0,1,969.18,498.94Z" transform="translate(-875.07 -484.1)"/><path class="cls-11" d="M973.5,501c0-.15,0-.3,0-.45l.83-.38a3.07,3.07,0,0,0,.26-.25.32.32,0,0,1,.43.13l1.15.4.85.15.61.32-.07-.05c.31.74.93.63,1.54.57l-.05,0,1.46.61h0l1,.47h0L983,504v.51h-.5L982,504l-1,0-.5-.49h0l-1-.5H979l-.51-.5h0L978,502l-1,0-1.5-.51h0l-2-.5Z" transform="translate(-875.07 -484.1)"/><path class="cls-16" d="M925.5,521c-1,1.34-.62,4-3.49,3.52l2-3.51.06,0C924.59,522.45,925,520.84,925.5,521Z" transform="translate(-875.07 -484.1)"/><path class="cls-9" d="M983,504l-1.48-1.53c1.74.11,2.92,2.21,4.93,1.42l0,.63Z" transform="translate(-875.07 -484.1)"/><path class="cls-8" d="M951,500.57c-.9,1.19-2.21,1.35-3.57,1.37Z" transform="translate(-875.07 -484.1)"/><path class="cls-10" d="M984.54,571.59a1.37,1.37,0,0,1,1.5-1.07Z" transform="translate(-875.07 -484.1)"/><path class="cls-17" d="M917.43,546.34l.07,2.16-.55-1.1Z" transform="translate(-875.07 -484.1)"/><path class="cls-16" d="M924.42,520.43l1-1.49.11.09-1,1.5Z" transform="translate(-875.07 -484.1)"/><path class="cls-5" d="M900.52,590.09c.51-.84,1.33-.53,2.05-.56Z" transform="translate(-875.07 -484.1)"/><path class="cls-9" d="M979.09,501.43c-.61.06-1.23.17-1.54-.57Z" transform="translate(-875.07 -484.1)"/><path class="cls-9" d="M980.5,502l-1.46-.61Z" transform="translate(-875.07 -484.1)"/><path class="cls-18" d="M955.74,584.19a2.16,2.16,0,0,1,0-.43s.17-.11.19-.1a2.18,2.18,0,0,1,.22.31Z" transform="translate(-875.07 -484.1)"/><path class="cls-19" d="M978.18,589.05a2.65,2.65,0,0,1-.25.3s-.19-.06-.19-.1a2.93,2.93,0,0,1,0-.41Z" transform="translate(-875.07 -484.1)"/><path class="cls-5" d="M893,592.57l1.62-.52Z" transform="translate(-875.07 -484.1)"/><path class="cls-5" d="M899,590.58c.35-.67,1-.57,1.55-.52Z" transform="translate(-875.07 -484.1)"/><path class="cls-5" d="M896,591.61c.38-.74,1-.58,1.67-.54Z" transform="translate(-875.07 -484.1)"/><path class="cls-8" d="M953,500.05l-1.21.38Z" transform="translate(-875.07 -484.1)"/><path class="cls-9" d="M981.54,502.47l-1-.47Z" transform="translate(-875.07 -484.1)"/><path class="cls-8" d="M947.47,501.92l-1.09.47Z" transform="translate(-875.07 -484.1)"/><path class="cls-9" d="M976.16,500.44,975,500Z" transform="translate(-875.07 -484.1)"/><path class="cls-16" d="M925.43,518.94l.6-.91h0l-.52,1Z" transform="translate(-875.07 -484.1)"/><path class="cls-16" d="M928,515.58l-.06.92a3.13,3.13,0,0,0-.44,0l-.15-.16Z" transform="translate(-875.07 -484.1)"/><path class="cls-10" d="M983.05,572.6l1-.59Z" transform="translate(-875.07 -484.1)"/><path class="cls-5" d="M908,587.4l1-.41Z" transform="translate(-875.07 -484.1)"/><path class="cls-5" d="M910,586.5l1.08-.43Z" transform="translate(-875.07 -484.1)"/><path class="cls-5" d="M905,588.51l1.12-.46Z" transform="translate(-875.07 -484.1)"/><path class="cls-20" d="M1013.79,588.21c-.13.09-.23.22-.34.23s-.17-.16-.24-.26.11-.15.15-.14A2.39,2.39,0,0,1,1013.79,588.21Z" transform="translate(-875.07 -484.1)"/><path class="cls-5" d="M903.52,589.06l1.18-.49Z" transform="translate(-875.07 -484.1)"/><path class="cls-5" d="M898,591l1.07-.46Z" transform="translate(-875.07 -484.1)"/><path class="cls-5" d="M895,592l1.07-.39Z" transform="translate(-875.07 -484.1)"/><path class="cls-16" d="M924,521l.41-.58.11.1-.46.51Z" transform="translate(-875.07 -484.1)"/><path class="cls-13" d="M989.52,567.54,990,567Z" transform="translate(-875.07 -484.1)"/><path class="cls-13" d="M989,568l.52-.52Z" transform="translate(-875.07 -484.1)"/><path class="cls-13" d="M988.52,568.55l.53-.53C988.87,568.2,988.7,568.38,988.52,568.55Z" transform="translate(-875.07 -484.1)"/><path class="cls-16" d="M926,518l.46-.54,0,0-.47.51Z" transform="translate(-875.07 -484.1)"/><path class="cls-16" d="M926.49,517.49l.44-.56.1.1-.5.5Z" transform="translate(-875.07 -484.1)"/><path class="cls-16" d="M926.93,516.93l.45-.55.15.16c-.17.16-.34.32-.5.49Z" transform="translate(-875.07 -484.1)"/><path class="cls-9" d="M977.62,500.91l-.61-.32Z" transform="translate(-875.07 -484.1)"/><path class="cls-4" d="M994.5,499.93H994l.55-.43Z" transform="translate(-875.07 -484.1)"/><path class="cls-5" d="M909,587l.73-.43Z" transform="translate(-875.07 -484.1)"/><path class="cls-5" d="M907,587.83l.54-.31Z" transform="translate(-875.07 -484.1)"/><path class="cls-5" d="M903,589.37l.54-.34Z" transform="translate(-875.07 -484.1)"/><path class="cls-10" d="M984,572l.57-.47Z" transform="translate(-875.07 -484.1)"/><path class="cls-21" d="M1000.5,502.5c-.81-.19-2.13.52-2.33-.72s1.33-1.2,2.11-1.67c7.86-4.78,16.2-8.26,25.4-9.41,1.78-.22,3.59-.64,5.32.28-.38.11-1,.1-1.11.34-.31.56.29.58.65.68,2.51.72,2.77,2.56,2.3,4.71-.18.8-.65,1.58.16,2.29-3,6.52-8,11.43-13.08,16.31-3.76,3.6-7.84,6.87-11.52,10.57-1,1-2.79,3.6-5.4,3.12-.8-.08-1.82.29-2-1l.5-1.5c4.53-2.61,8.16-6.34,11.68-10.07s8.92-5.9,9.74-12c.17-1.27,2.69-1.77,2-4-1-3.23-2.66-4.79-6.22-3.66-5.72,1.8-11.48,3.45-17.23,5.17l-.5.5Z" transform="translate(-875.07 -484.1)"/><path class="cls-22" d="M1001,528c.18,1.29,1.2.92,2,1-.69,1.16-5,.23-2,3.5l-1,1.5c-2.33.66-3.75,2.65-5.65,3.94a5.69,5.69,0,0,0-1,1.23c.74.61,1.22,0,1.73-.39,1.56-1.12,2.45-.4,2.42,1.19-.08,4.31.36,8.7-2,12.72-.94,1.61-2.27,3.19-1.94,5.32h0l-.49.5c0,.16,0,.32,0,.49l-.5.5h0c-1.6.5-1.68,2.76-3.5,3,3.63-5.32,5.52-11.31,6.8-17.56a4.14,4.14,0,0,0-1.54-4.17c-.79-.67-1.74-.25-2.26.73l-3.49,2c-1-.08-1-.78-1-1.51.31-2.29-.91-1.5-1.88-.88-4.78,3.08-9.46,6.32-14.33,9.26-4.36,2.65-8.35,6-13.29,7.63a41.79,41.79,0,0,1,11.52-7.83c2.26-1,4.35-1.87,5.49-4.17a46.8,46.8,0,0,0,9-6.49A63.6,63.6,0,0,0,994.34,533C996.48,531.26,998.16,528.83,1001,528Z" transform="translate(-875.07 -484.1)"/><path class="cls-23" d="M1000,534l1-1.5,1.44.55c-1.77.18-1.45,1.54-1.44,2.64a34.08,34.08,0,0,1-1,10.31h-.5C999.09,542,998.3,537.93,1000,534Z" transform="translate(-875.07 -484.1)"/><path class="cls-24" d="M1033,499c-.81-.71-.34-1.49-.16-2.29.47-2.15.21-4-2.3-4.71-.36-.1-1-.12-.65-.68.13-.24.73-.23,1.11-.34l1.47,0,.54.46c1.54,1.62,2.07,3.42,1,5.51-.16.33-.32.67-.49,1h0l-.5,1Z" transform="translate(-875.07 -484.1)"/><path class="cls-21" d="M1033,499l.5-1Z" transform="translate(-875.07 -484.1)"/><path class="cls-21" d="M1033.5,498c.17-.34.33-.68.49-1C1033.83,497.32,1033.67,497.66,1033.5,498Z" transform="translate(-875.07 -484.1)"/><path class="cls-21" d="M1033,491.48l-.54-.46.53,0C1033,491.16,1033,491.32,1033,491.48Z" transform="translate(-875.07 -484.1)"/><path class="cls-25" d="M930.5,573c-1.93,3.84-6.26,4.34-9.44,6.09a73.93,73.93,0,0,1-19.22,7.53c-1.6.35-3.23.59-4.85.87a1,1,0,0,0-1.42-.89c-2.38.81-4.72.3-7.07-.1-3.58-2.24-1.67-4.83-.59-7.47.2-.5,1.92-1.3.1-2,3.31-6,8.53-10.21,13.46-14.7,4.22-3.85,8.55-7.58,12.86-11.34.92-.81,2-1.28,3.17-.47h0a3.16,3.16,0,0,1-1.37,3c-8.28,6.89-16.53,13.85-22.07,23.32a20.79,20.79,0,0,0-1.44,4.44c2.17.29,3.32,2.62,6.24,2.08,5.52-1,11-1.95,16.14-4.31l1.5-.5h0l13-5.5h1Z" transform="translate(-875.07 -484.1)"/><path class="cls-26" d="M888,577c1.82.72.1,1.52-.1,2-1.08,2.64-3,5.23.59,7.47l.54.75-1,.27h-1c-4.11-3-.94-6,0-9l.49-.53h0l.52-1Z" transform="translate(-875.07 -484.1)"/><path class="cls-17" d="M917.5,548.5c.17.67.33,1.34.5,2h-.5Z" transform="translate(-875.07 -484.1)"/><path class="cls-25" d="M888,577l-.52,1Z" transform="translate(-875.07 -484.1)"/><path class="cls-25" d="M887.5,578l-.49.53Z" transform="translate(-875.07 -484.1)"/><path class="cls-27" d="M996.41,507.9c5.26-3.07,10.88-4.82,17-4.34,2.34.18,2.4,2,1.88,3.75-1.16,3.84-3.68,6.85-6.48,9.56-2.53,2.45-4.55,5.5-7.82,7.14h0l0-.53,1-1.44.5-.5A1.55,1.55,0,0,0,1004,520a23.27,23.27,0,0,0,7.15-7.34c2.67-4.64,1.57-6.68-2.69-6.7-4.19-.49-7.94,1.63-12,2Z" transform="translate(-875.07 -484.1)"/><path class="cls-28" d="M983,504l3.5.52a3.83,3.83,0,0,1,.89-.43c1.77-.38,3-2.1,5-2-1.33.92-2.67,1.81-4,2.76-.26.19-.35.6-.51.91a7.5,7.5,0,0,0,1.85-.16c2.08-.72,3.72-2.78,6.29-2.09.81,2.28.67,4-2.35,4.13-.79-.17-1.51-.21-1.67.86h0c-2.25,1.48-3.21-1.33-5-1.49h0l-.51-.49h0a1.54,1.54,0,0,0-1.51-1h0l-1.47-.53h0l-.51-.48h0Z" transform="translate(-875.07 -484.1)"/><path class="cls-29" d="M1001,528c-2.84.83-4.52,3.26-6.66,5A63.6,63.6,0,0,1,984,539.52c0-.19,0-.37,0-.55l5.51-4.47h0L990,534h0a2.7,2.7,0,0,0,2-1.53h0l.51-.49h0a2.55,2.55,0,0,0,2-1.51h0c1.25-.15,1.87-1.09,2.52-2,1.36-1.36,3.84-1.84,3.49-4.51h.49c.16.83.33,1.66.5,2.49Z" transform="translate(-875.07 -484.1)"/><path class="cls-30" d="M987,507c1.77.16,2.73,3,5,1.49l.54,1.47.5.52.52.47,4.47,6.53.5,2.52-.49.49-3-4h0c.24-1.37-1-2-1.52-3Z" transform="translate(-875.07 -484.1)"/><path class="cls-30" d="M992,508.49c.16-1.07.88-1,1.67-.86Z" transform="translate(-875.07 -484.1)"/><path class="cls-31" d="M993,510.48l-.5-.52c.07-.58.33-1,1-1l0,0c-.14.47-.29.94-.43,1.41Z" transform="translate(-875.07 -484.1)"/><path class="cls-31" d="M994.48,508.48,996,508v.53h-1.5Z" transform="translate(-875.07 -484.1)"/><path class="cls-31" d="M993.48,509l1-.5,0,0-1,.5Z" transform="translate(-875.07 -484.1)"/><path class="cls-4" d="M1001,502.5l.5-.5Z" transform="translate(-875.07 -484.1)"/><path class="cls-27" d="M996,508.51V508l.41-.08.12.13Z" transform="translate(-875.07 -484.1)"/><path class="cls-32" d="M930.5,573H930c-.33-.67-.67-1.33-1-2,1.93.8,3.85,1.21,5.79,0,1.37-.88,2.8-1.65,4.21-2.47h1c-.87.83-3.18,1.13-2.43,2.43.87,1.51,2.19-.32,3.26-.85,2.4-1.17,4.78-2.38,7.17-3.58l.5-.5h.5c.26,1.29-.77,1.8-1.5,2.5l-1.5,1-.5.49h0l-1,.5h0l-3,1.49-1,.5h0l-2.5,1c-1.65-.34-3.07-.08-4,1.5Z" transform="translate(-875.07 -484.1)"/><path class="cls-33" d="M888,587.52l1-.27-.54-.75c2.35.4,4.69.91,7.07.1a1,1,0,0,1,1.42.89C894,587.51,891,588.82,888,587.52Z" transform="translate(-875.07 -484.1)"/><path class="cls-34" d="M929,571l1,2h-.5c-5.35-.57-8.87,3.19-13,5.5h0l-1.5.5c-5.14,2.36-10.62,3.28-16.14,4.31-2.92.54-4.07-1.79-6.24-2.08a20.79,20.79,0,0,1,1.44-4.44c5.54-9.47,13.79-16.43,22.07-23.32a3.16,3.16,0,0,0,1.37-3h.5v.5c.17,1.33.33,2.67.49,4-2.43,1-3.86,3.14-5.47,5-2.75,3.18-5.86,6.1-7.77,9.93s-.8,5.48,3.33,5.57c5.37.12,10.21-1.89,15.09-3.68,1.38-.51,3.23-.47,3.81-2.35l.57.4,0,.56-.07.87.56-.36Z" transform="translate(-875.07 -484.1)"/><path class="cls-35" d="M939,511l-3,1c2.42-2.78,6-3.72,9-5.55,3.32-2,7.54-1.8,10.56-4.44,4.15,0,8.12-1.91,12.41-.84,3.45.87,7,1.25,10.56,1.85L993,513.51c.31,1.24-.08,3,2,3h0c0,.5,0,1,0,1.51-.67-.33-1.33-.67-2-1-.34-.66-.68-1.32-1-2-1-2.17-3.33-2.33-5-3.5h0a.93.93,0,0,0-1-1h0l-1.5-1h0l-.5-.5h0l-1-.5a5.27,5.27,0,0,0-1-1.13c-8.64-5.6-18-5.83-27.69-3.7-.33.07-.58.54-.87.83L950,506c-4.34.19-7.72,2.48-11,5Z" transform="translate(-875.07 -484.1)"/><path class="cls-36" d="M924.5,526.5c1.42-4.53,5-7.25,8.5-10l17-9.5,1-.5h.5l7.5-.5c-.64.77-1.57.78-2.44,1.05-3.88,1.23-8.35.76-11.56,3.95-6.87,4-13.12,8.65-18,15l-2.5.5Z" transform="translate(-875.07 -484.1)"/><path class="cls-17" d="M918.49,555c-.16-1.33-.32-2.67-.49-4,1.42-2.4.57-5.1.72-7.6.17-2.88.19-5.69,1.28-8.4.17,1,.59,1.89-.09,3s-1,2.85.59,4a37,37,0,0,0,.28,14.28c.69,3.58,2.29,7.7,6.23,9.73l-1,1-.07,0-.57,0c-2.61-2.52-4.14-5.7-5.53-9l-.39-.57h0l0-.55c0-.71-.06-1.4-1-1.46h0A4,4,0,0,0,918.49,555Z" transform="translate(-875.07 -484.1)"/><path class="cls-37" d="M955.51,502c-3,2.64-7.24,2.43-10.56,4.44-3,1.83-6.53,2.77-9,5.55l-6,4.49L927,519h0l-.5.5h0l-.51,1h0l-.5.5h0c-.48-.16-.91,1.45-1.43,0l.46-.51,1-1.5.52-1,.47-.51.5-.5c.16-.17.33-.33.5-.49a3.13,3.13,0,0,1,.44,0c4.81-3.26,8.67-7.86,14.27-10,1.15-.45,2.73-.4,3.26-2h0L946,504h.49l1-.49h0L955,502Z" transform="translate(-875.07 -484.1)"/><path class="cls-38" d="M950,507l-17,9.5,6-5.5h0c3.84-1.07,7-3.87,11-4.5h0Z" transform="translate(-875.07 -484.1)"/><path class="cls-36" d="M920.5,542c-1.57-1.11-1.32-2.71-.59-4s.26-2,.09-3c0-.5,0-1,0-1.49,2.66-.61,2.5-3.47,4-5C922.62,532.94,920.38,537.17,920.5,542Z" transform="translate(-875.07 -484.1)"/><path class="cls-17" d="M924,528.5c-1.49,1.54-1.33,4.4-4,5,1.13-2.46,1.36-5.42,4-7v.5C924,527.5,924,528,924,528.5Z" transform="translate(-875.07 -484.1)"/><path class="cls-16" d="M927,519l3-2.52A2.9,2.9,0,0,1,927,519Z" transform="translate(-875.07 -484.1)"/><path class="cls-16" d="M926,520.5l.51-1Z" transform="translate(-875.07 -484.1)"/><path class="cls-16" d="M925.5,521l.5-.5Z" transform="translate(-875.07 -484.1)"/><path class="cls-16" d="M926.51,519.51l.5-.5Z" transform="translate(-875.07 -484.1)"/><path class="cls-36" d="M924,527v-.5h.5Z" transform="translate(-875.07 -484.1)"/><path class="cls-39" d="M938,573.5l2.5-1a2.61,2.61,0,0,0,2,2.84c3.81,1,7.67,1.78,11.52,2.64,4,0,8,.14,12-1.4,7.16-2.78,13.82-6.19,19.11-11.9a35.94,35.94,0,0,0,9.15-18.57c.24-1.39,1.81-4.72-2.22-4.62.52-1,1.47-1.4,2.26-.73a4.14,4.14,0,0,1,1.54,4.17c-1.28,6.25-3.17,12.24-6.8,17.56-.68,3.15-4.85,3.33-5.51,6.49-4.06,2.67-8,5.49-12.49,7.51-5.81,1.65-11.53,4-17.74,3-2.58-.4-5.3.26-7.76-1l-.5-.5h-.5c-.29-1.49-1.73-1-2.59-1.43-1.5-.8-3.72-.61-3.91-3.07Z" transform="translate(-875.07 -484.1)"/><path class="cls-40" d="M971,576.5c4.45-2,8.43-4.84,12.49-7.51l4.5-2.5,0,0c0,.16,0,.33,0,.49h0c-.06,0-.19.11-.18.14a2.48,2.48,0,0,0,.17.37L984.5,570l-.5.49h0c-1.07,0-1.91.23-2,1.5h0l-12,6Z" transform="translate(-875.07 -484.1)"/><path class="cls-32" d="M938,573.5c.19,2.46,2.41,2.27,3.91,3.07.86.47,2.3-.06,2.59,1.43-2.3.21-4.1-1.12-6-2C937.3,575.5,936.6,574.62,938,573.5Z" transform="translate(-875.07 -484.1)"/><path class="cls-40" d="M968,578.5l-3,1C965.67,578.15,966.92,578.58,968,578.5Z" transform="translate(-875.07 -484.1)"/><path class="cls-40" d="M969,578l-1,.49Z" transform="translate(-875.07 -484.1)"/><path class="cls-32" d="M945,578l.5.5Z" transform="translate(-875.07 -484.1)"/><path class="cls-41" d="M955.51,502l-.52,0,2-1.48h0l2.52-.49,9,0h0a11.05,11.05,0,0,0,5,1h0l2,.5h0l1.5.51,1,0,.54.48h0c0,.17,0,.33,0,.49l0,0c-3.53-.6-7.11-1-10.56-1.85C963.63,500.1,959.66,502,955.51,502Z" transform="translate(-875.07 -484.1)"/><path class="cls-8" d="M957,500.51,955,502l-7.49,1.52C950.39,501.63,953.75,501.22,957,500.51Z" transform="translate(-875.07 -484.1)"/><path class="cls-42" d="M968.5,500c.85-.79,1.83-.5,2.8-.36l-2.06.35a6.06,6.06,0,0,1-.74,0Z" transform="translate(-875.07 -484.1)"/><path class="cls-8" d="M959.52,500l-2.52.49C957.72,499.7,958.66,500.1,959.52,500Z" transform="translate(-875.07 -484.1)"/><path class="cls-43" d="M974.32,500.16l-.83.38-.5-.36Z" transform="translate(-875.07 -484.1)"/><path class="cls-8" d="M947.5,503.51l-1,.49Z" transform="translate(-875.07 -484.1)"/><path class="cls-8" d="M946,504l-.51.49Z" transform="translate(-875.07 -484.1)"/><path class="cls-40" d="M993,559c0-.17,0-.33,0-.49l.49-.5h0l1.48-.52.5.51a16.46,16.46,0,0,1-5,6h0c0-1.79,2.89-2.3,2-4.49h0Z" transform="translate(-875.07 -484.1)"/><path class="cls-40" d="M990.5,564l-.5.5h0l.49-.5Z" transform="translate(-875.07 -484.1)"/><path class="cls-40" d="M990,564.5l-.5.5h0l.5-.5Z" transform="translate(-875.07 -484.1)"/><path class="cls-40" d="M989.5,565l-.49.51,0,0,.5-.5Z" transform="translate(-875.07 -484.1)"/><path class="cls-40" d="M989,565.51l-.5.51v0l.49-.51Z" transform="translate(-875.07 -484.1)"/><path class="cls-40" d="M988.51,566l-.5.49,0,0,.51-.49Z" transform="translate(-875.07 -484.1)"/><path class="cls-44" d="M995,557.49l-1.48.52c-.33-2.13,1-3.71,1.94-5.32,2.36-4,1.92-8.41,2-12.72,0-1.59-.86-2.31-2.42-1.19-.51.36-1,1-1.73.39a5.69,5.69,0,0,1,1-1.23c1.9-1.29,3.32-3.28,5.65-3.94-1.69,3.93-.9,8-.49,12Z" transform="translate(-875.07 -484.1)"/><path class="cls-10" d="M982,572c.09-1.27.93-1.54,2-1.5Z" transform="translate(-875.07 -484.1)"/><path class="cls-13" d="M988,567.51a2.48,2.48,0,0,1-.17-.37s.12-.09.18-.14Z" transform="translate(-875.07 -484.1)"/><path class="cls-10" d="M984,570.5l.5-.49Z" transform="translate(-875.07 -484.1)"/><path class="cls-45" d="M993,513.51,978.48,503l0,0h1l1,.5h0l.5.49,1,0,.51.48h.5l.51.48h0l1.47.53h0l1.51,1h0l.51.49h0l6.49,6.51Z" transform="translate(-875.07 -484.1)"/><path class="cls-9" d="M975.5,501.5l-2-.5Z" transform="translate(-875.07 -484.1)"/><path class="cls-9" d="M977,502l-1.5-.51Z" transform="translate(-875.07 -484.1)"/><path class="cls-9" d="M980.5,503.51l-1-.5Z" transform="translate(-875.07 -484.1)"/><path class="cls-9" d="M979,503h-.49c0-.16,0-.32,0-.49Z" transform="translate(-875.07 -484.1)"/><path class="cls-9" d="M978.5,502.51,978,502Z" transform="translate(-875.07 -484.1)"/><path class="cls-9" d="M982.5,504.49,982,504Z" transform="translate(-875.07 -484.1)"/><path class="cls-9" d="M981,504l-.5-.49Z" transform="translate(-875.07 -484.1)"/><path class="cls-46" d="M992,541.5c4-.1,2.46,3.23,2.22,4.62a35.94,35.94,0,0,1-9.15,18.57c-5.29,5.71-12,9.12-19.11,11.9-4,1.54-7.93,1.39-12,1.4.15-1,1-.91,1.7-1,8.33-1,16.54-2.48,23-8.38,5.44-4.94,11.44-9.63,11.26-18.11,1.17-1.38,2.07-2.8.64-4.55-1-1.26-2.23-1.08-3.54-.52a13.55,13.55,0,0,1-2.1.57l3.51-2.49Z" transform="translate(-875.07 -484.1)"/><path class="cls-47" d="M988.51,543.51,985,546l-10,6.5-18,11L952.5,566a5.89,5.89,0,0,0-3.5,2.49h-1.5c.73-.7,1.76-1.21,1.5-2.5l1.5-1.5h.5l.5-.5c6.91-4,13.89-7.89,20.72-12,5.19-3.16,10.19-6.64,15.28-10C987.49,542.73,987.53,543.43,988.51,543.51Z" transform="translate(-875.07 -484.1)"/><path class="cls-48" d="M951,564.5h-.5l-.5-1h0a1.52,1.52,0,0,0,1.5-1L958,558c4.94-1.66,8.93-5,13.29-7.63,4.87-2.94,9.55-6.18,14.33-9.26,1-.62,2.19-1.41,1.88.88-5.09,3.33-10.09,6.81-15.28,10-6.83,4.14-13.81,8-20.72,12Z" transform="translate(-875.07 -484.1)"/><path class="cls-49" d="M958,558l-6.5,4.48-1.5,1h0c-3,.18-5,2.37-7.5,3.5l-1,.5h0l-1.5,1h-1c.14-1.14,1-1.49,1.86-2,3.27-2.07,6.42-4.33,9.61-6.52,0-.13,0-.25,0-.38l17.94-10.08a1.49,1.49,0,0,0,1.54-1h0a5.12,5.12,0,0,0,4-2.51h0l1,0c-1.14,2.3-3.23,3.18-5.49,4.17A41.79,41.79,0,0,0,958,558Z" transform="translate(-875.07 -484.1)"/><path class="cls-44" d="M988.5,566l-.51.49-4.5,2.5c.66-3.16,4.83-3.34,5.51-6.49,1.82-.24,1.9-2.5,3.5-3,.87,2.19-2,2.7-2,4.49l-.49.5-.5.5-.5.5Z" transform="translate(-875.07 -484.1)"/><path class="cls-50" d="M975,546l-1,0,10-7c0,.18,0,.36,0,.55A46.8,46.8,0,0,1,975,546Z" transform="translate(-875.07 -484.1)"/><path class="cls-44" d="M993.5,558l-.49.5Z" transform="translate(-875.07 -484.1)"/><path class="cls-44" d="M993,559l-.5.5Z" transform="translate(-875.07 -484.1)"/><path class="cls-5" d="M916.5,578.5c4.13-2.31,7.65-6.07,13-5.5Z" transform="translate(-875.07 -484.1)"/><path class="cls-5" d="M915,579l1.5-.5Z" transform="translate(-875.07 -484.1)"/><path class="cls-51" d="M996,508.51l.52-.48c4-.4,7.78-2.52,12-2,1.28.71,3.51,1.06,2.77,3s-1.24,4.26-3.31,5.5c.16-.64.33-1.27.46-1.92.71-3.54-.13-5.79-4.35-5-2.68.47-5.35,1-8,1.57,0-.19,0-.38,0-.57Z" transform="translate(-875.07 -484.1)"/><path class="cls-52" d="M1008,514.48c2.07-1.24,2.56-3.57,3.31-5.5s-1.49-2.27-2.77-3c4.26,0,5.36,2.06,2.69,6.7A23.27,23.27,0,0,1,1004,520l-.11-.11Z" transform="translate(-875.07 -484.1)"/><path class="cls-3" d="M1001,524h-.49l-1-2.5c-.05-.18-.09-.37-.13-.55l.17,0,.17,0,.82,1,.56,1.46Z" transform="translate(-875.07 -484.1)"/><path class="cls-52" d="M1004,520a1.55,1.55,0,0,1-1.51,1.49l-.09-.1,1.49-1.5Z" transform="translate(-875.07 -484.1)"/><path class="cls-52" d="M1001.05,523.47l-.56-1.46,1.45-.09.09.11Z" transform="translate(-875.07 -484.1)"/><path class="cls-52" d="M1002.53,521.53l-.5.5-.09-.11.5-.49Z" transform="translate(-875.07 -484.1)"/><path class="cls-11" d="M986.5,506.5l-1.51-1A1.54,1.54,0,0,1,986.5,506.5Z" transform="translate(-875.07 -484.1)"/><path class="cls-11" d="M985,505.51l-1.47-.53Z" transform="translate(-875.07 -484.1)"/><path class="cls-11" d="M987,507l-.51-.49Z" transform="translate(-875.07 -484.1)"/><path class="cls-11" d="M983.51,505l-.51-.48Z" transform="translate(-875.07 -484.1)"/><path class="cls-53" d="M984,539l-10,7h0q-2,1.26-4,2.51h0l-1.54,1-17.94,10.08c.18-.53.38-1.07-.53-1.07,0-.16,0-.32,0-.49l.52-.48,1-.5c4.16-2,8.41-4,12-7l1-.49a9.34,9.34,0,0,0,4.51-3c1.3-.44,2.62-.83,3.45-2a7.09,7.09,0,0,0,3.5-2l.51-.48,1.5-1c.16-.17.33-.33.5-.49l9-6c.66,2,1.35-.73,2,0Z" transform="translate(-875.07 -484.1)"/><path class="cls-54" d="M989.5,534.5c-.66-.74-1.35,1.94-2,0h0L988,534h0a2.32,2.32,0,0,0,2-1.51h0l.51-.49h0c2.59-1.3,4.52-3.4,6.6-5.34,1.25-1.16,2.43-2.28,1.39-4.17,0-.33,0-.66,0-1h1l1,2.5c.35,2.67-2.13,3.15-3.49,4.51-1.28.11-1.9,1-2.52,2h0a2.3,2.3,0,0,0-2,1.51h0l-.51.49h0a2.28,2.28,0,0,0-2,1.53h0l-.53.48Z" transform="translate(-875.07 -484.1)"/><path class="cls-53" d="M994.5,530.51c.62-1,1.24-1.89,2.52-2C996.37,529.42,995.75,530.36,994.5,530.51Z" transform="translate(-875.07 -484.1)"/><path class="cls-53" d="M990,534a2.28,2.28,0,0,1,2-1.53A2.7,2.7,0,0,1,990,534Z" transform="translate(-875.07 -484.1)"/><path class="cls-53" d="M992.51,532a2.3,2.3,0,0,1,2-1.51A2.55,2.55,0,0,1,992.51,532Z" transform="translate(-875.07 -484.1)"/><path class="cls-53" d="M989.5,534.5,990,534Z" transform="translate(-875.07 -484.1)"/><path class="cls-53" d="M992,532.5l.51-.49Z" transform="translate(-875.07 -484.1)"/><path class="cls-55" d="M998.51,521.5c0,.33,0,.66,0,1l-1,.53c-.84-1.67-1.69-3.34-2.53-5,0-.5,0-1,0-1.51,1,1.33,2,2.67,3,4C998.18,520.83,998.34,521.16,998.51,521.5Z" transform="translate(-875.07 -484.1)"/><path class="cls-55" d="M993,513.51h.5c.53,1,1.76,1.61,1.52,3C992.91,516.47,993.3,514.75,993,513.51Z" transform="translate(-875.07 -484.1)"/><path class="cls-55" d="M998,517.48l1.66,3.49-.17,0-.17,0-.82-1Z" transform="translate(-875.07 -484.1)"/><path class="cls-53" d="M998.51,520l.82,1c0,.18.08.37.13.55h-1c-.17-.34-.33-.67-.49-1Z" transform="translate(-875.07 -484.1)"/><path class="cls-31" d="M993.52,510.5a.55.55,0,0,1,0,.45l-.52-.47.06-.05A2.13,2.13,0,0,0,993.52,510.5Z" transform="translate(-875.07 -484.1)"/><path class="cls-27" d="M993.52,510.5a2.13,2.13,0,0,1-.44-.07c.14-.47.29-.94.43-1.41l1-.5H996c0,.19,0,.38,0,.57Z" transform="translate(-875.07 -484.1)"/><path class="cls-56" d="M947.5,568.5H949v.5c-1.09.2-1.85.58-1.6,2s.59,2.53,2,2.45c4-.26,8.11.09,11.85-.42,5.69-.77,10.73-4.31,15.75-7.49s4.69-9.94,9.53-13l1-1V553h0l-.5.5c-1.51,1.69,1.12,3.69-.84,5.74-10.58,11-22.56,18.25-38.61,15.77-2.75-.42-4.2-1.53-3-4.5h0l1-.5h0l.5-.49Z" transform="translate(-875.07 -484.1)"/><path class="cls-57" d="M944.5,570.51c-1.15,3,.3,4.08,3,4.5,16.05,2.48,28-4.74,38.61-15.77,2-2-.67-4,.84-5.74l.5-.5h0l2.5-2.5c.18,8.48-5.82,13.17-11.26,18.11-6.5,5.9-14.71,7.38-23,8.38-.75.09-1.55,0-1.7,1-3.85-.86-7.71-1.64-11.52-2.64a2.61,2.61,0,0,1-2-2.84h0c.34-.16.67-.33,1-.5Z" transform="translate(-875.07 -484.1)"/><path class="cls-58" d="M950.47,559.94c-3.19,2.19-6.34,4.45-9.61,6.52-.88.55-1.72.9-1.86,2-1.41.82-2.84,1.59-4.21,2.47-1.94,1.25-3.86.84-5.79,0l-.5,0-.49-.51c0-.18,0-.37,0-.56,1.68.35,3.06-.51,4.46-1.19C938.51,565.83,944.48,562.87,950.47,559.94Z" transform="translate(-875.07 -484.1)"/><path class="cls-59" d="M942.5,567c2.52-1.13,4.54-3.32,7.5-3.5l.5,1L949,566h-.5l-.5.5c-2.39,1.2-4.77,2.41-7.17,3.58-1.07.53-2.39,2.36-3.26.85-.75-1.3,1.56-1.6,2.43-2.43h0l1.5-1h0Z" transform="translate(-875.07 -484.1)"/><path class="cls-57" d="M945.5,570l-1,.5Z" transform="translate(-875.07 -484.1)"/><path class="cls-39" d="M941.5,572c-.33.17-.66.34-1,.5C940.84,572.34,941.17,572.17,941.5,572Z" transform="translate(-875.07 -484.1)"/><path class="cls-47" d="M948,566.5l.5-.5Z" transform="translate(-875.07 -484.1)"/><path class="cls-57" d="M946,569.51l-.5.49Z" transform="translate(-875.07 -484.1)"/><path class="cls-60" d="M927.48,569.52c-.58,1.88-2.43,1.84-3.81,2.35-4.88,1.79-9.72,3.8-15.09,3.68-4.13-.09-5.21-1.79-3.33-5.57s5-6.75,7.77-9.93c2.38-.86,3.38-3.38,5.49-4.56h0c.17.5.34,1,.5,1.49-1.91.52-2.26,2.78-4,3.56-3.71,1.58-4.45,5.49-6.45,8.38-1.39,2-.7,3.63,1.89,4.08-.46,1.6-1.76,1.14-2.63.79s-2.12-1.1-1.5-2.65a3,3,0,0,0-.09-1.16,5.6,5.6,0,0,0-.72.92c-1.6,3.51,1.17,4.17,3.26,4,3.44-.34,6.79-1.53,10.18-2.36h0a20.77,20.77,0,0,0,8-3,4.07,4.07,0,0,0,.5,0Z" transform="translate(-875.07 -484.1)"/><path class="cls-61" d="M950.47,559.94c-6,2.93-12,5.89-18,8.79-1.4.68-2.78,1.54-4.46,1.19l-.57-.4h0L927,569h0l-.59-.9,0,0L926,567l.07,0c7-.1,13.1-3,19-6.52a1.92,1.92,0,0,0,2-1l1-.5,1-.5,1,0c.91,0,.71.54.53,1.07C950.5,559.69,950.48,559.81,950.47,559.94Z" transform="translate(-875.07 -484.1)"/><path class="cls-25" d="M918.51,555.49c-2.11,1.18-3.11,3.7-5.49,4.56,1.61-1.91,3-4,5.47-5A4,4,0,0,1,918.51,555.49Z" transform="translate(-875.07 -484.1)"/><path class="cls-32" d="M928,570.48l.49.51-.56.36Z" transform="translate(-875.07 -484.1)"/><path class="cls-62" d="M959,506l-7.5.5,3-2c12-2.79,22.62.2,32,8,1,2.63,3.65,1.69,5.5,2.5.33.67.67,1.33,1,2,1,2.51,2,5,3,7.51h0l-.49.51-1,1c-.17-1-.37-2-.52-2.93-.71-4.76-3.39-7-8-6.62-.6,0-1.84.2-1.66-.48.87-3.35-2.06-3.76-3.73-5.06C974.19,505.93,966.89,504.62,959,506Z" transform="translate(-875.07 -484.1)"/><path class="cls-63" d="M986.5,512.5c-9.38-7.8-20-10.79-32-8h-1c.29-.29.54-.76.87-.83,9.68-2.13,19-1.9,27.69,3.7a5.27,5.27,0,0,1,1,1.13l1,.5h0l.5.5h0l1.5,1h0l1,1h0Z" transform="translate(-875.07 -484.1)"/><path class="cls-64" d="M996,524.5c-1-2.5-2-5-3-7.51.66.34,1.32.68,2,1,.84,1.68,1.69,3.35,2.53,5-.17.33-.34.66-.52,1l-.49.5h0Z" transform="translate(-875.07 -484.1)"/><path class="cls-6" d="M950,506.5c-4,.63-7.16,3.43-11,4.5,3.28-2.52,6.66-4.81,11-5Z" transform="translate(-875.07 -484.1)"/><path class="cls-65" d="M986.5,512.5l.5-1c1.67,1.17,4,1.33,5,3.5C990.15,514.19,987.52,515.13,986.5,512.5Z" transform="translate(-875.07 -484.1)"/><path class="cls-38" d="M950,506.5V506l3.49-1.5h1l-3,2H950Z" transform="translate(-875.07 -484.1)"/><path class="cls-65" d="M986,510.5l-1.5-1Z" transform="translate(-875.07 -484.1)"/><path class="cls-65" d="M987,511.5l-1-1A.93.93,0,0,1,987,511.5Z" transform="translate(-875.07 -484.1)"/><path class="cls-65" d="M984,509l-1-.5Z" transform="translate(-875.07 -484.1)"/><path class="cls-65" d="M984.5,509.5l-.5-.5Z" transform="translate(-875.07 -484.1)"/><path class="cls-66" d="M927,526c4.88-6.35,11.13-11,18-15,6.75-.17,13.06-3.82,20-2.5l.5-.5H967l1,1.5c-2.25-1.2-4.12-.06-6,1-4.41,2.29-9.65.67-14.13,3.48-6.54,4.12-14.46,6.39-18.55,13.62-1.45,2.55-4.67,3.87-4.94,6.91-.4,4.41-.28,8.87-.38,13.3-.06,2.42.7,3.71,3.45,2.85.61-.2,1.72-1,2.07-.07.28.79-.82,1.18-1.62,1.53-4.38,1.92-5.17,4.62-2.58,8.16A13,13,0,0,1,926.5,563c-2,.32-2-1.76-3-2.51-4.08-2.91.22-6.52-.92-10.28A26.67,26.67,0,0,1,927,526Z" transform="translate(-875.07 -484.1)"/><path class="cls-67" d="M965,508.5c-6.94-1.32-13.25,2.33-20,2.5,3.21-3.19,7.68-2.72,11.56-3.95.87-.27,1.8-.28,2.44-1.05,7.89-1.38,15.19-.07,21.6,4.92,1.67,1.3,4.6,1.71,3.73,5.06-.18.68,1.06.52,1.66.48,4.61-.34,7.29,1.86,8,6.62.15,1,.35,1.95.52,2.93h0l-.5.5-1,1c-.08-.89-.12-1.79-.27-2.67-.92-5.51-4.71-8-9.29-6.05-.64.27-1.68.71-2,.44-.95-.82.14-1.41.6-2,.77-1-.11-1.5-.65-2.05a21.63,21.63,0,0,0-9.14-5.2c-1.78-.58-2.63-3.76-5.24-1.95h-1.5Z" transform="translate(-875.07 -484.1)"/><path class="cls-68" d="M927,526a26.67,26.67,0,0,0-4.44,24.21c1.14,3.76-3.16,7.37.92,10.28,1,.75,1,2.83,3,2.51h0c.23,1.83.78,3.17,3,2l3.52-.5a10.32,10.32,0,0,1-6,1.5c-3.94-2-5.54-6.15-6.23-9.73A37,37,0,0,1,920.5,542c-.12-4.83,2.12-9.06,3.5-13.5,0-.5,0-1,0-1.5l.49-.5Z" transform="translate(-875.07 -484.1)"/><path class="cls-62" d="M950,506.5h1l-1,.5Z" transform="translate(-875.07 -484.1)"/><path class="cls-69" d="M927,566a10.32,10.32,0,0,0,6-1.5l5-2L940,562l5-1.5,0,0c-5.87,3.5-11.94,6.42-19,6.52Z" transform="translate(-875.07 -484.1)"/><path class="cls-25" d="M919,557c-.16-.49-.33-1-.5-1.49,1,.06,1,.75,1,1.46l-.5,0Z" transform="translate(-875.07 -484.1)"/><path class="cls-68" d="M925.94,568.07l-.52-1,.57,0,.42,1.06A3.69,3.69,0,0,1,925.94,568.07Z" transform="translate(-875.07 -484.1)"/><path class="cls-60" d="M919,557l.5,0c0,.18,0,.37,0,.55Z" transform="translate(-875.07 -484.1)"/><path class="cls-60" d="M919.89,558.07l-.39-.57Z" transform="translate(-875.07 -484.1)"/><path class="cls-70" d="M990,550.5l-2.5,2.5v-1.5c-.93-2.41-2.51-3.1-4.87-1.92s-4.86,2.53-7.62,2.92l10-6.5a13.55,13.55,0,0,0,2.1-.57c1.31-.56,2.51-.74,3.54.52C992.07,547.7,991.17,549.12,990,550.5Z" transform="translate(-875.07 -484.1)"/><path class="cls-71" d="M975,552.5c2.76-.39,5.18-1.69,7.62-2.92s3.94-.49,4.87,1.92l-1,1-5.5,1a33.77,33.77,0,0,0-13.71,5.88c-2.46,1.72-5.18,3.09-7.79,4.62-.71-.8-1.65-.4-2.49-.49l0,0Z" transform="translate(-875.07 -484.1)"/><path class="cls-71" d="M949,569v-.5h0a6,6,0,0,0,3.5-2.49l4.49-2.52,0,0a92.36,92.36,0,0,1-6.41,6.84C949.05,571.72,949,570.09,949,569Z" transform="translate(-875.07 -484.1)"/><path class="cls-56" d="M952.5,566a6,6,0,0,1-3.5,2.49A5.89,5.89,0,0,1,952.5,566Z" transform="translate(-875.07 -484.1)"/><path class="cls-59" d="M951,564.5l.5-.5Z" transform="translate(-875.07 -484.1)"/><path class="cls-59" d="M950,563.5l1.5-1A1.52,1.52,0,0,1,950,563.5Z" transform="translate(-875.07 -484.1)"/><path class="cls-50" d="M970,548.49q2-1.25,4-2.51A5.12,5.12,0,0,1,970,548.49Z" transform="translate(-875.07 -484.1)"/><path class="cls-32" d="M941.5,567.5l-1.5,1Z" transform="translate(-875.07 -484.1)"/><path class="cls-50" d="M968.46,549.48l1.54-1A1.49,1.49,0,0,1,968.46,549.48Z" transform="translate(-875.07 -484.1)"/><path class="cls-32" d="M942.5,567l-1,.5Z" transform="translate(-875.07 -484.1)"/><path class="cls-72" d="M993,527.49l1-1,.5-.5h0l1-1,.49-.51h0l.52,0-6,7.48h0l-.51.49h0a2.42,2.42,0,0,0-2,1.51h0l-.51.49h0l-9,6v0l.48-1.08,5.54-4.86a4.21,4.21,0,0,0,2.51-2c1.37-.39,2.15-1.5,3-2.53C991.43,529.69,992.2,528.57,993,527.49Z" transform="translate(-875.07 -484.1)"/><path class="cls-73" d="M963.54,550c-3.6,3-7.85,4.93-12,7h-1l-.07-.09,7.06-4.43,2-1,3.93-1.57Z" transform="translate(-875.07 -484.1)"/><path class="cls-73" d="M969.05,546.56a9.34,9.34,0,0,1-4.51,3l-.07-.09,4.5-3Z" transform="translate(-875.07 -484.1)"/><path class="cls-73" d="M972.5,544.52c-.83,1.21-2.15,1.6-3.45,2l-.08-.1,3-2.53,1-.49.08.08Z" transform="translate(-875.07 -484.1)"/><path class="cls-72" d="M972.5,544.52l.53-1,3-1h0A7.09,7.09,0,0,1,972.5,544.52Z" transform="translate(-875.07 -484.1)"/><path class="cls-72" d="M978,541l-1.5,1v0l1.49-1Z" transform="translate(-875.07 -484.1)"/><path class="cls-69" d="M950.53,557h1l-1,.5,0,0A3.59,3.59,0,0,1,950.53,557Z" transform="translate(-875.07 -484.1)"/><path class="cls-69" d="M950,558.49l-1,0,0,0,1-.5h0C950,558.17,950,558.33,950,558.49Z" transform="translate(-875.07 -484.1)"/><path class="cls-73" d="M964.54,549.55l-1,.49-.08-.09,1-.49Z" transform="translate(-875.07 -484.1)"/><path class="cls-72" d="M978.51,540.52c-.17.16-.34.32-.5.49l0,0,.51-.49Z" transform="translate(-875.07 -484.1)"/><path class="cls-72" d="M976.51,542l-.51.48h0l.51-.49Z" transform="translate(-875.07 -484.1)"/><path class="cls-69" d="M950.52,557.52,950,558h0l.51-.49Z" transform="translate(-875.07 -484.1)"/><path class="cls-53" d="M990.5,532l6-7.48h0l.49-.5c.18-.33.35-.66.52-1l1-.53c1,1.89-.14,3-1.39,4.17C995,528.6,993.09,530.7,990.5,532Z" transform="translate(-875.07 -484.1)"/><path class="cls-53" d="M988,534a2.42,2.42,0,0,1,2-1.51A2.32,2.32,0,0,1,988,534Z" transform="translate(-875.07 -484.1)"/><path class="cls-53" d="M987.49,534.5,988,534Z" transform="translate(-875.07 -484.1)"/><path class="cls-53" d="M990,532.49l.51-.49Z" transform="translate(-875.07 -484.1)"/><path class="cls-74" d="M949,569c0,1.09,0,2.72,1.6,1.35a92.36,92.36,0,0,0,6.41-6.84c.84.09,1.78-.31,2.49.49-1.91,1.65-3.84,3.28-5.7,5-.53.5-1.67,1.07-.86,1.95a2.5,2.5,0,0,0,2.24.48c4-1.61,8.18-2.56,11.82-4.91,1.23.65,2.23.76,2.49-1,2.34-1.68,4.94-3.09,7-5.09s6.12-2.62,4.55-6.92l5.5-1c-4.84,3.07-4.44,9.79-9.53,13s-10.06,6.72-15.75,7.49c-3.74.51-7.88.16-11.85.42-1.38.08-1.75-1.21-2-2.45S947.91,569.2,949,569Z" transform="translate(-875.07 -484.1)"/><path class="cls-70" d="M987.5,553l-.5.5Z" transform="translate(-875.07 -484.1)"/><path class="cls-75" d="M915.06,560.54c-1,1.66-2.23,3.25-3.12,5-2.14,4.19-1,6,3.58,6,1.15,0,2.31,0,3.46,0,0,.35,0,.69,0,1h0l-8.5.5c-2.59-.45-3.28-2.07-1.89-4.08C910.61,566,911.35,562.12,915.06,560.54Z" transform="translate(-875.07 -484.1)"/><path class="cls-76" d="M910.5,573l8.5-.5c-3.39.83-6.74,2-10.18,2.36-2.09.21-4.86-.45-3.26-4a5.6,5.6,0,0,1,.72-.92,3,3,0,0,1,.09,1.16c-.62,1.55.5,2.24,1.5,2.65S910,574.6,910.5,573Z" transform="translate(-875.07 -484.1)"/><path class="cls-76" d="M919,572.5c0-.35,0-.69,0-1,1.82-.5,3.64-1,5.44-1.52.93-.27,1.76-.65,1.52-1.87a3.69,3.69,0,0,0,.47,0l0,0c.19.3.39.6.59.9h0c0,.19,0,.37,0,.56A20.77,20.77,0,0,1,919,572.5Z" transform="translate(-875.07 -484.1)"/><path class="cls-34" d="M927,569.55c0-.19,0-.37,0-.56l.46.53A4.07,4.07,0,0,1,927,569.55Z" transform="translate(-875.07 -484.1)"/><path class="cls-69" d="M947,559.52a1.92,1.92,0,0,1-2,1l0,0,2-1Z" transform="translate(-875.07 -484.1)"/><path class="cls-69" d="M949,558.52l-1,.5,0,0,1-.49Z" transform="translate(-875.07 -484.1)"/><path class="cls-69" d="M948,559l-1,.5,0,0,1-.5Z" transform="translate(-875.07 -484.1)"/><path class="cls-34" d="M927,569c-.2-.3-.4-.6-.59-.9C926.62,568.39,926.82,568.69,927,569Z" transform="translate(-875.07 -484.1)"/><path class="cls-64" d="M996,524.5l-.49.51Z" transform="translate(-875.07 -484.1)"/><path class="cls-72" d="M997,524l-.49.5Z" transform="translate(-875.07 -484.1)"/><path class="cls-77" d="M938,562.52l-5,2-3.52.5-3-2h0a13,13,0,0,0-1.18-2.72c-2.59-3.54-1.8-6.24,2.58-8.16.8-.35,1.9-.74,1.62-1.53-.35-1-1.46-.13-2.07.07-2.75.86-3.51-.43-3.45-2.85.1-4.43,0-8.89.38-13.3.27-3,3.49-4.36,4.94-6.91,4.09-7.23,12-9.5,18.55-13.62,4.48-2.81,9.72-1.19,14.13-3.48h1c-5.76,4.74-13.55,4.35-19.86,7.88-4.6,2.57-8.46,5.6-11.14,10.12-1.65,1.6-5.44,2.77-4.4,4.93,1.38,2.87.38,4.9,0,7.36-.93,5.64.53,8.2,4.43,8.2l.5-.49,1.5-.5c2,1.32-.08,1.65-.62,2-2.19,1.41-4.72,2.39-5.88,5-1,1-2.44,1.87-1.66,3.45,2.2,4.42,5.75,5.81,10.51,4.37A13.57,13.57,0,0,1,938,562.52Z" transform="translate(-875.07 -484.1)"/><path class="cls-78" d="M993,527.49c-.79,1.08-1.56,2.2-3,2.56,1.21-2.63-.6-4.87-.89-7.3-.41-3.48-1.8-3.42-4.13-1.75a10.64,10.64,0,0,0-7.07,2.17c-.62.49-1.77,1.79-2.43-.17l1-1c1.28-1.27,3.71-2.09,3-4.32s-2.84-3.17-5.29-3.84-5.95-.36-6.17-4.34l-1-1.5c2.61-1.81,3.46,1.37,5.24,1.95a21.63,21.63,0,0,1,9.14,5.2c.54.55,1.42,1,.65,2.05-.46.6-1.55,1.19-.6,2,.32.27,1.36-.17,2-.44,4.58-1.91,8.37.54,9.29,6.05C992.87,525.7,992.91,526.6,993,527.49Z" transform="translate(-875.07 -484.1)"/><path class="cls-79" d="M968,509.5c.22,4,3.83,3.69,6.17,4.34s4.52,1.58,5.29,3.84-1.68,3.05-3,4.32v-.5c.11-2.35-.52-3.51-3.23-4.42s-6.41-1-8.27-4.08c1.14-2.28-.26-2.53-2-2.5h-1C963.88,509.44,965.75,508.3,968,509.5Z" transform="translate(-875.07 -484.1)"/><path class="cls-78" d="M965,508.5l.5-.5Z" transform="translate(-875.07 -484.1)"/><path class="cls-62" d="M994.51,526l-.5.5Z" transform="translate(-875.07 -484.1)"/><path class="cls-66" d="M926.5,563l3,2C927.28,566.17,926.73,564.83,926.5,563Z" transform="translate(-875.07 -484.1)"/><path class="cls-80" d="M938,562.52a13.57,13.57,0,0,0-1.69.3c-4.76,1.44-8.31,0-10.51-4.37-.78-1.58.7-2.49,1.66-3.45,3.36-2.24,6.56-4.76,10.5-6a29.83,29.83,0,0,1-7.63,5.82c-.92.54-2.49,1.68-1.61,2.24,2.41,1.55,3.14,5.54,7,4.93,1.77-.28,3.53-.63,5.3-1L940,562Z" transform="translate(-875.07 -484.1)"/><path class="cls-73" d="M940,562l1.07-1h0l1-.45,8.39-3.65.07.09a3.59,3.59,0,0,0,0,.47L950,558l-1,.5-1,.49-1,.5-2,1Z" transform="translate(-875.07 -484.1)"/><path class="cls-81" d="M981,553.5c1.57,4.3-2.62,5-4.55,6.92s-4.62,3.41-7,5.09c-1.22-.66-2.22-.76-2.49,1-3.64,2.35-7.87,3.3-11.82,4.91a2.5,2.5,0,0,1-2.24-.48c-.81-.88.33-1.45.86-1.95,1.86-1.7,3.79-3.33,5.7-5,2.61-1.53,5.33-2.9,7.79-4.62A33.77,33.77,0,0,1,981,553.5Z" transform="translate(-875.07 -484.1)"/><path class="cls-82" d="M984.52,534.56,979,539.42l-2.48,1.09c1.61-2.89,6.15-3.83,5.57-8.12-.24-1.76-.55-3.81-1.6-5.07-.92-1.1-2.35.52-3.46,1.12-2.37,1.3-4.68,2.7-7,4.06l-6.5,2c1.66-2.24,5-2,6.5-4.5,4.16-1.15,7.82-3.36,11.5-5.5,1.06,0,3.11-1.74,3,0C984.25,527.9,987.47,531.27,984.52,534.56Z" transform="translate(-875.07 -484.1)"/><path class="cls-83" d="M984.52,534.56c3-3.29-.27-6.66,0-10,.12-1.77-1.93,0-3,0l.5-1,2-1.5c1.24,0,3.07-.21,3.16,1.2.2,3.1,3,6.33-.13,9.38A4.21,4.21,0,0,1,984.52,534.56Z" transform="translate(-875.07 -484.1)"/><path class="cls-84" d="M987,532.58c3.17-3.05.33-6.28.13-9.38-.09-1.41-1.92-1.21-3.16-1.2l1-1c2.33-1.67,3.72-1.73,4.13,1.75.29,2.43,2.1,4.67.89,7.3C989.18,531.08,988.4,532.19,987,532.58Z" transform="translate(-875.07 -484.1)"/><path class="cls-73" d="M976.5,540.51l2.48-1.09-.48,1.08L978,541l-1.49,1-.51.49-3,1-.08-.08,1.07-1.38Z" transform="translate(-875.07 -484.1)"/><path class="cls-80" d="M950.46,556.94l-8.39,3.64-.11-.14,9.55-5.44.49,0,.5-.48h0l1-.5a4.19,4.19,0,0,0,.5,0l.5-.47h0l1-.49.5,0,.49-.46h0l1,0Z" transform="translate(-875.07 -484.1)"/><path class="cls-85" d="M964.47,549.46l-1,.49-3.93,1.57c0-.17,0-.33,0-.5l6.46-4,5.94-3.12-3,2.53Z" transform="translate(-875.07 -484.1)"/><path class="cls-86" d="M959.55,551c0,.17,0,.33,0,.5l-2,1-1,0C957.39,551.73,958.22,550.85,959.55,551Z" transform="translate(-875.07 -484.1)"/><path class="cls-87" d="M972,543.93,966,547.05c.45-1.77,2.16-2.39,3.22-3.6,1.35-1.54,2.45-3.31,3.66-5-1.68-.86-.39-4.24-3.39-4L969,534l1-1c1.76-.88,3.49-1.84,5.29-2.6,1.55-.66,2.18-.7,2.44,1.68.46,4.19-1.47,7-3.71,10L973,543.44Z" transform="translate(-875.07 -484.1)"/><path class="cls-88" d="M967,566.5c.27-1.75,1.27-1.65,2.49-1C969.23,567.26,968.23,567.15,967,566.5Z" transform="translate(-875.07 -484.1)"/><path class="cls-89" d="M932,549c-3.9,0-5.36-2.56-4.43-8.2.41-2.46,1.41-4.49,0-7.36-1-2.16,2.75-3.33,4.4-4.93l3-1v.5c-.33.25-.77.43-1,.75-.6,1-2.68,1.22-2,2.71.57,1.26,1.92.08,2.92.07.75,0,2,.31,1.33,1-2.55,2.69-1.09,6.26-2.15,8.88-1.83,4.54.48,4.37,3.38,4.55l-3.5,2-1.5.5Z" transform="translate(-875.07 -484.1)"/><path class="cls-90" d="M934,548l3.5-2a147.33,147.33,0,0,0,27-15.5l3.5-2c-.67,1.17-.19,1.57,1,1.5h1c-1.47,2.5-4.84,2.26-6.5,4.5L938,549c-3.94,1.24-7.14,3.76-10.5,6,1.16-2.61,3.69-3.59,5.88-5C933.92,549.65,936,549.32,934,548Z" transform="translate(-875.07 -484.1)"/><path class="cls-91" d="M935,527.5l-3,1c2.68-4.52,6.54-7.55,11.14-10.12,6.31-3.53,14.1-3.14,19.86-7.88,1.74,0,3.14.22,2,2.5l-2.5.5c-.37-.28-.93-.87-1.08-.78-3.08,1.87-7,2.27-9.42,5.28l-11,6.5a5.47,5.47,0,0,0-3.5,2H937l-1.5,1H935Z" transform="translate(-875.07 -484.1)"/><path class="cls-90" d="M932,549l.5-.49Z" transform="translate(-875.07 -484.1)"/><path class="cls-92" d="M969,530c-1.19.07-1.67-.33-1-1.5h.5L970,527l2.5-2,3-2h0c.66,2,1.81.66,2.43.17A10.64,10.64,0,0,1,985,521l-1,1-2,1.5C977.06,524.45,972.91,527,969,530Z" transform="translate(-875.07 -484.1)"/><path class="cls-92" d="M976.5,521.5v.5l-1,1h0Z" transform="translate(-875.07 -484.1)"/><path class="cls-93" d="M976.5,521.5l-1,1.5-3,2c.65-5.93-4.43-5.54-7.75-6.74s-3.75-1.51-2.25-4.76l2.5-.5c1.86,3.08,5.47,3.14,8.27,4.08S976.61,519.15,976.5,521.5Z" transform="translate(-875.07 -484.1)"/><path class="cls-94" d="M938,549l25.5-14.5,6.5-2v.5l-1,1c-1.63,1-3.25,1.93-4.89,2.88q-14.94,8.58-29.9,17.17c-1.33.76-1.64,1.55-.08,2.53,2.24,1.41,4.31,3.1,6.88,3.92l0,.54h0c-1.77.32-3.53.67-5.3,1-3.84.61-4.57-3.38-7-4.93-.88-.56.69-1.7,1.61-2.24A29.83,29.83,0,0,0,938,549Z" transform="translate(-875.07 -484.1)"/><path class="cls-80" d="M941,561l0-.54,1-.06.11.14Z" transform="translate(-875.07 -484.1)"/><path class="cls-95" d="M970,533v-.5c2.33-1.36,4.64-2.76,7-4.06,1.11-.6,2.54-2.22,3.46-1.12,1,1.26,1.36,3.31,1.6,5.07.58,4.29-4,5.23-5.57,8.12L974,542.06c2.24-2.94,4.17-5.79,3.71-10-.26-2.38-.89-2.34-2.44-1.68C973.49,531.16,971.76,532.12,970,533Z" transform="translate(-875.07 -484.1)"/><path class="cls-96" d="M969,530c3.91-3,8.06-5.55,13-6.5l-.5,1c-3.68,2.14-7.34,4.35-11.5,5.5Z" transform="translate(-875.07 -484.1)"/><path class="cls-97" d="M969.5,534.5c3-.27,1.71,3.11,3.39,4-1.21,1.67-2.31,3.44-3.66,5-1.06,1.21-2.77,1.83-3.22,3.6l-6.46,4c-1.33-.17-2.16.71-3,1.47h0L956,553l-.5,0-1,.49h0l-.5.47a4.19,4.19,0,0,1-.5,0l-1,.5h0l-.5.48-.49,0c-3.86,1.19-7.24-.84-10.82-1.55-.85-.17-1.26-.68-.47-1.35a16.88,16.88,0,0,1,3.56-2.68C952.79,545.2,960.66,539,969.5,534.5Z" transform="translate(-875.07 -484.1)"/><path class="cls-86" d="M969.5,534.5c-8.84,4.5-16.71,10.7-25.72,14.92a16.88,16.88,0,0,0-3.56,2.68c-.79.67-.38,1.18.47,1.35,3.58.71,7,2.74,10.82,1.55L942,560.44l-1,.06c-2.57-.82-4.64-2.51-6.88-3.92-1.56-1-1.25-1.77.08-2.53q14.94-8.59,29.9-17.17c1.64-1,3.26-1.92,4.89-2.88Z" transform="translate(-875.07 -484.1)"/><path class="cls-86" d="M952.5,554.5l1-.5Z" transform="translate(-875.07 -484.1)"/><path class="cls-86" d="M954.51,553.5l1-.49Z" transform="translate(-875.07 -484.1)"/><path class="cls-86" d="M954,554l.5-.47Z" transform="translate(-875.07 -484.1)"/><path class="cls-86" d="M952,555l.5-.48Z" transform="translate(-875.07 -484.1)"/><path class="cls-86" d="M956,553l.49-.46Z" transform="translate(-875.07 -484.1)"/><path class="cls-98" d="M964.5,530.5a147.33,147.33,0,0,1-27,15.5c-2.9-.18-5.21,0-3.38-4.55,1.06-2.62-.4-6.19,2.15-8.88.69-.73-.58-1.05-1.33-1-1,0-2.35,1.19-2.92-.07-.67-1.49,1.41-1.72,2-2.71.2-.32.64-.5,1-.75h0c.09.7-.88,1.58,0,2,1.18.63,2.37-.14,3.5-.56,6-2.22,10.75-6.76,16.5-9.49-.06,1.25-2.12,3.49-1.15,3.17,4.54-1.51,8.52,1.23,12.77.82.56,0,1.39-.84,1.68.15a2.5,2.5,0,0,1-.59,1.78C966.63,527.44,964.73,528.38,964.5,530.5Zm-24,10.79c8.62-1.45,15.86-4.87,21.3-11.52a2.16,2.16,0,0,0,.43-1.8c-.38-.8-1.32-.54-2-.28-1.59.61-3.11,1-4.79.24-3.19-1.48-5.4.71-7.77,2.22-3.5,2.24-2.45,8.27-7.6,9.19-.22,0-.48.9-.38,1.27S940.35,541.17,940.5,541.29Z" transform="translate(-875.07 -484.1)"/><path class="cls-98" d="M935,527.5h.5l-.5.5h0Z" transform="translate(-875.07 -484.1)"/><path class="cls-99" d="M964.5,530.5c.23-2.12,2.13-3.06,3.21-4.58a2.5,2.5,0,0,0,.59-1.78c-.29-1-1.12-.2-1.68-.15-4.25.41-8.23-2.33-12.77-.82-1,.32,1.09-1.92,1.15-3.17,1.09-.94,3.16-1.87,2.23-3.36s-2.33.56-3.59.81A12.63,12.63,0,0,0,952,518c2.43-3,6.34-3.41,9.42-5.28.15-.09.71.5,1.08.78-1.5,3.25-1.1,3.55,2.25,4.76s8.4.81,7.75,6.74l-2.5,2a1.43,1.43,0,0,0-1.5,1.5H968Z" transform="translate(-875.07 -484.1)"/><path class="cls-100" d="M952,518a12.63,12.63,0,0,1,1.64-.55c1.26-.25,2.62-2.37,3.59-.81s-1.14,2.42-2.23,3.36c-5.75,2.73-10.46,7.27-16.5,9.49-1.13.42-2.32,1.19-3.5.56-.88-.47.09-1.35,0-2l.5-.5h0l1.5-1h.5a5.47,5.47,0,0,0,3.5-2Z" transform="translate(-875.07 -484.1)"/><path class="cls-98" d="M941,524.5a5.47,5.47,0,0,1-3.5,2A5.47,5.47,0,0,1,941,524.5Z" transform="translate(-875.07 -484.1)"/><path class="cls-98" d="M937,526.51l-1.5,1Z" transform="translate(-875.07 -484.1)"/><path class="cls-90" d="M968.5,528.5A1.43,1.43,0,0,1,970,527Z" transform="translate(-875.07 -484.1)"/><path class="cls-101" d="M940.5,541.29c-.15-.12-.71-.33-.81-.68s.16-1.23.38-1.27c5.15-.92,4.1-7,7.6-9.19,2.37-1.51,4.58-3.7,7.77-2.22,1.68.78,3.2.37,4.79-.24.68-.26,1.62-.52,2,.28a2.16,2.16,0,0,1-.43,1.8C956.36,536.42,949.12,539.84,940.5,541.29Z" transform="translate(-875.07 -484.1)"/></svg>