<svg id="Layer_1" data-name="Layer 1" xmlns="http://www.w3.org/2000/svg" viewBox="0 0 113.28 109.61"><defs><style>.cls-1{fill:#262422;}.cls-2{fill:#292725;}.cls-3{fill:#58524b;}.cls-4{fill:#3b3734;}.cls-5{fill:#1e1c1b;}.cls-6{fill:#3a3531;}.cls-7{fill:#686058;}.cls-8{fill:#1e1c1a;}.cls-9{fill:#534f4c;}.cls-10{fill:#727072;}.cls-11{fill:#5b534d;}.cls-12{fill:#44403d;}.cls-13{fill:#3d3936;}.cls-14{fill:#1c1b18;}.cls-15{fill:#444240;}.cls-16{fill:#645e5b;}.cls-17{fill:#0e0e0e;}.cls-18{fill:#564f46;}.cls-19{fill:#514d48;}.cls-20{fill:#595552;}.cls-21{fill:#67625f;}.cls-22{fill:#242221;}.cls-23{fill:#292927;}.cls-24{fill:#272523;}.cls-25{fill:#3c3834;}.cls-26{fill:#5b5553;}.cls-27{fill:#64605e;}.cls-28{fill:#2f2c29;}.cls-29{fill:#312f2c;}.cls-30{fill:#2d2c2d;}.cls-31{fill:#35312c;}.cls-32{fill:#23211d;}.cls-33{fill:#262524;}.cls-34{fill:#30302f;}.cls-35{fill:#353330;}.cls-36{fill:#4f473f;}.cls-37{fill:#5b5655;}.cls-38{fill:#534e4b;}.cls-39{fill:#4d4945;}.cls-40{fill:#443f3b;}.cls-41{fill:#49423b;}.cls-42{fill:#443e39;}.cls-43{fill:#151210;}.cls-44{fill:#736c65;}.cls-45{fill:#7d6f5e;}.cls-46{fill:#706966;}.cls-47{fill:#6f6559;}.cls-48{fill:#5e5347;}.cls-49{fill:#7e7974;}.cls-50{fill:#5b5550;}.cls-51{fill:#4e4a46;}.cls-52{fill:#74695e;}.cls-53{fill:#837c79;}.cls-54{fill:#7e7e83;}.cls-55{fill:#87796e;}.cls-56{fill:#797779;}.cls-57{fill:#685d53;}.cls-58{fill:#696767;}.cls-59{fill:#49423f;}.cls-60{fill:#6b6b72;}.cls-61{fill:#3c3938;}.cls-62{fill:#383634;}.cls-63{fill:#3a3837;}.cls-64{fill:#403e3c;}.cls-65{fill:#423c37;}.cls-66{fill:#736e6a;}.cls-67{fill:#6f6d70;}.cls-68{fill:#696662;}.cls-69{fill:#696564;}.cls-70{fill:#676464;}.cls-71{fill:#686666;}.cls-72{fill:#565353;}.cls-73{fill:#5e5c5c;}.cls-74{fill:#6b6767;}.cls-75{fill:#494745;}.cls-76{fill:#47423e;}.cls-77{fill:#474545;}.cls-78{fill:#4c4a48;}.cls-79{fill:#4b4138;}.cls-80{fill:#4e4842;}.cls-81{fill:#7a7d82;}.cls-82{fill:#88827e;}.cls-83{fill:#7c7770;}.cls-84{fill:#867466;}.cls-85{fill:#96887b;}.cls-86{fill:#67605c;}.cls-87{fill:#59514b;}.cls-88{fill:#6e6c6c;}.cls-89{fill:#95877a;}.cls-90{fill:#958c87;}.cls-91{fill:#888a91;}.cls-92{fill:#8a898a;}.cls-93{fill:#a29386;}.cls-94{fill:#737173;}.cls-95{fill:#797b7d;}.cls-96{fill:#747270;}.cls-97{fill:#494747;}.cls-98{fill:#3f3f40;}.cls-99{fill:#7e7b7a;}.cls-100{fill:#7d7874;}.cls-101{fill:#858991;}.cls-102{fill:#75706d;}.cls-103{fill:#635d5e;}.cls-104{fill:#666465;}.cls-105{fill:#6e6867;}.cls-106{fill:#837f78;}.cls-107{fill:#83807e;}.cls-108{fill:#29292d;}.cls-109{fill:#777471;}.cls-110{fill:#595961;}.cls-111{fill:#565250;}.cls-112{fill:#504945;}.cls-113{fill:#595654;}.cls-114{fill:#555557;}.cls-115{fill:#524843;}.cls-116{fill:#56504c;}.cls-117{fill:#5b4f3f;}.cls-118{fill:#4e463b;}.cls-119{fill:#524944;}.cls-120{fill:#858990;}.cls-121{fill:#7a7875;}.cls-122{fill:#929294;}.cls-123{fill:#908981;}.cls-124{fill:#91939b;}.cls-125{fill:#9598a7;}.cls-126{fill:#8e7d6f;}.cls-127{fill:#8b7e6b;}.cls-128{fill:#91867e;}.cls-129{fill:#898b94;}.cls-130{fill:#a1978d;}.cls-131{fill:#ab9a8a;}.cls-132{fill:#998874;}.cls-133{fill:#989390;}.cls-134{fill:#928172;}.cls-135{fill:#756c66;}.cls-136{fill:#736c6b;}.cls-137{fill:#615852;}.cls-138{fill:#5e5752;}.cls-139{fill:#675f5a;}.cls-140{fill:#9c9693;}.cls-141{fill:#a89f96;}.cls-142{fill:#92949c;}.cls-143{fill:#a4a1a2;}.cls-144{fill:#969598;}.cls-145{fill:#888484;}.cls-146{fill:#8b8e94;}.cls-147{fill:#8f7f75;}.cls-148{fill:#959193;}.cls-149{fill:#8a8078;}.cls-150{fill:#8f837a;}.cls-151{fill:#947b64;}.cls-152{fill:#9f948b;}.cls-153{fill:#9a8572;}.cls-154{fill:#a3876d;}.cls-155{fill:#545356;}.cls-156{fill:#908d8d;}.cls-157{fill:#89898b;}.cls-158{fill:#909299;}.cls-159{fill:#91969e;}.cls-160{fill:#888381;}.cls-161{fill:#797673;}.cls-162{fill:#686663;}.cls-163{fill:#8a8584;}.cls-164{fill:#686565;}.cls-165{fill:#5d5446;}.cls-166{fill:#5d5551;}.cls-167{fill:#635d58;}.cls-168{fill:#5d5f62;}.cls-169{fill:#5d5b60;}.cls-170{fill:#685f54;}.cls-171{fill:#827972;}.cls-172{fill:#918a88;}.cls-173{fill:#95979b;}.cls-174{fill:#9e9c9f;}.cls-175{fill:#9fa4b0;}.cls-176{fill:#828487;}.cls-177{fill:#998573;}.cls-178{fill:#a29081;}.cls-179{fill:#a79b90;}.cls-180{fill:#aca5a5;}.cls-181{fill:#959baa;}.cls-182{fill:#a3a6b0;}.cls-183{fill:#9b8b7e;}.cls-184{fill:#a5a4a5;}.cls-185{fill:#9d9da1;}.cls-186{fill:#7f716d;}.cls-187{fill:#706a68;}.cls-188{fill:#78706e;}.cls-189{fill:#65605d;}.cls-190{fill:#a7a1a2;}.cls-191{fill:#a29a90;}.cls-192{fill:#a5a8b3;}.cls-193{fill:#bab4b3;}.cls-194{fill:#b0aeae;}.cls-195{fill:#9fa4af;}.cls-196{fill:#969aa2;}.cls-197{fill:#9a9493;}.cls-198{fill:#99989e;}.cls-199{fill:#a2a2a8;}.cls-200{fill:#989da9;}.cls-201{fill:#92939b;}.cls-202{fill:#948d89;}.cls-203{fill:#817a77;}.cls-204{fill:#9a9490;}.cls-205{fill:#80818a;}.cls-206{fill:#7b7a83;}.cls-207{fill:#747379;}.cls-208{fill:#756b61;}.cls-209{fill:#6c6d70;}.cls-210{fill:#756e6b;}.cls-211{fill:#7f7c7c;}.cls-212{fill:#767576;}.cls-213{fill:#695e55;}.cls-214{fill:#6c6c71;}.cls-215{fill:#7a726b;}.cls-216{fill:#666369;}.cls-217{fill:#716960;}.cls-218{fill:#60564b;}.cls-219{fill:#8a8479;}.cls-220{fill:#817b76;}.cls-221{fill:#978883;}.cls-222{fill:#898c8f;}.cls-223{fill:#8c8885;}.cls-224{fill:#837c78;}.cls-225{fill:#767778;}.cls-226{fill:#968372;}.cls-227{fill:#998778;}.cls-228{fill:#928b86;}.cls-229{fill:#9a9a9f;}.cls-230{fill:#aca6a2;}.cls-231{fill:#bec5d3;}.cls-232{fill:#adb3c3;}.cls-233{fill:#a4a6ae;}.cls-234{fill:#aab4c3;}.cls-235{fill:#a1a6b5;}.cls-236{fill:#b0b1c6;}.cls-237{fill:#abb2ba;}.cls-238{fill:#887764;}.cls-239{fill:#958c86;}.cls-240{fill:#8c8581;}.cls-241{fill:#aca8a9;}.cls-242{fill:#b2adaf;}.cls-243{fill:#a0a9b6;}.cls-244{fill:#9c9fad;}.cls-245{fill:#abb4c3;}.cls-246{fill:#b8bfca;}.cls-247{fill:#abb1bd;}.cls-248{fill:#a1a4ad;}.cls-249{fill:#b1afb1;}.cls-250{fill:#afacb3;}.cls-251{fill:#9ea4b2;}.cls-252{fill:#969eac;}.cls-253{fill:#8d929b;}.cls-254{fill:#786f6b;}.cls-255{fill:#848891;}.cls-256{fill:#7c7d7e;}.cls-257{fill:#7a6b5a;}.cls-258{fill:#7f7060;}.cls-259{fill:#8a8e9a;}.cls-260{fill:#c6c9d3;}.cls-261{fill:#b9c0d1;}.cls-262{fill:#bec5d1;}.cls-263{fill:#b4bccb;}.cls-264{fill:#b5c0d1;}</style></defs><path class="cls-1" d="M922,499.84a46.19,46.19,0,0,1,18.32-10.41l2.22-.35,3.51-.58,1-.46,2,0c.42.13,1.69-.25.64.85A26.44,26.44,0,0,1,947,491H945.5c-.83-1-1.67.09-2.5,0l-.18-.61-.18.11.36.5-5,2c-2.8,3.1-6.47,5.1-9.89,7.33-3.75,2.43-7.92,4.14-9.72,8.75-.46,1.17-1.76,1.8-2.88,2.55-1.42.94-4.36,1.85-2.49,4.46,1.39,1.94.76,2.7-.9,3.62-1.24.68-2.52,2.13-1.06,3,2.19,1.34,1.18,2.75.93,4.27-3.57.12-2.64,3-3,5h-.5v-1.5l-.5-.5v-2c3.14-2.58.69-4.23-1-6l-.08-1.59,0,.05c2.09-3.39,4.63-6.54,5.55-10.54l0,0c1.05-.54,2-1.18,2-2.53l0,0,.53-.57-.06.06.55-.57-.06.07A22.62,22.62,0,0,0,922,499.84Z" transform="translate(-903.07 -486.07)"/><path class="cls-2" d="M952.81,595.07A45.83,45.83,0,0,1,932.49,589l3.54,1.07,2.5.72c-1.22-.59-.44-2.27-1.77-2.95-4.3-2.19-8.51-4.55-12.76-6.84a35.62,35.62,0,0,0-6-8.5l-2.5-1h0l-.5-.5-.5-1.5a.94.94,0,0,0,1-1c1.24.48.89,2.28,2.33,2.68,3.37.94,4.77,3.78,6,6.66a3,3,0,0,0,1.66,1.66,10.88,10.88,0,0,0,1.57,1.07c5.78,2.68,11.82,4.91,17.28,8.13,3.76,2.21,6.92,5.34,11.65,5.3l7.44.92Z" transform="translate(-903.07 -486.07)"/><path class="cls-3" d="M1008.08,569.18,1004,575l-.12-.12.4-1.41a8.82,8.82,0,0,1-1.29.42c-4.13.6-6.08,4.28-9,6.51-1.75,1.33-4.27,1-5.5,3.07H988c-4.5-.45-8.67,1.58-13.09,1.8-3.3.17-6.58,1.91-9.94,0a4,4,0,0,0-2.65-.13c-3.62.9-7.08-.34-10.51-.93-2.08-.35-3.95-2-6.31-1.76V582h2c7.94.76,15.92.88,23.87,1.77,4.71.52,9.65-.88,14.48-1.49a9.88,9.88,0,0,0,6.48-3.15c1.46-1.57,2-4.21,4.72-4.55a12.69,12.69,0,0,0,8.46-5.08l.5-.49C1006.66,569.55,1007.55,567.2,1008.08,569.18Z" transform="translate(-903.07 -486.07)"/><path class="cls-4" d="M983.75,491.43l.15-.05.1.13,1.56,1.71-2.06.28c-1.14-2.69-3.47-1.21-5.3-1.65-3.35-.81-6.49-2.62-9.85-3.24a26.67,26.67,0,0,0-15.66,1.77c-3,1.31-6.73,1.32-8.69,4.62-.73-.41-1.2-.1-2,.25-5.2,2.38-10,5.6-15.55,7.25,1.86-1.17,3.7-2.35,5.57-3.51,4.37-2.69,9.59-3.85,13.43-7.49h0l2-.5,13-4c5.81-.47,11.38,1.19,17,2h0l1.54.5,0,0a4.33,4.33,0,0,0,3.58,1.48l-.06,0Z" transform="translate(-903.07 -486.07)"/><path class="cls-5" d="M914.5,569.5l.5,1.5.5.5h0l.5,1c1.47,2.76,4.39,4.47,5.5,7.5H921l-2.06-1,0,0a67.75,67.75,0,0,0-8.09-10c-4.41-6.89-7.41-14.27-7.8-22.56,1.26-.21.83-1.23.93-2h.5c.66,1.83,1.89,3.66,1.87,5.47,0,4,2.17,7.48,2.2,11.61C908.6,564.77,911.74,567.41,914.5,569.5Z" transform="translate(-903.07 -486.07)"/><path class="cls-6" d="M963.44,594.92,956,594v-.5c2.84.87,5.67-.46,8.51,0h1a19.25,19.25,0,0,0,12-3.5h0a1.79,1.79,0,0,0,2-1c2.41-2.23,5.85-2.28,8.5-4a10.4,10.4,0,0,0,6-2.5h0l.5-.5h0l.5-.5h0l.5-.5h1l-3,3.61a22.18,22.18,0,0,1-7,4.4l-.62-.22.62.22a31.17,31.17,0,0,1-9.94,4,26.41,26.41,0,0,0-9.06,2l-1.23.08Z" transform="translate(-903.07 -486.07)"/><path class="cls-7" d="M1011.53,518.47l2.52,7-.56-.48-.91-1.4c-1.07,1.66-2.73,3.34-2.36,5.3.32,1.68,1.4,3.58,3.78,3.6h0l.5,1c0,.81.41.8,1,.49l0,1L1007,531.5a1.46,1.46,0,0,1,1.35-1.49c.46-.08,1.15-.12.82-.82-.16-.34-.77-.46-1.17-.69-1.1-.71-3.3-.11-3-2.5l2-.5c2.31-1.1,5.82-1.44,3.5-5.49C1011.5,519.94,1011.47,519.17,1011.53,518.47Z" transform="translate(-903.07 -486.07)"/><path class="cls-8" d="M921,580h1l.5.5,1.5.5c4.25,2.29,8.46,4.65,12.76,6.84,1.33.68.55,2.36,1.77,2.95l-2.5-.72L932.49,589l-4-2.43c-2.2-2.25-4.47-4.41-7.49-5.57h0Z" transform="translate(-903.07 -486.07)"/><path class="cls-9" d="M997,499.89c3.05,2,5.28,4.78,7.47,7.61a7.13,7.13,0,0,0,2,3.5l0,.5h-1L1005,511c-2.58-2.09-3.93-5.41-7-7-4.11-1.19-7.32-4-11-6,2.26-1.09,3.53,1.52,5.5,1.49h0c.4,1.21,1.54,1.5,2.51,2,.39.11.78.22,1.17.35l2.48.84c.31-1.17-1-1.37-1.32-2.13C997.23,500.34,997.14,500.11,997,499.89Z" transform="translate(-903.07 -486.07)"/><path class="cls-10" d="M1015.49,535c0-.33,0-.67,0-1,0-.65,0-1.31,0-2l.14-1.14a62,62,0,0,1,0,19.7c0-.38-.1-.75-.16-1.13l.09-1.93-.44-1.78-2.54,1.76A10.31,10.31,0,0,1,1007,550v-.5c1.17-.17,1.33-1.09,1.5-2h0l.5-.49c2.42.45,3.87-1.22,5.5-2.51.7-3.36-.17-6.47-1.5-9.5l2.22,2.06Z" transform="translate(-903.07 -486.07)"/><path class="cls-11" d="M1013.12,559.06l-.68,1.93c-.81.13-1.62.69-2.43,0,.78-1.12,2.1-2.18,1.37-3.68s-2-.13-3-.24c-1.58-.16-2.19-.53-1.33-2.07h1a3.59,3.59,0,0,0,3.63-3.35c.18-1.22.63-1.8,1.87-1.65h0c0,1,.34,2.31-.16,2.87C1011.45,555,1011.62,556.94,1013.12,559.06Z" transform="translate(-903.07 -486.07)"/><path class="cls-12" d="M997,499.89c.11.22.2.45.31.67.36.76,1.63,1,1.32,2.13l-2.48-.84c-.39-.13-.78-.24-1.17-.35.55-2.41-1.66-1.35-2.51-2h0c-.44-1.85-2.35-1.63-3.5-2.48.18-.8,1.6-.95,1.1-2.1A20.52,20.52,0,0,1,997,499.89Z" transform="translate(-903.07 -486.07)"/><path class="cls-13" d="M977.53,489c-5.67-.78-11.24-2.44-17-2l-9,.07-.53.42-2,.07-1.67-.12A55.7,55.7,0,0,1,977.53,489Z" transform="translate(-903.07 -486.07)"/><path class="cls-14" d="M908,528v2l.5.5v1l-.5.5-2.51-.51-1.06-4.07.56-1.92.54-.49.47-.51.06-1C908.25,524.35,907.27,526.55,908,528Z" transform="translate(-903.07 -486.07)"/><path class="cls-15" d="M993.53,584.6l3-3.61c2.22-2.13,2.88-6.07,7-6l0,.56A39.19,39.19,0,0,1,993.53,584.6Z" transform="translate(-903.07 -486.07)"/><path class="cls-16" d="M1010,561c.81.69,1.62.13,2.43,0a31.3,31.3,0,0,1-4.36,8.19c-.53-2-1.42.37-2.07-.17h0q2-4,4-8Z" transform="translate(-903.07 -486.07)"/><path class="cls-17" d="M904.43,527.42c.35,1.36.71,2.71,1.06,4.07h0l-.5.5h0a17,17,0,0,0-1,7v5.5c-.1.76.33,1.78-.93,2V535c1.4-2.35,1.12-5,1.35-7.57Z" transform="translate(-903.07 -486.07)"/><path class="cls-18" d="M1015.43,532c0,.65,0,1.31,0,2-.56.31-1,.32-1-.48l-.5-1h0c-2.65-1.21.56-3.82-1.25-5.23s-.61-1.87.74-2.27l.56.48c.18.46.35.91.52,1.36Q1015,529.42,1015.43,532Z" transform="translate(-903.07 -486.07)"/><path class="cls-19" d="M1013.12,559.06c-1.5-2.12-1.67-4.08.23-6.18.5-.56.13-1.9.16-2.87l1.49-.51,0,2c-.81,1-.37,2.13-.39,3.22Z" transform="translate(-903.07 -486.07)"/><path class="cls-13" d="M990.1,494.91c.5,1.15-.92,1.3-1.1,2.1l-1-.51c-.6-2.46-3.07-1.53-4.5-2.5v-.5h0l2.06-.28L984,491.51a11.23,11.23,0,0,1,4.55,2.34,1.27,1.27,0,0,0,1.55,1.07Z" transform="translate(-903.07 -486.07)"/><path class="cls-20" d="M1011.53,518.47c-.06.7,0,1.47-1,1.54h0l-1-.49L1008,519l-1-2c.8-1,1.56-2.19,3.09-1l.48.87a1.42,1.42,0,0,0,1,1.65Z" transform="translate(-903.07 -486.07)"/><path class="cls-21" d="M1010.09,516c-1.53-1.16-2.29,0-3.09,1-1.07,0-2.13-.06-2,1.5-.67-.09-1.44-.27-1.27-1.09.31-1.51,2.1-.41,2.77-1.41,1.81-1.16.18-2.33,0-3.49.48-.34.48-.67,0-1l0-.5.09-.62Z" transform="translate(-903.07 -486.07)"/><path class="cls-22" d="M910.87,569.05a67.75,67.75,0,0,1,8.09,10A35,35,0,0,1,910.87,569.05Z" transform="translate(-903.07 -486.07)"/><path class="cls-23" d="M912.44,509.92c-.92,4-3.46,7.15-5.55,10.54C908.1,516.61,910.32,513.29,912.44,509.92Z" transform="translate(-903.07 -486.07)"/><path class="cls-22" d="M921,581c3,1.16,5.29,3.32,7.49,5.57A27.29,27.29,0,0,1,921,581Z" transform="translate(-903.07 -486.07)"/><path class="cls-24" d="M922,499.84a22.62,22.62,0,0,1-6.57,6.61A29.85,29.85,0,0,1,922,499.84Z" transform="translate(-903.07 -486.07)"/><path class="cls-25" d="M963.44,594.92l2.83.13a36.91,36.91,0,0,1-13.46,0Z" transform="translate(-903.07 -486.07)"/><path class="cls-25" d="M967.5,595a26.41,26.41,0,0,1,9.06-2A27.33,27.33,0,0,1,967.5,595Z" transform="translate(-903.07 -486.07)"/><path class="cls-14" d="M904.43,527.42c-.23,2.56.05,5.22-1.35,7.57A18.34,18.34,0,0,1,904.43,527.42Z" transform="translate(-903.07 -486.07)"/><path class="cls-4" d="M947.38,487.45l1.67.12a2,2,0,0,0,0,.43l-2,0-1,.46-3.51.58-.64-.16Z" transform="translate(-903.07 -486.07)"/><path class="cls-23" d="M905.53,525l-.54.49a12.78,12.78,0,0,1,1.93-5.09c0,.53.05,1.06.08,1.59-.32.51-.63,1-.94,1.54l-.06,1Z" transform="translate(-903.07 -486.07)"/><path class="cls-7" d="M1015.43,532q-.42-2.6-.86-5.18c.34,1.35.67,2.69,1,4C1015.52,531.26,1015.48,531.64,1015.43,532Z" transform="translate(-903.07 -486.07)"/><path class="cls-26" d="M1006.56,510.38l-.09.62a7.13,7.13,0,0,1-2-3.5Z" transform="translate(-903.07 -486.07)"/><path class="cls-13" d="M982.59,490.93a4.33,4.33,0,0,1-3.58-1.48A6,6,0,0,1,982.59,490.93Z" transform="translate(-903.07 -486.07)"/><path class="cls-24" d="M914.45,507.43c-.05,1.35-1,2-2,2.53A4.57,4.57,0,0,1,914.45,507.43Z" transform="translate(-903.07 -486.07)"/><path class="cls-22" d="M921,580v1l-2.06-2Z" transform="translate(-903.07 -486.07)"/><path class="cls-11" d="M1014.57,554.71c0-1.09-.42-2.23.39-3.22,0,.38.07.77.1,1.15Z" transform="translate(-903.07 -486.07)"/><path class="cls-27" d="M1015.06,552.64c0-.38-.06-.77-.1-1.15,0-.67,0-1.33,0-2a1.58,1.58,0,0,0,.38,0c.06.38.11.75.16,1.13Z" transform="translate(-903.07 -486.07)"/><path class="cls-7" d="M1011.53,518.49a1.42,1.42,0,0,1-1-1.65Z" transform="translate(-903.07 -486.07)"/><path class="cls-28" d="M941.85,488.92l.64.16-2.22.35Z" transform="translate(-903.07 -486.07)"/><path class="cls-12" d="M990.1,494.92a1.27,1.27,0,0,1-1.55-1.07Z" transform="translate(-903.07 -486.07)"/><path class="cls-13" d="M979.05,489.47l-1.54-.5Z" transform="translate(-903.07 -486.07)"/><path class="cls-13" d="M983.75,491.43l-1.22-.54Z" transform="translate(-903.07 -486.07)"/><path class="cls-3" d="M1003.52,575.55l0-.56a1.56,1.56,0,0,0,.42-.08l.12.12Z" transform="translate(-903.07 -486.07)"/><path class="cls-24" d="M915,506.89l-.53.57Z" transform="translate(-903.07 -486.07)"/><path class="cls-24" d="M915.44,506.38l-.55.57Z" transform="translate(-903.07 -486.07)"/><path class="cls-29" d="M945.5,491.5c-3.84,3.64-9.06,4.8-13.43,7.49-1.87,1.16-3.71,2.34-5.57,3.51-.76.73-2.08,1.38-2.2,2.2-.64,4.47-5,5.3-7.59,7.72-1.55,1.43-2,2.27-1.25,4,.49,1.09,1.12,2.36-.44,3-2.07.79-2.32,2.08-1.68,3.94a3.65,3.65,0,0,1-.84,3.7H912c.25-1.52,1.26-2.93-.93-4.27-1.46-.89-.18-2.34,1.06-3,1.66-.92,2.29-1.68.9-3.62-1.87-2.61,1.07-3.52,2.49-4.46,1.12-.75,2.42-1.38,2.88-2.55,1.8-4.61,6-6.32,9.72-8.75,3.42-2.23,7.09-4.23,9.89-7.33C940.87,494.36,943,491.82,945.5,491.5Z" transform="translate(-903.07 -486.07)"/><path class="cls-30" d="M908.5,532h.5c-.33,2.83-.67,5.67-1,8.5.33.83.66,1.67,1,2.5.13,2.07-.46,4.14,1.62,5.94.83.72-1.51,3.09.38,4.56v.5c-.82-.61-2.69-.73-2.32-1.85,1-3-1-4.41-2.42-6.3-.63-.84-1.76-1.72-.89-3.07,1.53-2.39.8-5.25,1.63-7.78l1.5-3Z" transform="translate(-903.07 -486.07)"/><path class="cls-31" d="M908,540.5c.33-2.83.67-5.67,1-8.5.35-2-.58-4.88,3-5h.51c-.86,1.38.42,1.51,1.11,2.11a4.83,4.83,0,0,1,1.65,2.28c.19,1-.79,1.48-1.76,1.61-2.49.23-4.1,1.38-4.51,4A29.32,29.32,0,0,1,908,540.5Z" transform="translate(-903.07 -486.07)"/><path class="cls-28" d="M949,488a2,2,0,0,1,0-.43l2-.07.53-.42,9-.07-13,4H947a26.44,26.44,0,0,0,2.65-2.15C950.69,487.75,949.42,488.13,949,488Z" transform="translate(-903.07 -486.07)"/><path class="cls-32" d="M906.06,523.54c.31-.51.62-1,.94-1.54,1.69,1.77,4.14,3.42,1,6C907.27,526.55,908.25,524.35,906.06,523.54Z" transform="translate(-903.07 -486.07)"/><path class="cls-28" d="M945.5,491.5c-2.54.32-4.63,2.86-7.5,1.5l5-2h0c.83.09,1.67-1,2.5,0v.5Z" transform="translate(-903.07 -486.07)"/><path class="cls-29" d="M945.5,491.5V491h2Z" transform="translate(-903.07 -486.07)"/><path class="cls-28" d="M946,488.5l1-.46Z" transform="translate(-903.07 -486.07)"/><path class="cls-28" d="M943,491l-.36-.5.18-.11.18.61Z" transform="translate(-903.07 -486.07)"/><path class="cls-32" d="M908.5,530.5l-.5-.5Z" transform="translate(-903.07 -486.07)"/><path class="cls-32" d="M908,532l.5-.5v.5H908Z" transform="translate(-903.07 -486.07)"/><path class="cls-33" d="M907,535c-.83,2.53-.1,5.39-1.63,7.78-.87,1.35.26,2.23.89,3.07,1.39,1.89,3.41,3.34,2.42,6.3-.37,1.12,1.5,1.24,2.32,1.85.26,1.92,2,4-1,5.43-.77.36-.12,1.25.1,2,.93,3.08,4.66,4,5.45,7.1a.94.94,0,0,1-1,1c-2.76-2.09-5.9-4.73-5.93-7.92,0-4.13-2.25-7.57-2.2-11.61,0-1.81-1.21-3.64-1.87-5.47v-6Z" transform="translate(-903.07 -486.07)"/><path class="cls-34" d="M915.5,568.5c-.79-3.14-4.52-4-5.45-7.1-.22-.72-.87-1.61-.1-2,3-1.39,1.31-3.51,1-5.43v-.5c1.07,1.12,2.35,1.57,2.13,4-.31,3.34.61,7.12,4.37,9A16,16,0,0,0,922,573l.5.5h0c.26,2,1.81,1.39,3,1.5h0c-.74,1.5-.21,3,0,4.5a3,3,0,0,1-1.66-1.66c-1.24-2.88-2.64-5.72-6-6.66C916.39,570.78,916.74,569,915.5,568.5Z" transform="translate(-903.07 -486.07)"/><path class="cls-35" d="M925.5,579.5c-.21-1.5-.74-3,0-4.5.78.81,2.27,1.68,2.21,2.43-.38,4.65,3.21,3.9,5.79,4.57h1l.5.5h0l.5.49H937c1.43,1.16,2.71,2.86,4.34,3.35,3.72,1.12,7.54,1.75,9.6,5.64a1.66,1.66,0,0,0,1.55.44c1.55-.71,2.47.29,3.51,1.07v.5c-4.73,0-7.89-3.09-11.65-5.3-5.46-3.22-11.5-5.45-17.28-8.13A10.88,10.88,0,0,1,925.5,579.5Z" transform="translate(-903.07 -486.07)"/><path class="cls-22" d="M924,581l-1.5-.5-.5-.5h-.5c-1.11-3-4-4.74-5.5-7.5h2A35.62,35.62,0,0,1,924,581Z" transform="translate(-903.07 -486.07)"/><path class="cls-33" d="M918,572.5h-2l-.5-1Z" transform="translate(-903.07 -486.07)"/><path class="cls-33" d="M915.5,571.5l-.5-.5Z" transform="translate(-903.07 -486.07)"/><path class="cls-16" d="M1005.51,569.5a12.69,12.69,0,0,1-8.46,5.08c-2.68.34-3.26,3-4.72,4.55a9.88,9.88,0,0,1-6.48,3.15c-4.83.61-9.77,2-14.48,1.49-8-.89-15.93-1-23.87-1.77-.81-.84-1.86-.38-2.8-.5-1.49-.21-3-1.86-2.18-2.4,2.88-1.91,1.32-3.67.49-5.6,1.83,1.31,3.94,1,6,1l.5.5c.41.76,2,.36,1.76,1.71-.22,1.06-1.28.37-1.89.65a24.22,24.22,0,0,0-2.45,1.21c-.54.31-1.4.66-1,1.44a2.26,2.26,0,0,0,1.59.94c4.32.24,8.64.38,13,.55,6,.86,12,.38,18,.49,2.78.06,5.42-.3,7.45-2.49,1,0,2.23-.24,2.09-1.23-.26-1.84.87-1.78,2-2.54,2.33-1.63,5-1.39,7.44-2.23l6-4h2Z" transform="translate(-903.07 -486.07)"/><path class="cls-36" d="M945.5,582.5c2.36-.23,4.23,1.41,6.31,1.76,3.43.59,6.89,1.83,10.51.93a4,4,0,0,1,2.65.13c3.36,1.9,6.64.16,9.94,0,4.42-.22,8.59-2.25,13.09-1.8l-.5,1-1.5.5c-2.94.38-6.2.08-8.74,1.3-5.27,2.51-11.08,2.16-16.43,4-.25.08-.81,0-.87-.21-1.58-4.38-6.44-2.3-9-4.6-2.31-2.08-5.94-.31-8-3Z" transform="translate(-903.07 -486.07)"/><path class="cls-37" d="M943,573.5c.83,1.93,2.39,3.69-.49,5.6-.81.54.69,2.19,2.18,2.4.94.12,2-.34,2.8.5h-2c-2.33.06-4.61-.1-6.59-1.56-.74-.55-1.4-1.28-.31-1.91,2.92-1.71.47-2.21-.6-3l-.5-.5h0v-.5h.5l2.08.32L940,573.5c.36-2.55,1.7-.16,2.5-.5Z" transform="translate(-903.07 -486.07)"/><path class="cls-38" d="M938,575.5c1.07.83,3.52,1.33.6,3-1.09.63-.43,1.36.31,1.91,2,1.46,4.26,1.62,6.59,1.56v.49h-4c-.88-.87-2-.36-3-.5h0c-.5-1.88-5.8-1.16-2.71-5,.06-.07-.17-.57-.3-.59-2-.23-2.06-2.22-3-3.4,2-.21,3.28,1.47,5,2h0Z" transform="translate(-903.07 -486.07)"/><path class="cls-39" d="M1003.91,574.91a1.56,1.56,0,0,1-.42.08c-4.11-.07-4.77,3.87-7,6h-1l-.5.5h0l-.5.5h0l-.5.5h0l-5.5,1c1.23-2,3.75-1.74,5.5-3.07,2.94-2.23,4.89-5.91,9-6.51a8.82,8.82,0,0,0,1.29-.42Z" transform="translate(-903.07 -486.07)"/><path class="cls-40" d="M988.5,583.5l5.5-1a10.4,10.4,0,0,1-6,2.5l-.5-.5.5-1Z" transform="translate(-903.07 -486.07)"/><path class="cls-16" d="M1006,569l-.5.49h0l.51-.49Z" transform="translate(-903.07 -486.07)"/><path class="cls-13" d="M913.5,533c1-.13,2-.62,1.76-1.61a4.83,4.83,0,0,0-1.65-2.28c-.69-.6-2-.73-1.11-2.11a3.65,3.65,0,0,0,.84-3.7c-.64-1.86-.39-3.15,1.68-3.94,1.56-.59.93-1.86.44-3-.77-1.72-.3-2.56,1.25-4,2.6-2.42,6.95-3.25,7.59-7.72.12-.82,1.44-1.47,2.2-2.2,5.53-1.65,10.35-4.87,15.55-7.25.75-.35,1.22-.66,2-.25h0c-.74,1.68-2,2.29-3.81,2.86-2.33.72-6,0-6.37,4.11a1.85,1.85,0,0,1-1.25.27,3.26,3.26,0,0,0-4,2.25c-1,2.63-3,4.08-5.11,5.51h0l-1,.5h0l-2,.5c-2,1.81-5.35,3.5-.45,5.88,1.25.6.62,1.68.44,2.61-1.89,0-3.93-.31-5.18,1.58-1,1.55.63,2.34,1.19,3.43-.53,2.14,3.25,2.56,2,5-.87.39-3.2-.44-2.5.88,1.94,3.69-1.33,2.41-2.49,3.13Z" transform="translate(-903.07 -486.07)"/><path class="cls-13" d="M944,495c2-3.3,5.69-3.31,8.69-4.62a26.67,26.67,0,0,1,15.66-1.77c3.36.62,6.5,2.43,9.85,3.24,1.83.44,4.16-1,5.3,1.65h0c-4.69.32-9.18-.93-13.48-2.35-6.07-2-11.44-1.46-16.52,2.35l-1,.5c-2.94-.55-5.63,1-8.5,1Z" transform="translate(-903.07 -486.07)"/><path class="cls-1" d="M904.5,539v5.5H904V539Z" transform="translate(-903.07 -486.07)"/><path class="cls-41" d="M941.5,582.5H943c2,2.64,5.66.87,8,3,2.55,2.3,7.41.22,9,4.6.06.16.62.29.87.21,5.35-1.81,11.16-1.46,16.43-4,2.54-1.22,5.8-.92,8.74-1.3h-1l-.5.5H984l-.5.5H983l-.5.5H982c-.85.11-1.79-.3-2.5.5-1.7-.27-2.27,1.44-3.5,2h0c-.94-.94-1.49-.31-2,.5-2.78,1.45-5.41,3.22-8.5,4h-1c-1.5-1.87-3.39.21-5-.5-2-1-1.38-4.37-3.11-4.76-4.54-1-8.58-3.8-13.39-3.74h0l-2.5-2Z" transform="translate(-903.07 -486.07)"/><path class="cls-25" d="M959.5,593c1.62.71,3.51-1.37,5,.5-2.84-.46-5.67.87-8.51,0-1-.78-2-1.78-3.51-1.07a1.66,1.66,0,0,1-1.55-.44c-2.06-3.89-5.88-4.52-9.6-5.64-1.63-.49-2.91-2.19-4.34-3.35h.5l.5-.5h.5c1,1.72,3,1.42,4.5,2h0c2.06,2.13,4.76,3,7.52,3.55,1.57.34,4.06-.37,4.31,1.59C955.25,592.87,957.16,593,959.5,593Z" transform="translate(-903.07 -486.07)"/><path class="cls-25" d="M965.5,593.5c3.09-.78,5.72-2.55,8.5-4l2-.5h0l1.5,1A19.25,19.25,0,0,1,965.5,593.5Z" transform="translate(-903.07 -486.07)"/><path class="cls-42" d="M977.5,590l-1.5-1c1.23-.56,1.8-2.27,3.5-2,.85-.1,1.79.3,2.5-.5h.5l.5-.5h.5l.5-.5h.5l.5-.5h1l1.5-.5.5.5c-2.65,1.72-6.09,1.77-8.5,4l-2,1Z" transform="translate(-903.07 -486.07)"/><path class="cls-25" d="M977.5,590l2-1A1.79,1.79,0,0,1,977.5,590Z" transform="translate(-903.07 -486.07)"/><path class="cls-43" d="M986.5,589l-.62-.22.62.22Z" transform="translate(-903.07 -486.07)"/><path class="cls-15" d="M994.5,582l.5-.5Z" transform="translate(-903.07 -486.07)"/><path class="cls-15" d="M994,582.5l.5-.5Z" transform="translate(-903.07 -486.07)"/><path class="cls-15" d="M995,581.5l.5-.5Z" transform="translate(-903.07 -486.07)"/><path class="cls-44" d="M1006.5,516c-.67,1-2.46-.1-2.77,1.41-.17.82.6,1,1.27,1.09h0l2,.5h0c.57,1,1.72.55,2.5,1h1c2.32,4-1.19,4.39-3.5,5.49.67-.58,1.35-1.15,2-1.76s1.17-1,.86-1.87-1.09-.88-1.85-.87c-4.24-3.21-9.39-1.32-14-2.5-.88-.88-2-.36-3-.51l-1.41-.89,1.9-.1h.5l10-.5,2-.5Z" transform="translate(-903.07 -486.07)"/><path class="cls-45" d="M1005,526c-.3,2.39,1.9,1.79,3,2.5-.53,2.14-2,.57-3,.75-2.51.46-6-1.6-7,2.73h-.52l-2-.49v-1c.8-3.47,3.86-3.68,6.5-4.5l.5-.5C1003.35,525.6,1004.3,525.2,1005,526Z" transform="translate(-903.07 -486.07)"/><path class="cls-46" d="M1015.49,535l-.27,2.07L1013,535c-1.23-1.86-1.81-.37-2.5.5h0c-2.82-.72-5.2-3.31-8.5-2,.4-3.82,2.62-3.12,5-2Z" transform="translate(-903.07 -486.07)"/><path class="cls-47" d="M1007,531.5c-2.38-1.12-4.6-1.82-5,2-1.7.46-2.86-.48-4-1.52,1-4.33,4.49-2.27,7-2.73,1-.18,2.46,1.39,3-.75.4.23,1,.35,1.17.69.33.7-.36.74-.82.82A1.46,1.46,0,0,0,1007,531.5Z" transform="translate(-903.07 -486.07)"/><path class="cls-48" d="M1013.49,525c-1.35.4-2.61.82-.74,2.27s-1.4,4,1.25,5.23c-2.38,0-3.46-1.92-3.78-3.6-.37-2,1.29-3.64,2.36-5.3Z" transform="translate(-903.07 -486.07)"/><path class="cls-49" d="M1005,526c-.7-.8-1.65-.4-2.5-.5h0c0-.16,0-.33,0-.49,2.48-.46,4.64-1.34,5.5-4,.76,0,1.54,0,1.85.87s-.33,1.37-.86,1.87-1.32,1.18-2,1.76Z" transform="translate(-903.07 -486.07)"/><path class="cls-48" d="M1014,532.5l.5,1Z" transform="translate(-903.07 -486.07)"/><path class="cls-5" d="M922,580l.5.5Z" transform="translate(-903.07 -486.07)"/><path class="cls-50" d="M987,498c3.68,2,6.89,4.81,11,6h-.5a7.93,7.93,0,0,1-6.94-2.06c-2.7-2.34-5.45-4.12-9.16-3.39-3.15.62-5.62-1.31-8.4-2.05h8.5c.84,1.83,2.49,1.49,4,1.5Z" transform="translate(-903.07 -486.07)"/><path class="cls-51" d="M987,498h-1.5a4.43,4.43,0,0,0-4-1.5h0a8.35,8.35,0,0,0-2.41-1c-3.68-.24-6.8-2.77-10.59-2.48h0a21.9,21.9,0,0,1,7.48.5c3.13.89,6.06,2.84,9.52,2.5l2.5.5,1,.51c1.15.85,3.06.63,3.5,2.48C990.53,499.52,989.26,496.91,987,498Z" transform="translate(-903.07 -486.07)"/><path class="cls-26" d="M997.5,504h.5c3.07,1.59,4.42,4.91,7,7h0l-1.5.5h0L1003,511l-.5-.51-.5-.5h0l-.5-.5h0C1000.84,507.18,997.76,506.61,997.5,504Z" transform="translate(-903.07 -486.07)"/><path class="cls-51" d="M992.5,499.5c.85.65,3.06-.41,2.51,2C994,501,992.9,500.71,992.5,499.5Z" transform="translate(-903.07 -486.07)"/><path class="cls-26" d="M1006.5,511.5c.48.34.48.67,0,1h0l-1-1h1Z" transform="translate(-903.07 -486.07)"/><path class="cls-26" d="M1005,511l.51.49h0l-.5-.49Z" transform="translate(-903.07 -486.07)"/><path class="cls-52" d="M1008,555h-1a20.81,20.81,0,0,0-3.12-.4c-.83,0-2.39-1.48-2.38.9a1.85,1.85,0,0,1-1.22-1.93c.27-1,1.41-.62,2.11-.53a3.54,3.54,0,0,0,4.12-2.54l.49-.5h0a10.31,10.31,0,0,0,5.49-2.5c.2.93-.45,1.44-1,2h0l-1,.5A5,5,0,0,0,1008,555Z" transform="translate(-903.07 -486.07)"/><path class="cls-53" d="M1008.5,547.5c-.17.91-.33,1.83-1.5,2l-3.49,1c.71-2.39-3.45.12-2.52-2.5l2.51-1h3.5Z" transform="translate(-903.07 -486.07)"/><path class="cls-54" d="M1008.5,547.5l-1.5-.5c0-.17,0-.33,0-.49,2.55.12,5.68-.19,5.58-3.06-.07-1.7-.56-3.69-.59-5.58,0-1-.35-1.77-1.5-1.87v-.51h0c.77.08,1.89-.26,1.94,1,.12,2.84,1.3,5.37,2.06,8-1.63,1.29-3.08,3-5.5,2.51l-.5.49Z" transform="translate(-903.07 -486.07)"/><path class="cls-55" d="M1003.51,550.5l3.49-1v.5h0l-.49.5a3.54,3.54,0,0,1-4.12,2.54c-.7-.09-1.84-.51-2.11.53a1.85,1.85,0,0,0,1.22,1.93h0v1H1001l-2.5-3c-.11-1.46.85-1.58,1.92-1.49A2.79,2.79,0,0,0,1003.51,550.5Z" transform="translate(-903.07 -486.07)"/><path class="cls-56" d="M1014.5,544.5c-.76-2.67-1.94-5.2-2.06-8-.05-1.22-1.17-.88-1.94-1,.69-.87,1.27-2.36,2.5-.5C1014.33,538,1015.2,541.14,1014.5,544.5Z" transform="translate(-903.07 -486.07)"/><path class="cls-27" d="M1011.5,549.5c.54-.56,1.19-1.07,1-2l2.54-1.76c.15.6.29,1.19.44,1.78l-2,2Z" transform="translate(-903.07 -486.07)"/><path class="cls-11" d="M1013.5,549.5l2-2-.09,1.93a1.58,1.58,0,0,1-.38,0l-1.49.51h0Z" transform="translate(-903.07 -486.07)"/><path class="cls-53" d="M1008.5,547.5l.5-.49Z" transform="translate(-903.07 -486.07)"/><path class="cls-16" d="M1001.5,555.5c0-2.38,1.55-.89,2.38-.9a20.81,20.81,0,0,1,3.12.4c-.86,1.54-.25,1.91,1.33,2.07,1,.11,2.37-1.16,3,.24s-.59,2.56-1.37,3.68h0c-1.53-.75,1.25-2.31-.4-2.76a38.47,38.47,0,0,0-5.6-.74l-2.5-2Z" transform="translate(-903.07 -486.07)"/><path class="cls-57" d="M1013.5,549.5v.5c-1.24-.15-1.69.43-1.87,1.65A3.59,3.59,0,0,1,1008,555a5,5,0,0,1,2.5-5l1-.5h2Z" transform="translate(-903.07 -486.07)"/><path class="cls-4" d="M951.53,487.08l-.53.42Z" transform="translate(-903.07 -486.07)"/><path class="cls-1" d="M907,535l-2.5,3.5c-.64-2.23,1.82-4.22.5-6.5h0l.5-.5h0L908,532h.5Z" transform="translate(-903.07 -486.07)"/><path class="cls-32" d="M905.53,525l.47-.51Z" transform="translate(-903.07 -486.07)"/><path class="cls-58" d="M1004,557.5a38.47,38.47,0,0,1,5.6.74c1.65.45-1.13,2,.4,2.76q-2,4-4,8l-.51.49h-2a4,4,0,0,0,0-.49l1-1c1.87-.83,1.66-2.93,2.6-4.34,1.29-1.94,3.49-4.7-1.6-4.66h0l-1.5-1Z" transform="translate(-903.07 -486.07)"/><path class="cls-14" d="M905,532c1.32,2.28-1.14,4.27-.5,6.5v.5H904A17,17,0,0,1,905,532Z" transform="translate(-903.07 -486.07)"/><path class="cls-14" d="M905.5,531.5l-.5.5Z" transform="translate(-903.07 -486.07)"/><path class="cls-59" d="M985.5,496c-3.46.34-6.39-1.61-9.52-2.5a21.9,21.9,0,0,0-7.48-.5c-1.28-1.45-8.76-2.55-9.92-1.23a5.46,5.46,0,0,1-5.08,1.73c5.08-3.81,10.45-4.35,16.52-2.35,4.3,1.42,8.79,2.67,13.48,2.35v.5Z" transform="translate(-903.07 -486.07)"/><path class="cls-12" d="M985.5,496l-2-2c1.43,1,3.9,0,4.5,2.5Z" transform="translate(-903.07 -486.07)"/><path class="cls-7" d="M1005,518.5c-.13-1.56.93-1.54,2-1.5l1,2h-1l-2-.5Z" transform="translate(-903.07 -486.07)"/><path class="cls-21" d="M1007,519h1l1.49.51V520C1008.72,519.55,1007.57,520,1007,519Z" transform="translate(-903.07 -486.07)"/><path class="cls-7" d="M1009.5,520v-.49l1,.49Z" transform="translate(-903.07 -486.07)"/><path class="cls-60" d="M1006.5,516H1004a3.42,3.42,0,0,0-2-4h2l.5.49c.66.85,1.33-.14,2,0h0C1006.68,513.67,1008.31,514.84,1006.5,516Z" transform="translate(-903.07 -486.07)"/><path class="cls-61" d="M917.5,566.5c-3.76-1.86-4.68-5.64-4.37-9,.22-2.45-1.06-2.9-2.13-4-1.89-1.47.45-3.84-.38-4.56-2.08-1.8-1.49-3.87-1.62-5.94.16-.66.33-1.33.5-2,.12,2.44-1.07,5.53,3,6,.7.79,1.43,1.56,2.11,2.37.49.59,1.46,1.28-.22,1.62-.87.18-2.5-.48-2.42.8.1,1.6,1.86,1.13,3,1.21,1.82,1.53,2.58,3.47.84,5.28-1.57,1.64-2.25,2.85-.45,4.69A29.61,29.61,0,0,1,918,566.5Z" transform="translate(-903.07 -486.07)"/><path class="cls-62" d="M909.5,541c-.17.67-.34,1.34-.5,2-.34-.83-.67-1.67-1-2.5a29.32,29.32,0,0,0,1-3.49c.41-2.63,2-3.78,4.51-4v.5l-.5.5C909.73,535.29,910,538.34,909.5,541Z" transform="translate(-903.07 -486.07)"/><path class="cls-63" d="M917.5,566.5h.5c1,.47,2.64.68,3,1.46,1.36,3,6,3.07,6,7,.35,1.24,2.6.8,2.37,2.14-.6,3.47,1.9,4,4.13,4.86-2.58-.67-6.17.08-5.79-4.57.06-.75-1.43-1.62-2.21-2.43h0c-.65-1.21-1.92-1.15-3-1.5h0l-.5-.5A16,16,0,0,1,917.5,566.5Z" transform="translate(-903.07 -486.07)"/><path class="cls-35" d="M922.5,573.5c1.08.35,2.35.29,3,1.5C924.31,574.89,922.76,575.48,922.5,573.5Z" transform="translate(-903.07 -486.07)"/><path class="cls-35" d="M922,573l.5.5Z" transform="translate(-903.07 -486.07)"/><path class="cls-64" d="M933.5,582c-2.23-.88-4.73-1.39-4.13-4.86.23-1.34-2-.9-2.37-2.14a2.94,2.94,0,0,1,3.37,1.93c1.42,3.85,4.42,5,8.13,5.07h0v.5H938l-.5.5h-2l-.5-.49h0l-.5-.5Z" transform="translate(-903.07 -486.07)"/><path class="cls-65" d="M934.5,582l.5.5Z" transform="translate(-903.07 -486.07)"/><path class="cls-65" d="M935,582.5l.5.49Z" transform="translate(-903.07 -486.07)"/><path class="cls-66" d="M986,579.5c-2,2.19-4.67,2.55-7.45,2.49-6-.11-12,.37-18-.49-1.87-1.06-3.91-.27-5.85-.48-.78-.09-1.6,0-1.77-1s.72-.95,1.31-1.14c2-.63,3.92-1.22,5.89-1.83.75-.24,1.77-1.07.68-1.35-2.89-.73-4.65-3.17-7.26-4.2V571H956l.49.49c2.09,2.56,5.25,2.24,8,3a13.89,13.89,0,0,0,2.34.48c1.08,0,2.21.21,2.39,1.33.23,1.36-1.18,1-1.94,1.34-2.74,1.08-5.63.59-8.45.84-.88.08-1.69.24-1.93,1.2,0,.18.48.71.77.73,6.94.62,13.88,1.15,20.78-.32.68-.15,1.76,0,1.7-1,0-.4-1.08-.74-1.66-1.11,1.71-.14,3.43-.25,5.14-.45C985.14,577.38,986.08,577.79,986,579.5Z" transform="translate(-903.07 -486.07)"/><path class="cls-67" d="M953.5,571v.5c-2.22.65,1.27,2.27-.51,3-.18-1.59-1.31-1.67-2.48-1.38s-.94,1.09-.5,1.88h-.51l-.5-.5c-.67-2.24-3.15-1.77-4.5-3-1.38-1.45-4.49,0-5-2.39-.91-4.39-4.06-4-7.22-4.14-1.48-.05-3.28-.06-2.8-2.47l0-.55.48-.48.56-1.47c.69-.73,1.2-1.75,2.49-1.5V559l-1.49,1.52c1,2.12,2.16,3.47,5,3.23,2.12-.18,4.34.8,6.51,1.26,1.53,1.43,5.26,1.37,3.45,5.07a5,5,0,0,0,1.14.4C949.55,570.67,951.53,570.83,953.5,571Z" transform="translate(-903.07 -486.07)"/><path class="cls-68" d="M953,574.49c1.78-.72-1.71-2.34.51-3,2.61,1,4.37,3.47,7.26,4.2,1.09.28.07,1.11-.68,1.35-2,.61-3.93,1.2-5.89,1.83-.59.19-1.48.17-1.31,1.14s1,.91,1.77,1c1.94.21,4-.58,5.85.48-4.32-.17-8.64-.31-13-.55A2.26,2.26,0,0,1,946,580c-.43-.78.43-1.13,1-1.44a24.22,24.22,0,0,1,2.45-1.21c.61-.28,1.67.41,1.89-.65.29-1.35-1.35-1-1.76-1.71h3l.5-.5Z" transform="translate(-903.07 -486.07)"/><path class="cls-69" d="M986,579.5c.08-1.71-.86-2.12-2.36-2-1.71.2-3.43.31-5.14.45h0c-1.33-1.28-.87-1.84.77-2,1.08-.12,2.27.4,3.23-.5,2.52-.23,4.81-2.07,7.5-1a14.2,14.2,0,0,1,7-1h.5c-2.43.84-5.11.6-7.44,2.23-1.1.76-2.23.7-2,2.54C988.23,579.26,987,579.53,986,579.5Z" transform="translate(-903.07 -486.07)"/><path class="cls-70" d="M944.5,571.5c1.35,1.23,3.83.76,4.5,3-2,0-4.16.31-6-1l-.51-.5-.5-1.5Z" transform="translate(-903.07 -486.07)"/><path class="cls-71" d="M997.5,573.5H997c.67-1.16-.78-3.55,2-3.5h0l2-.5h2.5Z" transform="translate(-903.07 -486.07)"/><path class="cls-72" d="M937.5,575c-1.72-.53-3-2.21-5-2-1.82-3.06-7.93-1.25-7.69-6.73a2.5,2.5,0,0,0-1.14-.25c-1.58.11-2.44-.84-3.17-2a18.56,18.56,0,0,0,9.5,1.5h.5c0,.7,2,.29.89,1.36-.66.64-1.55.69-.88,2a3,3,0,0,0,2.86,1.72c2.22.22,5.19.09,4.13,3.93Z" transform="translate(-903.07 -486.07)"/><path class="cls-73" d="M937.5,574.5c1.06-3.84-1.91-3.71-4.13-3.93a3,3,0,0,1-2.86-1.72c-.67-1.3.22-1.35.88-2,1.1-1.07-.91-.66-.89-1.36,3.64-.29,5.33,3.3,8.4,4.25,1.05.33,1.6,1.94,3.1,1.75l.5,1.5c-.8.34-2.14-2-2.5.5-1.16-.65-1.85-.37-2,1Z" transform="translate(-903.07 -486.07)"/><path class="cls-74" d="M938,574.5c.15-1.37.84-1.65,2-1l.08,1.32Z" transform="translate(-903.07 -486.07)"/><path class="cls-72" d="M938,575.5l-.5-.5Z" transform="translate(-903.07 -486.07)"/><path class="cls-75" d="M920.5,564c.73,1.18,1.59,2.13,3.17,2a2.5,2.5,0,0,1,1.14.25c-.24,5.48,5.87,3.67,7.69,6.73.93,1.18,1,3.17,3,3.4.13,0,.36.52.3.59-3.09,3.85,2.21,3.13,2.71,5-3.71-.08-6.71-1.22-8.13-5.07A2.94,2.94,0,0,0,927,575c0-4-4.64-4.08-6-7-.36-.78-2-1-3-1.46a29.61,29.61,0,0,0-2.62-3.53c-1.8-1.84-1.12-3.05.45-4.69,1.74-1.81,1-3.75-.84-5.28h.51c2,.23,4.42-.84,5.74,1.3s-1.8,2.78-2.14,4.47a1.47,1.47,0,0,1-.1.22c-1.11-.1-1.87.5-1.85,1.5C917.17,562.59,919.27,562.92,920.5,564Z" transform="translate(-903.07 -486.07)"/><path class="cls-36" d="M938.5,582.5V582c1,.14,2.12-.37,3,.5h-3Z" transform="translate(-903.07 -486.07)"/><path class="cls-76" d="M944,495c2.87,0,5.56-1.55,8.5-1-3.77,3.75-9.6,3.52-13.5,7-3.17,1.68-7.09,2.35-8.9,5.92a4.4,4.4,0,0,1-3.6,2.58l-1.5.5h-1.5c2.13-1.43,4.12-2.88,5.11-5.51a3.26,3.26,0,0,1,4-2.25,1.85,1.85,0,0,0,1.25-.27c.34-4.07,4-3.39,6.37-4.11C942,497.29,943.26,496.68,944,495Z" transform="translate(-903.07 -486.07)"/><path class="cls-77" d="M923.5,510h1v1h0a2.1,2.1,0,0,0-2,2h0l-.5.5c0,.94-2,1.12-1,2.5l2,3-2,.5h-.51c.18-.93.81-2-.44-2.61-4.9-2.38-1.58-4.07.45-5.88l2-.5h0l1-.5Z" transform="translate(-903.07 -486.07)"/><path class="cls-78" d="M920.49,519.49H921c-2.93,1.38-2.94,3-.39,4.81A8.52,8.52,0,0,1,922,526v.51l-4-1.5h0l-.5-.5h-1c-.56-1.09-2.21-1.88-1.19-3.43C916.56,519.18,918.6,519.5,920.49,519.49Z" transform="translate(-903.07 -486.07)"/><path class="cls-79" d="M913,534l.5-.5c1.16-.72,4.43.56,2.49-3.13-.7-1.32,1.63-.49,2.5-.88l0,0c0,3.41,2.61,1.41,4,2,.1,1.23-.2,2.38-1.68,1.94-2.35-.68-4.23.63-6.32,1.06l-1.5.5Z" transform="translate(-903.07 -486.07)"/><path class="cls-79" d="M916.5,524.5h1l.5.5h0c.73,1.25,2.53,2.09,1.5,4h0l-.5.5h-.49l0,0C919.75,527.06,916,526.64,916.5,524.5Z" transform="translate(-903.07 -486.07)"/><path class="cls-76" d="M922.5,510.5l-2,.5Z" transform="translate(-903.07 -486.07)"/><path class="cls-76" d="M923.5,510l-1,.5Z" transform="translate(-903.07 -486.07)"/><path class="cls-80" d="M939,501c3.9-3.48,9.73-3.25,13.5-7l1-.5a5.46,5.46,0,0,0,5.08-1.73c1.16-1.32,8.64-.22,9.92,1.23h0c-1.7,0-3.41,0-5.11,0-1.17,0-2.46-.4-3.24,1.12-1.16,2.25-3.42,2.2-5.54,2.87-1.85.59-4.46-1.3-5.61,1.5-3.67-1.08-6.27,1.91-9.5,2.5Z" transform="translate(-903.07 -486.07)"/><path class="cls-65" d="M959.5,593c-2.34,0-4.25-.13-4.67-3.36-.25-2-2.74-1.25-4.31-1.59-2.76-.6-5.46-1.42-7.52-3.55,4.81-.06,8.85,2.73,13.39,3.74C958.12,588.63,957.54,592,959.5,593Z" transform="translate(-903.07 -486.07)"/><path class="cls-65" d="M938.5,582.5h2l2.5,2C941.46,583.92,939.53,584.22,938.5,582.5Z" transform="translate(-903.07 -486.07)"/><path class="cls-40" d="M982,586.5c-.71.8-1.65.4-2.5.5C980.21,586.2,981.15,586.61,982,586.5Z" transform="translate(-903.07 -486.07)"/><path class="cls-42" d="M976,589l-2,.5C974.51,588.69,975.06,588.06,976,589Z" transform="translate(-903.07 -486.07)"/><path class="cls-40" d="M985,585l-.5.5Z" transform="translate(-903.07 -486.07)"/><path class="cls-40" d="M984,585.5l-.5.5Z" transform="translate(-903.07 -486.07)"/><path class="cls-40" d="M983,586l-.5.5Z" transform="translate(-903.07 -486.07)"/><path class="cls-65" d="M937.5,583l.5-.5Z" transform="translate(-903.07 -486.07)"/><path class="cls-81" d="M1002,512a3.42,3.42,0,0,1,2,4l-2,.5c-1.66-1.35-3.34.32-5,0V516c1.59,0,2.53-.73,2.47-2.36s-1.23-2-2.7-2.19c-1.95-.26-3.85.93-5.77.05,2.44-1.09,5-.21,7.5-.5Z" transform="translate(-903.07 -486.07)"/><path class="cls-82" d="M1008,521c-.86,2.66-3,3.54-5.5,4v-1a4.27,4.27,0,0,1,.86-.84c.79-.43,2.38.26,2.37-1.16s-1.56-1.56-2.65-1.68c-3-.35-6.05-.56-9.08-.82l-2-.51v-.49h2C998.61,519.68,1003.76,517.79,1008,521Z" transform="translate(-903.07 -486.07)"/><path class="cls-83" d="M991.5,517l-1.9.1L991,518l0,0c-1.92-.15-4.06.49-5.49-1.51C987.5,516.76,989.58,515.94,991.5,517Z" transform="translate(-903.07 -486.07)"/><path class="cls-82" d="M991.5,517c-1.92-1.06-4-.24-6-.5h0V516H997v.49c-1.66.25-3.42-.52-5,.51h-.5Z" transform="translate(-903.07 -486.07)"/><path class="cls-83" d="M992,517c1.58-1,3.34-.26,5-.51,1.66.33,3.34-1.34,5,0Z" transform="translate(-903.07 -486.07)"/><path class="cls-83" d="M994,518.5h-3c0-.16,0-.32,0-.48l0,0C992,518.14,993.12,517.62,994,518.5Z" transform="translate(-903.07 -486.07)"/><path class="cls-21" d="M1005,518.5l2,.5Z" transform="translate(-903.07 -486.07)"/><path class="cls-84" d="M1002,526c-2.64.82-5.7,1-6.5,4.5h0c-.68-3-3.34,0-4.5-1.5-.15-.5-.67-1.39.17-1.37,3,.08,5.24-2.69,8.33-2.13l2.5.48Z" transform="translate(-903.07 -486.07)"/><path class="cls-56" d="M1010.5,535.49V536c-.86-.18-1.72-.37-2.59-.53-1.8-.33-3.31-2.34-5.42-1-2.3.1-4.57.08-6.49-1.51l-.51-1H998c1.13,1,2.29,2,4,1.52C1005.3,532.18,1007.68,534.77,1010.5,535.49Z" transform="translate(-903.07 -486.07)"/><path class="cls-84" d="M997.49,532h-2v-.5h0Z" transform="translate(-903.07 -486.07)"/><path class="cls-84" d="M995.5,530.5v1h0c-.49-.33-.49-.67,0-1Z" transform="translate(-903.07 -486.07)"/><path class="cls-49" d="M1002.5,525.5l-.5.5v0l.49-.49Z" transform="translate(-903.07 -486.07)"/><path class="cls-85" d="M1002.49,525.49l-.49.49-2.5-.48c-1.47-.94-2.9-1.5-4.56-.28-3.55,2.58-7.29,2.23-11.31,1-1.72-.5-4-1.27-5.64.75l-2.55.3a7.23,7.23,0,0,0,.69.93c.41.42,1.41.07,1.42,1a6.72,6.72,0,0,1-2.12-.13,25.12,25.12,0,0,1-2.94-1.66l1-.51c.11-2.62-1.65-2.62-3.5-2.49-.63.49-.62,1,0,1.49h0l.5.5h.5v.5l-1,.5,0,.5a3.11,3.11,0,0,1-2.49-1.5c1.27-2.2,3.46-3.52,5.55-2.35,3.73,2.1,7.57,1,11.35,1.36a7.54,7.54,0,0,1,2.64.41c2.06,1.08,3.48.64,4.46-1.42l10-1,1,.51v1C1002.5,525.16,1002.5,525.33,1002.49,525.49Z" transform="translate(-903.07 -486.07)"/><path class="cls-86" d="M997.5,504c.26,2.61,3.34,3.18,4,5.5l-5-.5c1.12-2.55-.58-3.35-2.5-4-3.43-.73-7-.93-10.21-2.58-3.66-1.86-7.32-4.15-11.76-2.44a1,1,0,0,1-.74,0,12,12,0,0,0-9.29-.44,4,4,0,0,1,2.51-3c2.83,1.61,5.66.7,8.49,0h0c2.78.74,5.25,2.67,8.4,2.05,3.71-.73,6.46,1.05,9.16,3.39A7.93,7.93,0,0,0,997.5,504Z" transform="translate(-903.07 -486.07)"/><path class="cls-87" d="M949,498.5c1.15-2.8,3.76-.91,5.61-1.5,2.12-.67,4.38-.62,5.54-2.87.78-1.52,2.07-1.08,3.24-1.12,1.7,0,3.41,0,5.11,0,3.79-.29,6.91,2.24,10.59,2.48a8.35,8.35,0,0,1,2.41,1H973c-3-2.56-6,.78-9,0-3.15.77-6.66.64-9,3.5h-.5c-.91.09-3.27-2.46-2.22,1.25.23.78-1,1.37-1.09,1.09-.75-2.74-2.61-1.53-4.19-1.34Z" transform="translate(-903.07 -486.07)"/><path class="cls-87" d="M981.5,496.5a4.43,4.43,0,0,1,4,1.5C984,498,982.34,498.33,981.5,496.5Z" transform="translate(-903.07 -486.07)"/><path class="cls-88" d="M996.5,509l5,.5h0l.5.5h0l.5.5.5.51.49.49h0V512H1002l-3.51-1-.5-1Z" transform="translate(-903.07 -486.07)"/><path class="cls-21" d="M1003.5,512v-.49l1.5-.5.5.49,1,1c-.67-.14-1.34.85-2,0l-.5-.49Z" transform="translate(-903.07 -486.07)"/><path class="cls-21" d="M1003.49,511.5,1003,511Z" transform="translate(-903.07 -486.07)"/><path class="cls-86" d="M1002.5,510.5l-.5-.5Z" transform="translate(-903.07 -486.07)"/><path class="cls-86" d="M1002,510l-.5-.5Z" transform="translate(-903.07 -486.07)"/><path class="cls-27" d="M1011.5,549.5l-1,.5Z" transform="translate(-903.07 -486.07)"/><path class="cls-10" d="M1006.51,550.5l.49-.5Z" transform="translate(-903.07 -486.07)"/><path class="cls-89" d="M1003.51,550.5a2.79,2.79,0,0,1-3.09,1.51c-1.07-.09-2,0-1.92,1.49H997l-3.5-.5v-1.5h.5l.5-.49h0c.77-.81.08-.88-.5-1h-.5c-1.51-1.9.41-1.61,1.1-1.44A10.65,10.65,0,0,0,1001,548C1000.06,550.62,1004.22,548.11,1003.51,550.5Z" transform="translate(-903.07 -486.07)"/><path class="cls-90" d="M1001,548a10.65,10.65,0,0,1-6.39.56c-.69-.17-2.61-.46-1.1,1.44-.75.71-2,1.57-2.53.67-.72-1.1.84-1.78,1.61-2.33,2.38-1.71,5.4-.1,7.92-1.34l1.48,0h1.52Z" transform="translate(-903.07 -486.07)"/><path class="cls-91" d="M1007,546.51c0,.16,0,.32,0,.49h-3v-.49l3,0Z" transform="translate(-903.07 -486.07)"/><path class="cls-90" d="M1004,546.51V547h-.5Z" transform="translate(-903.07 -486.07)"/><path class="cls-91" d="M1002.49,534.5c2.11-1.37,3.62.64,5.42,1,.87.16,1.73.35,2.59.53,1.15.1,1.49.83,1.5,1.87,0,1.89.52,3.88.59,5.58.1,2.87-3,3.18-5.58,3.06h0c3.69-3.65,3.69-6,0-9-.08-.79.3-1.82-1-2l-2,0C1003.93,534.51,1003.22,534.5,1002.49,534.5Z" transform="translate(-903.07 -486.07)"/><path class="cls-92" d="M1001,556.49h.5l.5.5h0l.5.5h0l.5.49h0l1,.5h0l.5.49h0c.37,1,2.23,2,.55,3.1a9.13,9.13,0,0,0-4.28,5.25c-.46,1.57-2.13,2.16-3.84,2.15-2.14,0-4.29,0-6.43,0-2.7.06-5.22,1.62-8,1V570c4,0,7.9-1.89,12-1a20.55,20.55,0,0,0,2.72-.07,1.8,1.8,0,0,0,1.55-2.16c-.12-.86-.7-2.08-1.75-1.6-1.84.84-2.85-.22-4-1.16-.85-.11-1.8.29-2.5-.5,2-.28,4.08.57,6-.51l1.5-.5c.35,2.9,2.22.54,3.32.86.67.2,2.13-.36,1.91-1.43-.33-1.6-1.64-.23-2.49-.42a5.7,5.7,0,0,0-1.24,0l.5-2.5C1002.45,559,1001,557.45,1001,556.49Z" transform="translate(-903.07 -486.07)"/><path class="cls-93" d="M1001,556.49c0,1,1.45,2.52-1,2.51-1-.56-1.88-.76-2.5.5-1.39-1.12-2.77-2.4-4.51-.51l-.49,0-4,2.49-.52,1-.5-.49c-1-2.14-3.2-1.91-5-2.5l2.49-1c2.11.49,2-2.08,3.5-2.5-1,2,0,2.42,1.76,2.53,2.47.14,3.86-2.22,6.29-2.4,2.14-.16,2.1-1.43.45-2.63h1.5Z" transform="translate(-903.07 -486.07)"/><path class="cls-94" d="M1004,557.5v.5h-1l-.5-.49h0l-.5-.5h0l-.5-.5h0c0-.32,0-.65,0-1Z" transform="translate(-903.07 -486.07)"/><path class="cls-95" d="M990.5,569.51c2.14,0,4.29,0,6.43,0,1.71,0,3.38-.58,3.84-2.15a9.13,9.13,0,0,1,4.28-5.25c1.68-1.1-.18-2.08-.55-3.1h1c2.32,1.41,1.76,3.13.34,4.7a5.13,5.13,0,0,0-1.34,4.3l-1,1c-.84.1-1.78-.3-2.49.5h0l-2,.5h-8.5Z" transform="translate(-903.07 -486.07)"/><path class="cls-94" d="M1004.5,568a5.13,5.13,0,0,1,1.34-4.3c1.42-1.57,2-3.29-.34-4.7,5.09,0,2.89,2.72,1.6,4.66C1006.16,565.07,1006.37,567.17,1004.5,568Z" transform="translate(-903.07 -486.07)"/><path class="cls-96" d="M1001,569.5c.71-.8,1.65-.4,2.49-.5a4,4,0,0,1,0,.49Z" transform="translate(-903.07 -486.07)"/><path class="cls-94" d="M1005.5,559h-1l-.5-.49h0a4,4,0,0,0,0-.49h0Z" transform="translate(-903.07 -486.07)"/><path class="cls-88" d="M1004,512l.5.49Z" transform="translate(-903.07 -486.07)"/><path class="cls-97" d="M915.5,553H915c-1.16-.08-2.92.39-3-1.21-.08-1.28,1.55-.62,2.42-.8,1.68-.34.71-1,.22-1.62-.68-.81-1.41-1.58-2.11-2.37v-1h0c1.15,1.08,2.56,1.08,4,1,.63,1.35,6,.34,2,4h0C917.21,551.23,915.28,550.49,915.5,553Z" transform="translate(-903.07 -486.07)"/><path class="cls-98" d="M912.49,546v1c-4.07-.47-2.88-3.56-3-6,.5-2.66.23-5.71,3.5-7v1C909.54,539.49,909.35,543.48,912.49,546Z" transform="translate(-903.07 -486.07)"/><path class="cls-99" d="M990.5,569.51V570l-1,.5c0,3.56-2.68,1.57-4.18,2.06a4.06,4.06,0,0,0-1.61,1A3.48,3.48,0,0,1,980.5,575h0c-2.17-2.35-4.33-1.89-6.5,0h-2c-2.55.49-4.94-1.36-7.51-.5-2.76-.76-5.92-.44-8-3L956,571h-2.5c-2-.17-4-.33-5.91-.53a5,5,0,0,1-1.14-.4c1.81-3.7-1.92-3.64-3.45-5.07h1.5c2.4.48,4.94.64,5,4.13,0,.85,1.66,1.27,2.31.74,1.7-1.38,3.66-1.6,5.65-1.87H958l.5.5v1c.44,1.22,1.11,1.56,2.48,1.18,1.07-.3,3.15-.82,3.27.52.27,2.94,1.24,2.09,3.11,1.47,1.18-.4,1.87-1.23,2.89-1.71,4-1.88,8.2.41,12.25-.46C985.28,571.13,987.8,569.57,990.5,569.51Z" transform="translate(-903.07 -486.07)"/><path class="cls-100" d="M964.5,574.5c2.57-.86,5,1,7.51.5-.12.84-1.73,1.1-1,2.25.59.87,1.58.75,2.49.75h5c.58.37,1.64.71,1.66,1.11.06,1-1,.84-1.7,1-6.9,1.47-13.84.94-20.78.32-.29,0-.81-.55-.77-.73.24-1,1.05-1.12,1.93-1.2,2.82-.25,5.71.24,8.45-.84.76-.31,2.17,0,1.94-1.34-.18-1.12-1.31-1.29-2.39-1.33A13.89,13.89,0,0,1,964.5,574.5Z" transform="translate(-903.07 -486.07)"/><path class="cls-67" d="M956,571l.5.49Z" transform="translate(-903.07 -486.07)"/><path class="cls-101" d="M944.5,565H943c-2.17-.46-4.39-1.44-6.51-1.26-2.82.24-4-1.11-5-3.23,4.18-1.62,9,.75,13-2v.5c-1.21.36-1.84,1.87-3.46,1.56-.76-.15-2.27-.54-2.31.63,0,1.38,1.47,1.24,2.52,1.3.58,0,1.17,0,1.75,0l2,.5c.55,1.75,2.44,1.13,3.5,2Z" transform="translate(-903.07 -486.07)"/><path class="cls-102" d="M933,559v-.49a3.45,3.45,0,0,0,2.6-3.22c.09-1.42-1.86-.54-2.71-1.22A13.33,13.33,0,0,0,931,553c3.2-.72,5.8,2.2,9,1.5,1,.28,2.47-.75,3,1-.89,3.71-3.6,4.27-6.81,3.93C935.12,559.32,934.06,559.14,933,559Z" transform="translate(-903.07 -486.07)"/><path class="cls-103" d="M930.51,560l-.56,1.47c-.17-1.06-.67-2.17-1.82-1.78s-.44,1.48-.1,2.27l-.54,0-2-2.51c-1-.93-2-.44-3,0V559c.51-1,1.52-1.18,2.44-1.57s2.29-.45,2.26-1.59-1.65-.92-2.25-1.45c-1.91-1.68-5.09-.82-6.45-3.39H921c1.33,2.68,4,1.41,6,2,.84,0,1.08.68,1.59,1.09C930.62,555.72,929.83,558.06,930.51,560Z" transform="translate(-903.07 -486.07)"/><path class="cls-104" d="M922.5,559.5c1-.44,2-.93,3,0-1,0-2.51-.06-2.5,1,0,1.46,1.75,2,2.89,2.64s1.47-.18,1.6-1.13l.54,0h0l1.49.54c-.48,2.41,1.32,2.42,2.8,2.47,3.16.11,6.31-.25,7.22,4.14.49,2.35,3.6.94,5,2.39H942c-1.5.19-2-1.42-3.1-1.75-3.07-1-4.76-4.54-8.4-4.25H930a4.29,4.29,0,0,0-3.54-1.17C924.24,564.57,921.61,561.11,922.5,559.5Z" transform="translate(-903.07 -486.07)"/><path class="cls-105" d="M930.51,560c-.68-1.94.11-4.28-1.92-5.91-.51-.41-.75-1.12-1.59-1.09v-.5h3.5l.5.5h0a13.33,13.33,0,0,1,1.89,1.06c.85.68,2.8-.2,2.71,1.22a3.45,3.45,0,0,1-2.6,3.22C931.71,558.25,931.2,559.27,930.51,560Z" transform="translate(-903.07 -486.07)"/><path class="cls-106" d="M933,559c1.06.15,2.12.33,3.19.44,3.21.34,5.92-.22,6.81-3.93,1.53,3.09,4.12-.07,6,1-.54,2.83-3.32.58-4.49,2h0c-4,2.76-8.81.39-13,2Z" transform="translate(-903.07 -486.07)"/><path class="cls-107" d="M952.5,575H950c-.44-.79-.62-1.61.5-1.88s2.3-.21,2.48,1.38h0Z" transform="translate(-903.07 -486.07)"/><path class="cls-108" d="M928,562c-.34-.79-1.16-1.86.1-2.27s1.65.72,1.82,1.78l-.48.48H928Z" transform="translate(-903.07 -486.07)"/><path class="cls-103" d="M928,562h1.46l0,.55Z" transform="translate(-903.07 -486.07)"/><path class="cls-67" d="M952.5,575l.5-.5Z" transform="translate(-903.07 -486.07)"/><path class="cls-96" d="M989.5,570.5l1-.5H999c-2.78,0-1.33,2.34-2,3.5a14.2,14.2,0,0,0-7,1c.59-1.07,3.94-2.33-.21-3.11C989.64,571.36,989.59,570.81,989.5,570.5Z" transform="translate(-903.07 -486.07)"/><path class="cls-66" d="M978.5,578h-5c-.91,0-1.9.12-2.49-.75-.78-1.15.83-1.41,1-2.25h2c2.17-.1,4.33,1.08,6.5,0h0l2,.5c-1,.9-2.15.38-3.23.5C977.63,576.16,977.17,576.72,978.5,578Z" transform="translate(-903.07 -486.07)"/><path class="cls-109" d="M982.5,575.5l-2-.5a3.48,3.48,0,0,0,3.21-1.42,4.06,4.06,0,0,1,1.61-1c1.5-.49,4.19,1.5,4.18-2.06.09.31.14.86.29.89,4.15.78.8,2,.21,3.11C987.31,573.43,985,575.27,982.5,575.5Z" transform="translate(-903.07 -486.07)"/><path class="cls-96" d="M999,570l2-.5Z" transform="translate(-903.07 -486.07)"/><path class="cls-110" d="M922.5,559.5c-.89,1.61,1.74,5.07,4,4.83A4.29,4.29,0,0,1,930,565.5a18.56,18.56,0,0,1-9.5-1.5c-1.23-1.08-3.33-1.41-3.35-3.51,0-1,.74-1.6,1.85-1.5h3.5Z" transform="translate(-903.07 -486.07)"/><path class="cls-111" d="M922.5,559H919a1.47,1.47,0,0,0,.1-.22c.34-1.69,3.53-2.22,2.14-4.47s-3.76-1.07-5.74-1.3c-.22-2.51,1.71-1.77,3-2,1.36,2.57,4.54,1.71,6.45,3.39.6.53,2.22.31,2.25,1.45s-1.4,1.22-2.26,1.59S923,558,922.5,559Z" transform="translate(-903.07 -486.07)"/><path class="cls-112" d="M939,501h.5c-3.09,1.71-2.51,6.76-7,7.44-1.2.18-3,.12-4,1.56h0l-1.5.5h-2.5V510h.5l1.5-.5a4.4,4.4,0,0,0,3.6-2.58C931.91,503.35,935.83,502.68,939,501Z" transform="translate(-903.07 -486.07)"/><path class="cls-77" d="M926.5,509.5l-1.5.5Z" transform="translate(-903.07 -486.07)"/><path class="cls-113" d="M922,526a8.52,8.52,0,0,0-1.39-1.68c-2.55-1.86-2.54-3.43.39-4.81l2-.5h2.49l.52,0c-.85.42-1.68.89-2.56,1.25s-2.11.69-.45,1.74c.87,1-.06,2.79,1.5,3.5l-1.5.5Z" transform="translate(-903.07 -486.07)"/><path class="cls-114" d="M921,516c-1-1.38,1-1.56,1-2.5l.5-.5h0l2-2h0c.85-.1,1.79.3,2.5-.5h0l1.5-.5h1l-.5,1c-1.8,1.29-4.44,1.91-4,5h-4Z" transform="translate(-903.07 -486.07)"/><path class="cls-115" d="M921,516h2l1.82.5c1.3.34,3.73.73,3.72,1-.11,1.88-2.28.34-3,1.5H923Z" transform="translate(-903.07 -486.07)"/><path class="cls-116" d="M924.5,511l-2,2A2.1,2.1,0,0,1,924.5,511Z" transform="translate(-903.07 -486.07)"/><path class="cls-116" d="M927,510.5c-.71.8-1.65.4-2.5.5v-.5Z" transform="translate(-903.07 -486.07)"/><path class="cls-116" d="M922.5,513l-.5.5Z" transform="translate(-903.07 -486.07)"/><path class="cls-117" d="M922,526h1c.87.91,2,.22,3,.61.5.2,1.72.76,1,1.06-1.64.72-1.18,2.37-2,3.33l-2.5.5c-1.38-.58-4,1.42-4-2H919l.5-.5h0c1.1-.57,2.77-.56,2.5-2.5Z" transform="translate(-903.07 -486.07)"/><path class="cls-118" d="M922,526.5c.27,1.94-1.4,1.93-2.5,2.5,1-1.91-.77-2.75-1.5-4Z" transform="translate(-903.07 -486.07)"/><path class="cls-118" d="M918,525l-.5-.5Z" transform="translate(-903.07 -486.07)"/><path class="cls-97" d="M912.49,546c-3.14-2.53-3-6.52.51-11l1.5-.5-.5,1L912.5,546Z" transform="translate(-903.07 -486.07)"/><path class="cls-119" d="M914,535.5l.5-1c2.09-.43,4-1.74,6.32-1.06,1.48.44,1.78-.71,1.68-1.94l2.5-.5,2,1c.3.63,1.12,1.13.51,2l-2,.5C921.66,534.73,917.71,533.8,914,535.5Z" transform="translate(-903.07 -486.07)"/><path class="cls-118" d="M919.5,529l-.5.5Z" transform="translate(-903.07 -486.07)"/><path class="cls-116" d="M929.5,510h-1c1-1.44,2.79-1.38,4-1.56,4.5-.68,3.92-5.73,7-7.44,3.23-.59,5.83-3.58,9.5-2.5l-2,2.5h-1l-1.5-.5c-1.4-.11-1.87.64-2.72,1.77-1.23,1.65-.23,4.76-1.63,4.85C936.32,507.37,933.47,510.78,929.5,510Z" transform="translate(-903.07 -486.07)"/><path class="cls-120" d="M997,516h-4.49c3-2.18,4.22-3.78-1.06-3.31-.14,0-.3-.13-.45-.19-2.44-1.09-5-.21-7.5-.51l.5-.49,3,0,4,0c1.92.88,3.82-.31,5.77-.05,1.47.2,2.63.51,2.7,2.19S998.59,516,997,516Z" transform="translate(-903.07 -486.07)"/><path class="cls-121" d="M991,511.5l-4,0-1-2c4,.5,8-.68,12,.5l.5,1C996,511.29,993.44,510.41,991,511.5Z" transform="translate(-903.07 -486.07)"/><path class="cls-122" d="M1002.5,524l-1-.51-1-1c-1-3.83-4.48-1.28-6.49-2.51,0-.16,0-.32,0-.49h0c3,.26,6.07.47,9.08.82,1.09.12,2.65.19,2.65,1.68s-1.58.73-2.37,1.16A4.27,4.27,0,0,0,1002.5,524Z" transform="translate(-903.07 -486.07)"/><path class="cls-123" d="M991,518.49h1V519h-5c0-.16,0-.32,0-.48Z" transform="translate(-903.07 -486.07)"/><path class="cls-122" d="M991.5,519h.5l2,.51h0C993.15,519.39,992.21,519.8,991.5,519Z" transform="translate(-903.07 -486.07)"/><path class="cls-82" d="M991,518.49l-4,0h-6.48c-.91-.15-2,.4-2.6-.65-.11-.2.7-.89,1.09-1.36h6.5c1.43,2,3.57,1.36,5.49,1.51C991,518.17,991,518.33,991,518.49Z" transform="translate(-903.07 -486.07)"/><path class="cls-124" d="M983.5,512c2.49.3,5.06-.58,7.5.51h-8.5c-7.16-1.24-14.31.19-21.47,0-1.31,0-3.6-.95-3.73,1.1-.09,1.28,2.35,1.22,3.63,1.82.14.06.33,0,.49,0,7.69,1.38,15.38-.64,23.07,0,1.66.26,3.43-.53,5,.51h-4c-2.16.27-4.4-.57-6.5.5h0c-8.18-.08-16.37.25-24.5-1-1.61-.34-3.22-.72-4.84-1-.77-.13-1.28-.46-1.38-1.19-.13-.93.66-.73,1.19-.81l10-1.51c4.15.28,8.2,1.1,12.5.43C975.72,510.85,979.66,511.75,983.5,512Z" transform="translate(-903.07 -486.07)"/><path class="cls-125" d="M989.5,516c-1.58-1-3.35-.25-5-.51,0-2,3.22.11,2.61-1.71s-2.85-.29-4.22-1a1.61,1.61,0,0,1-.38-.31H991c.15.06.31.2.45.19,5.28-.47,4.06,1.13,1.06,3.31Z" transform="translate(-903.07 -486.07)"/><path class="cls-123" d="M979,516.5c2.1-1.07,4.34-.23,6.5-.5v.5Z" transform="translate(-903.07 -486.07)"/><path class="cls-126" d="M978,527c1.63-2,3.92-1.25,5.64-.75,4,1.18,7.76,1.53,11.31-1,1.66-1.22,3.09-.66,4.56.28-3.09-.56-5.32,2.21-8.33,2.13-.84,0-.32.87-.17,1.37h0c-1.46-2-2.5,1.21-4,.29a11.77,11.77,0,0,0-6-1.28l-2.49-.5Z" transform="translate(-903.07 -486.07)"/><path class="cls-127" d="M995.5,530.5c-.49.33-.49.67,0,1v.5h0l-5,0c-.91-1.17-.16-2.07.49-3h0C992.16,530.51,994.82,527.53,995.5,530.5Z" transform="translate(-903.07 -486.07)"/><path class="cls-128" d="M990.5,532l5,0,.51,1-.52,0h-1l-4.5.49h-7c-.69-.73-1.6-1.4-.5-2.49C985.09,532,987.63,533.33,990.5,532Z" transform="translate(-903.07 -486.07)"/><path class="cls-129" d="M995.48,533l.52,0c1.92,1.59,4.19,1.61,6.49,1.51.73,0,1.44,0,1.51,1v0C1001.15,534.73,997.35,537.19,995.48,533Z" transform="translate(-903.07 -486.07)"/><path class="cls-130" d="M991.5,524.5c-1,2.06-2.4,2.5-4.46,1.42a7.54,7.54,0,0,0-2.64-.41c-3.78-.38-7.62.74-11.35-1.36-2.09-1.17-4.28.15-5.55,2.35l-.5-.5a2.7,2.7,0,0,0-2.82-.44,17,17,0,0,1-9.67.43c0-.16,0-.32,0-.48L956,525c5.62.28,11-1.3,16.51-2H983l.5.48c2.06,1.51,4.2,2,6.5.5Z" transform="translate(-903.07 -486.07)"/><path class="cls-131" d="M978,527l.51.49a3,3,0,0,0,2.5,1h.5c.18,2.24-1,2.93-3.08,3-2.63.15-4.7-1.1-6.91-2.06h0L971,529l-1-1c0-.17,0-.34,0-.5h2.48a25.12,25.12,0,0,0,2.94,1.66,6.72,6.72,0,0,0,2.12.13c0-1-1-.63-1.42-1a7.23,7.23,0,0,1-.69-.93Z" transform="translate(-903.07 -486.07)"/><path class="cls-132" d="M970,528l1,1,.5.49h0c-1.77,2.21-3.11.57-4.51-.5l-.5-.5h0l-1-.5h0l-1.22-1.59L967,526l.5.5A3.11,3.11,0,0,0,970,528Z" transform="translate(-903.07 -486.07)"/><path class="cls-133" d="M991.5,524.5,990,524c0-.32,0-.65,0-1h1c3.17-.17,6.37.44,9.5-.5l1,1Z" transform="translate(-903.07 -486.07)"/><path class="cls-134" d="M970,524.51c1.85-.13,3.61-.13,3.5,2.49l-2.5-.5h-.5l-.5-.5h0Z" transform="translate(-903.07 -486.07)"/><path class="cls-132" d="M971,526.5l2.5.5-1,.51H971v-1Z" transform="translate(-903.07 -486.07)"/><path class="cls-132" d="M970,524.51V526C969.38,525.5,969.37,525,970,524.51Z" transform="translate(-903.07 -486.07)"/><path class="cls-130" d="M971,527v.5h-1Z" transform="translate(-903.07 -486.07)"/><path class="cls-132" d="M970,526l.5.5Z" transform="translate(-903.07 -486.07)"/><path class="cls-135" d="M962,499.5a12,12,0,0,1,9.29.44,1,1,0,0,0,.74,0c4.44-1.71,8.1.58,11.76,2.44,3.24,1.65,6.78,1.85,10.21,2.58-3.17.51-6.33-1-9.5,0-2.16-.29-4.42.76-6.5-.5-2.45-.47-4.78-4.15-7.43-.27,0,0-.9-.53-1.39-.77-3.33-1.64-6.49-.32-9.68.54l-.5.5-4.5.5a4.17,4.17,0,0,1,3.23-2.4A3,3,0,0,0,961,500l.5-.51Z" transform="translate(-903.07 -486.07)"/><path class="cls-136" d="M984.5,505c3.17-1,6.33.51,9.5,0,1.92.65,3.62,1.45,2.5,4l1.5,1c-4-1.18-8,0-12-.5-1-.68-3.15-1-.73-2.72C986.88,505.6,984.66,505.65,984.5,505Z" transform="translate(-903.07 -486.07)"/><path class="cls-137" d="M962,499.5h-.5c-2.3-1.64-4.42-.86-6.5.5,2.34-2.86,5.85-2.73,9-3.5h.51A4,4,0,0,0,962,499.5Z" transform="translate(-903.07 -486.07)"/><path class="cls-50" d="M964.51,496.5H964c3,.78,6-2.56,9,0C970.17,497.2,967.34,498.11,964.51,496.5Z" transform="translate(-903.07 -486.07)"/><path class="cls-138" d="M946,501h1c1.58-.19,3.44-1.4,4.19,1.34.08.28,1.32-.31,1.09-1.09-1-3.71,1.31-1.16,2.22-1.25-.47,4.22-3.18,4.31-6.42,3.54-.31-.07-.72.3-1.08.46-1.22,1.18-5.64-2.65-4.23,2.7,0,.16-.39.61-.65.65-3.84.56-6.73,4.52-11.12,3.16l-2,.49.5-1c4,.78,6.82-2.63,10.65-2.88,1.4-.09.4-3.2,1.63-4.85.85-1.13,1.32-1.88,2.72-1.77Z" transform="translate(-903.07 -486.07)"/><path class="cls-139" d="M947,504c.36-.16.77-.53,1.08-.46,3.24.77,5.95.68,6.42-3.54h.5c2.08-1.36,4.2-2.14,6.5-.5l-.5.5c-4.1,2.09-7.82,5.42-13,4Z" transform="translate(-903.07 -486.07)"/><path class="cls-140" d="M1000.5,547c-2.52,1.24-5.54-.37-7.92,1.34-.77.55-2.33,1.23-1.61,2.33.58.9,1.78,0,2.53-.67h.5l.5,1h0l-.5.49h-.5c-1.86.43-3.39,2.08-5.52,1.48.28-.29.57-.58.85-.89s.48-.57.73-.86c-.39-.07-.91-.34-1.14-.19-.83.57-3.13.39-1.43,2.45-.67.83-2,1.14-2,2.51l-1,.51c-2.16,1.56-1.52-2.06-2.57-1.54-3.46,1.71-7,.11-10.44.53,1.48-1.68,3.75-1.93,5.53-3,.92-.58,2.3-1.27.47-2.46l-1-2c2.53.22,5.13,1.58,7.5-.5h.5c1.82-.25,3.74.56,5.49-.5h0c1.5-.24,3.17,1.25,4.51-.46h.47C996.42,547.55,998.5,546.74,1000.5,547Zm-18.13,5.45a4.42,4.42,0,0,0,2.72-2.53c.26-.77-.55-1-1.11-.79-1.3.41-2.9.56-2.93,2.46C981,552.35,981.61,552.51,982.37,552.45Z" transform="translate(-903.07 -486.07)"/><path class="cls-141" d="M997,553.5c1.65,1.2,1.69,2.47-.45,2.63-2.43.18-3.82,2.54-6.29,2.4-1.81-.11-2.78-.57-1.76-2.53a12.5,12.5,0,0,1,5-3Z" transform="translate(-903.07 -486.07)"/><path class="cls-90" d="M993.5,553a12.5,12.5,0,0,0-5,3c-1.46.42-1.39,3-3.5,2.5.59-.88,2.39-1.09,1.74-2.6-.34-.81-1.15-.09-1.74.1,0-1.37,1.32-1.68,2-2.51l1-.51c2.13.6,3.66-1.05,5.52-1.48Z" transform="translate(-903.07 -486.07)"/><path class="cls-90" d="M994.5,551l-.5-1C994.58,550.12,995.27,550.19,994.5,551Z" transform="translate(-903.07 -486.07)"/><path class="cls-90" d="M994,551.49l.5-.49Z" transform="translate(-903.07 -486.07)"/><path class="cls-142" d="M1007,537.5c3.69,3,3.69,5.35,0,9h-3l-.5.48H1002c0-.17,0-.33,0-.49V546c2.63,0,5.76.52,5.3-3.73-.26-2.41-3.26-2-4.3-3.77-.24-1.19,2.6-1.35,1-3v0h2Z" transform="translate(-903.07 -486.07)"/><path class="cls-143" d="M1002,546.5c0,.16,0,.32,0,.49h-1.48c-2-.26-4.08.55-6-.47l7,0Z" transform="translate(-903.07 -486.07)"/><path class="cls-129" d="M1007,537.5l-1-2C1007.3,535.68,1006.92,536.71,1007,537.5Z" transform="translate(-903.07 -486.07)"/><path class="cls-144" d="M987.49,562l.5.49,2.51,1c.7.79,1.65.39,2.5.5-.22,1.88,2,3,1.5,5-4.1-.89-8,1-12,1h-1c0-.16,0-.32,0-.48,1.33-.22,2.78.47,4-.51.74-2.29,2.63-4.5.5-7Z" transform="translate(-903.07 -486.07)"/><path class="cls-145" d="M981.5,570h1v.5c-4,.87-8.21-1.42-12.25.46-1,.48-1.71,1.31-2.89,1.71-1.87.62-2.84,1.47-3.11-1.47-.12-1.34-2.2-.82-3.27-.52-1.37.38-2,0-2.48-1.18a17.38,17.38,0,0,1,2.89,0c1.54.27,2.72-2.06,3.45-1.36,3.66,3.52,7.86.41,11.66,1.31h1C978.73,570.48,980.17,569.8,981.5,570Z" transform="translate(-903.07 -486.07)"/><path class="cls-146" d="M994.5,569c.55-2-1.72-3.11-1.5-5,1.17.94,2.18,2,4,1.16,1.05-.48,1.63.74,1.75,1.6a1.8,1.8,0,0,1-1.55,2.16A20.55,20.55,0,0,1,994.5,569Z" transform="translate(-903.07 -486.07)"/><path class="cls-147" d="M997.5,559.5c.62-1.26,1.52-1.06,2.5-.5l-.5,2.5h0l-.5.5h0l-1,.5h0l-1.5.5c-.84-.11-1.79.3-2.5-.5,1.06-.13,2.57.52,2.5-1.5Z" transform="translate(-903.07 -486.07)"/><path class="cls-148" d="M999.5,561.5a5.7,5.7,0,0,1,1.24,0c.85.19,2.16-1.18,2.49.42.22,1.07-1.24,1.63-1.91,1.43-1.1-.32-3,2-3.32-.86h0l1-.5h0l.5-.5Z" transform="translate(-903.07 -486.07)"/><path class="cls-149" d="M994,562.5c.71.8,1.66.39,2.5.5-1.92,1.08-4,.23-6,.51l-2.51-1,.52-1,5,1Z" transform="translate(-903.07 -486.07)"/><path class="cls-95" d="M1004,558a4,4,0,0,1,0,.49l-1-.5Z" transform="translate(-903.07 -486.07)"/><path class="cls-55" d="M1002.5,557.5l.5.49Z" transform="translate(-903.07 -486.07)"/><path class="cls-55" d="M1002,557l.5.5Z" transform="translate(-903.07 -486.07)"/><path class="cls-95" d="M1004,558.51l.5.49Z" transform="translate(-903.07 -486.07)"/><path class="cls-55" d="M1001.5,556.5l.5.5Z" transform="translate(-903.07 -486.07)"/><path class="cls-150" d="M985,556c.59-.19,1.4-.91,1.74-.1.65,1.51-1.15,1.72-1.74,2.6l-2.49,1-1,.5L979,560a5.39,5.39,0,0,0-4-1l-2,0c1.53-1.76,3.6-1.44,5.62-1.61,1.8-.15,3.9,1.21,5.38-.88Z" transform="translate(-903.07 -486.07)"/><path class="cls-151" d="M994,562.5h-.51c.19-1.3-2.19-1.88-1-3.48l.49,0c2-.72,1.93,2,3.51,2C996.57,563,995.06,562.37,994,562.5Z" transform="translate(-903.07 -486.07)"/><path class="cls-152" d="M981.5,560l1-.5c1.78.59,4,.36,5,2.5H986l-2-.5Z" transform="translate(-903.07 -486.07)"/><path class="cls-153" d="M992.5,559c-1.2,1.6,1.18,2.18,1,3.48l-5-1Z" transform="translate(-903.07 -486.07)"/><path class="cls-154" d="M996.5,561c-1.58,0-1.54-2.73-3.51-2,1.74-1.89,3.12-.61,4.51.51Z" transform="translate(-903.07 -486.07)"/><path class="cls-155" d="M914,535.5c3.71-1.7,7.66-.77,11.5-1-.92.87-2.11.21-3.09.53-2.8.92-8.48-1.26-6.1,5.47a.83.83,0,0,1-.26.66c-2.24,2.14-.93,4,.45,5.84h0c-1.44.07-2.85.07-4-1Z" transform="translate(-903.07 -486.07)"/><path class="cls-111" d="M921,551h-2.5c4-3.65-1.37-2.64-2-4h0a24.73,24.73,0,0,1,4.64.07c1.54.3,3.46.57,3.36,2.93l-1.5.5h-1l-.51.49Z" transform="translate(-903.07 -486.07)"/><path class="cls-156" d="M976.5,569.5c-3.8-.9-8,2.21-11.66-1.31-.73-.7-1.91,1.63-3.45,1.36a17.38,17.38,0,0,0-2.89,0c0-.33,0-.66,0-1l-.5-.5h-.49l-1.5-.5h2.5c2.18,1.45,4.11-.29,6.14-.54,3.64-.47,6.73,2.27,10.36,1.55l.51.47,1,0Z" transform="translate(-903.07 -486.07)"/><path class="cls-157" d="M956,567.5l1.5.5c-2,.27-4,.49-5.65,1.87-.65.53-2.29.11-2.31-.74-.1-3.49-2.64-3.65-5-4.13H949c.81,1.34,2.1,1.54,3.5,1.5C953.36,567.92,955,566.62,956,567.5Z" transform="translate(-903.07 -486.07)"/><path class="cls-109" d="M980.5,575c-2.17,1.08-4.33-.1-6.5,0C976.17,573.11,978.33,572.65,980.5,575Z" transform="translate(-903.07 -486.07)"/><path class="cls-157" d="M958,568l.5.5Z" transform="translate(-903.07 -486.07)"/><path class="cls-158" d="M949,565h-.5c-1.06-.86-3-.24-3.5-2v0c3.75,1.35,7.62,1.26,11.5,1-.26,1.7,1.43,2.27,2,3.5H956c-1-.88-2.64.42-3.5-1C952.26,563.83,950.18,565.46,949,565Z" transform="translate(-903.07 -486.07)"/><path class="cls-159" d="M943,562.51c-.58,0-1.17,0-1.75,0-1-.06-2.56.08-2.52-1.3,0-1.17,1.55-.78,2.31-.63,1.62.31,2.25-1.2,3.46-1.56h0c1,1.82-1.63,2-1.51,3.49Z" transform="translate(-903.07 -486.07)"/><path class="cls-159" d="M944.5,559v-.5h2v.5h-2Z" transform="translate(-903.07 -486.07)"/><path class="cls-159" d="M945,563l-2-.5h2V563Z" transform="translate(-903.07 -486.07)"/><path class="cls-160" d="M949,556.5c-1.87-1.07-4.46,2.09-6-1-.53-1.75-2-.72-3-1-1.77-1.75-4.16-1.62-6.35-2s-2.91-1.2-1.15-3c2.19.11,3.34,3.33,6,2,1.11,2,2.59.85,4,.5,1.52,2.43,6.17.34,6.5,4.5Z" transform="translate(-903.07 -486.07)"/><path class="cls-161" d="M932.5,549.5c-1.76,1.83-1.19,2.65,1.15,3s4.58.22,6.35,2c-3.2.7-5.8-2.22-9-1.5h0l-.5-.5H927l-3.71-.94,1.21-1.06h0l1-.5h0c1.14-.53,3.77.44,2.5-2.5l1.5-.5,1.5.5h1.5A1.65,1.65,0,0,1,932.5,549.5Z" transform="translate(-903.07 -486.07)"/><path class="cls-67" d="M927.49,562c-.13,1-.53,1.76-1.6,1.13S923,562,923,560.5c0-1.06,1.49-1,2.5-1Z" transform="translate(-903.07 -486.07)"/><path class="cls-162" d="M924.5,550.5l-1.21,1.06,3.71.94v.5c-2-.59-4.67.68-6-2h.49l.51-.49h2.5Z" transform="translate(-903.07 -486.07)"/><path class="cls-102" d="M930.5,552.5l.5.5Z" transform="translate(-903.07 -486.07)"/><path class="cls-163" d="M946.5,558.5h-2c1.17-1.41,4,.84,4.49-2h0c3.31,1.64.46-2.88,2.5-2.5h0l.5.5h0c-.15,2.36,2.45,3.06,3,5C952.05,560.19,949.12,560.64,946.5,558.5Z" transform="translate(-903.07 -486.07)"/><path class="cls-116" d="M928.5,510l-1.5.5Z" transform="translate(-903.07 -486.07)"/><path class="cls-164" d="M923,522c-1.66-1-.55-1.34.45-1.74s1.71-.83,2.56-1.25c2.23-.17,4.46-.33,6.68-.51,1.36-.12,3.53.56,3.8-.86s-2.23.06-3-1.14h4c1,1,3.63-.12,3.47,1.11-.2,1.53-2.52.63-3.87,1a2.24,2.24,0,0,0-.6.4h0c-1.17.17-2.44-.42-3.5.5h-.5c-1.91.47-4.86-.69-5.3,2.11-.32,2,2.06,1.13,3.3,1.39l-.5,2h-.5C928,522.64,924.83,523.74,923,522Z" transform="translate(-903.07 -486.07)"/><path class="cls-165" d="M927,532l-2-1c.87-1,.41-2.61,2-3.33.67-.3-.55-.86-1-1.06-1-.39-2.13.3-3-.61l1.5-.5c1.59-.88,3.33-.36,5-.5h0a17.29,17.29,0,0,1,1.43,1.27c1.7,1.89-.43,1-.93,1.23l-1.5.5c-.49.33-.49.67,0,1h0C929,530.48,926.54,530.52,927,532Z" transform="translate(-903.07 -486.07)"/><path class="cls-166" d="M933.5,516.5c.76,1.2,3.24-.22,3,1.14s-2.44.74-3.8.86c-2.22.18-4.45.34-6.68.51l-.52,0c.77-1.16,2.94.38,3-1.5,0-.26-2.42-.65-3.72-1L923,516h4c1.93,1.07,4,.24,6,.5Z" transform="translate(-903.07 -486.07)"/><path class="cls-167" d="M929.5,525c-1.67.14-3.41-.38-5,.5-1.56-.71-.63-2.49-1.5-3.5C924.83,523.74,928,522.64,929.5,525Z" transform="translate(-903.07 -486.07)"/><path class="cls-168" d="M927,516h-2c-.44-3.09,2.2-3.71,4-5l2-.49.5,1.49c-1.88.17-2.4,1.92-3.5,3Z" transform="translate(-903.07 -486.07)"/><path class="cls-169" d="M924.5,550c.1-2.36-1.82-2.63-3.36-2.93a24.73,24.73,0,0,0-4.64-.07c-1.38-1.85-2.69-3.7-.45-5.84a.83.83,0,0,0,.26-.66c-2.38-6.73,3.3-4.55,6.1-5.47,1-.32,2.17.34,3.09-.53l2-.5v1l-.5.51a13.94,13.94,0,0,0-2.24,0c-2.76.49-5.33,1.7-6.65,4.12a4.23,4.23,0,0,0,.39,4.86c1.36,1,2.56,2.31,4.5,2,0,1.77,4.47.33,2.5,3.5h-1Z" transform="translate(-903.07 -486.07)"/><path class="cls-170" d="M927.5,535v-1c.61-.87-.21-1.37-.51-2-.45-1.48,2-1.52,1.51-3a5.1,5.1,0,0,1,3.5,1c-.54,0-1.25-.11-1.39.66-.18,1.05,1,1.18,1.39,1.84h-1C928.33,531.22,929.27,535,927.5,535Z" transform="translate(-903.07 -486.07)"/><path class="cls-87" d="M946,501l-1.5-.5Z" transform="translate(-903.07 -486.07)"/><path class="cls-171" d="M984.5,505c.16.65,2.38.6.77,1.78-2.42,1.76-.31,2,.73,2.72l1,2-3,0-.5-.5c0-.88-.11-1.75-1.16-1.92-4.3-.71-8.82,1.38-13-1-.27-.15-1.13.55-1.59,1a2.73,2.73,0,0,1-2.21.92H961a4.67,4.67,0,0,1-4.5-2l1.5-.5.5-.5c.17-.66.34-1.33.5-2l.5-.5h0c.58-.19,1.22-.85,1.76-.11s-.15,1.2-.58,1.68a1.81,1.81,0,0,0,0,2.81c1.16,1.14,1.68-.15,2.39-.69L966,506c0,.76,0,1.52,1.11,1.44s.86-.79.88-1.43c.9.71,2.16,1.37,2.82.26,1.88-3.15,4.59-2.07,7.19-1.77C980.08,505.76,982.34,504.71,984.5,505Z" transform="translate(-903.07 -486.07)"/><path class="cls-172" d="M983.5,511l.5.5-.5.49c-3.84-.24-7.78-1.14-11.5-.56-4.3.67-8.35-.15-12.5-.43v-.49H961c3.33-.2,6.49,1.07,10,.57C975.06,510.48,979.33,508.83,983.5,511Z" transform="translate(-903.07 -486.07)"/><path class="cls-173" d="M991.5,519c.71.8,1.65.39,2.5.5,0,.17,0,.33,0,.49h-.51c-5.29-.8-10.63-.6-15.93-.46-7.69.2-15.35,1.67-23.07.46a3.75,3.75,0,0,0-4.35.28,1.06,1.06,0,0,0,0,1c1.09,1.27,2.26,2.48,3.4,3.71l-4-.49V524c.76-1.5-.47-1.34-1.27-1.49-1.06-.19-2.51.52-3-.92s1.5-1.5,1.83-2.58h8a14.09,14.09,0,0,0,2.6.47c7.64-.13,15.27-.32,22.9-.49h11Z" transform="translate(-903.07 -486.07)"/><path class="cls-174" d="M993.5,520H994c2,1.23,5.48-1.32,6.49,2.51-3.13.94-6.33.33-9.5.5.6-.17,1.2-.35,1.81-.5,1-.23,2.52.61,2.85-.56S994.17,520.75,993.5,520Z" transform="translate(-903.07 -486.07)"/><path class="cls-122" d="M987,519h-6.52c0-.16,0-.32,0-.48H987C987,518.67,987,518.83,987,519Z" transform="translate(-903.07 -486.07)"/><path class="cls-123" d="M980.51,518.51c0,.16,0,.32,0,.48-7.63.17-15.26.36-22.9.49A14.09,14.09,0,0,1,955,519v0c2.73,0,5.45,0,8.18,0,.75,0,2,.41,2.09-.65.08-1.27-1.26-1.22-2.23-1.33l-8.54-1v-.5c8.13,1.25,16.32.92,24.5,1-.39.47-1.2,1.16-1.09,1.36C978.47,518.91,979.6,518.36,980.51,518.51Z" transform="translate(-903.07 -486.07)"/><path class="cls-175" d="M982.5,512.5a1.61,1.61,0,0,0,.38.31c1.37.68,3.65-.74,4.22,1s-2.57-.24-2.61,1.71c-7.69-.63-15.38,1.39-23.07,0-.16,0-.35,0-.49,0-1.28-.6-3.72-.54-3.63-1.82.13-2,2.42-1.12,3.73-1.1C968.19,512.69,975.34,511.26,982.5,512.5Z" transform="translate(-903.07 -486.07)"/><path class="cls-176" d="M954.5,515.5v.5c-4-.58-7.94-1.41-12-1h-1c-.21-.64-1.67-.65-1-1.61a2.87,2.87,0,0,1,1.88-.85c1.42-.18,3,.28,4.11-1H948l11.5-1V511l-10,1.51c-.53.08-1.32-.12-1.19.81.1.73.61,1.06,1.38,1.19C951.28,514.78,952.89,515.16,954.5,515.5Z" transform="translate(-903.07 -486.07)"/><path class="cls-177" d="M981.5,528.51H981c0-.16,0-.33,0-.49a11.77,11.77,0,0,1,6,1.28c1.52.92,2.56-2.25,4-.29-.65.92-1.4,1.82-.49,3-2.87,1.34-5.41,0-8-1C982.46,530.05,984,528.48,981.5,528.51Z" transform="translate(-903.07 -486.07)"/><path class="cls-178" d="M981,528c0,.16,0,.33,0,.49a3,3,0,0,1-2.5-1Z" transform="translate(-903.07 -486.07)"/><path class="cls-178" d="M981.5,528.51c2.46,0,1,1.54,1,2.49-1.1,1.09-.19,1.76.5,2.49l-9,.51c-.64-1.56-2.13-1.38-3.32-1.36-.89,0-.32.86-.18,1.36-2.29.58-4.41-.65-6.71-.67-3.07,0-6.31.58-9.29-.82H962c1.13-.54,3.26.72,3.26-1.91,0-.78.12-1.25-.88-1.27-1.3,0-2.58-.21-3.88-.32h0c1.36-1.88,3.34-.64,5-1h0l1,.5h0l.5.5c1.4,1.07,2.74,2.71,4.51.5,2.21,1,4.28,2.21,6.91,2.06C980.55,531.44,981.68,530.75,981.5,528.51Z" transform="translate(-903.07 -486.07)"/><path class="cls-179" d="M974,534l9-.51h7a5.46,5.46,0,0,1-1.35.48c-10.19.92-20.49-.37-30.63,1.51-.8-2.78-2.27-.81-3.51-.49l-1.5-.5c-.09-.88-1-2.15,1-2l.5,0c3,1.4,6.22.79,9.29.82,2.3,0,4.42,1.25,6.71.67Z" transform="translate(-903.07 -486.07)"/><path class="cls-180" d="M958,535.49c10.14-1.88,20.44-.59,30.63-1.51a5.46,5.46,0,0,0,1.35-.48l4.5-.49c0,.16,0,.33,0,.49l-1.5.5h-2l-.51.48c-2.32.27-4.72-.53-7,.51l-7.52.51a47.91,47.91,0,0,0-13,.49h-8C955.83,534.8,956.94,535.25,958,535.49Z" transform="translate(-903.07 -486.07)"/><path class="cls-181" d="M994.5,533.5c0-.16,0-.33,0-.49h1c1.87,4.17,5.67,1.71,8.52,2.49,1.6,1.64-1.24,1.8-1,3-1.12-2.62-3-3.24-5.5-2-.62,1.28-1.18,2.65-3,2.5h0C994.69,537.17,995.42,535.34,994.5,533.5Z" transform="translate(-903.07 -486.07)"/><path class="cls-182" d="M993.5,520c.67.75,2.5.71,2.16,1.94s-1.87.33-2.85.56c-.61.15-1.21.33-1.81.5h-1c-2.16.25-4.4-.58-6.51.48L983,523v-.51c.48-.36,1.53-.42,1.16-1.27-.18-.41-1.09-.68-1.68-.7-2.82-.06-5.65,0-8.48,0h-4.23c-1.79,0-4.59-.19-4.85,1.2-.31,1.67,2.6,0,3.58,1.28-4.91-.86-9.58,1.92-14.5,1-.69-1.44-4.18-3.23.5-4,7.72,1.21,15.38-.26,23.07-.46C982.87,519.4,988.21,519.2,993.5,520Z" transform="translate(-903.07 -486.07)"/><path class="cls-183" d="M965.5,528c-1.66.36-3.64-.88-5,1-2.42-.16-4.11-1.79-6-3v0a17,17,0,0,0,9.67-.43A2.7,2.7,0,0,1,967,526l-2.72.41Z" transform="translate(-903.07 -486.07)"/><path class="cls-184" d="M954,524c4.92.91,9.59-1.87,14.5-1h4c-5.5.7-10.89,2.28-16.51,2A1.79,1.79,0,0,1,954,524Z" transform="translate(-903.07 -486.07)"/><path class="cls-185" d="M954,524a1.79,1.79,0,0,0,2,1l-1.5.51-1-.52c-1.14-1.23-2.31-2.44-3.4-3.71a1.06,1.06,0,0,1,0-1,3.75,3.75,0,0,1,4.35-.28C949.82,520.77,953.31,522.56,954,524Z" transform="translate(-903.07 -486.07)"/><path class="cls-184" d="M983.5,523.49c2.11-1.06,4.35-.23,6.51-.48,0,.33,0,.66,0,1C987.7,525.49,985.56,525,983.5,523.49Z" transform="translate(-903.07 -486.07)"/><path class="cls-184" d="M983,522.5V523h-9v-.49h9Z" transform="translate(-903.07 -486.07)"/><path class="cls-183" d="M953.5,525l1,.52c0,.16,0,.32,0,.48v0h-2l-.51,0-.5-.47h-2v-1Z" transform="translate(-903.07 -486.07)"/><path class="cls-182" d="M974,522.51V523h-4.5C970.91,522,972.5,522.71,974,522.51Z" transform="translate(-903.07 -486.07)"/><path class="cls-178" d="M971.5,529.49,971,529Z" transform="translate(-903.07 -486.07)"/><path class="cls-183" d="M966.5,528.5l-1-.5Z" transform="translate(-903.07 -486.07)"/><path class="cls-183" d="M967,529l-.5-.5Z" transform="translate(-903.07 -486.07)"/><path class="cls-186" d="M978,504.5c-2.6-.3-5.31-1.38-7.19,1.77-.66,1.11-1.92.45-2.82-.26h-2l-2.94,2.19c-.71.54-1.23,1.83-2.39.69a1.81,1.81,0,0,1,0-2.81c.43-.48,1.08-1,.58-1.68s-1.18-.08-1.76.11V504c3.19-.86,6.35-2.18,9.68-.54.49.24,1.36.81,1.39.77C973.22,500.35,975.55,504,978,504.5Z" transform="translate(-903.07 -486.07)"/><path class="cls-187" d="M948,504c5.18,1.42,8.9-1.91,13-4a3,3,0,0,1-3.27,2.6,4.17,4.17,0,0,0-3.23,2.4c-1.91.77-4-.3-6,1.95-1.33,1.47-1.12,3.68-3,4.55h-8C941.69,510,946.1,508.73,948,504Z" transform="translate(-903.07 -486.07)"/><path class="cls-188" d="M945.5,511.5c1.84-.87,1.63-3.08,3-4.55,2-2.25,4.13-1.18,6-1.95l4.5-.5h0v.5c-.16.67-.33,1.34-.5,2l-.5.5-1.5.5c-1.61-1.48-2.55,1.22-3.88.67-2.33-1-4.07,0-4.62,2.83h-2.5Z" transform="translate(-903.07 -486.07)"/><path class="cls-188" d="M959.5,504v.5H959Z" transform="translate(-903.07 -486.07)"/><path class="cls-189" d="M948,504c-1.9,4.73-6.31,6-10.5,7.5h0l-1,.5h-5l-.5-1.49c4.39,1.36,7.28-2.6,11.12-3.16.26,0,.69-.49.65-.65-1.41-5.35,3-1.52,4.23-2.7Z" transform="translate(-903.07 -486.07)"/><path class="cls-152" d="M984,556.51c-1.48,2.09-3.58.73-5.38.88-2,.17-4.09-.15-5.62,1.61l-3,.49c-2.68-3.15-4.34-3.46-5.49-1h-3l-.51-2c2.3.6,3.88-.78,5.51-2,1.65-.35,3,.41,4.5,1,3.46-.42,7,1.18,10.44-.53C982.49,554.45,981.85,558.07,984,556.51Z" transform="translate(-903.07 -486.07)"/><path class="cls-190" d="M971,555.5c-1.45-.58-2.85-1.34-4.5-1A9.25,9.25,0,0,1,961,554a3,3,0,0,1,1.08-.46c1.86,0,5,1.52,5.28-.23.35-2.64-3.29-1.2-4.86-2.31,2.33-1.24,4.66,1.3,7,0-.28.66-.86,1.4-.25,2s.77-.24,1-.55c.53-.61,1-1.26-.31-1.52l7-1c1.83,1.19.45,1.88-.47,2.46C974.75,553.57,972.48,553.82,971,555.5Z" transform="translate(-903.07 -486.07)"/><path class="cls-143" d="M983.5,547.5c-2.37,2.08-5,.72-7.5.5-5,.55-10.1,2.64-15-.5l-.51-.49,1,0h9Z" transform="translate(-903.07 -486.07)"/><path class="cls-191" d="M961,547.5c4.9,3.14,10,1,15,.5l1,2-7,1-.48,0c-2.34,1.3-4.67-1.24-7,0H961c.37-.62,1.82-1.12.17-2-1.26-.63-3,1.61-3.33.27-.38-1.71,2.58.16,3.1-1.57A2.1,2.1,0,0,0,961,547.5Z" transform="translate(-903.07 -486.07)"/><path class="cls-192" d="M983.5,547.5l-13-.5c.09-1.22-.59-1.62-1.67-1.49-1.26.15-3-.66-3.33,1.49H964c.33-.66.67-1.32,1-2,4.34-1,8.28,1.47,12.5,1.5h0c4-.27,8.13,1,12-1l12,.5v.5l-7,0H994c-1.47.44-3.21-1.67-4.51.46h0c-1.82.26-3.74-.55-5.49.5Z" transform="translate(-903.07 -486.07)"/><path class="cls-193" d="M982.37,552.45c-.76.06-1.33-.1-1.32-.86,0-1.9,1.63-2.05,2.93-2.46.56-.17,1.37,0,1.11.79A4.42,4.42,0,0,1,982.37,552.45Z" transform="translate(-903.07 -486.07)"/><path class="cls-194" d="M988,553l-1,.51c-1.7-2.06.6-1.88,1.43-2.45.23-.15.75.12,1.14.19-.25.29-.48.58-.73.86S988.26,552.69,988,553Z" transform="translate(-903.07 -486.07)"/><path class="cls-143" d="M989.5,547c1.3-2.13,3,0,4.51-.46C992.67,548.24,991,546.75,989.5,547Z" transform="translate(-903.07 -486.07)"/><path class="cls-143" d="M984,547.5c1.75-1,3.67-.24,5.49-.5C987.74,548.06,985.82,547.25,984,547.5Z" transform="translate(-903.07 -486.07)"/><path class="cls-195" d="M997.5,536.5c2.53-1.24,4.38-.62,5.5,2,1,1.72,4,1.36,4.3,3.77.46,4.25-2.67,3.7-5.3,3.73h0c1.68-1.85,1.49-3-1.13-3.64-.77-.17-1.76-.47-.86-1.87,1.45-2.21.24-3.43-2-4Z" transform="translate(-903.07 -486.07)"/><path class="cls-195" d="M1001.5,546.5V546h.5v.5Z" transform="translate(-903.07 -486.07)"/><path class="cls-196" d="M984,561.49l2,.51c2.13,2.5.24,4.71-.5,7h0c0-1-.92-1.15-1.54-1.66-1.92-1.6-4.68,0-6.46-1.84l2-2c1.3,0,2.61,0,3.91,0a5,5,0,0,0,1.45-.57l-.86-1.36Z" transform="translate(-903.07 -486.07)"/><path class="cls-196" d="M985.5,569c-1.23,1-2.68.29-4,.51h-3V569Z" transform="translate(-903.07 -486.07)"/><path class="cls-156" d="M978.5,569.5h3c0,.16,0,.32,0,.48-1.33-.19-2.77.49-4-.49Z" transform="translate(-903.07 -486.07)"/><path class="cls-144" d="M978.5,569.5h-2V569h2Z" transform="translate(-903.07 -486.07)"/><path class="cls-92" d="M999,562l-1,.5Z" transform="translate(-903.07 -486.07)"/><path class="cls-92" d="M999.5,561.5l-.5.5Z" transform="translate(-903.07 -486.07)"/><path class="cls-197" d="M961,554a9.25,9.25,0,0,0,5.5.51c-1.63,1.22-3.21,2.6-5.51,2-.77.09-1.54-1-2.26-.06a1.34,1.34,0,0,0-.07,1.16c.6,1.28,1.82.79,2.84.89h3a10,10,0,0,0,5.49,1l3-.49,2,0c1.36.18,2.34,1.92,4,1l2.51,0,2.5,1.5v0a221.37,221.37,0,0,0-26.48-2l-1,0c1.13-1.35-2.54-1.28-.83-2.76.72-.62,2.17-1.07,1.6-2.12s-1.89.08-2.91,0c-.76-.08-1.57.5-2.35-.08h0l-.5-.5h0v-1l.5-.5h0l.5-.5h1c-.5,1.25-.07,1.93,1.27,2,.91,0,2.05-.45,1.79-1.23-.48-1.43-2-.54-3.06-.75,0-.17,0-.34,0-.51l2.5-.5,3.5.5C958.63,553.16,959.1,554,961,554Z" transform="translate(-903.07 -486.07)"/><path class="cls-152" d="M979,560c-1.64.92-2.62-.82-4-1A5.39,5.39,0,0,1,979,560Z" transform="translate(-903.07 -486.07)"/><path class="cls-103" d="M924.5,550.5H923l1.5-.5h0v.49Z" transform="translate(-903.07 -486.07)"/><path class="cls-103" d="M922,550.5l-.51.49Z" transform="translate(-903.07 -486.07)"/><path class="cls-198" d="M958.5,567.5c-.57-1.23-2.26-1.8-2-3.5H960l.5.5,6,1c1.35,1.34,1.93-2.66,3-.59.93,1.85,2.47,1.65,3.86,2,1,.25,1.78.33,1.68,1.58v0c-3.63.72-6.72-2-10.36-1.55C962.61,567.21,960.68,569,958.5,567.5Z" transform="translate(-903.07 -486.07)"/><path class="cls-199" d="M978.5,569h-2l-1,0c0-.16,0-.32,0-.48h0c1.14-.18,3.31.65,2-2v-1c1.78,1.87,4.54.24,6.46,1.84.62.51,1.51.64,1.54,1.66Z" transform="translate(-903.07 -486.07)"/><path class="cls-198" d="M975.5,568.5c0,.16,0,.32,0,.48l-.51-.47v0Z" transform="translate(-903.07 -486.07)"/><path class="cls-101" d="M949,565c1.18.46,3.26-1.17,3.5,1.5C951.1,566.54,949.81,566.34,949,565Z" transform="translate(-903.07 -486.07)"/><path class="cls-200" d="M960,564h-3.5c-3.88.25-7.75.34-11.5-1v-.49h0l15,1.5Z" transform="translate(-903.07 -486.07)"/><path class="cls-200" d="M945,562.5h-2c-.12-1.44,2.53-1.67,1.51-3.49h2l1,2c-.91.38-2.83-.92-2.51,1.51Z" transform="translate(-903.07 -486.07)"/><path class="cls-201" d="M947.51,561l-1-2v-.5c2.62,2.14,5.55,1.69,8.5,1h1.49l1,0-1,.49A28.69,28.69,0,0,1,947.51,561Z" transform="translate(-903.07 -486.07)"/><path class="cls-202" d="M951.5,553v1c-2-.38.81,4.14-2.5,2.5-.33-4.16-5-2.07-6.5-4.5-.19-1.31-1.23-.91-2-1,.9-.86,2-.36,3-.49.84,1.77,2.07,2.88,4.18,2.43.22,0,.57-.55.53-.61a4,4,0,0,0-3.72-1.83c.62-1,2.77.17,2.58-1.48-.06-.52-2.06-1-3.21-1.16-2.1-.26-4.24-.25-6.36-.35V547H940l10.5.5a3.47,3.47,0,0,1-.16,1c-.47.94-3.06.49-2,2s2.35-.4,3.56-.88c1.61-.63,3.93-2.57,4.11,1.38l-2.5.5-1,.5h0l-.5.5h0Z" transform="translate(-903.07 -486.07)"/><path class="cls-203" d="M937.5,547.5c2.12.1,4.26.09,6.36.35,1.15.14,3.15.64,3.21,1.16.19,1.65-2,.45-2.58,1.48h-1c-1,.13-2.12-.37-3,.49h-1c.11-.6,1.1-1.59-.15-1.68-1-.07-2,.76-3,1.19.73,1,1.81.28,2.69.52l-.5.49c-2.67,1.33-3.82-1.89-6-2a1.65,1.65,0,0,0,0-2Z" transform="translate(-903.07 -486.07)"/><path class="cls-204" d="M938.51,551.5l.5-.49.49,0h1c.79.1,1.83-.3,2,1C941.1,552.35,939.62,553.47,938.51,551.5Z" transform="translate(-903.07 -486.07)"/><path class="cls-205" d="M937.5,547.5H931c-.44-.7-.91-1.63-1.86-1.26-2.65,1-2.86-.81-3.58-2.59-1.07-2.62,1.94-3.57,1.94-5.65.75-.34,1.25-2.56,2.29-.65,1.82,3.34,2.77,1,3.57-.48.44-.79.6-1.47,1.64-1.37-1.4,2-1.45,6.19-5.68,3.31-.18-.12-.81,0-.85.15-.52,1.67-.17,3.42-.63,5.18-.28,1.09,1.82,1.39,3,1.66,2.2.52,4.45.81,6.69,1.2h0Z" transform="translate(-903.07 -486.07)"/><path class="cls-206" d="M927.5,538c0,2.08-3,3-1.94,5.65.72,1.78.93,3.59,3.58,2.59,1-.37,1.42.56,1.86,1.26l-1.5-.5c-4.8,0-7.53-3.88-6-8.5h0l3-.5Z" transform="translate(-903.07 -486.07)"/><path class="cls-207" d="M923.5,538.5c-1.53,4.62,1.2,8.49,6,8.5l-1.5.5c-1.27,0-2.56.13-3.5-1-3.27,0-3-2.71-3.17-4.64A2.94,2.94,0,0,1,923.5,538.5Z" transform="translate(-903.07 -486.07)"/><path class="cls-162" d="M924.5,546.5c.94,1.13,2.23,1,3.5,1,1.27,2.94-1.36,2-2.5,2.5,2-3.17-2.5-1.73-2.5-3.5Z" transform="translate(-903.07 -486.07)"/><path class="cls-162" d="M924.5,550.5V550h1C925.17,550.17,924.84,550.34,924.5,550.5Z" transform="translate(-903.07 -486.07)"/><path class="cls-202" d="M956.49,559.49H955c-.55-1.93-3.15-2.63-3-5,.78.58,1.59,0,2.35.08,1,.11,2.35-1,2.91,0s-.88,1.5-1.6,2.12C954,558.21,957.62,558.14,956.49,559.49Z" transform="translate(-903.07 -486.07)"/><path class="cls-202" d="M951.5,554l.5.5Z" transform="translate(-903.07 -486.07)"/><path class="cls-208" d="M932,530a5.1,5.1,0,0,0-3.5-1h0v-1l1.5-.5c1.16,1,2.38,1.78,4,1.32.18,0,.38-.77.24-1-.91-1.49-1.61-3.35-4-2.84a1,1,0,0,1-.25,0c.17-.66.34-1.33.5-2,2.35.06,4.93-.62,6.5,2a3.87,3.87,0,0,0,3,1v1c-.49,2.12-3.2,1.71-4,3.49h-2l-2-.5Z" transform="translate(-903.07 -486.07)"/><path class="cls-209" d="M931.5,512h5l1-.5H939c-.84,1-2,1-3.18,1-.65,0-1.43,0-1.48.9s-.28,1.87.13,2.3c.66.69,1.26-.29,1.81-.72,1.08-.86,2.15-1.28,3.22,0l-2,1.49H933c-1.11-2.35-3.88.83-5-1.5C929.1,513.92,929.62,512.17,931.5,512Z" transform="translate(-903.07 -486.07)"/><path class="cls-210" d="M937.5,516.49l2-1.49h3c1.43,1.86,3.58,1.72,5.58,2,.67.09,1.55-.48,1.91.44,0,.13-1,.68-1.49,1-1.33.2-2.77-.45-4,.5h-8a2.24,2.24,0,0,1,.6-.4c1.35-.37,3.67.53,3.87-1C941.13,516.37,938.52,517.54,937.5,516.49Z" transform="translate(-903.07 -486.07)"/><path class="cls-211" d="M936.5,519h3c-1,1-3.2,1-3.18,2.61,0,1.36,1.71.73,2.68.89,1.92.56.15,2.69,1.5,3.49v0H940a3.87,3.87,0,0,1-3-1c-.52-1.83-1.45-3.09-3.61-3-.68,0-1.69-.14-2-.58-.64-1,1-1.06,1.09-1.89h.5c1.12-.45,2.52,1,3.5-.5Z" transform="translate(-903.07 -486.07)"/><path class="cls-212" d="M932.5,519.5c-.09.83-1.73.9-1.09,1.89.29.44,1.3.6,2,.58,2.16-.06,3.09,1.2,3.61,3-1.57-2.62-4.15-1.94-6.5-2-1.24-.26-3.62.66-3.3-1.39C927.64,518.81,930.59,520,932.5,519.5Z" transform="translate(-903.07 -486.07)"/><path class="cls-213" d="M930,525a1,1,0,0,0,.25,0c2.36-.51,3.06,1.35,4,2.84.14.22-.06.95-.24,1-1.6.46-2.82-.35-4-1.32.5-.27,2.63.66.93-1.23A17.29,17.29,0,0,0,929.5,525Z" transform="translate(-903.07 -486.07)"/><path class="cls-212" d="M936.5,519c-1,1.49-2.38,0-3.5.5C934.06,518.58,935.33,519.17,936.5,519Z" transform="translate(-903.07 -486.07)"/><path class="cls-170" d="M928.5,528v1C928,528.67,928,528.33,928.5,528Z" transform="translate(-903.07 -486.07)"/><path class="cls-189" d="M928,515c1.12,2.33,3.89-.85,5,1.5-2-.26-4.07.57-6-.5Z" transform="translate(-903.07 -486.07)"/><path class="cls-214" d="M924.5,546.5H923c-1.94.31-3.14-1-4.5-2,0-5.53,1.46-7.18,7.5-8.5l-2.5,2.5h0a2.94,2.94,0,0,0-2.17,3.36C921.53,543.79,921.23,546.5,924.5,546.5Z" transform="translate(-903.07 -486.07)"/><path class="cls-215" d="M927.5,535c1.77,0,.83-3.77,3.5-2.49.69,2.49,2.71,2,4.5,2l-8,1.5H927v-.5Z" transform="translate(-903.07 -486.07)"/><path class="cls-216" d="M927,535.5v.5h-1c-6,1.32-7.5,3-7.5,8.5a4.23,4.23,0,0,1-.39-4.86c1.32-2.42,3.89-3.63,6.65-4.12A13.94,13.94,0,0,1,927,535.5Z" transform="translate(-903.07 -486.07)"/><path class="cls-217" d="M935.5,534.5c-1.79,0-3.81.49-4.5-2h1c2.82,2.08,6,.51,9,1,2,.32,2.76-.56,2.46-2.5l4,.5c.75.4,2.87-1,2,1.52,0,.16,0,.32,0,.47C944.91,535,940.13,533.61,935.5,534.5Z" transform="translate(-903.07 -486.07)"/><path class="cls-218" d="M934,530.5h.5c.57,1.18,3.12-.27,2.63,1.45-.3,1-2.41,1.3-3.92.7a5.34,5.34,0,0,0-1.21-.15h0c-.41-.66-1.57-.79-1.39-1.84.14-.77.85-.61,1.39-.66h0Z" transform="translate(-903.07 -486.07)"/><path class="cls-219" d="M983.5,511c-4.17-2.17-8.44-.52-12.52.07-3.49.5-6.65-.77-10-.57V510h4.5a2.73,2.73,0,0,0,2.21-.92c.46-.44,1.32-1.14,1.59-1,4.22,2.37,8.74.28,13,1C983.39,509.25,983.51,510.12,983.5,511Z" transform="translate(-903.07 -486.07)"/><path class="cls-220" d="M961,510v.5h-1.5l-11.5,1c.55-2.8,2.29-3.8,4.62-2.83,1.33.55,2.27-2.15,3.88-.67A4.67,4.67,0,0,0,961,510Z" transform="translate(-903.07 -486.07)"/><path class="cls-221" d="M966,506h2c0,.64,0,1.36-.88,1.43S966,506.76,966,506Z" transform="translate(-903.07 -486.07)"/><path class="cls-220" d="M965.5,510h0Z" transform="translate(-903.07 -486.07)"/><path class="cls-186" d="M958,507.5l.5-.5Z" transform="translate(-903.07 -486.07)"/><path class="cls-186" d="M959,504.5h.5l-.5.5Z" transform="translate(-903.07 -486.07)"/><path class="cls-222" d="M939,522.5c-1-.16-2.66.47-2.68-.89,0-1.65,2.15-1.66,3.18-2.61H947c-.33,1.08-2.4,1-1.83,2.58s2,.73,3,.92c.8.15,2,0,1.27,1.49C946.14,522.56,942.46,523.32,939,522.5Z" transform="translate(-903.07 -486.07)"/><path class="cls-223" d="M939,522.5c3.46.82,7.14.06,10.5,1.5v1.5l-9,.49C939.15,525.19,940.92,523.06,939,522.5Z" transform="translate(-903.07 -486.07)"/><path class="cls-123" d="M947,519h-2.53c1.24-1,2.68-.3,4-.5,2.16.28,4.4-.58,6.5.49v0Z" transform="translate(-903.07 -486.07)"/><path class="cls-224" d="M955,519c-2.1-1.07-4.34-.21-6.5-.49.52-.36,1.54-.91,1.49-1-.36-.92-1.24-.35-1.91-.44-2-.3-4.15-.16-5.58-2,4.06-.41,8,.42,12,1l8.54,1c1,.11,2.31.06,2.23,1.33-.06,1.06-1.34.64-2.09.65C960.45,519,957.73,519,955,519Z" transform="translate(-903.07 -486.07)"/><path class="cls-225" d="M941.5,515h-2c-1.07-1.29-2.14-.87-3.22,0-.55.43-1.15,1.41-1.81.72-.41-.43-.18-1.51-.13-2.3s.83-.89,1.48-.9c1.17,0,2.34,0,3.18-1h7.5c-1.13,1.32-2.69.86-4.11,1a2.87,2.87,0,0,0-1.88.85C939.83,514.35,941.29,514.36,941.5,515Z" transform="translate(-903.07 -486.07)"/><path class="cls-226" d="M952.5,526h2c1.89,1.2,3.58,2.83,6,3h0c-.76.79-1.69.48-2.58.39-.63,0-1.27-.14-1.9-.22.38.81,1.19,1,1.89,1.37,1.33.73,3.58-.44,4.09,2h-2a2.12,2.12,0,0,0-3.5,0h-2l-.5,0V532c.63-.07,1.48.08,1.38-.93a2.33,2.33,0,0,0-1.91-2c-.78-.22-2.46-.54-.73-1.39C955.31,526.42,952.34,526.55,952.5,526Z" transform="translate(-903.07 -486.07)"/><path class="cls-183" d="M962,532.5c-.51-2.4-2.76-1.23-4.09-2-.7-.39-1.51-.56-1.89-1.37.63.08,1.27.17,1.9.22.89.09,1.82.4,2.58-.39,1.3.11,2.58.28,3.88.32,1,0,.87.49.88,1.27C965.26,533.22,963.13,532,962,532.5Z" transform="translate(-903.07 -486.07)"/><path class="cls-227" d="M974,534h-3.5c-.14-.5-.71-1.35.18-1.36C971.87,532.62,973.36,532.44,974,534Z" transform="translate(-903.07 -486.07)"/><path class="cls-183" d="M956.5,532.5a2.12,2.12,0,0,1,3.5,0Z" transform="translate(-903.07 -486.07)"/><path class="cls-228" d="M954,532v.49c-2-.14-1.09,1.13-1,2-1.59.87-3.33.37-5,.49l1.49-1.5c0-.15,0-.31,0-.47l1.49-1C952,531.22,953,531.81,954,532Z" transform="translate(-903.07 -486.07)"/><path class="cls-229" d="M948,535c1.67-.12,3.41.38,5-.49l1.5.5c-.16.34-.33.67-.5,1-2.17-.11-4.33,2.25-6.5,0H947v-.51Z" transform="translate(-903.07 -486.07)"/><path class="cls-230" d="M954,536c.17-.33.34-.66.5-1,1.24-.32,2.71-2.29,3.51.49-1.07-.24-2.18-.69-3,.51Z" transform="translate(-903.07 -486.07)"/><path class="cls-231" d="M976,535.51l7.52-.51c1.38.26,3.87-.62,4,.48.15,1.74-2.35.75-3.48,1.52-1.27.07-3.32,0-3.18,1.32s1.92.09,2.95.11c3.68.06,6.16,3.36,4.73,6.57-.61,1.24-1.76.92-2.8,1-2.73.24-5.53-.64-8.2.49h0c-.77-1-2.5,0-3-1.5,2.37,1.17,4.19-.66,5.92-1.51s-1-1.62-.86-2.71a6.83,6.83,0,0,0,.24-1.7c-.12-.87-.75-2.5-1-2.28-2.22,2.05-3.45-1.44-5.3-.81C974.2,535.2,975.14,535.6,976,535.51Z" transform="translate(-903.07 -486.07)"/><path class="cls-232" d="M984,537c1.13-.77,3.63.22,3.48-1.52-.1-1.1-2.59-.22-4-.48,2.27-1,4.67-.24,7-.51L991,534h2c0,1.81-1.23,4,1.5,5h0l2,.5a5.17,5.17,0,0,0,1.14-.43c.9-.58,1.84-.63,1.57.63-.24,1.1-1.59,1.28-2.71,1.3h-1c-.9-1.44-2.3-1.77-3.89-2C989,538.49,986.53,537.67,984,537Z" transform="translate(-903.07 -486.07)"/><path class="cls-233" d="M954,536h9l-.51,1a17.18,17.18,0,0,0-11,4c-1.12,0-1.91-.29-2-1.6a6.46,6.46,0,0,0-.55-1.54L947.5,539c.15-1-.78-2,0-3C949.67,538.25,951.83,535.89,954,536Z" transform="translate(-903.07 -486.07)"/><path class="cls-234" d="M962.49,537l.51-1a47.91,47.91,0,0,1,13-.49c-.85.09-1.79-.31-2.49.48h0l-6,1c-1.66,1.13-3.33-.9-5,0Z" transform="translate(-903.07 -486.07)"/><path class="cls-235" d="M994.5,539c-2.73-1-1.49-3.19-1.5-5l1.5-.5C995.42,535.34,994.69,537.17,994.5,539Z" transform="translate(-903.07 -486.07)"/><path class="cls-235" d="M991,534l-.51.48Z" transform="translate(-903.07 -486.07)"/><path class="cls-235" d="M996.49,539.5l-2-.5c1.82.15,2.38-1.22,3-2.5H998C998.25,537.88,997,538.51,996.49,539.5Z" transform="translate(-903.07 -486.07)"/><path class="cls-236" d="M974,522.51c-1.5.2-3.09-.5-4.5.48h-1c-1-1.3-3.89.39-3.58-1.28.26-1.39,3.06-1.2,4.85-1.2H974c1,.46,1.48,1,.5,2Z" transform="translate(-903.07 -486.07)"/><path class="cls-237" d="M974.5,522.5c1-1,.46-1.53-.5-2,2.83,0,5.66,0,8.48,0,.59,0,1.5.29,1.68.7.37.85-.68.91-1.16,1.27Z" transform="translate(-903.07 -486.07)"/><path class="cls-238" d="M954,532c-1-.19-2-.78-3,0-1.13-4.17-2.91-7.32-8.15-5.57-.66.23-1.55-.26-2.34-.41v0l9-.49h2l.5.47.51,0c-.16.55,2.81.42.24,1.68-1.73.85,0,1.17.73,1.39a2.33,2.33,0,0,1,1.91,2C955.48,532.08,954.63,531.93,954,532Z" transform="translate(-903.07 -486.07)"/><path class="cls-223" d="M952,526l-.5-.47Z" transform="translate(-903.07 -486.07)"/><path class="cls-187" d="M937.5,511.5l-1,.5Z" transform="translate(-903.07 -486.07)"/><path class="cls-239" d="M970,559.49a10,10,0,0,1-5.49-1C965.65,556,967.31,556.34,970,559.49Z" transform="translate(-903.07 -486.07)"/><path class="cls-240" d="M961.5,558.5c-1-.1-2.24.39-2.84-.89a1.34,1.34,0,0,1,.07-1.16c.72-.9,1.49.15,2.26.06Z" transform="translate(-903.07 -486.07)"/><path class="cls-241" d="M961,554c-1.9,0-2.37-.84-1.5-2.5L961,551h1.5c1.57,1.11,5.21-.33,4.86,2.31-.23,1.75-3.42.21-5.28.23A3,3,0,0,0,961,554Z" transform="translate(-903.07 -486.07)"/><path class="cls-242" d="M969.5,551l.48,0c1.33.26.84.91.31,1.52-.27.31-.49,1.13-1,.55S969.22,551.66,969.5,551Z" transform="translate(-903.07 -486.07)"/><path class="cls-204" d="M961,551l-1.5.51L956,551c-.18-4-2.5-2-4.11-1.38-1.21.48-2.48,2.44-3.56.88s1.54-1.08,2-2a3.47,3.47,0,0,0,.16-1l2-.49h8l.51.49a2.1,2.1,0,0,1-.06.24c-.52,1.73-3.48-.14-3.1,1.57.29,1.34,2.07-.9,3.33-.27C962.82,549.87,961.37,550.37,961,551Z" transform="translate(-903.07 -486.07)"/><path class="cls-243" d="M960.49,547h-8l-4.5-.51V546l13.5.5h0c0,.16,0,.32,0,.48Z" transform="translate(-903.07 -486.07)"/><path class="cls-244" d="M965.5,547c.36-2.15,2.07-1.34,3.33-1.49,1.08-.13,1.76.27,1.67,1.49Z" transform="translate(-903.07 -486.07)"/><path class="cls-234" d="M961.51,547c0-.16,0-.32,0-.48,1.58.47,2-1.83,3.5-1.5-.33.67-.67,1.33-1,2Z" transform="translate(-903.07 -486.07)"/><path class="cls-245" d="M996.49,539.5c.53-1,1.76-1.62,1.52-3,2.23.54,3.44,1.76,2,4-.9,1.4.09,1.7.86,1.87,2.62.59,2.81,1.79,1.13,3.64h-.49l-12-.5V545c2,0,4,0,5.94,0a1.74,1.74,0,0,0,1.9-1.59c.07-1.16-1-.77-1.66-.88s-1.3,0-1.27-.78c0-.25.71-.48,1.09-.72h1c1.12,0,2.47-.2,2.71-1.3.27-1.26-.67-1.21-1.57-.63A5.17,5.17,0,0,1,996.49,539.5Z" transform="translate(-903.07 -486.07)"/><path class="cls-246" d="M965,545c-1.52-.33-1.92,2-3.5,1.5h0l-3-4c4.26,3.54,9.31,1.48,14,2l2,.5c.5,1.5,2.23.53,3,1.5C973.28,546.47,969.34,544.05,965,545Z" transform="translate(-903.07 -486.07)"/><path class="cls-246" d="M989.5,545v.5c-3.87,2-8,.73-12,1,2.67-1.13,5.47-.25,8.2-.49,1-.09,2.19.23,2.8-1Z" transform="translate(-903.07 -486.07)"/><path class="cls-247" d="M956.5,560l1-.49a221.37,221.37,0,0,1,26.48,2l.86,1.36a5,5,0,0,1-1.45.57c-1.3.08-2.61,0-3.91,0-2.85,1.31-5.72,1-8.65.23a19.58,19.58,0,0,0-3.85-.24c-3.12-.17-6.25-.32-9.37-.51-1-.06-2.3.44-2.8-1S956.17,560.88,956.5,560Z" transform="translate(-903.07 -486.07)"/><path class="cls-248" d="M967,563.5a19.58,19.58,0,0,1,3.85.24c2.93.77,5.8,1.08,8.65-.24l-2,2v1c-1.41-.08-2.1.55-2,2H975c.1-1.25-.7-1.33-1.68-1.58-1.39-.35-2.93-.15-3.86-2-1-2.07-1.62,1.93-3,.59V564Z" transform="translate(-903.07 -486.07)"/><path class="cls-249" d="M953.51,552c1.06.21,2.58-.68,3.06.75.26.78-.88,1.26-1.79,1.23-1.34,0-1.77-.73-1.27-2Z" transform="translate(-903.07 -486.07)"/><path class="cls-204" d="M952.5,552l1-.5V552h-1Z" transform="translate(-903.07 -486.07)"/><path class="cls-204" d="M952,552.5l.5-.5Z" transform="translate(-903.07 -486.07)"/><path class="cls-204" d="M951.5,553l.5-.5Z" transform="translate(-903.07 -486.07)"/><path class="cls-200" d="M966.5,564v1.5l-6-1h0Z" transform="translate(-903.07 -486.07)"/><path class="cls-200" d="M960.5,564.5l-.5-.5h0l.5.5Z" transform="translate(-903.07 -486.07)"/><path class="cls-250" d="M975.51,568.49c-.11-1.44.58-2.07,2-2C978.82,569.14,976.65,568.31,975.51,568.49Z" transform="translate(-903.07 -486.07)"/><path class="cls-251" d="M960.5,564.5l-.5-.5-15-1.5c-.32-2.43,1.6-1.13,2.51-1.51a28.69,28.69,0,0,0,9-1c-.33.88-2.19.57-1.67,2s1.79.89,2.8,1c3.12.19,6.25.34,9.37.51l-.5.5Z" transform="translate(-903.07 -486.07)"/><path class="cls-252" d="M948,546v.5c-2.67.1-5.44-1.29-8,.5h-1.5c-.45-.79-.89-1.58-1.36-2.35-.31-.5-1.54-1.6-.4-1.44,5.43.77,5.61-4.84,8.76-6.71L947,536h.51c-.78,1,.15,2,0,3-.36.31-.74.91-1.1.9-2.23-.06-4.1.91-4.1,3s2.41,2.15,4,2.72A11.49,11.49,0,0,0,948,546Z" transform="translate(-903.07 -486.07)"/><path class="cls-253" d="M945.5,536.5c-3.15,1.87-3.33,7.48-8.76,6.71-1.14-.16.09.94.4,1.44.47.77.91,1.56,1.36,2.35h-1a2.85,2.85,0,0,0-2.43-2.12c-.89-.11-2.22-.5-1.88-1.78.3-1.11,1.4-1.14,2.48-.81,1.65.5,2.94.16,3.33-1.79v-1h0c3.35,2,3-.41,3-2.49h1l2-.5Z" transform="translate(-903.07 -486.07)"/><path class="cls-253" d="M940,547c2.56-1.79,5.33-.4,8-.5l4.5.51-2,.49Z" transform="translate(-903.07 -486.07)"/><path class="cls-204" d="M943.5,550.5h1a4,4,0,0,1,3.72,1.83c0,.06-.31.56-.53.61C945.57,553.38,944.34,552.27,943.5,550.5Z" transform="translate(-903.07 -486.07)"/><path class="cls-254" d="M939.5,551l-.49,0c-.88-.24-2,.5-2.69-.52,1-.43,2-1.26,3-1.19C940.6,549.39,939.61,550.38,939.5,551Z" transform="translate(-903.07 -486.07)"/><path class="cls-255" d="M939,540.5c-.39,2-1.68,2.29-3.33,1.79-1.08-.33-2.18-.3-2.48.81-.34,1.28,1,1.67,1.88,1.78A2.85,2.85,0,0,1,937.5,547c-2.24-.39-4.49-.68-6.69-1.2-1.15-.27-3.25-.57-3-1.66.46-1.76.11-3.51.63-5.18,0-.14.67-.27.85-.15,4.23,2.88,4.28-1.36,5.68-3.31,2.71,0,5.67-2,8,1v.5h-1c-1.3.46-2.66.86-3,2.49h0C938.51,539.83,938.52,540.17,939,540.5Z" transform="translate(-903.07 -486.07)"/><path class="cls-256" d="M943,536.5c-2.33-3-5.29-1-8-1-1-.1-1.2.58-1.64,1.37-.8,1.44-1.75,3.82-3.57.48-1-1.91-1.54.31-2.29.65h-1l1-2,8-1.5c4.63-.89,9.41.46,14-1L948,535l-1,.49-1.49,0c-1,0-2-.15-2.5,1Z" transform="translate(-903.07 -486.07)"/><path class="cls-207" d="M927.5,536l-1,2-3,.5L926,536h1.5Z" transform="translate(-903.07 -486.07)"/><path class="cls-257" d="M947.5,531.5l-4-.5c-2.59,1.14-5-.51-7.5-.51.8-1.78,3.51-1.37,4-3.49,2.16-.81,3.51,1.46,5.47,1.42.75,0,1.51-1.66,2.08-.33C947.94,529,949,530.41,947.5,531.5Z" transform="translate(-903.07 -486.07)"/><path class="cls-258" d="M947.5,531.5c1.53-1.09.44-2.47,0-3.41-.57-1.33-1.33.32-2.08.33-2,0-3.31-2.23-5.47-1.42v-1h.51c.79.15,1.68.64,2.34.41,5.24-1.75,7,1.4,8.15,5.57l-1.49,1C950.37,530.49,948.25,531.9,947.5,531.5Z" transform="translate(-903.07 -486.07)"/><path class="cls-170" d="M936,530.49c2.51,0,4.91,1.65,7.5.51.3,1.94-.48,2.82-2.46,2.5-3-.49-6.22,1.08-9-1a5.34,5.34,0,0,1,1.21.15c1.51.6,3.62.35,3.92-.7.49-1.72-2.06-.27-2.63-1.45Z" transform="translate(-903.07 -486.07)"/><path class="cls-170" d="M934,530.5l-2-.5Z" transform="translate(-903.07 -486.07)"/><path class="cls-259" d="M945.5,535.51l1.49,0V536l-1.49.51H945Z" transform="translate(-903.07 -486.07)"/><path class="cls-260" d="M974.5,545l-2-.5c-.61-.17-1.29-.59-1.83-.46-2.68.65-2.76-1.9-3.11-3.06-.47-1.54,1.52-.75,2.36-1.14a16.54,16.54,0,0,1,2.42-.38c.66-.18,1.64-.46,1.81-.94.3-.83-.79-.74-1.27-1.08-1.64-1.18.83-.77.62-1.44h0c1.85-.63,3.08,2.86,5.3.81.25-.22.88,1.41,1,2.28a6.83,6.83,0,0,1-.24,1.7c-.14,1.09,2.57,1.86.86,2.71S976.87,546.17,974.5,545Z" transform="translate(-903.07 -486.07)"/><path class="cls-261" d="M989.5,545h-1c1.43-3.21-1-6.51-4.73-6.57-1,0-2.79,1.35-2.95-.11s1.91-1.25,3.18-1.32c2.53.67,5,1.49,7.61,2,1.59.28,3,.61,3.89,2-.38.24-1.08.47-1.09.72,0,.79.72.69,1.27.78s1.73-.28,1.66.88a1.74,1.74,0,0,1-1.9,1.59C993.46,545,991.48,545,989.5,545Z" transform="translate(-903.07 -486.07)"/><path class="cls-234" d="M958.5,542.5l3,4L948,546h0c-.56-1.56-1.78-3.29-1.46-4.65.26-1.06,2.34.12,3.62.11a4.45,4.45,0,0,0,1.34-.46,17.18,17.18,0,0,1,11-4l0,0c.76,1.9.21,2.74-1.92,2.52-.86-.09-1.85-.32-2.59.47h-.5c-.8,0-1.92,0-1.74,1.11s1.39.81,2.24.89Zm-1.31,1.31c-.26.51-.63.93-.53,1.13a1.78,1.78,0,0,0,1,.92c.63.14.93-.4.71-.93C958.17,544.55,957.7,544.29,957.19,543.81Z" transform="translate(-903.07 -486.07)"/><path class="cls-243" d="M951.5,541a4.45,4.45,0,0,1-1.34.46c-1.28,0-3.36-1.17-3.62-.11-.32,1.36.9,3.09,1.46,4.65a11.49,11.49,0,0,1-1.69-.34c-1.6-.57-4-.67-4-2.72s1.87-3.1,4.1-3c.36,0,.74-.59,1.1-.9l1.44-1.14a6.46,6.46,0,0,1,.55,1.54C949.59,540.71,950.38,541,951.5,541Z" transform="translate(-903.07 -486.07)"/><path class="cls-262" d="M957.5,540h.5a24.68,24.68,0,0,0,3,0c2.48-.3,5.68.92,6.52-3l6-1c.21.67-2.26.26-.62,1.44.48.34,1.57.25,1.27,1.08-.17.48-1.15.76-1.81.94a16.54,16.54,0,0,0-2.42.38c-.84.39-2.83-.4-2.36,1.14.35,1.16.43,3.71,3.11,3.06.54-.13,1.22.29,1.83.46-4.69-.52-9.74,1.54-14-2l-.5-.5C957.4,541.44,956.81,540.88,957.5,540Z" transform="translate(-903.07 -486.07)"/><path class="cls-263" d="M967.5,537c-.84,3.9-4,2.68-6.52,3a24.68,24.68,0,0,1-3,0c.74-.79,1.73-.56,2.59-.47,2.13.22,2.68-.62,1.92-2.52C964.17,536.1,965.84,538.13,967.5,537Z" transform="translate(-903.07 -486.07)"/><path class="cls-259" d="M939,539.5c.34-1.63,1.7-2,3-2.49C942.05,539.09,942.35,541.49,939,539.5Z" transform="translate(-903.07 -486.07)"/><path class="cls-259" d="M943,537v-.5h2Z" transform="translate(-903.07 -486.07)"/><path class="cls-259" d="M939,540.5c-.48-.33-.49-.67,0-1Z" transform="translate(-903.07 -486.07)"/><path class="cls-255" d="M945,536.5h-2c.51-1.14,1.53-1,2.5-1Z" transform="translate(-903.07 -486.07)"/><path class="cls-264" d="M957.19,543.81c.51.48,1,.74,1.15,1.12.22.53-.08,1.07-.71.93a1.78,1.78,0,0,1-1-.92C956.56,544.74,956.93,544.32,957.19,543.81Z" transform="translate(-903.07 -486.07)"/><path class="cls-263" d="M957.5,540c-.69.88-.1,1.44.5,2-.85-.08-2.06.29-2.24-.89S956.7,540.05,957.5,540Z" transform="translate(-903.07 -486.07)"/></svg>