<svg id="Layer_1" data-name="Layer 1" xmlns="http://www.w3.org/2000/svg" viewBox="0 0 106.37 106.5"><defs><style>.cls-1{fill:#303b5e;}.cls-2{fill:#3c4c77;}.cls-3{fill:#2f385c;}.cls-4{fill:#38446c;}.cls-5{fill:#343a5b;}.cls-6{fill:#313551;}.cls-7{fill:#3b466c;}.cls-8{fill:#384065;}.cls-9{fill:#33415d;}.cls-10{fill:#3b4e81;}.cls-11{fill:#202e53;}.cls-12{fill:#3f4d70;}.cls-13{fill:#333d5f;}.cls-14{fill:#2d416c;}.cls-15{fill:#333a59;}.cls-16{fill:#30406c;}.cls-17{fill:#374d84;}.cls-18{fill:#36477b;}.cls-19{fill:#394a7e;}.cls-20{fill:#334576;}.cls-21{fill:#304577;}.cls-22{fill:#31406c;}.cls-23{fill:#33406e;}.cls-24{fill:#3b528d;}.cls-25{fill:#3b508a;}.cls-26{fill:#35406c;}.cls-27{fill:#354578;}.cls-28{fill:#3b4e84;}.cls-29{fill:#38436e;}.cls-30{fill:#344273;}.cls-31{fill:#343d68;}.cls-32{fill:#212947;}.cls-33{fill:#3d508b;}.cls-34{fill:#38477a;}.cls-35{fill:#314576;}.cls-36{fill:#3f5693;}.cls-37{fill:#414f85;}.cls-38{fill:#394779;}.cls-39{fill:#3f5691;}.cls-40{fill:#3b518e;}.cls-41{fill:#3a4f87;}.cls-42{fill:#3e4b81;}.cls-43{fill:#3a4e88;}.cls-44{fill:#3a4e89;}.cls-45{fill:#3d528f;}.cls-46{fill:#405898;}.cls-47{fill:#435fa3;}.cls-48{fill:#405aa0;}.cls-49{fill:#4761a5;}.cls-50{fill:#3a4777;}.cls-51{fill:#46558e;}.cls-52{fill:#45528b;}.cls-53{fill:#495794;}.cls-54{fill:#425b9a;}.cls-55{fill:#405693;}.cls-56{fill:#41589a;}.cls-57{fill:#3f579b;}.cls-58{fill:#425b9b;}.cls-59{fill:#4a5998;}.cls-60{fill:#455ea1;}.cls-61{fill:#4862ab;}.cls-62{fill:#4f69ab;}.cls-63{fill:#455b9d;}.cls-64{fill:#4660a6;}.cls-65{fill:#465fa3;}.cls-66{fill:#5271b4;}.cls-67{fill:#455c9d;}.cls-68{fill:#485fa3;}.cls-69{fill:#4d5b9c;}.cls-70{fill:#4b5ca0;}.cls-71{fill:#4964ad;}.cls-72{fill:#4c68b6;}.cls-73{fill:#506cb6;}.cls-74{fill:#4966b0;}.cls-75{fill:#4c66b0;}.cls-76{fill:#4f5da2;}.cls-77{fill:#4a64ac;}.cls-78{fill:#5062a8;}.cls-79{fill:#5472c6;}.cls-80{fill:#4f6bb8;}.cls-81{fill:#4b69b3;}.cls-82{fill:#597bc6;}.cls-83{fill:#5162aa;}.cls-84{fill:#4f6ab8;}.cls-85{fill:#4f6dbc;}.cls-86{fill:#4e6dc0;}.cls-87{fill:#4d6abe;}.cls-88{fill:#4e6cbb;}.cls-89{fill:#4e6fbd;}.cls-90{fill:#6070b2;}.cls-91{fill:#5468b3;}.cls-92{fill:#5978d1;}.cls-93{fill:#5970c2;}.cls-94{fill:#5c75cc;}.cls-95{fill:#586cbb;}.cls-96{fill:#5578d0;}.cls-97{fill:#5777cf;}.cls-98{fill:#5271c4;}.cls-99{fill:#5173c8;}.cls-100{fill:#6084d2;}.cls-101{fill:#5679d2;}.cls-102{fill:#5570c4;}.cls-103{fill:#5373c8;}.cls-104{fill:#5d7dda;}.cls-105{fill:#5877d0;}.cls-106{fill:#5a7bd6;}.cls-107{fill:#5677d0;}.cls-108{fill:#6182e1;}.cls-109{fill:#6c91df;}.cls-110{fill:#577bd0;}.cls-111{fill:#5c7fe1;}.cls-112{fill:#5d84d9;}.cls-113{fill:#5b7edd;}.cls-114{fill:#6084e6;}.cls-115{fill:#7ba1f2;}.cls-116{fill:#6b93e3;}.cls-117{fill:#5a80de;}.cls-118{fill:#5e83e7;}.cls-119{fill:#79a4f3;}.cls-120{fill:#6c97f0;}.cls-121{fill:#6891eb;}.cls-122{fill:#6387ea;}.cls-123{fill:#6386e9;}.cls-124{fill:#88b1fc;}.cls-125{fill:#6289f1;}.cls-126{fill:#668af2;}.cls-127{fill:#648cf3;}.cls-128{fill:#618aef;}.cls-129{fill:#658ef8;}.cls-130{fill:#6891fc;}.cls-131{fill:#709cfc;}</style></defs><path class="cls-1" d="M908.47,528c3.92-16,13.54-27.37,28.08-34.77,1.38-.7,2.9-1.17,4.35-1.74L942,491h0c1.59-.18,3.29,0,4.49-1.45a.45.45,0,0,1,.46-.07c.72,0,1.51.23,2.06-.51l.11-.1.13.08a109,109,0,0,1,21.45,0l.16-.07.14.11,1.61.42h0L971,490h-.5l-.51-.49H964.5a9,9,0,0,0-6.5,0h-2a1.22,1.22,0,0,0-2,0h0l-1.5.49L951,490a15.62,15.62,0,0,0-6.51,1.49l-1,.51-1.51.49h0l-1.5.5-3.5,2c-2.84.23-4.81,1.9-6.5,4H930a27,27,0,0,0-8.51,8,17.4,17.4,0,0,0-1.42,1.69c-2.55,4-6.38,7.25-7.08,12.31l-.5,1c-1.09,2.07-2.65,4-2.5,6.5h-.5Z" transform="translate(-906.99 -487.63)"/><path class="cls-2" d="M1010.61,524.46c4.88,16.14,3.47,31.44-6.06,45.66-.34-.67,1.14-1.81-.55-2.12,1.76-4.37,5.55-7.87,5.5-13a52.24,52.24,0,0,0,2.59-12.74c.4-6.17-1.63-11.86-2.59-17.76Z" transform="translate(-906.99 -487.63)"/><path class="cls-3" d="M922.51,578.44a46.3,46.3,0,0,1-12-18.34l0-2.1c1.36.48,1.52,1.82,2,2.89,1.54,3.66,3.08,7.3,6,10.11l1.5,1.5a5.18,5.18,0,0,0,.87,1.4,108.62,108.62,0,0,0,20.63,14.6H941a2.68,2.68,0,0,1-2.11-.22c-4.76-3.16-9.91-5.73-14.29-9.45C923.47,577.87,923.52,577.81,922.51,578.44Z" transform="translate(-906.99 -487.63)"/><path class="cls-4" d="M970.5,490h.5a6.52,6.52,0,0,0,3.9.93l-1.4-1.37c13.18,3.52,23.68,10.76,31,22.36,0,.4.24,1,.06,1.17-.59.54-.8-.17-1.05-.51-.87-1.18-1.7-2.38-2.55-3.58-2.4-2.79-4.64-5.74-8-7.5a38.85,38.85,0,0,0-16.38-9.12c-3.22-.85-6.77-.75-9.62-2.87h3Z" transform="translate(-906.99 -487.63)"/><path class="cls-5" d="M992.51,583a41.61,41.61,0,0,1-14.93,8c-4.76.58-9.32,2.44-14.19,2.39-1.91-.94-3.93-.2-5.88-.42l-1,.44-1-.44-.5-.51V592h3a2.94,2.94,0,0,0,3.5,0h5c4.56-.57,9-1.47,13-4h0c1.08-.08,2.34.36,3-1l12.5-7v1h0A2.84,2.84,0,0,0,992.51,583Z" transform="translate(-906.99 -487.63)"/><path class="cls-6" d="M955,592.5l.5.51L951,592.9l-.49-.4-3-.52-.5-.48-4.08-.43H943l-1.52-.55h0a2.57,2.57,0,0,0-2.57-1l.05,0-1.15-.53a38.91,38.91,0,0,1-12.36-8A3.21,3.21,0,0,0,923,579h0l-.45-.5,0,0c1-.63,1-.57,2.09.39,4.38,3.72,9.53,6.29,14.29,9.45a2.68,2.68,0,0,0,2.11.22c1,1.41,2.51,1.42,4,1.5l2.5.51c.52,1.13,1.54,1,2.5,1h1C952,593.18,953.64,592.26,955,592.5Z" transform="translate(-906.99 -487.63)"/><path class="cls-7" d="M995,581V579.5l.5-1.5h0c2.39-.28,3-2.33,4-4,1-1.06,2.22-1.94,2.51-3.5l1.49-2,.5-.49h0c1.69.31.21,1.45.55,2.12A38.3,38.3,0,0,1,995,581Z" transform="translate(-906.99 -487.63)"/><path class="cls-8" d="M951,592.9l4.51.11,1,.44,1,0h5.85c4.87.05,9.43-1.81,14.19-2.39a50.2,50.2,0,0,1-34.66,0l4.08.43.5.48,3,.52Z" transform="translate(-906.99 -487.63)"/><path class="cls-9" d="M910.5,558l0,2.1-.51-1.48c-.11-.36-.22-.73-.34-1.09l-.13-.52-.41-1c-1.29-3.9-2.36-7.84-2-12,.32,1.16.63,2.33,1,3.49h.49l1.51,7Z" transform="translate(-906.99 -487.63)"/><path class="cls-10" d="M1001,509c.85,1.2,1.68,2.4,2.55,3.58.25.34.46,1,1.05.51.18-.18,0-.77-.06-1.17l1.61,2.51c-1.34,2.74,1.69,4.25,1.85,6.57-.33-.17-.66-.34-1-.5l-6-10.5Z" transform="translate(-906.99 -487.63)"/><path class="cls-11" d="M908,547.5l-1-3.49v-7.52c.53-2,1.17-4,.85-6.07v0l.59-.46,0-2h0l1,.53L909,531l-.47.5Z" transform="translate(-906.99 -487.63)"/><path class="cls-12" d="M1008,521c-.16-2.32-3.19-3.83-1.85-6.57a24.09,24.09,0,0,1,3.91,8.4c.09.21.18.42.28.63l.27,1-1.11,0h0l-.5-.5h0l-.5-2Z" transform="translate(-906.99 -487.63)"/><path class="cls-13" d="M970.7,488.94a109,109,0,0,0-21.45,0A44.6,44.6,0,0,1,970.7,488.94Z" transform="translate(-906.99 -487.63)"/><path class="cls-14" d="M907.92,530.42c.32,2.11-.32,4.08-.85,6.07A11.57,11.57,0,0,1,907.92,530.42Z" transform="translate(-906.99 -487.63)"/><path class="cls-13" d="M973.5,489.56l1.4,1.37A6.52,6.52,0,0,1,971,490l1.61-.61Z" transform="translate(-906.99 -487.63)"/><path class="cls-13" d="M946.49,489.55c-1.2,1.41-2.9,1.27-4.49,1.45Z" transform="translate(-906.99 -487.63)"/><path class="cls-3" d="M923,579a3.21,3.21,0,0,1,2.44,2.13Z" transform="translate(-906.99 -487.63)"/><path class="cls-7" d="M992.51,583a2.84,2.84,0,0,1,2.51-2Z" transform="translate(-906.99 -487.63)"/><path class="cls-15" d="M938.92,589.57a2.57,2.57,0,0,1,2.57,1Z" transform="translate(-906.99 -487.63)"/><path class="cls-14" d="M908.47,528l0,2H908Z" transform="translate(-906.99 -487.63)"/><path class="cls-13" d="M949,489c-.55.74-1.34.48-2.06.51Z" transform="translate(-906.99 -487.63)"/><path class="cls-13" d="M972.61,489.4,971,489Z" transform="translate(-906.99 -487.63)"/><path class="cls-15" d="M941.46,590.53l1.52.55Z" transform="translate(-906.99 -487.63)"/><path class="cls-13" d="M942,491l-1.1.46Z" transform="translate(-906.99 -487.63)"/><path class="cls-16" d="M909.61,557.53c.12.36.23.73.34,1.09C909.84,558.26,909.73,557.89,909.61,557.53Z" transform="translate(-906.99 -487.63)"/><path class="cls-15" d="M937.82,589.07l1.15.53Z" transform="translate(-906.99 -487.63)"/><path class="cls-16" d="M909.07,556l.41,1Z" transform="translate(-906.99 -487.63)"/><path class="cls-1" d="M908,530h.5l-.59.46Z" transform="translate(-906.99 -487.63)"/><path class="cls-3" d="M922.56,578.48l.45.5Z" transform="translate(-906.99 -487.63)"/><path class="cls-2" d="M1010.34,523.46c-.1-.21-.19-.42-.28-.63C1010.15,523,1010.24,523.25,1010.34,523.46Z" transform="translate(-906.99 -487.63)"/><path class="cls-17" d="M912.5,522c.17-.33.34-.67.5-1,.58-.66,1.18-1.3,1.74-2,1.78-2.2,2.47-5.15,4.76-7v1.5c-2.37,3.94-5.41,7.55-6.3,12.22-.85,4.38-3.42,8.56-1.7,13.28-1.88,8.81,1.83,16.26,5.92,23.53,1.24,2.2,1.17,5.31,4.08,6.47l1,2v.5h-1l-2.5-2-1.5-2c-.86-1.84-1.59-3.75-2.59-5.51-2.95-5.16-4.38-10.84-5.91-16.49v-10A60,60,0,0,0,912.5,522Z" transform="translate(-906.99 -487.63)"/><path class="cls-18" d="M951,490l1.49,0,1.5-.49h4l1,.51-3,1c-6.35-.13-11.76,3-17.5,5H938l-13,9c.45-1.88,2-2.7,3.49-3.5.22-.12.9.22.51-.51l1-2h.49c2.5-.8,4.9-1.74,6.5-4l3.5-2,1.5-.5h0l1.51-.49,1-.51C946.9,492,948.87,490.63,951,490Z" transform="translate(-906.99 -487.63)"/><path class="cls-19" d="M956,491l3-1,5.49-.5H967c2.85,2.12,6.4,2,9.62,2.87A38.85,38.85,0,0,1,993,501.5h-.5a27.24,27.24,0,0,1-3-1.75c-6.49-5.05-14.3-6.55-22-8.25-1.46-.55-2.91-1.13-4.5-.5h-1C960,489.65,958,491.55,956,491Z" transform="translate(-906.99 -487.63)"/><path class="cls-20" d="M919.5,512c-2.29,1.86-3,4.81-4.76,7-.56.69-1.16,1.33-1.74,2,.7-5.06,4.53-8.32,7.08-12.31A17.4,17.4,0,0,1,921.5,507l2.5-1C923.77,509,920.11,509.33,919.5,512Z" transform="translate(-906.99 -487.63)"/><path class="cls-14" d="M909,535.5v10l-.5,2H908l.51-16c.16-.17.32-.33.47-.5l.51-2.5h.5C909.67,530.83,909.33,533.17,909,535.5Z" transform="translate(-906.99 -487.63)"/><path class="cls-21" d="M909,535.5c.33-2.33.67-4.67,1-7-.15-2.55,1.41-4.43,2.5-6.5A60,60,0,0,1,909,535.5Z" transform="translate(-906.99 -487.63)"/><path class="cls-22" d="M924,506l-2.5,1a27,27,0,0,1,8.51-8c-.34.66-.68,1.32-1,2l-.51.5c-1.53.8-3,1.62-3.49,3.5l-.5.5-.5.5Z" transform="translate(-906.99 -487.63)"/><path class="cls-23" d="M937,495c-1.6,2.26-4,3.2-6.5,4C932.19,496.9,934.16,495.23,937,495Z" transform="translate(-906.99 -487.63)"/><path class="cls-13" d="M964.5,489.5,959,490l-1-.51A9,9,0,0,1,964.5,489.5Z" transform="translate(-906.99 -487.63)"/><path class="cls-13" d="M951,490c-2.14.62-4.11,2-6.51,1.49A15.62,15.62,0,0,1,951,490Z" transform="translate(-906.99 -487.63)"/><path class="cls-13" d="M956,489.5h-2A1.22,1.22,0,0,1,956,489.5Z" transform="translate(-906.99 -487.63)"/><path class="cls-13" d="M942,492.5l-1.5.5Z" transform="translate(-906.99 -487.63)"/><path class="cls-13" d="M954,489.5l-1.5.49Z" transform="translate(-906.99 -487.63)"/><path class="cls-13" d="M943.51,492l-1.51.49Z" transform="translate(-906.99 -487.63)"/><path class="cls-13" d="M970.5,490l-.51-.49Z" transform="translate(-906.99 -487.63)"/><path class="cls-24" d="M1008,521l.5,1,.5,2h0l.5.5h0c1,5.9,3,11.59,2.59,17.76A52.24,52.24,0,0,1,1009.5,555h-.5c.17-1.17.33-2.33.5-3.5h0a17.82,17.82,0,0,0,1.07-3.24c.68-5.11,1.5-10.25-.57-15.26-.3-2.12-.28-4.35-2-6v-1l-1-4.5v-1Z" transform="translate(-906.99 -487.63)"/><path class="cls-25" d="M1009,555h.5c0,5.13-3.74,8.63-5.5,13h0l-.5.49-1.49,2-1.51.5v-.5l.5-.5h0l.5-.5.5-2,.5-.5h0l.5-.5h0l.5-.5h0l.5-.5h0l.5-1h0l.5-1h0l.5-.5C1006.67,560.33,1007.84,557.67,1009,555Z" transform="translate(-906.99 -487.63)"/><path class="cls-26" d="M951,591.5h-1c-.51-1.14-1.53-1-2.5-1L945,590l-3.5-1.5a108.62,108.62,0,0,1-20.63-14.6,5.18,5.18,0,0,1-.87-1.4l3,1h0l.5.5h.5l.5.5h0a.93.93,0,0,0,1,1c1.86,2.45,4.8,3.64,7.14,5.41A50.29,50.29,0,0,0,950.5,590l1,1Z" transform="translate(-906.99 -487.63)"/><path class="cls-16" d="M917.5,567.5l1.5,2c-.17.5-.34,1-.5,1.5-3-2.81-4.49-6.45-6-10.11-.45-1.07-.61-2.41-2-2.89-.16-1.17-.33-2.34-.49-3.5,1.17.88,1.4,2.3,2,3.51C913.67,561.28,914.32,565.12,917.5,567.5Z" transform="translate(-906.99 -487.63)"/><path class="cls-27" d="M918.5,571c.16-.5.33-1,.5-1.5l2.5,2c-.08,1.1,1,1.34,1.5,2l-3-1Z" transform="translate(-906.99 -487.63)"/><path class="cls-15" d="M941.5,588.5,945,590c-1.49-.08-3-.09-4-1.5Z" transform="translate(-906.99 -487.63)"/><path class="cls-28" d="M992.5,501.5h.5c3.36,1.76,5.6,4.71,8,7.5v1c-1.56-1.47-2.66-3.51-5-4l-1-1C994,503.94,992.76,503.08,992.5,501.5Z" transform="translate(-906.99 -487.63)"/><path class="cls-29" d="M995,579.5v.5l-12.5,7c-1.22-.32-2.33-.32-3,1h0l-4,.5a20.12,20.12,0,0,1,2.26-1.45c2.89-1.39,5.82-2.7,8.74-4C990.06,583.58,991.63,579.36,995,579.5Z" transform="translate(-906.99 -487.63)"/><path class="cls-30" d="M951.5,591l-1-1c3.84.33,7.69.62,11.52,1,1.72.19,3.21-1.48,5-.52l-.5,1.49H955C953.65,592.33,952.62,591.51,951.5,591Z" transform="translate(-906.99 -487.63)"/><path class="cls-31" d="M966.5,592c.17-.49.33-1,.5-1.49h1.5l7-2,4-.5C975.53,590.52,971.06,591.42,966.5,592Z" transform="translate(-906.99 -487.63)"/><path class="cls-32" d="M963.39,593.43h-5.85a3,3,0,0,1,0-.42C959.46,593.23,961.48,592.49,963.39,593.43Z" transform="translate(-906.99 -487.63)"/><path class="cls-15" d="M951.5,591c1.12.51,2.15,1.33,3.5,1v.49c-1.36-.24-3,.68-4-1Z" transform="translate(-906.99 -487.63)"/><path class="cls-31" d="M979.5,588c.67-1.32,1.78-1.32,3-1C981.84,588.36,980.58,587.92,979.5,588Z" transform="translate(-906.99 -487.63)"/><path class="cls-8" d="M958,592h3.5A2.94,2.94,0,0,1,958,592Z" transform="translate(-906.99 -487.63)"/><path class="cls-6" d="M957.51,593a3,3,0,0,0,0,.42l-1,0Z" transform="translate(-906.99 -487.63)"/><path class="cls-8" d="M956,592h0Z" transform="translate(-906.99 -487.63)"/><path class="cls-15" d="M947.5,590.51c1,0,2-.15,2.5,1C949,591.5,948,591.64,947.5,590.51Z" transform="translate(-906.99 -487.63)"/><path class="cls-15" d="M947.5,592l-.5-.48Z" transform="translate(-906.99 -487.63)"/><path class="cls-15" d="M951,592.9l-.49-.4Z" transform="translate(-906.99 -487.63)"/><path class="cls-33" d="M1000.5,571l1.51-.5c-.29,1.56-1.52,2.44-2.51,3.5-2,.62-3.08,2.26-4,4h0a5.08,5.08,0,0,1-4.5.51l-1-.51v-.5C994.74,577.34,996.87,573,1000.5,571Z" transform="translate(-906.99 -487.63)"/><path class="cls-34" d="M991,578.51a5.08,5.08,0,0,0,4.5-.51l-.5,1.5c-3.37-.14-4.94,4.08-8.5,3.5H985c2.08-.78,4.3-1.34,5.5-3.5Z" transform="translate(-906.99 -487.63)"/><path class="cls-34" d="M995.5,578c.92-1.74,2-3.38,4-4C998.51,575.67,997.89,577.72,995.5,578Z" transform="translate(-906.99 -487.63)"/><path class="cls-2" d="M1003.5,568.49l.5-.49Z" transform="translate(-906.99 -487.63)"/><path class="cls-35" d="M917.5,567.5c-3.18-2.38-3.83-6.22-5.48-9.49-.61-1.21-.84-2.63-2-3.51-.5-2.34-1-4.67-1.51-7l.5-2c1.53,5.65,3,11.33,5.91,16.49C915.91,563.75,916.64,565.66,917.5,567.5Z" transform="translate(-906.99 -487.63)"/><path class="cls-36" d="M996,506c2.33.49,3.43,2.53,5,4l6,10.5v1l-5-5.5C1001.16,512,997,509.92,996,506Z" transform="translate(-906.99 -487.63)"/><path class="cls-1" d="M909,531c-.15.17-.31.33-.47.5C908.68,531.33,908.84,531.17,909,531Z" transform="translate(-906.99 -487.63)"/><path class="cls-2" d="M1009,524l-.5-2Z" transform="translate(-906.99 -487.63)"/><path class="cls-2" d="M1009.5,524.5l-.5-.5Z" transform="translate(-906.99 -487.63)"/><path class="cls-37" d="M991,578.51l-.5,1c-4,2.07-8.37,2.9-12.46,4.55-10,4-19.81,6.69-30.43,1.88a73.5,73.5,0,0,1-12-6.91c-3.33-2.33-7.08-4-10.65-6h0c-.62-.93-1.24-1.87-2.5-2l-1-2,6,3.5a7.59,7.59,0,0,0,1.37,1.4c5.33,3.13,10.56,6.44,16,9.23,6.06,3.08,12.38,4.73,19.46,3.48,7.24-1.28,13.93-4.34,21.12-5.61l1-.5,1-.5h0l.5-.5.5-.5.5-.5.5-.5h.5Z" transform="translate(-906.99 -487.63)"/><path class="cls-38" d="M968.5,590.49H967c-1.77-1-3.26.71-5,.52-3.83-.4-7.68-.69-11.52-1a50.29,50.29,0,0,1-17.86-9.09c-2.34-1.77-5.28-3-7.14-5.41l-1-1h0l-.5-.5h-.5l-.5-.5h0c-.5-.66-1.58-.9-1.5-2h1A2.42,2.42,0,0,0,925,573h0c1.73,2.58,4.91,3.24,7,5.29,3.79,3.68,8.71,5.54,13.14,8.16a20,20,0,0,0,7.93,2.45c5.11.53,10.27,1.78,15.41.1Z" transform="translate(-906.99 -487.63)"/><path class="cls-39" d="M927.5,572.5l-6-3.5c-2.91-1.16-2.84-4.27-4.08-6.47-4.09-7.27-7.8-14.72-5.92-23.53h.5c1.19,4.92.39,10.17,3,14.9,3.79,6.91,6.11,14.92,14.52,18.1v.5l-.5.5Z" transform="translate(-906.99 -487.63)"/><path class="cls-40" d="M912,539h-.5c-1.72-4.72.85-8.9,1.7-13.28.89-4.67,3.93-8.28,6.3-12.22a28.77,28.77,0,0,1,5.5-6l-1,2.5a32.33,32.33,0,0,0-8,12l-2.5,7c-.8.71-.4,1.65-.5,2.5h0c-1.19,2.39-1,5-1,7.5Z" transform="translate(-906.99 -487.63)"/><path class="cls-41" d="M925,507.5a28.77,28.77,0,0,0-5.5,6V512c.61-2.67,4.27-3,4.5-6h0l.5-.5.5-.5,13-9-1,2.5h0l-.5.5H936l-.5.5h0l-1,.5h0l-1,.5C931.09,503.35,927.87,505.21,925,507.5Z" transform="translate(-906.99 -487.63)"/><path class="cls-42" d="M925,573a2.42,2.42,0,0,1-2.5-1.5V571C923.76,571.13,924.38,572.07,925,573Z" transform="translate(-906.99 -487.63)"/><path class="cls-43" d="M956,491c2,.55,4-1.35,6,0-1.54.26-3.09.46-4.61.8-5.47,1.21-10.93,2.46-16.39,3.7l-2.5.5C944.24,494,949.65,490.87,956,491Z" transform="translate(-906.99 -487.63)"/><path class="cls-44" d="M938.5,496l2.5-.5v1c-1.41.52-2.29,2.08-4,2l1-2.5Z" transform="translate(-906.99 -487.63)"/><path class="cls-41" d="M928.49,501.5l.51-.5C929.39,501.72,928.71,501.38,928.49,501.5Z" transform="translate(-906.99 -487.63)"/><path class="cls-45" d="M941,496.5v-1c5.46-1.24,10.92-2.49,16.39-3.7,1.52-.34,3.07-.54,4.61-.8h1c1.43.82,3,.39,4.5.5,7.73,1.7,15.54,3.2,22,8.25a27.24,27.24,0,0,0,3,1.75c.26,1.58,1.51,2.44,2.5,3.5l-3.5-1.5a2.23,2.23,0,0,0-1.39-1.89L979.5,496c-7.09-2.92-14.38-4.66-22.06-3.19C951.93,493.87,946.48,495.26,941,496.5Z" transform="translate(-906.99 -487.63)"/><path class="cls-43" d="M967.5,491.5c-1.51-.11-3.07.32-4.5-.5C964.59,490.37,966,491,967.5,491.5Z" transform="translate(-906.99 -487.63)"/><path class="cls-20" d="M924.5,505.5l-.5.5Z" transform="translate(-906.99 -487.63)"/><path class="cls-46" d="M1000.5,571c-3.63,2-5.76,6.34-10.5,6.5h-.5c1.06-1.65,3.55-1.17,4.5-3,5.39-4.09,8.48-10,12-15.5h0c.06,0,.18-.11.17-.14a1.69,1.69,0,0,0-.17-.36v-1l.5-.5v-1c1.83-1,1.35-3.44,3-4.5-.17,1.17-.33,2.33-.5,3.5-1.16,2.67-2.33,5.33-3.5,8l-.5.5h0l-.5,1h0l-.5,1h0l-.5.5h0l-.5.5h0l-.5.5h0l-.5.5-.5,2-.5.5h0l-.5.5Z" transform="translate(-906.99 -487.63)"/><path class="cls-47" d="M1009.5,551.5c-1.65,1.06-1.17,3.55-3,4.5h0a67.42,67.42,0,0,0,0-30.5l1.5.5v1l1.5,8a76.48,76.48,0,0,1,0,16.5Z" transform="translate(-906.99 -487.63)"/><path class="cls-46" d="M1009.5,551.5a76.48,76.48,0,0,0,0-16.5l.5-2c2.07,5,1.25,10.15.57,15.26A17.82,17.82,0,0,1,1009.5,551.5Z" transform="translate(-906.99 -487.63)"/><path class="cls-48" d="M1008,526l-1.5-.5c-.17-.83-.33-1.67-.5-2.5l-.5-.5h0l-.5-.5h0l-3-6,5,5.5C1007.33,523,1007.67,524.5,1008,526Z" transform="translate(-906.99 -487.63)"/><path class="cls-48" d="M1010,533l-.5,2-1.5-8C1009.72,528.65,1009.7,530.88,1010,533Z" transform="translate(-906.99 -487.63)"/><path class="cls-33" d="M1004,565.5l.5-1Z" transform="translate(-906.99 -487.63)"/><path class="cls-33" d="M1004.5,564.5l.5-1Z" transform="translate(-906.99 -487.63)"/><path class="cls-33" d="M1002.5,567l.5-.5Z" transform="translate(-906.99 -487.63)"/><path class="cls-33" d="M1002,567.5l.5-.5Z" transform="translate(-906.99 -487.63)"/><path class="cls-33" d="M1001,570l.5-.5Z" transform="translate(-906.99 -487.63)"/><path class="cls-33" d="M1000.5,570.5l.5-.5Z" transform="translate(-906.99 -487.63)"/><path class="cls-33" d="M1003.5,566l.5-.5Z" transform="translate(-906.99 -487.63)"/><path class="cls-33" d="M1005,563.5l.5-.5Z" transform="translate(-906.99 -487.63)"/><path class="cls-33" d="M1003,566.5l.5-.5Z" transform="translate(-906.99 -487.63)"/><path class="cls-27" d="M924.5,574.5l1,1A.93.93,0,0,1,924.5,574.5Z" transform="translate(-906.99 -487.63)"/><path class="cls-27" d="M923,573.5l.5.5Z" transform="translate(-906.99 -487.63)"/><path class="cls-27" d="M924,574l.5.5Z" transform="translate(-906.99 -487.63)"/><path class="cls-49" d="M1002,516l3,6c-2.34-2.2-3.42-5.21-5.12-7.82-2.39-3.65-6.29-5.74-9.38-8.68a1.65,1.65,0,0,0,0-2h1L995,505l1,1C997,509.92,1001.16,512,1002,516Z" transform="translate(-906.99 -487.63)"/><path class="cls-50" d="M968.5,590.49V589c.53-.34,1-.9,1.59-1,5.29-.72,9.81-3.74,14.91-5h1.5c-2.92,1.35-5.85,2.66-8.74,4a20.12,20.12,0,0,0-2.26,1.45Z" transform="translate(-906.99 -487.63)"/><path class="cls-51" d="M989.5,577.5h.5v.5h-1.5v-.5Z" transform="translate(-906.99 -487.63)"/><path class="cls-42" d="M985,583c-5.1,1.28-9.62,4.3-14.91,5-.57.08-1.06.64-1.59,1-5.14,1.68-10.3.43-15.41-.1a20,20,0,0,1-7.93-2.45c-4.43-2.62-9.35-4.48-13.14-8.16-2.11-2-5.29-2.71-7-5.29,3.57,2,7.32,3.69,10.65,6a73.5,73.5,0,0,0,12,6.91c10.62,4.81,20.46,2.14,30.43-1.88,4.09-1.65,8.5-2.48,12.46-4.55C989.3,581.66,987.08,582.22,985,583Z" transform="translate(-906.99 -487.63)"/><path class="cls-52" d="M988.5,578h1l-.5.5-.5.5-.5.5-.5.5h0l-1,.5-1,.5c-7.19,1.27-13.88,4.33-21.12,5.61-7.08,1.25-13.4-.4-19.46-3.48-5.49-2.79-10.72-6.1-16-9.23a7.59,7.59,0,0,1-1.37-1.4l1.5.5c5.48,2.73,11.33,4.92,16.34,8.34,5.59,3.82,11.37,4.9,17.83,4.37s12.19-3.68,18.46-4.89c2-.39,4.33-.51,5.87-2.32h0l.5-.5Z" transform="translate(-906.99 -487.63)"/><path class="cls-33" d="M986.5,580.5l1-.5Z" transform="translate(-906.99 -487.63)"/><path class="cls-33" d="M985.5,581l1-.5Z" transform="translate(-906.99 -487.63)"/><path class="cls-33" d="M988.5,579l.5-.5Z" transform="translate(-906.99 -487.63)"/><path class="cls-33" d="M988,579.5l.5-.5Z" transform="translate(-906.99 -487.63)"/><path class="cls-33" d="M987.5,580l.5-.5Z" transform="translate(-906.99 -487.63)"/><path class="cls-53" d="M988.5,578H988l-.5.5h0a95.39,95.39,0,0,0-18.61,5c-6.08,2.19-12.56,2.56-18.31-.58-6.9-3.77-14-7-21.08-10.39V572H931c1.08,1.51,2.92,1.36,4.4,2,5.31,2.23,11.13,3.72,15.78,6.92,4.46,3.07,8.86,2.85,13.25,2.05,8.08-1.46,15.76-4.86,24.07-5.46Z" transform="translate(-906.99 -487.63)"/><path class="cls-51" d="M929.5,572.5c7.08,3.35,14.18,6.62,21.08,10.39,5.75,3.14,12.23,2.77,18.31.58a95.39,95.39,0,0,1,18.61-5c-1.54,1.81-3.85,1.93-5.87,2.32-6.27,1.21-12,4.37-18.46,4.89s-12.24-.55-17.83-4.37c-5-3.42-10.86-5.61-16.34-8.34Z" transform="translate(-906.99 -487.63)"/><path class="cls-54" d="M930.5,572h-1c-8.41-3.18-10.73-11.19-14.52-18.1-2.59-4.73-1.79-10-3-14.9h.5c0,.16,0,.33,0,.5v.5l.49.49h.5c.55,4.26.56,8.61,2.89,12.48A59.29,59.29,0,0,1,919,558.5a5.1,5.1,0,0,0,1.17,3.93C923.26,566,926.35,569.58,930.5,572Z" transform="translate(-906.99 -487.63)"/><path class="cls-55" d="M941,496.5c5.48-1.24,10.93-2.63,16.44-3.69,7.68-1.47,15,.27,22.06,3.19l-8.5-1.5h0c-.88-.88-2-.36-3-.5h-.5c-1.23-1-2.67-.3-4-.5-5.88-.21-11.45,1.32-17,3a24.18,24.18,0,0,0-11,5h0c-1.88.68-3.81,1.29-4.5,3.5h0l-.5.5h0l-.5.5h0c-2.61.42-4.27,2.26-6,4l1-2.5c2.87-2.29,6.09-4.15,8.5-7l1-.5h0l1-.5h0l.5-.5h.5l.5-.5h0C938.71,498.58,939.59,497,941,496.5Z" transform="translate(-906.99 -487.63)"/><path class="cls-56" d="M924,510c1.73-1.74,3.39-3.58,6-4-5.19,4.73-10.62,9.27-12.5,16.5l-.5,1-1-1.5A32.33,32.33,0,0,1,924,510Z" transform="translate(-906.99 -487.63)"/><path class="cls-57" d="M916,522l1,1.5c-.73,2.77-1.29,5.59-2.24,8.29-.66,1.88.57,4.13-1.26,5.71-1.22-1.91-.25-4-.5-6h0c.8-.71.4-1.65.5-2.5Z" transform="translate(-906.99 -487.63)"/><path class="cls-39" d="M913,531.5c.25,2-.72,4.09.5,6l-1,1.5H912C912,536.45,911.81,533.89,913,531.5Z" transform="translate(-906.99 -487.63)"/><path class="cls-39" d="M913.5,529c-.1.85.3,1.79-.5,2.5C913.1,530.65,912.7,529.71,913.5,529Z" transform="translate(-906.99 -487.63)"/><path class="cls-44" d="M934.5,500l-1,.5Z" transform="translate(-906.99 -487.63)"/><path class="cls-44" d="M935.5,499.5l-1,.5Z" transform="translate(-906.99 -487.63)"/><path class="cls-44" d="M937,498.5l-.5.5Z" transform="translate(-906.99 -487.63)"/><path class="cls-44" d="M936,499l-.5.5Z" transform="translate(-906.99 -487.63)"/><path class="cls-58" d="M971,494.5l8.5,1.5,10.61,5.61a2.23,2.23,0,0,1,1.39,1.89h-1l-.5-.5-6.5-2.5L982,500h0l-1-.5h0V499a10.4,10.4,0,0,0-2.34-2.09C976.22,495.79,973.32,496.08,971,494.5Z" transform="translate(-906.99 -487.63)"/><path class="cls-59" d="M988.5,577.5c-8.31.6-16,4-24.07,5.46-4.39.8-8.79,1-13.25-2.05-4.65-3.2-10.47-4.69-15.78-6.92-1.48-.63-3.32-.48-4.4-2l2.5.5a85.28,85.28,0,0,1,8.26,3.26,80,80,0,0,0,14.69,5.63c9.58,2.37,18.08-4.45,27.55-3.89l9.5-3h.5c-1,1.83-3.44,1.35-4.5,3Z" transform="translate(-906.99 -487.63)"/><path class="cls-60" d="M994,574.5h-.5V573c3.06-3.67,6.35-7.16,8.5-11.5l1-.5.5-.5h0l.5-.5h0l2-1C1002.48,564.54,999.39,570.41,994,574.5Z" transform="translate(-906.99 -487.63)"/><path class="cls-47" d="M1006,559l-2,1,2-2.5h0V559Z" transform="translate(-906.99 -487.63)"/><path class="cls-47" d="M1006.5,556v1h-.5l.5-1Z" transform="translate(-906.99 -487.63)"/><path class="cls-60" d="M1006,557h.5l-.5.5h0Z" transform="translate(-906.99 -487.63)"/><path class="cls-60" d="M1006,559v-.5a1.69,1.69,0,0,1,.17.36S1006.06,559,1006,559Z" transform="translate(-906.99 -487.63)"/><path class="cls-61" d="M1006,557v.5l-2,2.5h0l-.5.5h0l-.5.5-1,.5c3.6-4.91,4.27-10.8,5.5-16.5.82-6-.51-11.94-2.16-17.41-2.56-8.43-7.29-15.92-15.34-20.59l-.5-.5H989c.08-1,.42-1.53,1.5-1,3.09,2.94,7,5,9.38,8.68,1.7,2.61,2.78,5.62,5.12,7.82h0l.5.5h0l.5.5c.17.83.33,1.67.5,2.5a67.42,67.42,0,0,1,0,30.5Z" transform="translate(-906.99 -487.63)"/><path class="cls-49" d="M1006,523l-.5-.5Z" transform="translate(-906.99 -487.63)"/><path class="cls-49" d="M1005.5,522.5l-.5-.5Z" transform="translate(-906.99 -487.63)"/><path class="cls-62" d="M990.5,505.5c-1.08-.53-1.42,0-1.5,1h-.5c-4-1.77-5.8-7.08-11-7H981l1,.5h0l1.5.5L990,503l.5.5h0A1.65,1.65,0,0,1,990.5,505.5Z" transform="translate(-906.99 -487.63)"/><path class="cls-51" d="M987.5,578.5l.5-.5Z" transform="translate(-906.99 -487.63)"/><path class="cls-63" d="M933.5,572.5,931,572h-.5c-4.15-2.42-7.24-6-10.33-9.57A5.1,5.1,0,0,1,919,558.5c3.52,5.8,7.3,11.3,14.5,13Z" transform="translate(-906.99 -487.63)"/><path class="cls-64" d="M979.5,499.5h-3c-7.34-3-14.8-4-22.5-1.5-11.66,2.12-21.67,7.16-29.21,16.54-4.92,6.11-8.24,12.84-7.79,21,0,.33,0,.66,0,1l-.5.5-4,2.51V539l1-1.5c1.83-1.58.6-3.83,1.26-5.71,1-2.7,1.51-5.52,2.24-8.29l.5-1c.25-.21.62-.37.74-.63C922.6,512.13,930.45,506,939.5,501a7.61,7.61,0,0,0,1.68-.37,44.92,44.92,0,0,1,23.58-4.5C969.74,496.55,975.07,496.33,979.5,499.5Z" transform="translate(-906.99 -487.63)"/><path class="cls-65" d="M933.5,571.5c-7.2-1.7-11-7.2-14.5-13a59.29,59.29,0,0,0-2.61-5.52c-2.33-3.87-2.34-8.22-2.89-12.48h.5c1.31.19,1.52.87,1.26,2.13a6.47,6.47,0,0,0,0,3.65,148.52,148.52,0,0,0,7.46,14.87c2.18,3.59,4.4,7.58,9.29,8.36l1.5,1v1Z" transform="translate(-906.99 -487.63)"/><path class="cls-66" d="M914,540.49h-1l-.49-.49v-.5l4-2.51,0,0c1.89,1.88,2.62-.81,4-1v1.5L918,539c-.83-.5-1.55-.55-2,.5Z" transform="translate(-906.99 -487.63)"/><path class="cls-64" d="M912.51,540l.49.49Z" transform="translate(-906.99 -487.63)"/><path class="cls-67" d="M939.5,501c-9,4.95-16.9,11.13-21.26,20.87-.12.26-.49.42-.74.63,1.88-7.23,7.31-11.77,12.5-16.5h0l.5-.5h0l.5-.5h0c1.48-1.2,3.43-1.78,4.5-3.5h0l11-5c5.55-1.68,11.12-3.21,17-3,1.23,1,2.67.29,4,.5h.5c.88.88,2,.35,3,.5h0c2.32,1.58,5.22,1.29,7.66,2.41A10.4,10.4,0,0,1,981,499a31.11,31.11,0,0,0-8.11-2.83A46.38,46.38,0,0,0,939.5,501Z" transform="translate(-906.99 -487.63)"/><path class="cls-56" d="M946.5,496.5l-11,5A24.18,24.18,0,0,1,946.5,496.5Z" transform="translate(-906.99 -487.63)"/><path class="cls-56" d="M935.5,501.5c-1.07,1.72-3,2.3-4.5,3.5C931.69,502.79,933.62,502.18,935.5,501.5Z" transform="translate(-906.99 -487.63)"/><path class="cls-58" d="M967.5,494c-1.33-.21-2.77.48-4-.5C964.83,493.7,966.27,493,967.5,494Z" transform="translate(-906.99 -487.63)"/><path class="cls-58" d="M971,494.5c-1-.15-2.12.38-3-.5C969,494.14,970.12,493.62,971,494.5Z" transform="translate(-906.99 -487.63)"/><path class="cls-56" d="M931,505l-.5.5Z" transform="translate(-906.99 -487.63)"/><path class="cls-56" d="M930.5,505.5l-.5.5Z" transform="translate(-906.99 -487.63)"/><path class="cls-68" d="M939.5,501a46.38,46.38,0,0,1,33.39-4.83A31.11,31.11,0,0,1,981,499v.5h-1.5c-4.43-3.17-9.76-2.95-14.74-3.37a44.92,44.92,0,0,0-23.58,4.5A7.61,7.61,0,0,1,939.5,501Z" transform="translate(-906.99 -487.63)"/><path class="cls-68" d="M983.5,500.5,982,500Z" transform="translate(-906.99 -487.63)"/><path class="cls-68" d="M982,500l-1-.5Z" transform="translate(-906.99 -487.63)"/><path class="cls-49" d="M990.5,503.5l-.5-.5Z" transform="translate(-906.99 -487.63)"/><path class="cls-69" d="M933.5,572.5v-1h0c8.87,3.93,18.19,6.41,27.64,8.46a10,10,0,0,0,5.15-.3c4.78-1.5,9.38-4.33,14.71-2.16h3c-9.47-.56-18,6.26-27.55,3.89a80,80,0,0,1-14.69-5.63A85.28,85.28,0,0,0,933.5,572.5Z" transform="translate(-906.99 -487.63)"/><path class="cls-70" d="M984,577.5h-3l9-3.5,3-1h.5v1.5Z" transform="translate(-906.99 -487.63)"/><path class="cls-71" d="M993.5,573H993c-1.06-.94-2.33-.32-3.5-.5a39.1,39.1,0,0,0,14.14-18.23c1.17-3.07,2.24-6.18,3.36-9.27h.5c-1.23,5.7-1.9,11.59-5.5,16.5C999.85,565.84,996.56,569.33,993.5,573Z" transform="translate(-906.99 -487.63)"/><path class="cls-47" d="M1003.5,560.5l.5-.5Z" transform="translate(-906.99 -487.63)"/><path class="cls-47" d="M1003,561l.5-.5Z" transform="translate(-906.99 -487.63)"/><path class="cls-72" d="M1007.5,545h-.5c-.8-3.48,1.9-7.61-2-10.5.46-3.92-1.15-7.24-3-10.5-.84-1.77-1.67-3.53-2.52-5.3-2.32-4.82-6.62-7.81-10.48-11.2l-.5-.5h0v-.5h1l.5.5c8,4.67,12.78,12.16,15.34,20.59C1007,533.06,1008.32,539,1007.5,545Z" transform="translate(-906.99 -487.63)"/><path class="cls-62" d="M990,507l-.5-.5Z" transform="translate(-906.99 -487.63)"/><path class="cls-73" d="M988.5,506.5v.5c-1-.29-2.26-.31-3-.92-6.17-4.94-13.6-5.41-21-6.08-.93-.85-2-.52-3.06-.38-3.3.45-6.55,1.43-9.94.88l1.5-.5c7.81-1.29,15.62-2.37,23.5-.5h1C982.7,499.42,984.48,504.73,988.5,506.5Z" transform="translate(-906.99 -487.63)"/><path class="cls-74" d="M953,500l-1.5.5c-15.37,2.72-31.07,16.35-32,33l-1,1-.5.5h0l-.5.5H917c-.45-8.12,2.87-14.85,7.79-21,7.54-9.38,17.55-14.42,29.21-16.54Z" transform="translate(-906.99 -487.63)"/><path class="cls-75" d="M953,500l1-2c7.7-2.49,15.16-1.48,22.5,1.5C968.62,497.63,960.81,498.71,953,500Z" transform="translate(-906.99 -487.63)"/><path class="cls-66" d="M917,535.5h.5c-.16.34-.33.67-.5,1h0Z" transform="translate(-906.99 -487.63)"/><path class="cls-66" d="M916.49,537l.5-.5h0l-.49.51Z" transform="translate(-906.99 -487.63)"/><path class="cls-76" d="M990,574l-9,3.5c-5.33-2.17-9.93.66-14.71,2.16a10,10,0,0,1-5.15.3c-9.45-2.05-18.77-4.53-27.64-8.46v-1c.79.22,1.6.39,2.36.68,11.66,4.51,23.37,8.62,36.14,4.82h0l.5.5L974,576c3-1.71,6.12,1,9.29-.36C985.34,574.74,987.57,573.73,990,574Z" transform="translate(-906.99 -487.63)"/><path class="cls-77" d="M914,540.49l2-1c1.5,2.69,0,5.8,1.75,8.74,2.25,3.84,4.77,7.59,6.63,11.64,2.07,4.55,5.12,7.66,10.12,8.62l.5.5-1,.5h-2c-4.89-.78-7.11-4.77-9.29-8.36a148.52,148.52,0,0,1-7.46-14.87,6.47,6.47,0,0,1,0-3.65C915.52,541.36,915.31,540.68,914,540.49Z" transform="translate(-906.99 -487.63)"/><path class="cls-78" d="M932,569.5h2c.74.33,1.48.69,2.24,1,7.69,3.12,15.9,4.22,23.93,6,3.72.84,7.06,1.49,9.79-2.07.56-.72,1.69-.84,2,.56v1c-12.77,3.8-24.48-.31-36.14-4.82-.76-.29-1.57-.46-2.36-.68Z" transform="translate(-906.99 -487.63)"/><path class="cls-79" d="M920.5,537.5V536c1-1.11,2,0,3,0,1.93,2.44-.42,5.12.53,7.77,1.46,4.08,5.2,6.45,7,10.23a7.2,7.2,0,0,0,3.5,5.5c.42,1.77.69,3.68,3.11,3.78,2.21.1,3.95,1.42,5.89,2.22A3.15,3.15,0,0,0,941,567h-1c-5.79-1-10.26-3.78-12.24-9.58a15.14,15.14,0,0,0-3-5.68A15.52,15.52,0,0,1,920.5,537.5Z" transform="translate(-906.99 -487.63)"/><path class="cls-80" d="M920.5,537.5a15.52,15.52,0,0,0,4.29,14.24,15.14,15.14,0,0,1,3,5.68c2,5.8,6.45,8.57,12.24,9.58.37,1.27,1.86.67,2.5,1.5-3,.22-5.67-1-8.5-1.5-2.7-.69-5.19-1.67-6.49-4.45-3.58-7.68-9.44-14.44-9.51-23.55Z" transform="translate(-906.99 -487.63)"/><path class="cls-81" d="M918,539c.07,9.11,5.93,15.87,9.51,23.55,1.3,2.78,3.79,3.76,6.49,4.45l.5,1.5c-5-1-8-4.07-10.12-8.62-1.86-4-4.38-7.8-6.63-11.64-1.73-2.94-.25-6-1.75-8.74C916.45,538.45,917.17,538.5,918,539Z" transform="translate(-906.99 -487.63)"/><path class="cls-82" d="M923.5,536c-1,0-2-1.11-3,0-1.37.2-2.1,2.89-4,1l.49-.51.5-1h0l.5-.5h.5l2-1.5,2.5-1,.5-.5h0l1-.5.5.5v.5c-1.59.18-1.92,1.11-1.5,2.5Z" transform="translate(-906.99 -487.63)"/><path class="cls-83" d="M972,575c-.35-1.4-1.48-1.28-2-.56-2.73,3.56-6.07,2.91-9.79,2.07-8-1.8-16.24-2.9-23.93-6-.76-.3-1.5-.66-2.24-1l1-.5c4.31.83,8.25,3.24,12.46,3.82,8.11,1.13,16.35,4.52,24.54.18h3q.75.93,1.5,0h0c4.38,1.08,8.65-.85,13-.5,1.17.18,2.44-.44,3.5.5l-3,1c-2.43-.27-4.66.74-6.7,1.64-3.17,1.39-6.29-1.35-9.29.36C974.05,574.24,973.14,574.39,972,575Z" transform="translate(-906.99 -487.63)"/><path class="cls-84" d="M989.5,572.5c-4.35-.35-8.62,1.58-13,.5a20.78,20.78,0,0,1,7.5-2.5l4-.5a2.84,2.84,0,0,0,2.19-.91c4.51-3.82,7.53-8.81,10.81-13.59l.5-.5,1.5-5,.5-.5V549l.5-1h0c.84-1.16,1.19-2.81,3-3h0c-1.12,3.09-2.19,6.2-3.36,9.27A39.1,39.1,0,0,1,989.5,572.5Z" transform="translate(-906.99 -487.63)"/><path class="cls-85" d="M964.5,500c7.38.67,14.81,1.14,21,6.08.76.61,2,.63,3,.92h0l.5.5c3.86,3.39,8.16,6.38,10.48,11.2.85,1.77,1.68,3.53,2.52,5.3l-4-6c-3.81-3.92-7.06-8.51-12.5-10.5h0c-1.7-1-3.31-2.62-5.13-2.9-2.5-.39-4.33-4.06-7.37-1.6h-.5a24.81,24.81,0,0,0-11.27-1.64c-4.75.5-9.49,1.09-14.23,1.64C952.69,501.17,958.65,500.88,964.5,500Z" transform="translate(-906.99 -487.63)"/><path class="cls-86" d="M998,518l4,6c1.85,3.26,3.46,6.58,3,10.5,1.31,4.62,0,9-1,13.5h0l-.5,1v.5l-.5.5-1.5,5-.5.5c-3.28,4.78-6.3,9.77-10.81,13.59A2.84,2.84,0,0,1,988,570c2-1.83,4.49-3.25,5.5-6,4.79-5.85,9.42-11.87,10.35-19.65.47-4,1.24-7.81-.4-12.11C1001.63,527.51,999.58,522.83,998,518Z" transform="translate(-906.99 -487.63)"/><path class="cls-87" d="M1004,548c1-4.45,2.31-8.88,1-13.5,3.9,2.89,1.2,7,2,10.5C1005.19,545.19,1004.84,546.84,1004,548Z" transform="translate(-906.99 -487.63)"/><path class="cls-73" d="M989,507.5l-.5-.5Z" transform="translate(-906.99 -487.63)"/><path class="cls-88" d="M964.5,500c-5.85.88-11.81,1.17-17.5,3h0a25.68,25.68,0,0,0-12.5,7l-.5.5h-.5l-.5.5h0l-.5.5a38.72,38.72,0,0,0-12,21.5h0l-1,.5c.93-16.65,16.63-30.28,32-33,3.39.55,6.64-.43,9.94-.88C962.47,499.48,963.57,499.15,964.5,500Z" transform="translate(-906.99 -487.63)"/><path class="cls-89" d="M919.5,533.5l1-.5v.5l-2,1.5v-.5Z" transform="translate(-906.99 -487.63)"/><path class="cls-66" d="M918.5,534.5v.5H918Z" transform="translate(-906.99 -487.63)"/><path class="cls-66" d="M918,535l-.5.5Z" transform="translate(-906.99 -487.63)"/><path class="cls-90" d="M972,575c1.14-.61,2-.76,2,1l-1.51.5-.5-.5h0Z" transform="translate(-906.99 -487.63)"/><path class="cls-83" d="M972,576l.5.5Z" transform="translate(-906.99 -487.63)"/><path class="cls-91" d="M972,573c-8.19,4.34-16.43,1-24.54-.18-4.21-.58-8.15-3-12.46-3.82l-.5-.5L934,567c2.83.53,5.54,1.72,8.5,1.5h1l1,.5c7.32,2.81,14.68,5.39,22.75,4C968.81,572.75,970.42,571.82,972,573Z" transform="translate(-906.99 -487.63)"/><path class="cls-92" d="M934.5,559.5A7.2,7.2,0,0,1,931,554c.13-2.79-.78-5.37-1.5-8,2.3,2.59,5.36,4.83,6.72,7.84,2.4,5.31,6.39,8,11.54,9.68,8,2.7,16.56,1.85,24.74,3.48-.75.79-1.73.53-2.6.48-4.88-.29-10,.12-14.57-1.16C948.31,564.38,940.21,565.46,934.5,559.5Z" transform="translate(-906.99 -487.63)"/><path class="cls-93" d="M941,567a3.15,3.15,0,0,1,2.5-1.5c11.69,2.66,23.44,4.71,35.5,3l1,2c-3.89.68-7.83.26-11.77.8a28.58,28.58,0,0,1-13-1C950.63,568.73,946,567.1,941,567Z" transform="translate(-906.99 -487.63)"/><path class="cls-94" d="M979,568.5c-12.06,1.71-23.81-.34-35.5-3-1.94-.8-3.68-2.12-5.89-2.22-2.42-.1-2.69-2-3.11-3.78,5.71,6,13.81,4.88,20.83,6.82,4.61,1.28,9.69.87,14.57,1.16.87,0,1.85.31,2.6-.48H986c-.81,1.32-2.52.57-3.5,1.5Z" transform="translate(-906.99 -487.63)"/><path class="cls-95" d="M941,567c5,.1,9.63,1.73,14.21,3.25a28.58,28.58,0,0,0,13,1c3.94-.54,7.88-.12,11.77-.8,1.33.44,2.67-1.22,4,0a20.78,20.78,0,0,0-7.5,2.5H972c-1.58-1.18-3.19-.25-4.75,0-8.07,1.38-15.43-1.2-22.75-4l-1-.5h-1c-.64-.83-2.13-.23-2.5-1.5Z" transform="translate(-906.99 -487.63)"/><path class="cls-96" d="M929.5,546c.72,2.63,1.63,5.21,1.5,8-1.77-3.78-5.51-6.15-7-10.23-.95-2.65,1.4-5.33-.53-7.77v-1c1.67.31,3.34-1.34,5,0C926.86,538.85,926.57,542.57,929.5,546Z" transform="translate(-906.99 -487.63)"/><path class="cls-97" d="M925,532l-.5-.5L929,521c5.93-8.26,13.46-14.2,23.59-16.47A43.8,43.8,0,0,1,984,509c-3.61.28-6.36-2.89-10-2.5-3.54-.24-6.84-2.14-10.5-1.5-2.55.17-5.1.37-7.66.49-11,.55-24.26,10.34-27.8,20.73-.69,2-.82,4.23-2.54,5.78H925Z" transform="translate(-906.99 -487.63)"/><path class="cls-98" d="M920.5,533.5V533h0c3.25-.55,1.44-3.41,2.14-5.08A59.4,59.4,0,0,1,933,511.5l1.5-1h0l1-.5,11.5-7h0c4.74-.55,9.48-1.14,14.23-1.64A24.81,24.81,0,0,1,972.5,503c-6.83-1-13.67-.45-20.5,0l-.5.5H951l-1,.5h-.5l-1,.5c-3.73.87-6.81,3-10,5l-.5.5a3.13,3.13,0,0,0-2.5,1.5h0a12.15,12.15,0,0,0-2,1.31c-5.45,5.29-9.2,11.47-10,19.19h0l-.5.5Z" transform="translate(-906.99 -487.63)"/><path class="cls-99" d="M923.5,532c.77-7.72,4.52-13.9,10-19.19a12.15,12.15,0,0,1,2-1.31c-2.55,2.91-5.44,5.58-6.5,9.5l-4.5,10.5Z" transform="translate(-906.99 -487.63)"/><path class="cls-100" d="M928.5,535c-1.66-1.34-3.33.31-5,0-.42-1.39-.09-2.32,1.5-2.5l.5-.5h2c-.23.79-1.86.53-1.4,1.56.17.39,1.47.37,2.25.35a20,20,0,0,0,2.65-.41v.5C930.49,535.14,929.47,535,928.5,535Z" transform="translate(-906.99 -487.63)"/><path class="cls-99" d="M923,532.5l.5-.5Z" transform="translate(-906.99 -487.63)"/><path class="cls-101" d="M925.5,532l-.5.5V532Z" transform="translate(-906.99 -487.63)"/><path class="cls-84" d="M975,573h1.5Q975.75,573.93,975,573Z" transform="translate(-906.99 -487.63)"/><path class="cls-102" d="M984,570.5c-1.33-1.22-2.67.44-4,0l-1-2h3.5a11.39,11.39,0,0,0,5.27-1c3.35-1.35,3.53-5.58,6.73-7l-1,3.5c-1,2.75-3.48,4.17-5.5,6Z" transform="translate(-906.99 -487.63)"/><path class="cls-87" d="M1003.5,549l.5-1Z" transform="translate(-906.99 -487.63)"/><path class="cls-87" d="M1003,550l.5-.5Z" transform="translate(-906.99 -487.63)"/><path class="cls-87" d="M1001,555.5l.5-.5Z" transform="translate(-906.99 -487.63)"/><path class="cls-103" d="M994.5,560.5c-3.2,1.37-3.38,5.6-6.73,7a11.39,11.39,0,0,1-5.27,1c1-.93,2.69-.18,3.5-1.5h.5l1-.5h0l.5-.5h0l.5-.5h0c1.65-1.53,3.3-3,3.5-5.5a53.32,53.32,0,0,1,4.24-5.1c4.69-5.77,6-12.64,5.76-19.9,0-1.52.33-3.16-1.5-4-1.52-4.06-2.56-8.32-5-12l-.5-.5h0a11.76,11.76,0,0,0-5-4.5h0l-.5-.5h0l-2-2h0c-.4-1.91-1.83-2.38-3.5-2.5h0a43.8,43.8,0,0,0-31.41-4.47C942.46,506.8,934.93,512.74,929,521c1.06-3.92,4-6.59,6.5-9.5h0A3.13,3.13,0,0,0,938,510l.5-.5c3.19-2,6.27-4.13,10-5l1-.5h.5l1-.5h.5l.5-.5c6.83-.45,13.67-1,20.5,0h.5c4.1,1.67,8,3.92,12.5,4.5h0a19,19,0,0,1,1.56,1.55c4,4.87,10.34,7.64,12.36,14.23a82.74,82.74,0,0,0,3.35,9.61c2.07,4.65.59,9-.46,13.49-1.21,5.19-4.26,9.41-7.31,13.62Z" transform="translate(-906.99 -487.63)"/><path class="cls-98" d="M995,560c3-4.21,6.1-8.43,7.31-13.62,1.05-4.46,2.53-8.84.46-13.49a82.74,82.74,0,0,1-3.35-9.61c-2-6.59-8.39-9.36-12.36-14.23a19,19,0,0,0-1.56-1.55c5.44,2,8.69,6.58,12.5,10.5,1.58,4.83,3.63,9.51,5.45,14.24,1.64,4.3.87,8.15.4,12.11-.93,7.78-5.56,13.8-10.35,19.65.33-1.17.67-2.33,1-3.5Z" transform="translate(-906.99 -487.63)"/><path class="cls-98" d="M985.5,507.5c-4.5-.58-8.4-2.83-12.5-4.5,3-2.46,4.87,1.21,7.37,1.6C982.19,504.88,983.8,506.48,985.5,507.5Z" transform="translate(-906.99 -487.63)"/><path class="cls-89" d="M933,511.5a59.4,59.4,0,0,0-10.36,16.42c-.7,1.67,1.11,4.53-2.14,5.08a38.72,38.72,0,0,1,12-21.5h.5Z" transform="translate(-906.99 -487.63)"/><path class="cls-85" d="M947,503l-11.5,7h-1A25.68,25.68,0,0,1,947,503Z" transform="translate(-906.99 -487.63)"/><path class="cls-89" d="M934.5,510.5l-1.5,1h0V511h0l.5-.5h1Z" transform="translate(-906.99 -487.63)"/><path class="cls-85" d="M934.5,510.5H934l.5-.5h0v.5Z" transform="translate(-906.99 -487.63)"/><path class="cls-85" d="M933.5,510.5l-.5.5Z" transform="translate(-906.99 -487.63)"/><path class="cls-85" d="M933,511v.5h-.5Z" transform="translate(-906.99 -487.63)"/><path class="cls-80" d="M943.5,568.5l1,.5Z" transform="translate(-906.99 -487.63)"/><path class="cls-104" d="M928.5,535c1,0,2,.14,2.5-1,.13.36.48.84.36,1.08-2.91,5.62.62,8.81,4.47,11.81,2.8,2.17,5.6,4.55,6.64,7.88,1.1,3.52,3.7,4.78,6.51,5.89a34.8,34.8,0,0,0,9.26,2.68c11.11,1.13,21.84,1.25,28.76-9.84a19.64,19.64,0,0,0,2.24-1c7.12-4.25,8.93-10.75,7.76-18.49l2.5-1.5c-.66,1.33-.15,2.67,0,4h0a1.7,1.7,0,0,0,0,2.5v1.5l-.5.5c-1,4.78-2.51,9-6.26,12.79-5.55,5.57-9.69,12.73-18.74,13.21h-1.5c-8.18-1.63-16.7-.78-24.74-3.48-5.15-1.72-9.14-4.37-11.54-9.68-1.36-3-4.42-5.25-6.72-7.84C926.57,542.57,926.86,538.85,928.5,535Z" transform="translate(-906.99 -487.63)"/><path class="cls-105" d="M999.5,540.5v-4h0l2.5-1.5c.24,7.26-1.07,14.13-5.76,19.9A53.32,53.32,0,0,0,992,560a11.18,11.18,0,0,0-3.5,5.5h0l-.5.5h0l-.5.5h0l-1,.5H974c9-.48,13.19-7.64,18.74-13.21,3.75-3.76,5.24-8,6.26-12.79Z" transform="translate(-906.99 -487.63)"/><path class="cls-106" d="M927.5,532h-1c.8-1.43,1.67-2.83,2.39-4.3,4.61-9.36,11-16.67,21.39-20,4.37-1.39,8.84-1.7,13.22-2.71,3.66-.64,7,1.26,10.5,1.5a50.89,50.89,0,0,0,5.3,2.47,26.82,26.82,0,0,1,12.17,8.59c3.07,3.64,3.91,8.22,6.53,11.94-1.37,0-2-1.86-3.5-1.5l-1-2c.52-.3,1.21-.74.74-1.32-3.47-4.21-6.08-9.81-11-12-15-6.6-30.21-9.3-43.94,3.4-4.49,4.15-8.47,8.65-9.8,14.89H929l-.5.49H928l-.5.5Z" transform="translate(-906.99 -487.63)"/><path class="cls-101" d="M963.5,505c-4.38,1-8.85,1.32-13.22,2.71-10.41,3.32-16.78,10.63-21.39,20-.72,1.47-1.59,2.87-2.39,4.3h-1c1.72-1.55,1.85-3.77,2.54-5.78,3.54-10.39,16.76-20.18,27.8-20.73C958.4,505.37,961,505.17,963.5,505Z" transform="translate(-906.99 -487.63)"/><path class="cls-107" d="M998,529.5c-2.62-3.72-3.46-8.3-6.53-11.94A26.82,26.82,0,0,0,979.3,509a50.89,50.89,0,0,1-5.3-2.47c3.64-.39,6.39,2.78,10,2.5h0l3.5,2.5h0a2.1,2.1,0,0,0,2,2h0l.5.5h0c1.42,1.77,2.86,3.53,5,4.5h0l.5.5c2.44,3.68,3.48,7.94,5,12h-.5Z" transform="translate(-906.99 -487.63)"/><path class="cls-99" d="M938,510a3.13,3.13,0,0,1-2.5,1.5A3.13,3.13,0,0,1,938,510Z" transform="translate(-906.99 -487.63)"/><path class="cls-99" d="M951,503.5l-1,.5Z" transform="translate(-906.99 -487.63)"/><path class="cls-99" d="M949.5,504l-1,.5Z" transform="translate(-906.99 -487.63)"/><path class="cls-89" d="M934.5,510.5V510h1Z" transform="translate(-906.99 -487.63)"/><path class="cls-99" d="M952,503l-.5.5Z" transform="translate(-906.99 -487.63)"/><path class="cls-99" d="M938.5,509.5l-.5.5Z" transform="translate(-906.99 -487.63)"/><path class="cls-108" d="M987,553.5c-6.92,11.09-17.65,11-28.76,9.84a34.8,34.8,0,0,1-9.26-2.68c-2.81-1.11-5.41-2.37-6.51-5.89-1-3.33-3.84-5.71-6.64-7.88-3.85-3-7.38-6.19-4.47-11.81.12-.24-.23-.72-.36-1.08v-.5h0a1.49,1.49,0,0,1,1.43,2.12c-1.85,4.56,1.4,7.14,4.21,9,5,3.21,9.87,6.12,12,12,.21.57,1.09,1,1.74,1.29,6.58,3,13.56,2.62,20.5,2.33,2.9-.13,6.59-.1,7.94-2.68,2-3.93,6.17-4.68,9-7.37,1.88-1.81,4.22-3.1,5.21-5.71C993.32,549,989.53,550.85,987,553.5Z" transform="translate(-906.99 -487.63)"/><path class="cls-109" d="M928,531.5h1v0c-.88,2.56,1.3,1,2,1.49,0,.16,0,.33,0,.49h0a20,20,0,0,1-2.65.41c-.78,0-2.08,0-2.25-.35-.46-1,1.17-.77,1.4-1.56h0Z" transform="translate(-906.99 -487.63)"/><path class="cls-110" d="M1000,531h.5c1.83.84,1.49,2.48,1.5,4l-2.5,1.5c-.15-1.33-.66-2.67,0-4Z" transform="translate(-906.99 -487.63)"/><path class="cls-94" d="M988.5,565.5A11.18,11.18,0,0,1,992,560C991.8,562.45,990.15,564,988.5,565.5Z" transform="translate(-906.99 -487.63)"/><path class="cls-97" d="M995,518.5c-2.14-1-3.58-2.73-5-4.5A11.76,11.76,0,0,1,995,518.5Z" transform="translate(-906.99 -487.63)"/><path class="cls-97" d="M987.5,511.5,984,509C985.67,509.12,987.1,509.59,987.5,511.5Z" transform="translate(-906.99 -487.63)"/><path class="cls-97" d="M989.5,513.5a2.1,2.1,0,0,1-2-2Z" transform="translate(-906.99 -487.63)"/><path class="cls-94" d="M986.5,567l1-.5Z" transform="translate(-906.99 -487.63)"/><path class="cls-97" d="M990,514l-.5-.5Z" transform="translate(-906.99 -487.63)"/><path class="cls-97" d="M995.5,519l-.5-.5Z" transform="translate(-906.99 -487.63)"/><path class="cls-102" d="M995,560l-.5.5Z" transform="translate(-906.99 -487.63)"/><path class="cls-94" d="M988,566l.5-.5Z" transform="translate(-906.99 -487.63)"/><path class="cls-94" d="M987.5,566.5l.5-.5Z" transform="translate(-906.99 -487.63)"/><path class="cls-111" d="M987,553.5c2.53-2.65,6.32-4.46,6-9a19.94,19.94,0,0,0,.94-8.79,2.76,2.76,0,0,1,1.56-3.21L997,534c1.17,7.74-.64,14.24-7.76,18.49A19.64,19.64,0,0,1,987,553.5Z" transform="translate(-906.99 -487.63)"/><path class="cls-112" d="M997,534l-1.5-1.5.5-1.5c1.3-1.9-1.53-1.73-1.51-3h0c1.54-.36,2.13,1.48,3.5,1.5l2,1.5-.5,1.5Z" transform="translate(-906.99 -487.63)"/><path class="cls-110" d="M999.5,536.5V539A1.7,1.7,0,0,1,999.5,536.5Z" transform="translate(-906.99 -487.63)"/><path class="cls-110" d="M999.5,540.5l-.5.5Z" transform="translate(-906.99 -487.63)"/><path class="cls-113" d="M929.5,531c1.33-6.24,5.31-10.74,9.8-14.89,13.73-12.7,28.9-10,43.94-3.4,4.92,2.16,7.53,7.76,11,12,.47.58-.22,1-.74,1.32H993a48.2,48.2,0,0,0-3.54-5c-3.6-3.94-6.62-8.83-12.23-10.1-14-3.16-27.89-4.79-38.77,7.57-3,3.45-7,6.67-7,12H931l-.49.49Z" transform="translate(-906.99 -487.63)"/><path class="cls-112" d="M993,526h.5l1,2h0l-2-.51-.49,0-.51-.49.5-1Z" transform="translate(-906.99 -487.63)"/><path class="cls-109" d="M929.5,531h1v.49l-1.49,0V531Z" transform="translate(-906.99 -487.63)"/><path class="cls-113" d="M929,531v.5h-.5C928.67,531.33,928.84,531.17,929,531Z" transform="translate(-906.99 -487.63)"/><path class="cls-100" d="M928,531.5l-.5.5Z" transform="translate(-906.99 -487.63)"/><path class="cls-114" d="M996,531l-.5,1.5a2.76,2.76,0,0,0-1.56,3.21,19.94,19.94,0,0,1-.94,8.79c-1,2.61-3.33,3.9-5.21,5.71-2.79,2.69-6.92,3.44-9,7.37-1.35,2.58-5,2.55-7.94,2.68-6.94.29-13.92.62-20.5-2.33-.65-.29-1.53-.72-1.74-1.29-2.14-5.93-7.06-8.84-12-12-2.81-1.83-6.06-4.41-4.21-9A1.49,1.49,0,0,0,931,533.5c0-.16,0-.33,0-.49h2c1.31,0,3.28.42,2.31,1.8-2.91,4.16.52,5.6,2.69,7.7a3.41,3.41,0,0,0,3.5,2.5h0l.5.5h.5a28.46,28.46,0,0,0,11.13,11.12c9.63,4.9,22.83,1.62,29.87-6.62,6.06-3.67,9.26-8.57,7.08-15.94A3,3,0,0,1,991,531h5Z" transform="translate(-906.99 -487.63)"/><path class="cls-115" d="M929,531.52l1.49,0,.5-.48v0h1c1.08,1.37-.82,1.26-1,2h0C930.31,532.56,928.13,534.08,929,531.52Z" transform="translate(-906.99 -487.63)"/><path class="cls-116" d="M996,531h-4l-1-.5h0l-.5-.49-.5-.5,1.5,0H993l.65-.41-.65-.58h0l-.5-1,2,.51C994.47,529.27,997.3,529.1,996,531Z" transform="translate(-906.99 -487.63)"/><path class="cls-117" d="M993,526h-1c-7.77-10.41-17.13-16.64-31.15-16.33-11.5.26-23.79,10.52-27.35,20.33h0l-.5.49-1,0h-.5c0-5.35,3.92-8.57,7-12,10.88-12.36,24.79-10.73,38.77-7.57,5.61,1.27,8.63,6.16,12.23,10.1A48.2,48.2,0,0,1,993,526Z" transform="translate(-906.99 -487.63)"/><path class="cls-118" d="M931.5,530.5h.5V531h-1v-.49Z" transform="translate(-906.99 -487.63)"/><path class="cls-117" d="M931,530.5V531h-.49Z" transform="translate(-906.99 -487.63)"/><path class="cls-118" d="M933.5,530c3.56-9.81,15.85-20.07,27.35-20.33,14-.31,23.38,5.92,31.15,16.33l-.5,1-.5,0-1,0-4-2c-.28-3.45-3.82-2.65-5.58-4.23-3.95-3.53-8.22-6.64-13.89-6.77-12.48-.29-21.64,5.51-28.53,15.5Z" transform="translate(-906.99 -487.63)"/><path class="cls-119" d="M992.5,527.5l.5,1-1.5-1,.51,0Z" transform="translate(-906.99 -487.63)"/><path class="cls-120" d="M992,527.48l-.51,0-.49,0c0-.16,0-.32,0-.48l.5,0Z" transform="translate(-906.99 -487.63)"/><path class="cls-121" d="M930.5,531h.5l-.5.48Z" transform="translate(-906.99 -487.63)"/><path class="cls-122" d="M990,529.51l.5.5.5.49h0v.5a3,3,0,0,0-.42,3.06c2.18,7.37-1,12.27-7.08,15.94-5.39,1.83-10.86,3-16.61,2.51-1.37-.12-2.54.57-3.79,1-4,1.5-7.53,1.4-11.26-1.45-3-2.29-5.17-5.93-9.34-6.6H942l-.5-.5h0a5.93,5.93,0,0,0-3.5-2.5c-2.17-2.1-5.6-3.54-2.69-7.7,1-1.38-1-1.81-2.31-1.8,2.22-1.82,4.65-.59,7-.5l-1.5,2.5a8.89,8.89,0,0,0,2.13,5.2c5.87,5.81,12.08,11.2,21,11.06,4.94-.07,10,2,14.83-.76,3.8-2,8.25-3.36,10.66-7.07,3.59-5.51,3.4-11-2.16-15.43l1.51.51,2,.49Z" transform="translate(-906.99 -487.63)"/><path class="cls-123" d="M942.5,545.5c4.17.67,6.33,4.31,9.34,6.6,3.73,2.85,7.3,2.95,11.26,1.45,1.25-.47,2.42-1.16,3.79-1,5.75.53,11.22-.68,16.61-2.51-7,8.24-20.24,11.52-29.87,6.62A28.46,28.46,0,0,1,942.5,545.5Z" transform="translate(-906.99 -487.63)"/><path class="cls-121" d="M940,532.5c-2.35-.09-4.78-1.32-7,.5h-2c.17-.74,2.07-.63,1-2v-.49l1,0,.5-.49h0l4.5-.5h2c1,.12,1.79.56,1.79,1.57S941.06,532.59,940,532.5Z" transform="translate(-906.99 -487.63)"/><path class="cls-123" d="M938,542.5a5.93,5.93,0,0,1,3.5,2.5A3.41,3.41,0,0,1,938,542.5Z" transform="translate(-906.99 -487.63)"/><path class="cls-123" d="M991,531v-.5l1,.5Z" transform="translate(-906.99 -487.63)"/><path class="cls-123" d="M941.5,545l.5.5Z" transform="translate(-906.99 -487.63)"/><path class="cls-119" d="M990,529.51l-1.5-.51-1.5-.5c-.3-.45-.91-1-.83-1.35.18-.88.89-.25,1.39-.22.81,0,1.63,0,2.44.06l1,0c0,.16,0,.32,0,.48-2.48,1.33.34,1.33.49,2Z" transform="translate(-906.99 -487.63)"/><path class="cls-124" d="M991.5,529.49c-.15-.67-3-.67-.49-2l.49,0,1.5,1h0v1Z" transform="translate(-906.99 -487.63)"/><path class="cls-119" d="M993,529.49v-1l.65.58Z" transform="translate(-906.99 -487.63)"/><path class="cls-123" d="M991,530.5l-.5-.49Z" transform="translate(-906.99 -487.63)"/><path class="cls-118" d="M933.5,530l-.5.49Z" transform="translate(-906.99 -487.63)"/><path class="cls-125" d="M940,529.5h-2c6.89-10,16-15.79,28.53-15.5,5.67.13,9.94,3.24,13.89,6.77,1.76,1.58,5.3.78,5.58,4.23h-1c-5.58-3.58-11.9-5-18.24-6.58-3.92-1-6.91,2.07-10.65,1.64-3.46-.41-6.09,2.14-9.16,3.2a1.52,1.52,0,0,0-.87,2.08c.87,2.29-.33,3-2.29,3.31C942.52,528.86,941.26,529.21,940,529.5Z" transform="translate(-906.99 -487.63)"/><path class="cls-120" d="M985,525h1l4,2c-.81,0-1.63,0-2.44-.06-.5,0-1.21-.66-1.39.22-.08.38.53.9.83,1.35h-.49L985,528l-.5-.5H984l-.5-.5H983c-.38-.67-2.06-1.34,0-2Z" transform="translate(-906.99 -487.63)"/><path class="cls-126" d="M984,527.5h.5c-2.54.71-2.14,1.78-.54,3.27,1.07,1,2,2.16,1.72,3.87-1,6.29-2,12.55-8.93,15.44-.12,0-.17.28-.25.42-4.81,2.77-9.89.69-14.83.76-9,.14-15.17-5.25-21-11.06a8.89,8.89,0,0,1-2.13-5.2c.65.48,1.72.83,1.89,1.44,1.24,4.43,4.4,6,8.61,6.06,2.6-.15,3.66,2.55,6,3.12,4.21,1,8.26-.23,12.39-.18,5.23.08,10.36.69,14.18-5,3-4.44,3.89-6.58.18-10.45-.62-.65-1.53-1.25-1.17-2.3.41-1.2,1.56-.57,2.39-.73h.5Z" transform="translate(-906.99 -487.63)"/><path class="cls-127" d="M949,542.5c-4.21-.1-7.37-1.63-8.61-6.06-.17-.61-1.24-1-1.89-1.44l1.5-2.5c1.06.09,1.8-.4,1.79-1.43s-.83-1.45-1.79-1.57c1.26-.29,2.52-.64,3.79-.85,2-.31,3.16-1,2.29-3.31a1.52,1.52,0,0,1,.87-2.08c3.07-1.06,5.7-3.61,9.16-3.2,3.74.43,6.73-2.6,10.65-1.64,6.34,1.55,12.66,3,18.24,6.58h-2c-4-1.49-7.86-3.54-12-4.36-7.1-1.4-14,1-20.89,2.41-.69.14-1.83.49-1.49,1.33,1.89,4.73-2.52,3.84-4.47,5.08-.51.32-1.5.19-1.42,1a2,2,0,0,0,1.19,1.37c3,.45,1.85,2,1.12,3.55-.35.76-1.83,1.79-.25,2.41C947.12,538.7,947.58,541,949,542.5Z" transform="translate(-906.99 -487.63)"/><path class="cls-128" d="M976.5,550.5c.08-.14.13-.37.25-.42,6.89-2.89,7.93-9.15,8.93-15.44.28-1.71-.65-2.88-1.72-3.87-1.6-1.49-2-2.56.54-3.27l.5.5c5.56,4.47,5.75,9.92,2.16,15.43C984.75,547.14,980.3,548.49,976.5,550.5Z" transform="translate(-906.99 -487.63)"/><path class="cls-128" d="M986.51,528.51H987l1.5.5Z" transform="translate(-906.99 -487.63)"/><path class="cls-129" d="M949,542.5c-1.42-1.53-1.88-3.8-4.18-4.7-1.58-.62-.1-1.65.25-2.41.73-1.56,1.85-3.1-1.12-3.55a2,2,0,0,1-1.19-1.37c-.08-.82.91-.69,1.42-1,2-1.24,6.36-.35,4.47-5.08-.34-.84.8-1.19,1.49-1.33,6.9-1.37,13.79-3.81,20.89-2.41,4.11.82,8,2.87,12,4.36-2.06.66-.38,1.33,0,2-.83.16-2-.47-2.39.73-.36,1,.55,1.65,1.17,2.3,3.71,3.87,2.83,6-.18,10.45-3.82,5.65-9,5-14.18,5-4.13-.05-8.18,1.19-12.39.18C952.66,545.05,951.6,542.35,949,542.5Zm19.08.52c3.28.35,7.68.6,10.37-4.5.69-1.31,1.38-2.24.54-3.46-2-3-4.22-5.9-7.44-7.8-.49-.28-1.31-.75-1.27-1,.58-4.09-2.44-3-4.54-3.21-2.46-.21-5,.23-7.43-.39a3.4,3.4,0,0,0-3.35,1.25c-.78,1,.1,1.7.58,2.42.88,1.31.11,2.05-.92,2.58a7.75,7.75,0,0,0-4.3,7.49c.28,2.75,2.33,5.23,6.07,5.87A77.52,77.52,0,0,0,968.08,543Z" transform="translate(-906.99 -487.63)"/><path class="cls-129" d="M984,527.5l-.5-.5Z" transform="translate(-906.99 -487.63)"/><path class="cls-130" d="M968.08,543a77.52,77.52,0,0,1-11.69-.79c-3.74-.64-5.79-3.12-6.07-5.87a7.75,7.75,0,0,1,4.3-7.49c1-.53,1.8-1.27.92-2.58-.48-.72-1.36-1.45-.58-2.42a3.4,3.4,0,0,1,3.35-1.25c2.48.62,5,.18,7.43.39,2.1.18,5.12-.88,4.54,3.21,0,.29.78.76,1.27,1,3.22,1.9,5.39,4.81,7.44,7.8.84,1.22.15,2.15-.54,3.46C975.76,543.62,971.36,543.37,968.08,543ZM965,527c1.57-.08,3-.22,3.16-1.34.25-1.51-1.46-1.42-2.35-1.57-2.2-.37-4.44-.44-6.67-.59-.71,0-1.39.18-1.5,1a1.1,1.1,0,0,0,.58.88C960.64,526,963.05,526.56,965,527Z" transform="translate(-906.99 -487.63)"/><path class="cls-131" d="M965,527c-2-.47-4.39-1-6.78-1.64a1.1,1.1,0,0,1-.58-.88c.11-.8.79-1,1.5-1,2.23.15,4.47.22,6.67.59.89.15,2.6.06,2.35,1.57C968,526.81,966.6,527,965,527Z" transform="translate(-906.99 -487.63)"/></svg>