<svg id="Layer_1" data-name="Layer 1" xmlns="http://www.w3.org/2000/svg" viewBox="0 0 109.41 108.75"><defs><style>.cls-1{fill:#714d2e;}.cls-2{fill:#7c522c;}.cls-3{fill:#624533;}.cls-4{fill:#43352f;}.cls-5{fill:#583e2f;}.cls-6{fill:#6b4b2f;}.cls-7{fill:#63432c;}.cls-8{fill:#4b382c;}.cls-9{fill:#634a34;}.cls-10{fill:#684732;}.cls-11{fill:#6e4f33;}.cls-12{fill:#725133;}.cls-13{fill:#76543a;}.cls-14{fill:#7e634c;}.cls-15{fill:#574437;}.cls-16{fill:#8c623f;}.cls-17{fill:#6b5141;}.cls-18{fill:#332823;}.cls-19{fill:#7f5a2f;}.cls-20{fill:#49382d;}.cls-21{fill:#815e3e;}.cls-22{fill:#59422e;}.cls-23{fill:#543d2d;}.cls-24{fill:#5c483d;}.cls-25{fill:#705441;}.cls-26{fill:#725642;}.cls-27{fill:#7c5b3e;}.cls-28{fill:#593f32;}.cls-29{fill:#624738;}.cls-30{fill:#795c42;}.cls-31{fill:#79522e;}.cls-32{fill:#825833;}.cls-33{fill:#5f3f21;}.cls-34{fill:#815833;}.cls-35{fill:#855428;}.cls-36{fill:#84562d;}.cls-37{fill:#7d5129;}.cls-38{fill:#a76a2d;}.cls-39{fill:#9c6634;}.cls-40{fill:#975f26;}.cls-41{fill:#785336;}.cls-42{fill:#8b5722;}.cls-43{fill:#653e20;}.cls-44{fill:#94633c;}.cls-45{fill:#644839;}.cls-46{fill:#5b423a;}.cls-47{fill:#774a2a;}.cls-48{fill:#513a2e;}.cls-49{fill:#48372d;}.cls-50{fill:#7a502c;}.cls-51{fill:#794f2a;}.cls-52{fill:#5f4533;}.cls-53{fill:#734d31;}.cls-54{fill:#7b502d;}.cls-55{fill:#5b3f33;}.cls-56{fill:#533d34;}.cls-57{fill:#5f402c;}.cls-58{fill:#704e3a;}.cls-59{fill:#674938;}.cls-60{fill:#835325;}.cls-61{fill:#7f5832;}.cls-62{fill:#7e532d;}.cls-63{fill:#6c4a32;}.cls-64{fill:#926234;}.cls-65{fill:#4f3c2d;}.cls-66{fill:#563827;}.cls-67{fill:#7f563a;}.cls-68{fill:#72513e;}.cls-69{fill:#865b3b;}.cls-70{fill:#8f5c2b;}.cls-71{fill:#8e5c2e;}.cls-72{fill:#855932;}.cls-73{fill:#905f33;}.cls-74{fill:#aa6e33;}.cls-75{fill:#b17131;}.cls-76{fill:#a46e3d;}.cls-77{fill:#a06831;}.cls-78{fill:#87592d;}.cls-79{fill:#774512;}.cls-80{fill:#875b3d;}.cls-81{fill:#7b563c;}.cls-82{fill:#644837;}.cls-83{fill:#926031;}.cls-84{fill:#875b36;}.cls-85{fill:#925d2b;}.cls-86{fill:#7a5239;}.cls-87{fill:#885d39;}.cls-88{fill:#8b5c33;}.cls-89{fill:#6f4d32;}.cls-90{fill:#6e4d36;}.cls-91{fill:#815532;}.cls-92{fill:#5d4439;}.cls-93{fill:#7a5137;}.cls-94{fill:#a66a30;}.cls-95{fill:#9d6328;}.cls-96{fill:#714c2e;}.cls-97{fill:#9a6332;}.cls-98{fill:#a66b30;}.cls-99{fill:#7e5a3e;}.cls-100{fill:#865839;}.cls-101{fill:#75523e;}.cls-102{fill:#614530;}.cls-103{fill:#8a6042;}.cls-104{fill:#8f603c;}.cls-105{fill:#8c6039;}.cls-106{fill:#7a5539;}.cls-107{fill:#6d462b;}.cls-108{fill:#946440;}.cls-109{fill:#9a6435;}.cls-110{fill:#8d5f37;}.cls-111{fill:#9b6434;}.cls-112{fill:#be7a35;}.cls-113{fill:#b47536;}.cls-114{fill:#b7793d;}.cls-115{fill:#bc7c3d;}.cls-116{fill:#cf8539;}.cls-117{fill:#c07934;}.cls-118{fill:#a26d3f;}.cls-119{fill:#a7733d;}.cls-120{fill:#a36d3d;}.cls-121{fill:#98663c;}.cls-122{fill:#956336;}.cls-123{fill:#8c603f;}.cls-124{fill:#996840;}.cls-125{fill:#a16834;}.cls-126{fill:#b77835;}.cls-127{fill:#aa6e36;}.cls-128{fill:#9e683b;}.cls-129{fill:#ad7037;}.cls-130{fill:#93613c;}.cls-131{fill:#9b6b46;}.cls-132{fill:#976844;}.cls-133{fill:#a87141;}.cls-134{fill:#94653f;}.cls-135{fill:#9c6839;}.cls-136{fill:#a26a39;}.cls-137{fill:#9d6a38;}.cls-138{fill:#9e6b41;}.cls-139{fill:#9f6a3b;}.cls-140{fill:#8a5f3e;}.cls-141{fill:#7c4b22;}.cls-142{fill:#cd853d;}.cls-143{fill:#c7813b;}.cls-144{fill:#c68240;}.cls-145{fill:#b07742;}.cls-146{fill:#dc9143;}.cls-147{fill:#d68a42;}.cls-148{fill:#a06735;}.cls-149{fill:#a66c32;}.cls-150{fill:#d09158;}.cls-151{fill:#c7874d;}.cls-152{fill:#dd9448;}.cls-153{fill:#ad7441;}.cls-154{fill:#9b6741;}.cls-155{fill:#976435;}.cls-156{fill:#b67941;}.cls-157{fill:#a46b3b;}.cls-158{fill:#a66f49;}.cls-159{fill:#bd7c3d;}.cls-160{fill:#bc7a34;}.cls-161{fill:#b67639;}.cls-162{fill:#9f6f49;}.cls-163{fill:#a16e42;}.cls-164{fill:#9f6d48;}.cls-165{fill:#a47046;}.cls-166{fill:#876044;}.cls-167{fill:#8e674c;}.cls-168{fill:#81563a;}.cls-169{fill:#b47944;}.cls-170{fill:#b17848;}.cls-171{fill:#ac733f;}.cls-172{fill:#ad7446;}.cls-173{fill:#a16c43;}.cls-174{fill:#825d46;}.cls-175{fill:#976640;}.cls-176{fill:#73513c;}.cls-177{fill:#ab794d;}.cls-178{fill:#a76f3f;}.cls-179{fill:#db9446;}.cls-180{fill:#d18d4a;}.cls-181{fill:#bb7a40;}.cls-182{fill:#d48e44;}.cls-183{fill:#db8f36;}.cls-184{fill:#bf7d3f;}.cls-185{fill:#a36936;}.cls-186{fill:#b97c45;}.cls-187{fill:#ce8a49;}.cls-188{fill:#ce8d4d;}.cls-189{fill:#ca884c;}.cls-190{fill:#c88138;}.cls-191{fill:#d2883e;}.cls-192{fill:#ce8947;}.cls-193{fill:#c78142;}.cls-194{fill:#ab713d;}.cls-195{fill:#885f46;}.cls-196{fill:#8a6246;}.cls-197{fill:#b27842;}.cls-198{fill:#946748;}.cls-199{fill:#b27d4f;}.cls-200{fill:#825e46;}.cls-201{fill:#7a5334;}.cls-202{fill:#97643a;}.cls-203{fill:#a6724a;}.cls-204{fill:#7f593e;}.cls-205{fill:#95653f;}.cls-206{fill:#bc7f46;}.cls-207{fill:#ba7a40;}.cls-208{fill:#c28144;}.cls-209{fill:#7a563e;}.cls-210{fill:#875c40;}.cls-211{fill:#9f7250;}.cls-212{fill:#8a644c;}.cls-213{fill:#a8764b;}.cls-214{fill:#7f512b;}.cls-215{fill:#c4854d;}.cls-216{fill:#8e6144;}.cls-217{fill:#986948;}.cls-218{fill:#956533;}.cls-219{fill:#a26936;}.cls-220{fill:#ae7548;}.cls-221{fill:#97591b;}.cls-222{fill:#df9a5c;}.cls-223{fill:#bf7f45;}.cls-224{fill:#b3783b;}.cls-225{fill:#d3945a;}.cls-226{fill:#a46431;}.cls-227{fill:#cf8f5c;}.cls-228{fill:#b0784b;}.cls-229{fill:#a97545;}.cls-230{fill:#b37540;}.cls-231{fill:#c48752;}.cls-232{fill:#bb7f4e;}.cls-233{fill:#ae733d;}.cls-234{fill:#c38a56;}.cls-235{fill:#c98c52;}.cls-236{fill:#d5893d;}.cls-237{fill:#ce853b;}.cls-238{fill:#dc8f3f;}.cls-239{fill:#e19247;}.cls-240{fill:#c88546;}.cls-241{fill:#d08846;}.cls-242{fill:#be7733;}.cls-243{fill:#785848;}.cls-244{fill:#8f684f;}.cls-245{fill:#6a4c3e;}.cls-246{fill:#a26e44;}.cls-247{fill:#795c4c;}.cls-248{fill:#85603f;}.cls-249{fill:#a17758;}.cls-250{fill:#b78156;}.cls-251{fill:#745039;}.cls-252{fill:#926a4c;}.cls-253{fill:#a46e42;}.cls-254{fill:#6f544c;}.cls-255{fill:#b77c49;}.cls-256{fill:#7a594d;}.cls-257{fill:#d38c4a;}.cls-258{fill:#95694c;}.cls-259{fill:#966531;}.cls-260{fill:#a3662f;}.cls-261{fill:#a97f65;}.cls-262{fill:#d08948;}.cls-263{fill:#bb8153;}.cls-264{fill:#bb7f4c;}.cls-265{fill:#cf8d52;}.cls-266{fill:#aa7548;}.cls-267{fill:#b77844;}.cls-268{fill:#a66d3d;}.cls-269{fill:#945e30;}.cls-270{fill:#d2925a;}.cls-271{fill:#bd814d;}.cls-272{fill:#956544;}.cls-273{fill:#a77147;}.cls-274{fill:#e19446;}.cls-275{fill:#db9043;}.cls-276{fill:#da8e3b;}.cls-277{fill:#e39440;}.cls-278{fill:#d28843;}.cls-279{fill:#d58b41;}.cls-280{fill:#9e6e4d;}.cls-281{fill:#8d654c;}.cls-282{fill:#835f4b;}.cls-283{fill:#7d6158;}.cls-284{fill:#86685f;}.cls-285{fill:#66504c;}.cls-286{fill:#7c6153;}.cls-287{fill:#785b4f;}.cls-288{fill:#755342;}.cls-289{fill:#b38059;}.cls-290{fill:#ae7b57;}.cls-291{fill:#67433d;}</style></defs><path class="cls-1" d="M941.5,489.57a.51.51,0,0,1,.45-.1l1-.42a51.68,51.68,0,0,1,35.53.52l1.05.38,0,0c.35,1,1.14,1.15,2.06,1l-.05,0,1.43.61h0c0,.33,0,.67,0,1h-1.5l-.5-.5h0l-.5-.49-2-.51c-3.79-.86-7.53-2.24-11.5-1-.45-.32-.86-.86-1.35-.94-8-1.25-15.95-1-23.65,1.94h-1c0-.16,0-.32,0-.47Z" transform="translate(-905.09 -486.16)"/><path class="cls-2" d="M907.91,557.15a22.37,22.37,0,0,1-1.95-8.56c0-1,0-2,.07-3.07l1,2a39.11,39.11,0,0,1,2.09,8.53c.25,2.51,1,5,3.91,6l1,1c2.53,2.63,2.16,8,7.5,8l1-1.49c1.83,1.12-.07,2.72.51,4-.28.64-1.12,1.14-.5,2-1,1,3.59,2.9-.5,3.5l-.5-.49c-1-2.78-2.28-5.43-5-7a7.64,7.64,0,0,0-.82-4.43c-.16-.3-.59-.45-.89-.66l-.31,1.1-2.15-.44c-1.69-3.07-3.64-6-4.32-9.56.14-.4.3-.81.42-1.22,0,0-.18-.16-.27-.25Z" transform="translate(-905.09 -486.16)"/><path class="cls-3" d="M919.94,504a27.17,27.17,0,0,1,5.94-5.54c1.78-.82,1.8,2.46,3.62,1.56H933c-2.27,2.73-6.29,3.71-7.5,7.5l-2,.5c.27-.9,2.18-1.62,1.3-2.22C923.45,504.85,922,503.48,919.94,504Z" transform="translate(-905.09 -486.16)"/><path class="cls-4" d="M945.93,593.05a51.08,51.08,0,0,1-13.44-5.53l-.63-.43.06.06c0-.52-.44-1.76.62-1.19,3.29,1.8,7.46.41,10.46,3h.5c.94,1.55,2.47,1.53,4,1.5a3.16,3.16,0,0,1,1.49,3l-.51-.05L948,593Z" transform="translate(-905.09 -486.16)"/><path class="cls-5" d="M919.94,504c2-.5,3.51.87,4.86,1.8.88.6-1,1.32-1.3,2.22-2.13.49-.7,4.09-3.5,4-1.11-1.44-2.22-2.9-4.38-2.48a.82.82,0,0,0-.26-.1A20.82,20.82,0,0,1,919.94,504Z" transform="translate(-905.09 -486.16)"/><path class="cls-6" d="M995.56,581.62A42.23,42.23,0,0,1,978.5,591.9c-1.5-2.24-3.37.14-5-.4v-1c3.31-1.11,6.91-.49,10.22-2.19,4.15-2.12,7.3-5.53,11.28-7.81V580l.51-.49H996V581Z" transform="translate(-905.09 -486.16)"/><path class="cls-7" d="M1004.6,510.44l.4.57a27.87,27.87,0,0,0,.5,2.9c.67,2.45,3.68,3.67,3.5,6.59-2.71-1.88-3.8-6-8.13-5.7-.42,0-.91-.84-1.36-1.3,1.14,0,2.45.14,2.42-1.6,0-.75-.57-1-1.2-.71-2.72,1.23-2-.93-2.22-2.2,1.32-.14,2.65-.65,4,0Z" transform="translate(-905.09 -486.16)"/><path class="cls-8" d="M943,589c-3-2.63-7.17-1.24-10.46-3-1.06-.57-.6.67-.62,1.19l-1-.5c-.24-1.36-1.81-1.21-2.43-2.15,1.83-2.83,4.38-2.33,7-1.5,1.13,3,4,3.51,6.5,4.5Z" transform="translate(-905.09 -486.16)"/><path class="cls-9" d="M973.5,591.5c1.63.54,3.5-1.84,5,.4A38.37,38.37,0,0,1,964,594.51h-9a18.17,18.17,0,0,1-9.06-1.46l2.07,0,.48.39.51.05,4,.53h2c6.24-.3,12.56,0,18.51-2.49Z" transform="translate(-905.09 -486.16)"/><path class="cls-10" d="M928.5,584.5c.62.94,2.19.79,2.43,2.15L925,583l-.48-1v-1l.49-.5c-.5-1.83-.43-4-2.49-5-.62-.86.22-1.36.5-2h.5c1.7,2.93,4.68,4.1,7.5,5.5v.5c-3.19-1.6-3.67,1.76-4.74,3.08C925.33,583.72,927.93,583.54,928.5,584.5Z" transform="translate(-905.09 -486.16)"/><path class="cls-11" d="M996,581v-1.43l2.51-2.52a10.17,10.17,0,0,0,4-5l3-3.51,1.5-2,.5-1.5h.49v.51l0,1.12a.31.31,0,0,1-.15.39l-.35.62a.32.32,0,0,1-.14.39l-.35.56,0,0-.56,1c-2.1,4-5.28,7-8.5,10a1.44,1.44,0,0,0-1.55,1.44l0,0Z" transform="translate(-905.09 -486.16)"/><path class="cls-12" d="M922.5,575.5c2.06,1.06,2,3.18,2.49,5-.22.11-.89-.22-.49.5,0,.32,0,.65,0,1l-2.09-.91,0,0a2.08,2.08,0,0,0-2-1.56l-.46-.47c-.33-2.92-3.44-4.26-4-7.06h0v-.49l.5,0c2.72,1.59,4,4.24,5,7l.5.49C926.09,578.4,921.5,576.55,922.5,575.5Z" transform="translate(-905.09 -486.16)"/><path class="cls-13" d="M929.5,500c-1.82.9-1.84-2.38-3.62-1.56a30.67,30.67,0,0,1,8.42-5.5c1.88,1.52-1,1.54-.8,2.56-1,.85-2.89.59-3,2.5Z" transform="translate(-905.09 -486.16)"/><path class="cls-14" d="M906,545.52c0,1,0,2.05-.07,3.07a45.85,45.85,0,0,1,2-24.66l.54,2c1.06,1.48-1.37,1.78-1,3a23.89,23.89,0,0,0-1.48,8v3.54Z" transform="translate(-905.09 -486.16)"/><path class="cls-15" d="M1009,520.5c.18-2.92-2.83-4.14-3.5-6.59a27.87,27.87,0,0,1-.5-2.9,32.71,32.71,0,0,1,7,13.44l-.1.1c-1.37-.32-.3-3-2.46-2.55v-1l-.49-.51Z" transform="translate(-905.09 -486.16)"/><path class="cls-16" d="M994,499a49.24,49.24,0,0,1,8.12,8.33l-.2.25c-2.13.82-2.45-1.69-3.89-2.13,0-2.66-3.18-2.54-4-4.49C995.67,500.33,993.43,499.7,994,499Z" transform="translate(-905.09 -486.16)"/><path class="cls-17" d="M908.57,522a27,27,0,0,1,3.45-7.45c0,.65-.15,1.47,1,1-.33,1.17-.66,2.33-1,3.5l-.51,1.5h0l-.49.5,0,1C910.18,521.85,909.37,520.88,908.57,522Z" transform="translate(-905.09 -486.16)"/><path class="cls-18" d="M1013.54,549.58l-.08.93-1,.49c0-1.17,0-2.33,0-3.49a19.73,19.73,0,0,0,.49-8c.25-1.64-.53-3.38.48-4.94,1.12,3.78.09,7.68.58,11.5v0C1013,547.08,1013.59,548.38,1013.54,549.58Z" transform="translate(-905.09 -486.16)"/><path class="cls-19" d="M933.5,495.5c-.25-1,2.68-1,.8-2.56l3.1-1.48.61.53c-2.44.83-2.09,1.87-.24,3.05.75.48,1.49,1,2.23,1.46l-2,.5-1-.5c-.71-.8-1.65-.4-2.49-.49Z" transform="translate(-905.09 -486.16)"/><path class="cls-20" d="M1012.5,551l1-.49-2,8H1011l-.52-2c.5-1.83,1-3.66,1.51-5.5Z" transform="translate(-905.09 -486.16)"/><path class="cls-21" d="M994,499c-.56.66,1.68,1.29,0,2-1.92-1.77-3.27-4.22-6-5l1.36-.42a1.43,1.43,0,0,0,.22-.15Z" transform="translate(-905.09 -486.16)"/><path class="cls-22" d="M1010.5,556.5l.52,2c0,.37.05.74.07,1.12a.34.34,0,0,1-.14.4c-.12.34-.25.68-.37,1h0l-.47,1.11-.7,1.85-.33.57,0,0-.51,1h0l-.61-.09c0-.17,0-.34,0-.51Q1009.24,560.74,1010.5,556.5Z" transform="translate(-905.09 -486.16)"/><path class="cls-23" d="M1014.06,546.05c-.49-3.82.54-7.72-.58-11.51,0-1.17,0-2.35,0-3.52l.12-.09A43.41,43.41,0,0,1,1014.06,546.05Z" transform="translate(-905.09 -486.16)"/><path class="cls-24" d="M913,515.5c-1.13.52-1-.3-1-1l3.34-5.13a.82.82,0,0,1,.26.1c-.38,1.87-2.45,3.24-1.64,5.46Z" transform="translate(-905.09 -486.16)"/><path class="cls-25" d="M916,572c.54,2.8,3.65,4.14,4,7.06-1.26-1.87-3.31-3.17-4-5.45C916,573.08,916,572.54,916,572Z" transform="translate(-905.09 -486.16)"/><path class="cls-6" d="M955,594.51h9A25.78,25.78,0,0,1,955,594.51Z" transform="translate(-905.09 -486.16)"/><path class="cls-26" d="M912.33,567.06l2.15.44-.36,2.41-.25.19Z" transform="translate(-905.09 -486.16)"/><path class="cls-21" d="M983,492.5c0-.33,0-.67,0-1a12.5,12.5,0,0,1,5.09,2.89l-.16.19c-1.7-.56-3-2.17-4.94-2.08Z" transform="translate(-905.09 -486.16)"/><path class="cls-23" d="M1012.05,524.45l1.53,6.48-.12.09c-1.15-2-1.28-4.25-1.51-6.47Z" transform="translate(-905.09 -486.16)"/><path class="cls-27" d="M938,492l-.61-.53,4.1-1.89-.5.94-1.49.5Z" transform="translate(-905.09 -486.16)"/><path class="cls-28" d="M908.57,522c.8-1.12,1.61-.15,2.42,0-.51,1.23-1.28,1.51-2.36.63a1,1,0,0,0-.18-.17A.43.43,0,0,1,908.57,522Z" transform="translate(-905.09 -486.16)"/><path class="cls-26" d="M916,572c0,.54,0,1.08,0,1.61l-2.09-3.51.25-.19L915,571l.5.52h0l.5.51Z" transform="translate(-905.09 -486.16)"/><path class="cls-16" d="M1004.6,510.44l-2.12-1.45-.57-1.37.2-.25Z" transform="translate(-905.09 -486.16)"/><path class="cls-29" d="M908.51,526c-.19-.68-.37-1.36-.55-2l.49-1.48a1,1,0,0,1,.18.17c-.08.83-.4,1.69.37,2.38Z" transform="translate(-905.09 -486.16)"/><path class="cls-30" d="M922.42,581.07l2.09.91.48,1Z" transform="translate(-905.09 -486.16)"/><path class="cls-20" d="M1013.54,549.58c.05-1.2-.54-2.5.53-3.55C1013.89,547.21,1013.72,548.4,1013.54,549.58Z" transform="translate(-905.09 -486.16)"/><path class="cls-30" d="M920.44,579.53a2.08,2.08,0,0,1,2,1.56Z" transform="translate(-905.09 -486.16)"/><path class="cls-31" d="M981.59,490.92c-.92.15-1.71,0-2.06-1Z" transform="translate(-905.09 -486.16)"/><path class="cls-32" d="M996.48,581a1.44,1.44,0,0,1,1.55-1.44Z" transform="translate(-905.09 -486.16)"/><path class="cls-33" d="M907.91,557.15l.25-1.12c.09.09.29.2.27.25-.12.41-.28.82-.42,1.22A.25.25,0,0,1,907.91,557.15Z" transform="translate(-905.09 -486.16)"/><path class="cls-21" d="M988.1,494.39l1.48,1a1.43,1.43,0,0,1-.22.15l-1.42-1Z" transform="translate(-905.09 -486.16)"/><path class="cls-31" d="M983,491.5l-1.43-.61Z" transform="translate(-905.09 -486.16)"/><path class="cls-34" d="M1008.6,565.6l.51-1Z" transform="translate(-905.09 -486.16)"/><path class="cls-31" d="M979.57,490l-1.05-.38Z" transform="translate(-905.09 -486.16)"/><path class="cls-34" d="M1006.53,569.54l.56-1Z" transform="translate(-905.09 -486.16)"/><path class="cls-34" d="M1008,565.5l.61.09-.56,1C1008,566.25,1008,565.87,1008,565.5Z" transform="translate(-905.09 -486.16)"/><path class="cls-27" d="M943,489.05l-1,.42Z" transform="translate(-905.09 -486.16)"/><path class="cls-32" d="M996,581l.45,0-.88.64C995.7,581.39,995.84,581.17,996,581Z" transform="translate(-905.09 -486.16)"/><path class="cls-34" d="M1011.09,559.64c0-.38-.05-.75-.07-1.12h.46Z" transform="translate(-905.09 -486.16)"/><path class="cls-34" d="M1010.58,561.05c.12-.33.25-.67.37-1C1010.83,560.38,1010.7,560.72,1010.58,561.05Z" transform="translate(-905.09 -486.16)"/><path class="cls-34" d="M1010.11,562.17l.47-1.11Z" transform="translate(-905.09 -486.16)"/><path class="cls-34" d="M1009.08,564.59l.33-.57Z" transform="translate(-905.09 -486.16)"/><path class="cls-34" d="M1007.55,567.63l.35-.62Z" transform="translate(-905.09 -486.16)"/><path class="cls-34" d="M1007.06,568.58l.35-.56Z" transform="translate(-905.09 -486.16)"/><path class="cls-8" d="M931.86,587.09l.63.43Z" transform="translate(-905.09 -486.16)"/><path class="cls-35" d="M988,496c2.74.78,4.09,3.23,6,5,.83,1.95,4,1.83,4,4.49l-2,1c-1-1.61-1.88-3.23-4-3.51a1.42,1.42,0,0,0-.61-2.28c-3.55-1.51-5.38-6.26-10.17-5.45-.18,0-.56-.2-.57-.33-.22-3.11-2.86-2.35-4.65-2.93l2.5-1,2,.5.5.5h0l.5.5H983l4,3,1,.5Z" transform="translate(-905.09 -486.16)"/><path class="cls-36" d="M938,492l1.5-1c.51.75,1,.13,1.5,0h1c1.17-.05,2.33,1.72,3.5,0,.33,2.72-3.28,2.67-3.5,5l-2,.5c-.74-.49-1.48-1-2.23-1.46C935.92,493.86,935.57,492.82,938,492Z" transform="translate(-905.09 -486.16)"/><path class="cls-37" d="M945.5,491c-1.17,1.72-2.33-.05-3.5,0,7.7-2.91,15.62-3.19,23.65-1.94.49.08.9.62,1.35.94v1c-2.14.51-3.6-3.05-6-1C955.76,489.17,950.62,490,945.5,491Z" transform="translate(-905.09 -486.16)"/><path class="cls-31" d="M967,491v-1c4-1.24,7.71.14,11.5,1l-2.5,1h-1Z" transform="translate(-905.09 -486.16)"/><path class="cls-37" d="M941,491c-.5.15-1,.77-1.5,0l1.49-.5C941,490.67,941,490.83,941,491Z" transform="translate(-905.09 -486.16)"/><path class="cls-31" d="M981.5,492.5l-.5-.5Z" transform="translate(-905.09 -486.16)"/><path class="cls-31" d="M981,492l-.5-.5Z" transform="translate(-905.09 -486.16)"/><path class="cls-38" d="M914,563l-1-1c-2.25-2.61-2.81-5.93-3.75-9.08-.4-1.34-.79-3,.3-4,1.64-1.59,1-2.49-.54-3.41.94,0,2.62-.23,2.71,0,.74,2.27-1.93,4.26-.67,6.68-.61.32-1.36.81-.94,1.48.6,1,.93-.34,1.45-.4,1.31-.14,2.55-1.15,3.94-.3-.49,3.37-2.24,6.79.5,10Z" transform="translate(-905.09 -486.16)"/><path class="cls-39" d="M914,563h2c2.29,3.08,4.67,5.54,8,1.14.14-.19.63-.1,1-.14l1,1c-1.81-.08-2.58,1.32-3.5,2.5-1.53.82-.84,2.28-1,3.49C916.16,571,916.53,565.64,914,563Z" transform="translate(-905.09 -486.16)"/><path class="cls-40" d="M909,545.49c1.53.92,2.18,1.82.54,3.41-1.09,1.06-.7,2.68-.3,4,.94,3.15,1.5,6.47,3.75,9.08-2.86-1-3.66-3.46-3.91-6A39.11,39.11,0,0,0,907,547.5c1.49-1.75-.68-4.41,1.49-6l.55-1h.46l.5,3.5A1.51,1.51,0,0,0,909,545.49Z" transform="translate(-905.09 -486.16)"/><path class="cls-41" d="M923.5,573.5H923c-.58-1.28,1.32-2.88-.51-4,0-.5,0-1,0-1.5,2.8,1.63,5.58,3.28,7.5,6,.5.83.54,1.55-.5,2-.86-.18-1.74-.32-2.58-.56C925.63,575.07,925.54,572.58,923.5,573.5Z" transform="translate(-905.09 -486.16)"/><path class="cls-42" d="M908.49,541.51c-2.17,1.58,0,4.24-1.49,6l-1-2c0-1.67,0-3.34,0-5,2,.19,1.3-1.7,2-2.51h.48Z" transform="translate(-905.09 -486.16)"/><path class="cls-43" d="M915,571l-.89-1.07.36-2.41c.1-.36.2-.73.31-1.1.3.21.73.36.89.66a7.64,7.64,0,0,1,.82,4.43l-.5,0-.5,0h0Z" transform="translate(-905.09 -486.16)"/><path class="cls-44" d="M922.5,568c0,.5,0,1,0,1.5l-1,1.49c.16-1.21-.53-2.67,1-3.49h0Z" transform="translate(-905.09 -486.16)"/><path class="cls-30" d="M922,579l-.5-.49Z" transform="translate(-905.09 -486.16)"/><path class="cls-45" d="M925.5,507.5c1.21-3.79,5.23-4.77,7.5-7.5h.5c3.83,1.53,2.5,2.5,0,4.49-2.94,2.37-7.73,3.72-6.79,9.24.17,1-1.49,1.45-2.63,1.23s-2.4-.63-3.6-1c3.17-1.12,3.79-1.89,4.7-5.83A4.43,4.43,0,0,1,925.5,507.5Z" transform="translate(-905.09 -486.16)"/><path class="cls-46" d="M925.5,507.5a4.43,4.43,0,0,0-.3.67c-.91,3.94-1.53,4.71-4.7,5.83H919v-.5l1-1.5c2.8.09,1.37-3.51,3.5-4Z" transform="translate(-905.09 -486.16)"/><path class="cls-47" d="M933.5,500h-4l1-2a4.52,4.52,0,0,0,4-2c.84.09,1.78-.31,2.49.49Z" transform="translate(-905.09 -486.16)"/><path class="cls-48" d="M953,594l-4-.53a3.16,3.16,0,0,0-1.49-3c-.53-2.64-2.32-1.92-4-1.5H943l-1-1.5c3.46-1.31,6.1.17,8.5,2.5Z" transform="translate(-905.09 -486.16)"/><path class="cls-8" d="M943.5,589c1.68-.42,3.47-1.14,4,1.5C946,590.53,944.44,590.55,943.5,589Z" transform="translate(-905.09 -486.16)"/><path class="cls-48" d="M948.48,593.4,948,593Z" transform="translate(-905.09 -486.16)"/><path class="cls-49" d="M920,512l-1,1.5-4.49,2L914,515c-.81-2.22,1.26-3.59,1.64-5.46C917.78,509.1,918.89,510.56,920,512Z" transform="translate(-905.09 -486.16)"/><path class="cls-50" d="M995,580.5c-4,2.28-7.13,5.69-11.28,7.81-3.31,1.7-6.91,1.08-10.22,2.19h-2l.51-.5c3.67.14,6.7-1.88,10-3,1.32.41,3.06.34,3.15-1,.1-1.56-1.77-1-2.79-1-2,0-3.91.29-5.86.46h0l-.5-.5h0c0-1,.85-1.15,1.5-1.5,2.1-1.08,4.45,1.1,6.51-.5,2.81-.91,5.47-2.29,8.49-2.5H995Z" transform="translate(-905.09 -486.16)"/><path class="cls-51" d="M971.49,590.5h2v1h0a26.85,26.85,0,0,0-4.38.28c-4.17.51-8.32,2.34-12.62.72l-.5-.5h0c.23-1.82,1.85-1.56,3-2-.5,1.34.63,1.39,1.33,1.44a17,17,0,0,0,7.67-.94h3.49Z" transform="translate(-905.09 -486.16)"/><path class="cls-32" d="M998.51,577,996,579.52h-.5c.8-1.07,1.51-2.25,3-2.51Z" transform="translate(-905.09 -486.16)"/><path class="cls-32" d="M995.51,579.51,995,580h0l.5-.5Z" transform="translate(-905.09 -486.16)"/><path class="cls-32" d="M995,580.5h-.5l.5-.5h0Z" transform="translate(-905.09 -486.16)"/><path class="cls-52" d="M998.51,509c.2,1.27-.5,3.43,2.22,2.2.63-.28,1.19,0,1.2.71,0,1.74-1.28,1.58-2.42,1.6-.93-1.17-1.69-2.57-3.5-2.51-.61-.48-1.19-1.35-1.82-1.39-2.61-.17-2.5-1.78-2.18-3.59h2.49C995.13,508,997.87,507.05,998.51,509Z" transform="translate(-905.09 -486.16)"/><path class="cls-53" d="M996,511c1.81-.06,2.57,1.34,3.5,2.51.45.46.94,1.33,1.36,1.3,4.33-.35,5.42,3.82,8.13,5.7h0l.49.51v1h0c-1.18-.67-1.56-.16-1.49,1a15.16,15.16,0,0,0-7-6.5c-1.41-2.07-4.26-2.82-5-5.49Z" transform="translate(-905.09 -486.16)"/><path class="cls-54" d="M998.51,509c-.64-1.94-3.38-1-4-3l1.5.5,2-1c1.44.44,1.76,2.95,3.89,2.13l.57,1.37C1001.16,508.34,999.83,508.85,998.51,509Z" transform="translate(-905.09 -486.16)"/><path class="cls-55" d="M928.5,584.5c-.57-1-3.17-.78-2.24-1.92,1.07-1.32,1.55-4.68,4.74-3.08h0l1,.5c1.93,1.44,4.38,1.2,6.5,2l.5.5,2,2c-2.09.45-3.58-1.35-5.5-1.5C932.88,582.17,930.33,581.67,928.5,584.5Z" transform="translate(-905.09 -486.16)"/><path class="cls-56" d="M935.5,583c1.92.15,3.41,2,5.5,1.5,3.9.28,7.48,1.15,9.5,5v.5c-2.4-2.33-5-3.81-8.5-2.5C939.48,586.51,936.63,586,935.5,583Z" transform="translate(-905.09 -486.16)"/><path class="cls-6" d="M956.5,592.5c4.3,1.62,8.45-.21,12.62-.72a26.85,26.85,0,0,1,4.38-.28c-6,2.5-12.27,2.19-18.51,2.49-.16-.49-.33-1-.49-1.49l1.5-.5h0Z" transform="translate(-905.09 -486.16)"/><path class="cls-57" d="M954.5,592.5c.16.5.33,1,.49,1.49h-2l-2.49-4v-.5l2,.5H954C954.11,590.85,953.69,591.8,954.5,592.5Z" transform="translate(-905.09 -486.16)"/><path class="cls-58" d="M923.5,573.5c2-.92,2.13,1.57,3.42,1.94.84.24,1.72.38,2.58.56,3.54,1.28,7.19,3.82,10.58,3.51,3.9-.36,5.62,1.61,7.92,3.49l-17-4C928.18,577.6,925.2,576.43,923.5,573.5Z" transform="translate(-905.09 -486.16)"/><path class="cls-59" d="M931,579l17,4h0l.5.5h0l.5.5,5,2,1,.5a5.71,5.71,0,0,1-1,3.5h-1.5c-2.58-5.54-7-7.82-13-7.5-.26-.31-.3-1.08-1-.5-2.12-.8-4.57-.56-6.5-2l-1-.5h0Z" transform="translate(-905.09 -486.16)"/><path class="cls-30" d="M924.5,581c-.4-.72.27-.39.49-.5Z" transform="translate(-905.09 -486.16)"/><path class="cls-34" d="M1010.5,556.5q-1.26,4.25-2.51,8.49h-.49c-1.06-1.17.44-2.33,0-3.49.67-2.52,1.53-5,2-7.56.61-3.61,1.3-7.25.55-11l-.51-2.5v-2h.49l2,10.5,0,2C1011.51,552.84,1011,554.67,1010.5,556.5Z" transform="translate(-905.09 -486.16)"/><path class="cls-60" d="M1007.5,561.51c.44,1.16-1.06,2.32,0,3.49-.17.5-.34,1-.5,1.5-1,.3-2.22.42-1.5,2l-3,3.51c-.5.14-1,.74-1.5,0,.21-2.14,3.25-2.59,3-5,0-.33,0-.66,0-1Z" transform="translate(-905.09 -486.16)"/><path class="cls-61" d="M1001,572c.49.75,1,.15,1.5,0a10.17,10.17,0,0,1-4,5h0C998.48,574.9,999.61,573.39,1001,572Z" transform="translate(-905.09 -486.16)"/><path class="cls-34" d="M1005.5,568.5c-.72-1.58.51-1.7,1.5-2Z" transform="translate(-905.09 -486.16)"/><path class="cls-25" d="M915.5,571.49l.5,0V572Z" transform="translate(-905.09 -486.16)"/><path class="cls-36" d="M934.51,496a4.52,4.52,0,0,1-4,2c.11-1.91,2-1.65,3-2.5Z" transform="translate(-905.09 -486.16)"/><path class="cls-62" d="M908.49,538H908c.29-2.2-1.45-.45-2-1a23.89,23.89,0,0,1,1.48-8c1.56,1,3.14,2,3.51,4-2.5,2.09,1.19,1.07,1,2a7.75,7.75,0,0,0-3,3.5c.05-.57.08-1.14.15-1.71s1.11-1.1.37-1.4-.84.78-1,1.38A7.14,7.14,0,0,0,908.49,538Z" transform="translate(-905.09 -486.16)"/><path class="cls-63" d="M911,533c-.37-2-2-3-3.51-4-.36-1.24,2.07-1.54,1-3l.5-1h1c1.21,2.07.31,5.87,4.49,5.5l.49.5-1,1.48Z" transform="translate(-905.09 -486.16)"/><path class="cls-64" d="M906,537c.55.58,2.29-1.17,2,1-.7.81,0,2.7-2,2.51Z" transform="translate(-905.09 -486.16)"/><path class="cls-65" d="M1012,524.55c.23,2.22.36,4.46,1.51,6.47,0,1.17,0,2.35,0,3.52-1,1.57-.23,3.31-.48,5l-.5.51c0-3.51-1.55-6.94-.5-10.5-.38-1.06-.16-2.6-2-2.5h0l-.5-.5h0L1009,526h0l.49-4h0C1011.65,521.57,1010.58,524.23,1012,524.55Z" transform="translate(-905.09 -486.16)"/><path class="cls-7" d="M1009.49,521l-.49-.51Z" transform="translate(-905.09 -486.16)"/><path class="cls-66" d="M910,525h-1c-.77-.69-.45-1.55-.37-2.38,1.08.88,1.85.6,2.36-.63,0-.33,0-.66,0-1l.49-.5h0L912,519c.34-1.17.67-2.33,1-3.5l1-.52.53.53C914.57,519.42,911.57,521.86,910,525Z" transform="translate(-905.09 -486.16)"/><path class="cls-28" d="M912,519l-.51,1.5Z" transform="translate(-905.09 -486.16)"/><path class="cls-28" d="M911.5,520.5l-.49.5Z" transform="translate(-905.09 -486.16)"/><path class="cls-20" d="M1012.5,540l.5-.51a19.73,19.73,0,0,1-.49,8c-.23-1.33.48-2.78-.51-4h0Z" transform="translate(-905.09 -486.16)"/><path class="cls-23" d="M1012,543.5c1,1.23.28,2.68.51,4,0,1.16,0,2.32,0,3.49H1012c0-.66,0-1.33,0-2C1012,547.17,1012,545.34,1012,543.5Z" transform="translate(-905.09 -486.16)"/><path class="cls-67" d="M940,496.5l2-.5c.88.88,2,.35,3,.5,2.73,1.55,6.45,1,8.5,4a15.61,15.61,0,0,1-2.54.81c-2.54.39-3.28,3.69-5.24,4-5.93.84-10.33,4.45-15.22,7.23.39-.82.55-1.92,1.19-2.39a78.45,78.45,0,0,1,7.78-5.12c1.88-1.06,2.94-1.66.85-3.74-1.05-1.05-2.56-2.29-2.32-4.25Z" transform="translate(-905.09 -486.16)"/><path class="cls-68" d="M938,497c-.24,2,1.27,3.2,2.32,4.25,2.09,2.08,1,2.68-.85,3.74a78.45,78.45,0,0,0-7.78,5.12c-.64.47-.8,1.57-1.19,2.39-1,3.1-4.2,3.49-6.49,5h-.51c-.07-.6-.26-1.38-.91-1.23-1.1.24-1,1.32-1.08,2.22l-1-.49H920l.51-4h0c1.2.33,2.38.73,3.6,1s2.8-.22,2.63-1.23c-.94-5.52,3.85-6.87,6.79-9.24,2.48-2,3.81-3,0-4.49,1.17-1.17,2.34-2.33,3.5-3.5Z" transform="translate(-905.09 -486.16)"/><path class="cls-31" d="M987,495.5l-4-3c2-.09,3.24,1.52,4.94,2.08l1.42,1L988,496h0Z" transform="translate(-905.09 -486.16)"/><path class="cls-25" d="M915,571l.5.52Z" transform="translate(-905.09 -486.16)"/><path class="cls-69" d="M996,506.5l-1.5-.5h0c-1.33-.53-2.66-1.29-4,0-.76,1.37-2.5-1.25-2.75.49-.17,1.23,1.44,1.72,2.55,2.28.55.28.81,1.13,1.2,1.72H991c-4.25-.74-7.5-3.82-11.56-5-.8-.23-1.48-.51-1.31-1.46a1.2,1.2,0,0,1,1.72-.94c1.46.68,2.77-.06,4.15-.11a11.54,11.54,0,0,0,5.5-.5l2.5.49C994.12,503.27,995.05,504.89,996,506.5Z" transform="translate(-905.09 -486.16)"/><path class="cls-70" d="M992,503l-2.5-.49c-2.3-4.86-7.7-5-11.5-7.5-.87-.87-2.25-1.39-2-3h0c1.79.58,4.43-.18,4.65,2.93,0,.13.39.36.57.33,4.79-.81,6.62,3.94,10.17,5.45A1.42,1.42,0,0,1,992,503Z" transform="translate(-905.09 -486.16)"/><path class="cls-21" d="M987,495.5l1,.5Z" transform="translate(-905.09 -486.16)"/><path class="cls-71" d="M945,496.5c-1-.15-2.12.38-3-.5.22-2.33,3.83-2.28,3.5-5,5.12-1,10.26-1.83,15.5-1l2,1c-.06.05-.18.12-.17.14a1.69,1.69,0,0,0,.17.36,2.4,2.4,0,0,0,2,1.5c-1.19,1-2.06.09-2.72-.64-1.9-2.08-3.94-2.36-6.28-.86a16.93,16.93,0,0,0-8,3.5C947.21,495.93,945.08,494.17,945,496.5Z" transform="translate(-905.09 -486.16)"/><path class="cls-72" d="M965,493a2.4,2.4,0,0,1-2-1.5l1-.25-1-.25-2-1c2.4-2.05,3.86,1.51,6,1l8,1c-.55.72-.63,1.34-2.17,1.46C970.13,493.66,967.64,491.7,965,493Z" transform="translate(-905.09 -486.16)"/><path class="cls-73" d="M965,493c2.64-1.3,5.13.66,7.83.47,1.54-.12,1.62-.74,2.17-1.46h1c-.25,1.61,1.13,2.13,2,3-1.16,0-2.32-.1-3.21.93-1.78,2.07-3.86,1.37-5.46,0-2.9-2.44-6.75-1.77-9.83-3.45l-3.5-1c2.34-1.5,4.38-1.22,6.28.86C962.94,493.09,963.81,494,965,493Z" transform="translate(-905.09 -486.16)"/><path class="cls-74" d="M925,564c-.33,0-.82,0-1,.14-3.37,4.4-5.75,1.94-8-1.14-2.74-3.21-1-6.63-.5-10l1,.5c.23,1,.66,2,0,3.09-1.58,2.81.28,3.95,2.45,4.91a3.59,3.59,0,0,0,4.5,1l1.5.5Z" transform="translate(-905.09 -486.16)"/><path class="cls-75" d="M916.5,553.5l-1-.5c-1.39-.85-2.63.16-3.94.3-.52.06-.85,1.39-1.45.4-.42-.67.33-1.16.94-1.48-1.26-2.42,1.41-4.41.67-6.68-.09-.28-1.77,0-2.71,0a1.51,1.51,0,0,1,1-1.49.94.94,0,0,0,1-1c.77-.46,1.47-1.31,2.5-.51l.5.51a9,9,0,0,0,3,9v1Z" transform="translate(-905.09 -486.16)"/><path class="cls-44" d="M922.5,567.5c.92-1.18,1.69-2.58,3.5-2.5,3.6-.79,5.86,3.48,9.5,2.5l3,2,3,3c-3-.92-5-3.59-8.43-3.79s-6.79-2.87-10.57-1.21Z" transform="translate(-905.09 -486.16)"/><path class="cls-76" d="M935.5,567.5c-3.64,1-5.9-3.29-9.5-2.5l-1-1v-1l10.5,4Z" transform="translate(-905.09 -486.16)"/><path class="cls-77" d="M911,543a.94.94,0,0,1-1,1l-.5-3.5c.08-2.34,2.81-3.22,3-5.49H913c.16,1.21-.52,2.65,1,3.49-.1.85.45,2.19-1.32,1.81C909.5,539.63,910.36,541.38,911,543Z" transform="translate(-905.09 -486.16)"/><path class="cls-78" d="M912.51,535c-.2,2.27-2.93,3.15-3,5.49H909c0-.66,0-1.33,0-2a7.75,7.75,0,0,1,3-3.5Z" transform="translate(-905.09 -486.16)"/><path class="cls-79" d="M909,538.5c0,.67,0,1.34,0,2l-.55,1V538a7.14,7.14,0,0,1,.06-1.23c.15-.6.3-1.67,1-1.38s-.31.88-.37,1.4S909.07,537.93,909,538.5Z" transform="translate(-905.09 -486.16)"/><path class="cls-80" d="M922.5,567.5c3.78-1.66,7,1,10.57,1.21s5.48,2.87,8.43,3.79c1.11,1.27-3.3,2.87.18,3.91A10.49,10.49,0,0,1,947,580.5c-5-3.88-11.79-3.15-17-6.5-1.92-2.72-4.7-4.37-7.5-6Z" transform="translate(-905.09 -486.16)"/><path class="cls-81" d="M930,574c5.21,3.35,12,2.62,17,6.5h0l2,3h-.5l-.5-.5h0c-2.3-1.88-4-3.85-7.92-3.49-3.39.31-7-2.23-10.58-3.51C930.54,575.55,930.5,574.83,930,574Z" transform="translate(-905.09 -486.16)"/><path class="cls-28" d="M910,525c1.57-3.13,4.57-5.57,4.51-9.48l4.49-2v.5c-2.5,2.73-1.65,6.34-2.5,9.51v1c-.18,1-.79,2,0,3-2.79.8-3.65-3.43-6.49-2.5Z" transform="translate(-905.09 -486.16)"/><path class="cls-82" d="M916.5,523.51c.85-3.17,0-6.78,2.5-9.51h1.5l-.51,4C918.46,519.6,920.09,523.2,916.5,523.51Z" transform="translate(-905.09 -486.16)"/><path class="cls-83" d="M968.5,590.5H968c-3.57.2-2.85-3.47-4.5-5a15.66,15.66,0,0,1,5.07.71c1.8.47,3.85.7,3.93-2.21l3.5,1h0l.5.5h0c1.47,1.24,3-.08,4.42,0,.9.06,2.44-.25,1.08,1.48-3.3,1.12-6.33,3.14-10,3C970.49,587.74,969.67,590.32,968.5,590.5Z" transform="translate(-905.09 -486.16)"/><path class="cls-84" d="M976,585l-3.5-1-3-.5c-1.09-1-3.83-.06-3.67-2.1s2.54-1.85,4.24-2A18.28,18.28,0,0,0,972,579h.5c1.68.89-1.57,2.46-.13,2.25,2.25-.33,4.52,1.24,6.63-.25.33,1.33-.55,1.94-1.5,2.5C976.85,583.85,976,584,976,585Z" transform="translate(-905.09 -486.16)"/><path class="cls-85" d="M1001,572c-1.39,1.39-2.52,2.9-2.51,5-1.48.26-2.19,1.44-3,2.51l-.5.5-.5.5h-2L994,577l3.5-4h0l.49-1.5,6-4.51C1004.25,569.41,1001.21,569.86,1001,572Z" transform="translate(-905.09 -486.16)"/><path class="cls-86" d="M977.5,583.5c1-.56,1.83-1.17,1.5-2.5h0l.5-.5H981c.33,1.64,3.82-.52,3,2.5C982,584.6,979.6,582.42,977.5,583.5Z" transform="translate(-905.09 -486.16)"/><path class="cls-87" d="M984,583c.81-3-2.68-.86-3-2.5h11.5C989.48,580.71,986.82,582.09,984,583Z" transform="translate(-905.09 -486.16)"/><path class="cls-84" d="M982,587c1.36-1.73-.18-1.42-1.08-1.48-1.47-.1-2.95,1.22-4.42,0,2-.17,3.91-.43,5.86-.46,1,0,2.89-.59,2.79,1C985.06,587.34,983.32,587.41,982,587Z" transform="translate(-905.09 -486.16)"/><path class="cls-88" d="M968.5,590.5c1.17-.18,2-2.76,3.5-.5l-.51.5Z" transform="translate(-905.09 -486.16)"/><path class="cls-84" d="M976.5,585.5l-.5-.5Z" transform="translate(-905.09 -486.16)"/><path class="cls-88" d="M963.5,585.5c1.65,1.53.93,5.2,4.5,5a17,17,0,0,1-7.67.94c-.7-.05-1.83-.1-1.33-1.44l1-.5a2.3,2.3,0,0,0,2.57-1.82c.12-.42-.23-1.39-.48-1.43-2.48-.4-4.38-2.64-7.09-2.25v-.5l4.5.5C960.34,585.83,962,585.49,963.5,585.5Z" transform="translate(-905.09 -486.16)"/><path class="cls-89" d="M960,589.5l-1,.5c-1.15.44-2.77.18-3,2l-1.5.5c-.81-.7-.39-1.65-.5-2.5a5.71,5.71,0,0,0,1-3.5c1,.17,2.08.36,3.12.5C959.6,587.2,961.11,587.36,960,589.5Z" transform="translate(-905.09 -486.16)"/><path class="cls-89" d="M956.5,592.5l-.5-.5Z" transform="translate(-905.09 -486.16)"/><path class="cls-90" d="M991.51,510.49c-.39-.59-.65-1.44-1.2-1.72-1.11-.56-2.72-1-2.55-2.28.25-1.74,2,.88,2.75-.49H992c-.32,1.81-.43,3.42,2.18,3.59.63,0,1.21.91,1.82,1.39l0,0Z" transform="translate(-905.09 -486.16)"/><path class="cls-54" d="M992,506h-1.5c1.33-1.29,2.66-.53,4,0Z" transform="translate(-905.09 -486.16)"/><path class="cls-91" d="M1010,538.5h-.5l-.48-1q-.27-4-.52-8c-1.49-4.2-4.33-7.55-7-11l-.5-2a15.16,15.16,0,0,1,7,6.5l1,3h0c0,.16,0,.33,0,.5Q1009.51,532.5,1010,538.5Z" transform="translate(-905.09 -486.16)"/><path class="cls-69" d="M1001,516.5l.5,2c-3.28-2.74-5.78-6.45-10-8h0L996,511C996.74,513.68,999.59,514.43,1001,516.5Z" transform="translate(-905.09 -486.16)"/><path class="cls-7" d="M1009,526l-1-3c-.07-1.17.31-1.68,1.49-1C1009.33,523.32,1009.17,524.66,1009,526Z" transform="translate(-905.09 -486.16)"/><path class="cls-92" d="M939.5,582.5c6-.32,10.42,2,13,7.5l-2-.5c-2-3.85-5.6-4.72-9.5-5l-2-2Z" transform="translate(-905.09 -486.16)"/><path class="cls-10" d="M939.5,582.5H939l-.5-.5C939.2,581.42,939.24,582.19,939.5,582.5Z" transform="translate(-905.09 -486.16)"/><path class="cls-10" d="M931,579.5l1,.5Z" transform="translate(-905.09 -486.16)"/><path class="cls-93" d="M960,589.5c1.11-2.14-.4-2.3-1.88-2.5-1-.14-2.08-.33-3.12-.5l-1-.5-1-1.5,2-.5c2.71-.39,4.61,1.85,7.09,2.25.25,0,.6,1,.48,1.43A2.3,2.3,0,0,1,960,589.5Z" transform="translate(-905.09 -486.16)"/><path class="cls-58" d="M953,584.5l1,1.5-5-2h0Z" transform="translate(-905.09 -486.16)"/><path class="cls-58" d="M948,583l.5.5Z" transform="translate(-905.09 -486.16)"/><path class="cls-58" d="M948.5,583.5h.5V584h0Z" transform="translate(-905.09 -486.16)"/><path class="cls-94" d="M1009.5,540.5l.51,2.5c-.94,3.27.14,6.84-1.51,10,.29-2.16-.74-4.17-.32-6.5.28-1.51.57-4-1.18-5.5-.88-.88-2-.35-3-.5a1.29,1.29,0,0,1-.16-1.93c.43-.56.82,0,1.25.15,1.55.45,2.35-.45,2.91-1.72C1008.92,538,1008.17,539.69,1009.5,540.5Z" transform="translate(-905.09 -486.16)"/><path class="cls-95" d="M1008.5,553c1.65-3.16.57-6.73,1.51-10,.75,3.7.06,7.34-.55,11-.43,2.55-1.29,5-2,7.56L1004,566c.67-2.33,1.33-4.66,2-7l.5-1.5a7.08,7.08,0,0,0,2-4Z" transform="translate(-905.09 -486.16)"/><path class="cls-96" d="M1010,538.5q-.5-6-1-12h.5l.5.5h0c.34,1,.67,2,1,3h0l-.5.49c-1.93,2.17,1.91,3.28,1,5.3-1.24,2.65.4,5.14.54,7.71h0c0,1.84,0,3.67,0,5.5Q1011,543.75,1010,538.5Z" transform="translate(-905.09 -486.16)"/><path class="cls-97" d="M1009.5,540.5c-1.33-.81-.58-2.52-1.5-3.5-.67-2.83-1.33-5.67-2-8.5V527l2.5,2.5q.25,4,.52,8l.48,1h0C1009.51,539.17,1009.5,539.83,1009.5,540.5Z" transform="translate(-905.09 -486.16)"/><path class="cls-98" d="M1006,559c-.67,2.34-1.33,4.67-2,7,0,.33,0,.66,0,1l-6,4.51c-.16.5-.33,1-.49,1.5h0c-1.9,2.06-4.35.55-6.5,1,.69-2.21,3.81-.79,4.5-3h.5c1.77-.3,3.38-.77,3.5-3C1000.71,564.31,1003.82,562,1006,559Z" transform="translate(-905.09 -486.16)"/><path class="cls-99" d="M912.51,535H912c.19-.93-3.5.09-1-2l3-.52,0,0c-.34.82-.67,1.65-1,2.48Z" transform="translate(-905.09 -486.16)"/><path class="cls-100" d="M914,532.48c.34-.49.67-1,1-1.48l1-.49c2,1,3.73,1.12,4.52-1.53,1.59.24,1.23-2.44,3-2l1.5,2h0l.49.49h0l1,2.49c-2.12.45-3.94-2-6.09-.74s-4.21,1.07-6.39,1.27Z" transform="translate(-905.09 -486.16)"/><path class="cls-29" d="M910,525c2.84-.93,3.7,3.3,6.49,2.5h.5c-.17.33-.33.67-.49,1-.92.17-1.84.33-2,1.51,0,.16,0,.32,0,.49C910.31,530.87,911.21,527.07,910,525Z" transform="translate(-905.09 -486.16)"/><path class="cls-101" d="M914.49,530.5c0-.17,0-.33,0-.49.69-.4,1.2-.28,1.5.49h0l-1,.49C914.82,530.83,914.66,530.66,914.49,530.5Z" transform="translate(-905.09 -486.16)"/><path class="cls-23" d="M1012,543.5c-.14-2.57-1.78-5.06-.54-7.71.95-2-2.89-3.13-1-5.3l.5-.49h0l1-.5c-1,3.56.55,7,.5,10.5C1012.33,541.17,1012.16,542.33,1012,543.5Z" transform="translate(-905.09 -486.16)"/><path class="cls-102" d="M1012,529.5l-1,.5c-.33-1-.66-2-1-3C1011.84,526.9,1011.62,528.44,1012,529.5Z" transform="translate(-905.09 -486.16)"/><path class="cls-102" d="M1010,527l-.5-.5Z" transform="translate(-905.09 -486.16)"/><path class="cls-102" d="M1009.5,526.49h-.5V526Z" transform="translate(-905.09 -486.16)"/><path class="cls-103" d="M924,517.5c2.29-1.51,5.44-1.9,6.49-5,4.89-2.78,9.29-6.39,15.22-7.23,2-.27,2.7-3.57,5.24-4a15.61,15.61,0,0,0,2.54-.81c2.83,1.4,1.85,3.18.5,5-2.26.6-3.8,3.06-6.5,2.5-2-1.64-2.85,1.15-4.29,1.14-6.56-.06-9.75,2.06-12.42,7.78-.55,1.19-1.78,3.68-4.29,2.08v-1.49c-.33-.5-.65-.5-1,0l0,1H925A1,1,0,0,0,924,517.5Z" transform="translate(-905.09 -486.16)"/><path class="cls-104" d="M954,505.5c1.35-1.82,2.33-3.6-.5-5-2-3-5.77-2.45-8.5-4,.08-2.33,2.21-.57,3-1.5,2.87.7,5.18,3.33,8.5,2.5h0l1.5,1,2,.5,2,.5c.48.92-1.94.8-.71,2.06a2.74,2.74,0,0,0,3.4.6c.49-.22,1.16-.76,1.49,0s-.58.83-1,1c-2,.64-4.08,1.23-6.13,1.83l-4.5,1-.5-.5Z" transform="translate(-905.09 -486.16)"/><path class="cls-105" d="M924,517.5a1,1,0,0,1,1,1c0,.17,0,.34,0,.5l-.51.5c-2.53.13-2.13,3.19-4,4L919,523c1.51-1.36.57-3.46,1.5-5l1,.49c1.16.67,1.83.36,2-1Z" transform="translate(-905.09 -486.16)"/><path class="cls-106" d="M920.5,518c-.93,1.54,0,3.64-1.5,5-.39,1.51.62,2.68,1,4l-3.49-2.5v-1c3.59-.31,2-3.91,3.49-5.51Z" transform="translate(-905.09 -486.16)"/><path class="cls-107" d="M923.5,517.5c-.16,1.35-.83,1.66-2,1,0-.9,0-2,1.08-2.22C923.24,516.12,923.43,516.9,923.5,517.5Z" transform="translate(-905.09 -486.16)"/><path class="cls-108" d="M959,505c2-.6,4.1-1.19,6.13-1.83.47-.15,1.42-.09,1-1s-1-.25-1.49,0a2.74,2.74,0,0,1-3.4-.6c-1.23-1.26,1.19-1.14.71-2.06a38.44,38.44,0,0,0,15,3,15.8,15.8,0,0,1,7,.5c-1.38.05-2.69.79-4.15.11a1.2,1.2,0,0,0-1.72.94c-.17.95.51,1.23,1.31,1.46,4.06,1.17,7.31,4.25,11.56,5v1l-3-.5c-4.38-.22-7.67-4.78-12.45-3.21C972,509,969.64,504.08,966,506c-.52-.17-1.18-.2-1.54-.55C962.73,503.77,960.63,507.26,959,505Z" transform="translate(-905.09 -486.16)"/><path class="cls-109" d="M984,503a15.8,15.8,0,0,0-7-.5c.65-2.67,2.84-1.31,4.37-1.65.85-.18,1.65-.4,2-1.26a1.25,1.25,0,0,0-.27-1.11c-.84-.8-1.31.11-1.85.53a1.76,1.76,0,0,1-2.48,0,3.13,3.13,0,0,0-3.92-.23c-1.52.85-2.45.57-3.32-.74l-.5-.5h-1.5l-3-1h0l-.5-.5-1-.5h-.5l-2-.5h0c-.3-1.67-2.26-1.35-3-2.5,3.08,1.68,6.93,1,9.83,3.45,1.6,1.35,3.68,2.05,5.46,0,.89-1,2.05-.95,3.21-.93,3.8,2.54,9.2,2.64,11.5,7.5A11.54,11.54,0,0,1,984,503Z" transform="translate(-905.09 -486.16)"/><path class="cls-110" d="M991,511.5v-1h.5c4.22,1.55,6.72,5.26,10,8,2.67,3.45,5.51,6.8,7,11L1006,527h0c-.64-1.14-1.37-1.81-2.5-.5-1.19.12-2.74-.47-3,1.5l-.79-1.06-.24,1.06a2.42,2.42,0,0,1-1.47-2.5c.16-1.7,2.33-2.74,1.15-5C997.18,516.75,994.2,514.06,991,511.5Z" transform="translate(-905.09 -486.16)"/><path class="cls-111" d="M959.5,492.5c.74,1.15,2.7.83,3,2.5a9.38,9.38,0,0,0-2.73-1.05c-2.06-.11-4.74-.8-5.9,1-.93,1.47,2,1.3,2.63,2.52-3.32.83-5.63-1.8-8.5-2.5a16.93,16.93,0,0,1,8-3.5Z" transform="translate(-905.09 -486.16)"/><path class="cls-73" d="M963,491l1,.25-1,.25a1.69,1.69,0,0,1-.17-.36S962.94,491.05,963,491Z" transform="translate(-905.09 -486.16)"/><path class="cls-112" d="M917,553v-1l2.5,1c3.19.3,2.39,8,7.82,4.23a6.66,6.66,0,0,1,.68.77h0l-.5,1a3.54,3.54,0,0,0,1,4c-1.65-.38-3.06-3.08-5-.5a3.59,3.59,0,0,1-4.5-1C920.28,558.21,921.65,554.89,917,553Z" transform="translate(-905.09 -486.16)"/><path class="cls-113" d="M917,553c4.65,1.89,3.28,5.21,2,8.5-2.17-1-4-2.1-2.45-4.91.61-1.07.18-2.06,0-3.09Z" transform="translate(-905.09 -486.16)"/><path class="cls-114" d="M923.5,562.5c1.94-2.58,3.35.12,5,.5s3.17.72,4.73,1.15c.54.15,1.14,1.05,1.28-.34,0-.48-.39-1.38.49-1.32.37,0,.67,1,1,1.51l.48,1c-1.23.21-.2,1.56-1,2L925,563Z" transform="translate(-905.09 -486.16)"/><path class="cls-115" d="M911,543c-.64-1.62-1.5-3.37,1.64-2.7,1.77.38,1.22-1,1.32-1.81l1-2.49c1.75.08,2,1.32,2.19,2.69.1.56.7,1,1.07,1.55a5.94,5.94,0,0,0,.65-.5c-1-1.61.92-3.15.09-4.74,1.06-1.37,1.33.16,1.38.54a5.63,5.63,0,0,0,1.61,3,9.05,9.05,0,0,0,0,2c.24,1-.81,2.74.87,2.79s.93-1.73,1.11-2.75c1.37-.19.83-1.36,1.1-2.11.46-1.32-1.28-2.57-.1-3.9,1-.08,1.54.38,1.52,1.44,0,.37.07,1,.65.66.25-.13.24-.72.34-1.1a3.53,3.53,0,0,1,.84,4.75c-1.52,2.66-.53,3.46,2.14,3.25h0l1,.49c0,.5,0,1,0,1.49H931c-1.4-1.43-3.38-2.22-4.43-.35-2.68,4.74-3.74-.54-5.57-.65.63-2.76.67-5-3.26-3.51a2.28,2.28,0,0,1-.74,0c-.58-.75-.29-2.26-1.54-2.34-1.61-.09-.62,1.6-1.23,2.29a6.43,6.43,0,0,0-.73,1.54C912.47,541.69,911.77,542.54,911,543Z" transform="translate(-905.09 -486.16)"/><path class="cls-116" d="M913.5,542.49a6.43,6.43,0,0,1,.73-1.54c.61-.69-.38-2.38,1.23-2.29,1.25.08,1,1.59,1.54,2.34.57,2,1,4.21,4,3.5,1.83.11,2.89,5.39,5.57.65,1-1.87,3-1.08,4.43.35-.63.68-.22,2.4-1.55,2.16-1-.17-1.64-2.11-2.73,0-.85,1.64-1.27,3.14-.22,4.79-.16.34-.33.67-.5,1l-1-.5c-3,.58-4.71-1.88-7-3-1.84-2,.69-6.59-4-7Z" transform="translate(-905.09 -486.16)"/><path class="cls-117" d="M914,543c4.69.41,2.16,5,4,7-.38,1.44,1.61,1.69,1.5,3l-2.5-1A9,9,0,0,1,914,543Z" transform="translate(-905.09 -486.16)"/><path class="cls-118" d="M959.5,584l-4.5-.5a13.45,13.45,0,0,1-8-3h0a10.49,10.49,0,0,0-5.32-4.09c-3.48-1,.93-2.64-.18-3.91l-3-3H940l.5.5h0l.5.5c1.16,2.39,3,3.27,5.55,2.4,1.64-.56,3.17.06,4.75.21,1.9.19,3,2.93,5.2,1.39.08,1.69.42,3.41-.5,5-.28.15-.6.47-.82.41-.92-.25-2.09-.52-2.23.64-.18,1.42,1.3.93,2,1,2.83.24,5.68.32,8.52.46l2,1c.45,1,.82,2.11-1,1.3S961.23,583,959.5,584Z" transform="translate(-905.09 -486.16)"/><path class="cls-119" d="M939,569.5h-.5l-3-2V567c.79-.43-.24-1.78,1-2,0,.16,0,.33,0,.49.34,1.56,1.61.8,2.5,1h0v3Z" transform="translate(-905.09 -486.16)"/><path class="cls-120" d="M915,536l-1,2.49c-1.48-.84-.8-2.28-1-3.49.34-.83.67-1.66,1-2.48,2.18-.2,4.38-.07,6.39-1.27s4,1.19,6.09.74c.91-.13,2-.57,2,1-1.66-.66-3.46-1-5,0s-1.37,2.53-.55,4c-1,.07-1,.8-1,1.52a5.63,5.63,0,0,1-1.61-3c0-.38-.32-1.91-1.38-.54C917.69,535.41,915.93,534,915,536Z" transform="translate(-905.09 -486.16)"/><path class="cls-80" d="M947,580.5a13.45,13.45,0,0,0,8,3v.5l-2,.5-4-.51v-.49Z" transform="translate(-905.09 -486.16)"/><path class="cls-63" d="M916.5,524.5,920,527a4.1,4.1,0,0,1,0,.49c-1,2.51-2-1.71-3,0h-.5C915.71,526.49,916.32,525.5,916.5,524.5Z" transform="translate(-905.09 -486.16)"/><path class="cls-121" d="M959.5,584c1.73-1,3.34-.45,5,.3s1.44-.26,1-1.3l4,.5,3,.5c-.08,2.91-2.13,2.68-3.93,2.21a15.66,15.66,0,0,0-5.07-.71C962,585.49,960.34,585.83,959.5,584Z" transform="translate(-905.09 -486.16)"/><path class="cls-122" d="M992.5,580.49h-13l-.5.5h0c-2.11,1.49-4.38-.08-6.63.25-1.44.21,1.81-1.36.13-2.25h1c2.13-.63,4.4.57,6.5-.5.65,1.23,1.7,1.06,2.8.83,3.73-.79,7.47-1.55,11.2-2.33Z" transform="translate(-905.09 -486.16)"/><path class="cls-123" d="M969.5,583.5l-4-.5-2-1c-1.36-1.1-2.49-2.6-4.51-2.51.75-2.54,1.18-5.6,5-3l1.5.5c1.85,1.69,4.35,1.26,6.5,2a18.28,18.28,0,0,1-1.93.38c-1.7.17-4.07-.13-4.24,2S968.41,582.47,969.5,583.5Z" transform="translate(-905.09 -486.16)"/><path class="cls-124" d="M972,579c-2.15-.74-4.65-.31-6.5-2,.51-1.14,1.53-1,2.5-1,1,.51,1.62,1.76,3,1.5a2.4,2.4,0,0,1,2.5,1.5H972Z" transform="translate(-905.09 -486.16)"/><path class="cls-125" d="M994,577c-3.73.78-7.47,1.54-11.2,2.33-1.1.23-2.15.4-2.8-.83h1c1.18,1,2.06,0,3-.5,3.33.42,5.21-1.72,7-4,2.15-.45,4.6,1.06,6.5-1Z" transform="translate(-905.09 -486.16)"/><path class="cls-125" d="M997.5,573c.16-.5.33-1,.49-1.5C997.83,572,997.66,572.5,997.5,573Z" transform="translate(-905.09 -486.16)"/><path class="cls-84" d="M979,581l.5-.5Z" transform="translate(-905.09 -486.16)"/><path class="cls-34" d="M1009.5,538.49l-.48-1Z" transform="translate(-905.09 -486.16)"/><path class="cls-126" d="M996,571h-.5c-1.85.52.77-3.44-2-2-.08-1.41-.07-2.79,1.5-3.5,6.12-1,7.2-6.35,8.88-10.9.59-1.6,2.58-3.33,1.55-4.92-1.87-2.87-.48-6.83-3.43-9.18l.5-.5h.5c.12.58.2,1.27,1,.5,1,.15,2.12-.38,3,.5a5.84,5.84,0,0,0-1.43,7c2,3.9-.42,6.8-1.36,9.88-1.18,3.92-5.6,6.2-6.21,10.64Z" transform="translate(-905.09 -486.16)"/><path class="cls-75" d="M998,568.5c.61-4.44,5-6.72,6.21-10.64.94-3.08,3.33-6,1.36-9.88a5.84,5.84,0,0,1,1.43-7c1.75,1.52,1.46,4,1.18,5.5-.42,2.33.61,4.34.32,6.5v.5c-2.75.29-2.81,1.93-2,4l-.5,1.5c-2.18,3-5.29,5.31-6.5,9Z" transform="translate(-905.09 -486.16)"/><path class="cls-127" d="M1004,540.5c-.8.77-.88.08-1-.5.15-1.4-1.34-2.9.1-4.19,1-.91,3-1.06,2.19-3.22s-2.39-2.51-4.29-2.59c1.14-2.25,3-2.27,5-1.5.67,2.83,1.33,5.67,2,8.5-.56,1.27-1.36,2.17-2.91,1.72-.43-.12-.82-.71-1.25-.15A1.29,1.29,0,0,0,1004,540.5Z" transform="translate(-905.09 -486.16)"/><path class="cls-94" d="M1006.5,557.5c-.81-2.07-.75-3.71,2-4A7.08,7.08,0,0,1,1006.5,557.5Z" transform="translate(-905.09 -486.16)"/><path class="cls-102" d="M1011,530l-.5.49Z" transform="translate(-905.09 -486.16)"/><path class="cls-128" d="M1006,528.5c-2-.77-3.86-.75-5,1.5-.77,1.54-2.08-.17-3,.5a1.39,1.39,0,0,1,1.46-1.49l.56.58.47-1.59c.26-2,1.81-1.38,3-1.5l2.5.5h0Z" transform="translate(-905.09 -486.16)"/><path class="cls-129" d="M993.5,569c2.77-1.44.15,2.52,2,2-.69,2.21-3.81.79-4.5,3-1.79,2.28-3.67,4.42-7,4l-3,.5h-.5c-1.76-1.48-4-1.08-6-1.5,1.24-1.92,4.09,1.53,5-1.5.36-.16.77-.53,1.09-.46,5.27,1.18,8-3.92,12.43-5C993.25,570,993.34,569.37,993.5,569Z" transform="translate(-905.09 -486.16)"/><path class="cls-129" d="M998,568.5l1.5-.5c-.12,2.23-1.73,2.7-3.5,3Z" transform="translate(-905.09 -486.16)"/><path class="cls-130" d="M928.5,533c0-1.58-1.1-1.14-2-1-.32-.83-.65-1.66-1-2.49H929l1,1c-.14,1.62,1.24,2.38,2,3.49-.28,1,.75,2.47-1,3Z" transform="translate(-905.09 -486.16)"/><path class="cls-131" d="M926.5,529.5h-1L925,529h0c0-1.07.06-2.13-1.5-2-1.75-.46-1.39,2.22-3,2l-.51-1.49a4.1,4.1,0,0,0,0-.49c-.37-1.32-1.38-2.49-1-4l1.5.5.5,1c-.37,4.07,2.78,1.11,4,2C926.37,527.06,925.78,528.61,926.5,529.5Z" transform="translate(-905.09 -486.16)"/><path class="cls-101" d="M920,527.49l.51,1.49c-.79,2.65-2.52,2.49-4.52,1.53h0l.5-2c.16-.33.32-.67.49-1C918,525.78,919,530,920,527.49Z" transform="translate(-905.09 -486.16)"/><path class="cls-130" d="M923.5,527c1.56-.14,1.54.92,1.5,2Z" transform="translate(-905.09 -486.16)"/><path class="cls-130" d="M925,529l.49.49Z" transform="translate(-905.09 -486.16)"/><path class="cls-63" d="M916.5,528.5l-.5,2c-.3-.77-.81-.89-1.5-.49C914.66,528.83,915.58,528.67,916.5,528.5Z" transform="translate(-905.09 -486.16)"/><path class="cls-132" d="M959,505c1.63,2.26,3.73-1.23,5.46.45.36.35,1,.38,1.54.55-2.53.93-5.31,1.23-7.5,3-.14.2-.43.41-.4.59.2,1.37,1.1,3.09.57,4-.95,1.66-1.14-1.61-2.36-.83-.27.18-.5.5-.8.57-.79.17-1.74-.13-1.8-.85-.12-1.31-.12-2.39-1.87-1.84s-1.7,1.91-1.33,3.34H950c-.48-.73-.88-1.61-2-1-1.32-.07-2,.49-2,1.88,0,1.07-.15,2-1.5,2.12.29-.61.68-1.34-.13-1.74-1.8-.88-1.91-2-.84-3.56.94-1.34-.84-1-1-1.7H946l.17,1.42.33-1.42,1-2c2.7.56,4.24-1.9,6.5-2.5h0l.5.5Z" transform="translate(-905.09 -486.16)"/><path class="cls-133" d="M925,526.5c-1.22-.89-4.37,2.07-4-2,2.43-.78,2.59-3.15,3.49-5l.51-.5.49-.5c0-.33,0-.66,0-1h1V519c0,1,.28,1.5,1.32,2.16,3,1.88,2.65-1.8,4.18-2.16h.5c.25,1.27-.76,3.09,1.5,3.5v.5h-1c-.06,0-.18.12-.17.14a2.37,2.37,0,0,0,.17.36v1c-1.94-1.76-3-1.49-3,1.3,0,1.56,0,3.13,0,4.69v0l-1-1c-.17-1.46-.3-3-1.76-3.79A1.53,1.53,0,0,0,925,526.5Z" transform="translate(-905.09 -486.16)"/><path class="cls-134" d="M932,519c-1.53.36-1.2,4-4.18,2.16-1-.66-1.37-1.13-1.32-2.16,2.51,1.6,3.74-.89,4.29-2.08,2.67-5.72,5.86-7.84,12.42-7.78,1.44,0,2.29-2.78,4.29-1.14l-1,2h-4c-2.53-.9-2,2.78-4.73,2.86S931.39,514.59,932,519Z" transform="translate(-905.09 -486.16)"/><path class="cls-134" d="M926.49,517.51h-1C925.84,517,926.16,517,926.49,517.51Z" transform="translate(-905.09 -486.16)"/><path class="cls-134" d="M925.49,518.5l-.49.5c0-.16,0-.33,0-.5Z" transform="translate(-905.09 -486.16)"/><path class="cls-135" d="M969.5,497.5H971l.5.5c.87,1.31,1.8,1.59,3.32.74a3.13,3.13,0,0,1,3.92.23,1.76,1.76,0,0,0,2.48,0c.54-.42,1-1.33,1.85-.53a1.25,1.25,0,0,1,.27,1.11c-.32.86-1.12,1.08-2,1.26-1.53.34-3.72-1-4.37,1.65a38.44,38.44,0,0,1-15-3l-2-.5c1.75-.78,3.94.82,5.5-1C966.92,498.54,968.35,499.15,969.5,497.5Z" transform="translate(-905.09 -486.16)"/><path class="cls-136" d="M965.5,498c-1.56,1.82-3.75.22-5.5,1l-2-.5-1.5-1h0c-.6-1.22-3.56-1.05-2.63-2.52,1.16-1.83,3.84-1.14,5.9-1A9.38,9.38,0,0,1,962.5,495h0v.5l.5.5h0c0,1.92,1.83.72,2.5,1.5Z" transform="translate(-905.09 -486.16)"/><path class="cls-111" d="M956.5,497.5l1.5,1Z" transform="translate(-905.09 -486.16)"/><path class="cls-103" d="M954.5,506l-.5-.5Z" transform="translate(-905.09 -486.16)"/><path class="cls-137" d="M924.49,519.5c-.9,1.85-1.06,4.22-3.49,5l-.5-1C922.36,522.69,922,519.63,924.49,519.5Z" transform="translate(-905.09 -486.16)"/><path class="cls-138" d="M958.5,509c2.19-1.77,5-2.07,7.5-3,3.64-1.92,6,3,9.55,1.79,4.78-1.57,8.07,3,12.45,3.21v1c-2.36-1.29-5.29.88-7.61-1.31-.55-.52-.76.68-.92,1.29-.4,1.66-.54,3.58-3,3.52l-.5-.5c.77-.72,1.83-1.29,1.45-2.61-.45-1.56-1.46-.44-2.23-.42-1.14,0-1.62-.56-1.75-1.63-.1-.85-.45-1.84-1.32-1.94-3.52-.38-7.07-2.76-10.59-.09A4.54,4.54,0,0,1,958.5,509Z" transform="translate(-905.09 -486.16)"/><path class="cls-139" d="M988,512v-1l3,.5c3.2,2.56,6.18,5.25,8.15,9,1.18,2.26-1,3.3-1.15,5h-4l.5-2c1.75-.72,1.68-1.73,1-3.36C993.85,516.55,989.88,515.25,988,512Z" transform="translate(-905.09 -486.16)"/><path class="cls-111" d="M965.5,498v-.5l1-1,3,1C968.35,499.15,966.92,498.54,965.5,498Z" transform="translate(-905.09 -486.16)"/><path class="cls-135" d="M966.5,496.5l-1,1c-.67-.78-2.52.42-2.5-1.5.68.38,1.21.29,1.5-.5h.5l1,.5.5.5Z" transform="translate(-905.09 -486.16)"/><path class="cls-111" d="M964.5,495.5c-.29.79-.82.88-1.5.5h0l-.5-.5V495Z" transform="translate(-905.09 -486.16)"/><path class="cls-111" d="M965,495.5h0Z" transform="translate(-905.09 -486.16)"/><path class="cls-111" d="M971.5,498l-.5-.5Z" transform="translate(-905.09 -486.16)"/><path class="cls-111" d="M966.5,496.5l-.5-.5Z" transform="translate(-905.09 -486.16)"/><path class="cls-140" d="M994,525.5h4a2.42,2.42,0,0,0,1.47,2.5v1A1.39,1.39,0,0,0,998,530.5h0l-3.51-.51c.28-2.36-1.91-1.75-3-2.49h-1C991.06,525.76,993.14,526.71,994,525.5Z" transform="translate(-905.09 -486.16)"/><path class="cls-141" d="M999.47,529v-1l.24-1.06.79,1.06-.47,1.59Z" transform="translate(-905.09 -486.16)"/><path class="cls-97" d="M1006,527l-2.5-.5C1004.63,525.19,1005.36,525.86,1006,527Z" transform="translate(-905.09 -486.16)"/><path class="cls-142" d="M926,553.5c.17-.34.34-.67.5-1a5,5,0,0,1,4-3.56c1.48-.32,2.68-1.9,4-2.92h0l1,.5v1A2.41,2.41,0,0,0,934,550c-2,.26-2.55,1.9-1.5,4.5-.3,2.09,1,2.11,2.51,2l1.39,1.16a9.79,9.79,0,0,1,.12-1.8c.34-1.43-1-1.93-1.52-2.86l4,1c-1.89,1.08-.83,3-.76,4.27.06,1,1.42-.54,2.27-.28v2c-1.85,1.17.66.89.5,1.49a5.67,5.67,0,0,1-5,2.51c-.34-.53-.64-1.48-1-1.51-.88-.06-.44.84-.49,1.32-.14,1.39-.74.49-1.28.34-1.56-.43-3.15-.77-4.73-1.15a3.54,3.54,0,0,1-1-4l.5-1h.5c.44.86,1.47,1.42,2,.77a4.61,4.61,0,0,0,.63-3.12c-.13-1-1-.35-1.59-.15-.39-3-2.67.49-3.51-1Zm2-.64.18-.09s-.1-.12-.15-.12-.12.05-.18.08Z" transform="translate(-905.09 -486.16)"/><path class="cls-143" d="M926,554.49c.84,1.5,3.12-2,3.51,1l-1,2.5H928a6.66,6.66,0,0,0-.68-.77c-5.43,3.78-4.63-3.93-7.82-4.23.11-1.31-1.88-1.56-1.5-3,2.29,1.12,4,3.58,7,3Z" transform="translate(-905.09 -486.16)"/><path class="cls-143" d="M928,558l-.5,1Z" transform="translate(-905.09 -486.16)"/><path class="cls-144" d="M936,564a5.67,5.67,0,0,0,5-2.51l3,0c0,.16,0,.33,0,.49l-3.5,4.5H939c0-2.45-1.55-1-2.5-1,0-.16,0-.33,0-.49Z" transform="translate(-905.09 -486.16)"/><path class="cls-145" d="M928.5,533l2.51,4a7.1,7.1,0,0,0,2.49,4v.49l-.5.5-.51.51-1,1.49-1-.49c1.2-.22,1.09-1.09.85-1.9-.06-.21-.81-.46-.93-.35-.81.73-.21,1.49.07,2.24-2.67.21-3.66-.59-2.14-3.25a3.53,3.53,0,0,0-.84-4.75c-.11-.74.28-1.74-.89-2-.76-.13-1.49-.07-1.62,1-1.18,1.33.56,2.58.1,3.9-.27.75.27,1.92-1.1,2.11-.18-1.22.54-2.69-1-3.51-.82-1.48-.82-3.06.55-4S926.84,532.34,928.5,533Z" transform="translate(-905.09 -486.16)"/><path class="cls-146" d="M934.47,546c-1.32,1-2.52,2.6-4,2.92a5,5,0,0,0-4,3.56c-1-1.65-.63-3.15.22-4.79,1.09-2.15,1.76-.21,2.73,0,1.33.24.92-1.48,1.55-2.16h.49Z" transform="translate(-905.09 -486.16)"/><path class="cls-147" d="M921,544.5c-3,.71-3.43-1.46-4-3.5a2.28,2.28,0,0,0,.74,0C921.67,539.53,921.63,541.74,921,544.5Z" transform="translate(-905.09 -486.16)"/><path class="cls-148" d="M923,537c1.54.82.82,2.29,1,3.51-.18,1,.49,2.79-1.11,2.75s-.63-1.81-.87-2.79a9.05,9.05,0,0,1,0-2C922,537.8,922,537.07,923,537Z" transform="translate(-905.09 -486.16)"/><path class="cls-149" d="M915,536c.93-2,2.69-.59,4-1,.83,1.59-1.08,3.13-.09,4.74a5.94,5.94,0,0,1-.65.5c-.37-.51-1-1-1.07-1.55C917,537.32,916.75,536.08,915,536Z" transform="translate(-905.09 -486.16)"/><path class="cls-150" d="M934.47,546l-3-.52c0-.5,0-1,0-1.49l1-1.49c0,.17,0,.33,0,.49l.51,1,1.5,2Z" transform="translate(-905.09 -486.16)"/><path class="cls-151" d="M925,534.5c.13-1,.86-1.08,1.62-1,1.17.21.78,1.21.89,2-.1.38-.09,1-.34,1.1-.58.31-.65-.29-.65-.66C926.54,534.88,926,534.42,925,534.5Z" transform="translate(-905.09 -486.16)"/><path class="cls-152" d="M926,554.49,925,553l1,.5C926,553.83,926,554.16,926,554.49Z" transform="translate(-905.09 -486.16)"/><path class="cls-153" d="M979.5,575.5c-.91,3-3.76-.42-5,1.5-1,1.58-2.63-1.77-3.5.5-1.38.26-2-1-3-1.5a7.86,7.86,0,0,0-8.5-1.5c-1,.33-2-1.09-3,0-2.18,1.54-3.3-1.2-5.2-1.39-1.58-.15-3.11-.77-4.75-.21-2.57.87-4.39,0-5.55-2.4l-.5-.5h0v-.5c2,.54,3.9,2.66,5.93.12,1.66,1.39,4.44-.74,5,.32,1.23,2.51,3.35,2.2,5.11,2.34,1.59.13,3.15,1.24,4.24,1,4.44-.89.23-2.82.26-4.31a2.75,2.75,0,0,1,1.8-3.33c1.25-.49,1.05,1,1.69,1.34l0,.48c1.73,1.07.18,3.4,2.11,4.72C970.6,574.92,975.19,574.52,979.5,575.5Z" transform="translate(-905.09 -486.16)"/><path class="cls-154" d="M956.5,574.5c1-1.09,2,.33,3,0,1.79,0,3.81-.49,4.5,2-3.83-2.61-4.26.45-5,3h-3C956.92,577.91,956.58,576.19,956.5,574.5Z" transform="translate(-905.09 -486.16)"/><path class="cls-155" d="M956,579.5h3c2-.09,3.15,1.41,4.51,2.51-2.84-.14-5.69-.22-8.52-.46-.73-.06-2.21.43-2-1,.14-1.16,1.31-.89,2.23-.64C955.4,580,955.72,579.65,956,579.5Z" transform="translate(-905.09 -486.16)"/><path class="cls-153" d="M939,569.5V567c.34.83.67,1.67,1,2.5h-1Z" transform="translate(-905.09 -486.16)"/><path class="cls-119" d="M940.5,569.5v.5l-.5-.5h.5Z" transform="translate(-905.09 -486.16)"/><path class="cls-119" d="M940.5,570l.5.5Z" transform="translate(-905.09 -486.16)"/><path class="cls-156" d="M940.5,569.5H940c-.33-.83-.66-1.67-1-2.5v-.5h1.5c3.37,3.26,5.54.12,8-1.5l1-1a3,3,0,0,1,2,2.51c-.27.82-2,.07-1.65,1.28s1.72.59,2.65.71c1.2-.11,2.29.86,3.21.83,1.75-.06,3.87,3.63,5.29-.33,0,1.49,4.18,3.42-.26,4.31-1.09.21-2.65-.9-4.24-1-1.76-.14-3.88.17-5.11-2.34-.52-1.06-3.3,1.07-5-.32C944.4,572.16,942.47,570,940.5,569.5Z" transform="translate(-905.09 -486.16)"/><path class="cls-114" d="M936.5,565.5c1,0,2.52-1.45,2.5,1C938.11,566.3,936.84,567.06,936.5,565.5Z" transform="translate(-905.09 -486.16)"/><path class="cls-157" d="M971,577.5c.87-2.27,2.53,1.08,3.5-.5,2,.42,4.24,0,6,1.5H980c-2.1,1.07-4.37-.13-6.5.5A2.4,2.4,0,0,0,971,577.5Z" transform="translate(-905.09 -486.16)"/><path class="cls-158" d="M964,576.5c-.69-2.49-2.71-2-4.5-2A7.86,7.86,0,0,1,968,576c-1,0-2-.14-2.5,1Z" transform="translate(-905.09 -486.16)"/><path class="cls-157" d="M981,578.5l3-.5C983.06,578.52,982.18,579.45,981,578.5Z" transform="translate(-905.09 -486.16)"/><path class="cls-159" d="M979.5,575.5c-4.31-1-8.9-.58-12.87-3.29-1.93-1.32-.38-3.65-2.11-4.72l1.49,1,2,1.49,4.5,1.51c8.43,2.79,17.46-.73,20.5-8l2,2c-1.57.71-1.58,2.09-1.5,3.5-.16.37-.25,1-.48,1.07-4.39,1-7.16,6.15-12.43,5C980.27,575,979.86,575.34,979.5,575.5Z" transform="translate(-905.09 -486.16)"/><path class="cls-160" d="M995,565.5l-2-2h0l.5-.5c5.61-.92,7.74-4.43,6.31-10.37-.2-.81-.91-2.2.15-2.35,2-.28,2.43-1.11,2-3.18a13.17,13.17,0,0,1,0-6.6h0c3,2.35,1.56,6.31,3.43,9.18,1,1.59-1,3.32-1.55,4.92C1002.2,559.15,1001.12,564.47,995,565.5Z" transform="translate(-905.09 -486.16)"/><path class="cls-161" d="M998,530.5c.91-.67,2.22,1,3-.5,1.9.08,3.53.57,4.29,2.59s-1.17,2.31-2.19,3.22c-1.44,1.29,0,2.79-.1,4.19h-.5l-.5-4c.25-2-.27-3.33-2.5-3.5-.5-.75-1-.15-1.5,0v-2Z" transform="translate(-905.09 -486.16)"/><path class="cls-160" d="M1002,536l.5,4-.5.5h0C1001.73,539,1000.9,537.5,1002,536Z" transform="translate(-905.09 -486.16)"/><path class="cls-162" d="M933.5,541a7.1,7.1,0,0,1-2.49-4c1.73-.53.7-2,1-3,1.08-.79,2.6,1.5,3.51-.5l1,.5c.11,2-5.65,5.07,1,6-1,.3-2.46-.75-3,1Z" transform="translate(-905.09 -486.16)"/><path class="cls-163" d="M935.5,533.5c-.91,2-2.43-.29-3.51.5-.75-1.11-2.13-1.87-2-3.49v0c1.2.76,1.88.14,2.18-1,.37-1.33.56-2.69.83-4h.49c1.31,1-.37,2.43.5,3.5-.57,1.3-1.06,2.58,1,3Z" transform="translate(-905.09 -486.16)"/><path class="cls-164" d="M925,526.5a1.53,1.53,0,0,1,2.24-.79c1.46.8,1.59,2.33,1.76,3.79h-2.5C925.78,528.61,926.37,527.06,925,526.5Z" transform="translate(-905.09 -486.16)"/><path class="cls-165" d="M958.5,509a4.54,4.54,0,0,0,3.06-.69c3.52-2.67,7.07-.29,10.59.09.87.1,1.22,1.09,1.32,1.94.13,1.07.61,1.65,1.75,1.63.77,0,1.78-1.14,2.23.42.38,1.32-.68,1.89-1.45,2.61-1.62-2.18-5-.2-6.47-2.71-1-1.68-2-1.53-2.88,0-.28.49-.32,1.06-1.13,1.09-3.24.13-6.15.69-5.51,5.07-1.23,1.11-.8,1.9.49,2.51l-.26,1.14c.41-.13.82-.24,1.22-.38.66-.24.16-1.89,1.54-1.26h0l.51,1,.49.5v.51c-2.48-.4-2.7,1.1-2.49,3-1.82,1.17-1.79-1.42-3-1.48-.56.54-1.08,1.18-2,1h0c-1.61-2-2.74-.26-4,.5l-.94-4.37c4.36.16-.79-1.65.44-2.13v-.5c.85-.67.3-1.32,0-2-.52-.82-.35-2-1.47-2.53-.37-1.43-.45-2.78,1.33-3.34s1.75.53,1.87,1.84c.06.72,1,1,1.8.85.3-.07.53-.39.8-.57,1.22-.78,1.41,2.49,2.36.83.53-.92-.37-2.64-.57-4C958.07,509.41,958.36,509.2,958.5,509Zm-4.24,9.49c-.12.67-.27,1-.19,1.22s.39.33.61.49c.07-.21.25-.45.21-.63A5.21,5.21,0,0,0,954.26,518.49Z" transform="translate(-905.09 -486.16)"/><path class="cls-163" d="M932,519c-.61-4.41,3-6.06,5.77-6.14s2.2-3.76,4.73-2.86c.19.66,2,.36,1,1.7-1.07,1.51-1,2.68.84,3.56.81.4.42,1.13.13,1.74H944l-.49-.5h0c-3.38-.86-5.2,1.38-5.79,3.89s-1.58,3-3.71,2.61v-.5h0c1-.07,1-.77,1-1.5,2.69-1.25-.16-3.08.43-4.58.1-.26-.49-1.13-.68-1.11-1.41.2-.35,1.73-1.18,2.36A6.71,6.71,0,0,0,932.5,519Z" transform="translate(-905.09 -486.16)"/><path class="cls-166" d="M952,518.5v.5c-1.47,1.17-3.75.31-5,2-1.21.06-1.69-.46-1.38-1.67a5.3,5.3,0,0,0,.06-.9,5.14,5.14,0,0,0-.91.68c-.6.73,0,2.92-1.91,2-1.2-.61-3.41.15-3.52-1.54-.09-1.43,1.93-1.71,3.13-2.34a9.74,9.74,0,0,0,1-.69h0l.49.5h.51c1.35-.11,1.54-1,1.5-2.12,0-1.39.68-2,2-1.88-.88.69-1.26,1.48-.49,2.49-.49.12-1.11.26-.68.91.79,1.19,1.78.06,2.67.1C949.79,517.85,951.3,517.67,952,518.5Z" transform="translate(-905.09 -486.16)"/><path class="cls-167" d="M949.5,516.5c-.89,0-1.88,1.09-2.67-.1-.43-.65.19-.79.68-.91A3.17,3.17,0,0,0,950,514h.49c1.12.48,1,1.71,1.47,2.53l-2-.52-.5.5Z" transform="translate(-905.09 -486.16)"/><path class="cls-168" d="M950,514a3.17,3.17,0,0,1-2.51,1.49c-.77-1-.39-1.8.49-2.49C949.14,512.39,949.54,513.27,950,514Z" transform="translate(-905.09 -486.16)"/><path class="cls-103" d="M946,510h.5l-.33,1.42Z" transform="translate(-905.09 -486.16)"/><path class="cls-132" d="M943.5,516.5a9.74,9.74,0,0,1-1,.69c-1.2.63-3.22.91-3.13,2.34.11,1.69,2.32.93,3.52,1.54,1.92,1,1.31-1.23,1.91-2a5.14,5.14,0,0,1,.91-.68,5.3,5.3,0,0,1-.06.9c-.31,1.21.17,1.73,1.38,1.67h.5c-1.46,1.21-5.31,0-4,4H943l-1.49-.51c-1.65-1.76-2.93,1.83-4.37.4-1.66-1.67-2.55-.36-3.63.6H933c0-.33,0-.67,0-1V523h1c2.13.39,3.13-.12,3.71-2.61S940.12,515.64,943.5,516.5Z" transform="translate(-905.09 -486.16)"/><path class="cls-169" d="M933,524.5c0,.33,0,.67,0,1-.27,1.35-.46,2.71-.83,4-.3,1.09-1,1.71-2.18,1,0-1.56,0-3.13,0-4.69C930,523,931.05,522.74,933,524.5Z" transform="translate(-905.09 -486.16)"/><path class="cls-170" d="M932.5,519a6.71,6.71,0,0,1,1.07-1.33c.83-.63-.23-2.16,1.18-2.36.19,0,.78.85.68,1.11-.59,1.5,2.26,3.33-.43,4.58-1,.07-1,.77-1,1.5h0C931.74,522.09,932.75,520.27,932.5,519Z" transform="translate(-905.09 -486.16)"/><path class="cls-163" d="M933,523v.5a2.37,2.37,0,0,1-.17-.36S932.94,523.05,933,523Z" transform="translate(-905.09 -486.16)"/><path class="cls-135" d="M962.5,495.5l.5.5Z" transform="translate(-905.09 -486.16)"/><path class="cls-171" d="M988,512c1.88,3.25,5.85,4.55,7.45,8.14.73,1.63.8,2.64-1,3.36-1.42-.13-1.07,2.29-3.08,1.82a58.71,58.71,0,0,0-8.43-.82c0-.17,0-.33,0-.5h2a17.32,17.32,0,0,0,4.12-.7c1.18-.5,3.56-.6,2.84-2.65-1.1-3.11-4.18-4.36-7-5.49-2-.82-3.34.87-4.49,2.34-1.2-1.23-2.81.8-4-.5v-1.5c2.43.06,2.57-1.86,3-3.52.16-.61.37-1.81.92-1.29C982.71,512.88,985.64,510.71,988,512Zm3.68,11.29a3.54,3.54,0,0,0-.09.68c0,.06.24.11.37.17a2.24,2.24,0,0,0,.18-.61C992.14,523.47,991.89,523.4,991.68,523.29Z" transform="translate(-905.09 -486.16)"/><path class="cls-172" d="M976.5,515.5V517a17.17,17.17,0,0,0-2.47-.22c-3.54.17-7.09.32-10,2.72a.93.93,0,0,0-1,1c-1.38-.63-.88,1-1.54,1.26-.4.14-.81.25-1.22.38l.26-1.14c.75-1,0-1.73-.49-2.51-.64-4.38,2.27-4.94,5.51-5.07.81,0,.85-.6,1.13-1.09.91-1.57,1.89-1.72,2.88,0,1.48,2.51,4.85.53,6.47,2.71Z" transform="translate(-905.09 -486.16)"/><path class="cls-173" d="M983,524.5a58.71,58.71,0,0,1,8.43.82c2,.47,1.66-2,3.08-1.82l-.5,2c-.86,1.21-2.94.26-3.5,2h-1a5.2,5.2,0,0,0-3.49-1c-1.73-1.89-2-.23-2.52,1-1.33-1-2.63-1.69-3.49.51h-.5l-2-2.5c1-.31,2.47.74,3-1C981.34,524.6,982.17,525.19,983,524.5Z" transform="translate(-905.09 -486.16)"/><path class="cls-174" d="M986,526.49a5.2,5.2,0,0,1,3.49,1c.34.49.67.48,1,0h1c-.17,1.83-.1,3.46,2.49,3-1.2.8-3.26.74-3,3l-.48,0c-.64-1.83-1.32-.92-2,0H988c-1.06-1.63-2.34-2.86-4.51-2.48C985.27,530,989.89,530.61,986,526.49Z" transform="translate(-905.09 -486.16)"/><path class="cls-175" d="M991,533.49c-.26-2.26,1.8-2.2,3-3l.5-.5,3.51.51v1a9.64,9.64,0,0,1-3.13.41c-1.67-.35-3-.53-3.37,1.59H991Z" transform="translate(-905.09 -486.16)"/><path class="cls-176" d="M994.49,530l-.5.5c-2.59.47-2.66-1.16-2.49-3C992.58,528.24,994.77,527.63,994.49,530Z" transform="translate(-905.09 -486.16)"/><path class="cls-177" d="M934.5,541c.54-1.74,2-.69,3-1a1.57,1.57,0,0,0,2.49,0c-.85,2,.52,2.55,2,3-1.62.15-1.49,1.37-1.5,2.5-2-.78-2.69,0-2.49,2h0l-.49,1-.52,1-.49.49h0l-1-2.5v-1c1.09.09,1.6-.4,1.49-1.5,0-.17,0-.34,0-.5a1.23,1.23,0,0,0,0-2l-1.49-1L935,541h-.5Z" transform="translate(-905.09 -486.16)"/><path class="cls-178" d="M935.5,547.5l1,2.5c-.31,2.49.93,3.16,2.8,1.89s1.74.24,2.21,1.1l-2,1H939l-4-1a3.83,3.83,0,0,1-1-3A2.41,2.41,0,0,1,935.5,547.5Z" transform="translate(-905.09 -486.16)"/><path class="cls-179" d="M934,550a3.83,3.83,0,0,0,1,3c.54.93,1.86,1.43,1.52,2.86a9.79,9.79,0,0,0-.12,1.8L935,556.49c.11-1.86-1.08-2.08-2.51-2C931.45,551.9,932,550.26,934,550Z" transform="translate(-905.09 -486.16)"/><path class="cls-180" d="M940.5,558c-.85-.26-2.21,1.25-2.27.28-.07-1.32-1.13-3.19.76-4.27h0l.49.49,1.5,1Z" transform="translate(-905.09 -486.16)"/><path class="cls-181" d="M940.5,558c.17-.83.33-1.66.49-2.5.38,1.61,2.07,1.27,3,2l0,2c-1.34-1.13-2.28.61-3.49.49Z" transform="translate(-905.09 -486.16)"/><path class="cls-182" d="M928.5,558l1-2.5c.58-.2,1.46-.84,1.59.15a4.61,4.61,0,0,1-.63,3.12C930,559.42,928.94,558.86,928.5,558Z" transform="translate(-905.09 -486.16)"/><path class="cls-178" d="M937,545c.11,1.1-.4,1.59-1.49,1.5l-1-.5-1.5-2v-.5c1.29-.16,3.13-1.41,2.75,1.57C935.7,545.6,936.56,545.09,937,545Z" transform="translate(-905.09 -486.16)"/><path class="cls-180" d="M940.5,560c1.21.12,2.15-1.62,3.49-.49a2.59,2.59,0,0,0,.14.45l-.16,0c-1.77.53-.08,1,0,1.49h0l-3,0C941.16,560.89,938.65,561.17,940.5,560Z" transform="translate(-905.09 -486.16)"/><path class="cls-183" d="M932.5,554.5c1.43-.09,2.62.13,2.51,2C933.55,556.61,932.2,556.59,932.5,554.5Z" transform="translate(-905.09 -486.16)"/><path class="cls-143" d="M928,552.86l-.15-.13c.06,0,.12-.09.18-.08s.1.07.15.12Z" transform="translate(-905.09 -486.16)"/><path class="cls-184" d="M948.5,565c-2.46,1.62-4.63,4.76-8,1.5L944,562c2.78.42,2.93-2.9,5-3.5.5-.33.5-.66,0-1h0c1.37-.74,2,.72,3,1,0,.72,0,1.43,1,1.48h.49l0,1c-1,2,.2,1.78,1.48,1.53l2,2c-1.75.47-3.63.59-5,2h-.5a3,3,0,0,0-2-2.51c.35-.54,1.41-.94.44-1.75a5.4,5.4,0,0,0-1.47-.6c.78,1.87-1.74,1.61-1.77,2.67S947.83,564.89,948.5,565Z" transform="translate(-905.09 -486.16)"/><path class="cls-180" d="M949,558.5c-2.06.6-2.21,3.92-5,3.5,0-.16,0-.33,0-.49h0c.74,0,1.44,0,1.49-1,0-.16,0-.32,0-.49.76-1.39,1.44-2.91,3.49-2.5h0Z" transform="translate(-905.09 -486.16)"/><path class="cls-185" d="M930.49,543.5c-.28-.75-.88-1.51-.07-2.24.12-.11.87.14.93.35.24.81.35,1.68-.85,1.9Z" transform="translate(-905.09 -486.16)"/><path class="cls-178" d="M933.5,541l1,0h0l-1,.51h0Z" transform="translate(-905.09 -486.16)"/><path class="cls-178" d="M932.5,543c0-.16,0-.32,0-.49L933,542h0c0,.33,0,.66,0,1Z" transform="translate(-905.09 -486.16)"/><path class="cls-178" d="M933,542l.5-.5h0l-.49.5Z" transform="translate(-905.09 -486.16)"/><path class="cls-145" d="M932.5,543h.5c0,.16,0,.32,0,.48v.5Z" transform="translate(-905.09 -486.16)"/><path class="cls-186" d="M952,566.5c1.37-1.41,3.25-1.53,5-2,4.23-.09-.08-3.74,2-4.77,0,0-.16-.63-.23-.63-1.53,0-1.15,1.47-1.69,2.25-.27.39-1,.44-1.55.65a.86.86,0,0,0-1-1,3.09,3.09,0,0,0-1-2.53l-1-3h0c.89-.88.36-2,.51-3l2-.5v.5l-.5.5c-1.29,1.24,1.08,1.88.5,3-.58.59-.85,1.3,0,1.76a1.67,1.67,0,0,0,1.54-.25c.5-.49-.13-.78-.54-1l0-1.53.48,0a9,9,0,0,1,1.44,1.45c.36.58-.34,2,.89,1.82s.48-1.48.67-2.27l2,2c-.17.66-1.78.3-1.12,1.48a1,1,0,0,0,1.53.22c.89-.76.32-1.27-.41-1.7.41-.69,1-1.4,1.75-.68,2,2,1-.38,1.24-.82H965a15.65,15.65,0,0,0,.65,1.45c1.11,1.89,2.26,3.76-.15,5.55-1.54.82-.82,2.3-1,3.51-.64-.36-.44-1.83-1.69-1.34A2.75,2.75,0,0,0,961,569c-1.42,4-3.54.27-5.29.33-.92,0-2-.94-3.21-.83Z" transform="translate(-905.09 -486.16)"/><path class="cls-187" d="M964.49,567c.19-1.21-.53-2.69,1-3.51,2.73,1.41.51,3.31.51,5l-1.49-1Z" transform="translate(-905.09 -486.16)"/><path class="cls-188" d="M948.5,565c-.67-.11-1.83.3-1.8-.68s2.55-.8,1.77-2.67a5.4,5.4,0,0,1,1.47.6c1,.81-.09,1.21-.44,1.75Z" transform="translate(-905.09 -486.16)"/><path class="cls-189" d="M952,566.5l.5,2c-.93-.12-2.27.44-2.65-.71s1.38-.46,1.65-1.28Z" transform="translate(-905.09 -486.16)"/><path class="cls-190" d="M1002,536c-1.1,1.5-.27,3,0,4.5a13.17,13.17,0,0,0,0,6.6c.39,2.07-.07,2.9-2,3.18-1.06.15-.35,1.54-.15,2.35,1.43,5.94-.7,9.45-6.31,10.37l-.5.5h0c-3,7.27-12.07,10.79-20.5,8,.75-.79,1.68-.45,2.56-.42,2.39.1,4.57-.32,5.94-2.58,3.12-1.54,6.49-2.46,9.5-4.35,1.69-1.06.5-3.12,1.82-3.63,3.1-1.18,1.88-5.26,4.68-6.52,1-2.59-3-6.93,2.84-7.84.68-.11-.33-.84-.2-1.18.67-1.83-2.9-2.61-1.65-3.37,5.24-3.14,2-5.25-.49-7.61l2-1.5C1001.73,532.67,1002.25,534.05,1002,536Z" transform="translate(-905.09 -486.16)"/><path class="cls-191" d="M981,568.5c-1.37,2.26-3.55,2.68-5.94,2.58-.88,0-1.81-.37-2.56.42L968,570c-.13-.47-.29-.94-.38-1.42-.9-4.61,1.39-9.85,4.38-10.07-.15.3-.28.6-.45.88-3.07,4.89-2.72,5.56,3,6.2a2.3,2.3,0,0,1,1.68,1.19c.73,2.46,2.31,2.43,4.25,1.73Z" transform="translate(-905.09 -486.16)"/><path class="cls-192" d="M972,558.5c-3,.22-5.28,5.46-4.38,10.07.09.48.25.95.38,1.42l-2-1.49c0-1.69,2.22-3.59-.51-5,2.41-1.79,1.26-3.66.15-5.55a15.65,15.65,0,0,1-.65-1.45h0l.49-.49h1c1.38,1,1.47,0,1.51-1h0c1.24-.34,1.34,1.93,2.61,1.14.18-.11-.39-1.4-.6-2.15,1.66.16,3.19,1.64,5,.5l.5.5v.5C974.61,556.83,972.56,556.8,972,558.5Z" transform="translate(-905.09 -486.16)"/><path class="cls-159" d="M993,563.5l.5-.5Z" transform="translate(-905.09 -486.16)"/><path class="cls-193" d="M999.5,532.5l-2,1.5c-1.19.12-2.73-.48-3,1.49-1,.07-1,.77-1,1.5h0c-.47-1.89-1.79-2.28-3.5-2v-.5h0a1.48,1.48,0,0,0,1.5-1h0c2-1.76,4.38-.4,6.5-1C998.5,532.35,999,531.75,999.5,532.5Z" transform="translate(-905.09 -486.16)"/><path class="cls-194" d="M998,532.5c-2.12.6-4.55-.76-6.5,1,.38-2.12,1.7-1.94,3.37-1.59a9.64,9.64,0,0,0,3.13-.41Z" transform="translate(-905.09 -486.16)"/><path class="cls-195" d="M940,540a1.57,1.57,0,0,1-2.49,0c-6.66-.93-.9-4-1-6h0c1.07.89.46,3.39,2.07,3.24s1.1-2.38,1.61-3.66a22.82,22.82,0,0,0,.8-3.08h1c.68,2.59-1.68,4.52-1.5,7-.78.72-.41,1.66-.5,2.51Z" transform="translate(-905.09 -486.16)"/><path class="cls-196" d="M933.5,525.5c1.08-1,2-2.27,3.63-.6,1.44,1.43,2.72-2.16,4.37-.4-.5.08-1.4-.14-1.25.66.21,1.08,1.19,1.4,2.25,1.34h0c-.35.62-.8,1.24-1.54.62-2.45-2-1.77.26-2,1.38h-.5l-.5-.5c-.47-.64-1-1.8-1.84-1.15-1.27,1-.69,2.39-.16,3.64l.51,3.51h0l-1-.5L935,532c.77-1.37.35-2.34-1-3C933.13,527.93,934.81,526.5,933.5,525.5Z" transform="translate(-905.09 -486.16)"/><path class="cls-162" d="M934,529c1.35.66,1.77,1.63,1,3C932.94,531.58,933.43,530.3,934,529Z" transform="translate(-905.09 -486.16)"/><path class="cls-197" d="M964,519.5c2.94-2.4,6.49-2.55,10-2.72a17.17,17.17,0,0,1,2.47.22c1.19,1.3,2.8-.73,4,.5v.5l-.5,1a47.7,47.7,0,0,0-15,4l-1-.49V522C965.47,521.16,963.27,520.33,964,519.5Z" transform="translate(-905.09 -486.16)"/><path class="cls-198" d="M947.5,521H947c1.25-1.69,3.53-.83,5-2-1.23.48,3.92,2.29-.44,2.13.31,1.45.63,2.91.94,4.37h0c-.41.48-.74,1.15-1.26,1.39s-1.31.31-.87,1.29,1,.6,1.64.31l.5.5c.58,1.83-2.19,3.66,0,5.5H950c-2.18.74-.82-.89-1-1.5,1-1,.07-1.51-.5-2-3.07-2.44,0-3.93,1.22-4.38,2.74-1,2.19-2.1.8-3.68l-.52-1C949.82,520,948.53,520.85,947.5,521Z" transform="translate(-905.09 -486.16)"/><path class="cls-199" d="M964,522.51l1,.49c1.71,1,3.65.81,5.51,1,.21.29.37.77.64.85.62.17.77-.37.87-.86,2.84.09,5.71-.44,8.49.51-.54,1.74-2,.69-3,1h0l-1-.48-9,.53-1.5,0c-1.5.5-3-1.58-4.5,0v0C961.3,523.61,961.52,522.11,964,522.51Z" transform="translate(-905.09 -486.16)"/><path class="cls-200" d="M952.5,529l-.5-.5a.94.94,0,0,1,1-1c1.79,0,2.33-1.68,3.5-2.5h0c1.59,1.52,2.09.84,2-1,1.22.06,1.19,2.65,3,1.48v0l.49,1-4,1C955.75,526.46,954.18,527.93,952.5,529Z" transform="translate(-905.09 -486.16)"/><path class="cls-198" d="M956.5,525c-1.17.82-1.71,2.53-3.5,2.5l-.51-2h0C953.76,524.74,954.89,523,956.5,525Z" transform="translate(-905.09 -486.16)"/><path class="cls-201" d="M950,516l2,.52c.32.66.87,1.31,0,2-.7-.83-2.21-.65-2.5-2h0Z" transform="translate(-905.09 -486.16)"/><path class="cls-202" d="M960,518.49c.45.78,1.24,1.49.49,2.51C959.21,520.39,958.78,519.6,960,518.49Z" transform="translate(-905.09 -486.16)"/><path class="cls-199" d="M964,519.5c-.73.83,1.47,1.66,0,2.5l-.49-.5-.51-1h0A.93.93,0,0,1,964,519.5Z" transform="translate(-905.09 -486.16)"/><path class="cls-198" d="M958.5,524c.09,1.84-.41,2.52-2,1C957.42,525.18,957.94,524.54,958.5,524Z" transform="translate(-905.09 -486.16)"/><path class="cls-198" d="M954.26,518.49a5.21,5.21,0,0,1,.63,1.08c0,.18-.14.42-.21.63-.22-.16-.54-.28-.61-.49S954.14,519.16,954.26,518.49Z" transform="translate(-905.09 -486.16)"/><path class="cls-172" d="M963,520.5l.51,1Z" transform="translate(-905.09 -486.16)"/><path class="cls-133" d="M934,522.5c0-.73,0-1.43,1-1.5C935,521.73,935,522.43,934,522.5Z" transform="translate(-905.09 -486.16)"/><path class="cls-132" d="M944.49,517h0Z" transform="translate(-905.09 -486.16)"/><path class="cls-132" d="M944,517l-.49-.5Z" transform="translate(-905.09 -486.16)"/><path class="cls-166" d="M950,516l-.5.5Z" transform="translate(-905.09 -486.16)"/><path class="cls-203" d="M947.5,521c1-.15,2.32-1,2.5,1-.62.08-1.17.38-.82,1s.91.44,1.34-.06c1.39,1.58,1.94,2.65-.8,3.68-1.21.45-4.29,1.94-1.22,4.38.57.44,1.53,1,.5,2l-1.5,1-1.23-3.46c-.29-.77-.45-1.61-1.62-1.53s-1.08,1-1.21,1.8-.3,1.79-.45,2.68l-.5.5c-.16.34-.33.67-.5,1l-.49.51v.5l-.5,1.5h-.51c-.18-2.47,2.18-4.4,1.5-7a2.38,2.38,0,0,1,1-3c.55-.08,1.46,0,1.6-.28.52-1.06-.93-1.35-1.11-2.21C942.19,521,946,522.21,947.5,521Z" transform="translate(-905.09 -486.16)"/><path class="cls-204" d="M942.5,526.5c-1.06.06-2-.26-2.25-1.34-.15-.8.75-.58,1.25-.66L943,525C942.83,525.5,942.66,526,942.5,526.5Z" transform="translate(-905.09 -486.16)"/><path class="cls-205" d="M942.5,526.5c.16-.5.33-1,.49-1.49h.51c.18.86,1.63,1.15,1.11,2.21-.14.29-1.05.2-1.61.28-.16-.33-.33-.66-.5-1Z" transform="translate(-905.09 -486.16)"/><path class="cls-206" d="M980.51,524.51c-2.78-1-5.65-.42-8.49-.51h-1.51c-1.86-.2-3.8,0-5.51-1a47.7,47.7,0,0,1,15-4c0,.33,0,.66-.08,1-.13,1-1.4,1.79-.27,2.91s1.58-.17,2.4-.45c1.46-.49.72,1,1,1.56,0,.17,0,.33,0,.5C982.17,525.19,981.34,524.6,980.51,524.51Z" transform="translate(-905.09 -486.16)"/><path class="cls-207" d="M980.5,518v-.5c1.15-1.47,2.48-3.16,4.49-2.34,2.79,1.13,5.87,2.38,7,5.49.72,2.05-1.66,2.15-2.84,2.65a17.32,17.32,0,0,1-4.12.7c.32-.38.56-.88,1-1.11,1-.56,2.2-.75,2-2.38s-1.57-1.18-2.32-1.78C984.05,517.4,982.09,519.15,980.5,518Z" transform="translate(-905.09 -486.16)"/><path class="cls-208" d="M980.5,518c1.59,1.15,3.55-.6,5.19.73.75.6,2.16.22,2.32,1.78s-1.07,1.82-2,2.38c-.4.23-.64.73-1,1.11h-2c-.23-.6.51-2-1-1.56-.82.28-1.28,1.55-2.4.45s.14-1.95.27-2.91c0-.32.05-.65.08-1Z" transform="translate(-905.09 -486.16)"/><path class="cls-173" d="M991.68,523.29c.21.11.46.18.46.24a2.24,2.24,0,0,1-.18.61c-.13-.06-.36-.11-.37-.17A3.54,3.54,0,0,1,991.68,523.29Z" transform="translate(-905.09 -486.16)"/><path class="cls-209" d="M986,526.49c3.88,4.12-.74,3.53-2.51,4.52-.51.82-.87,2.31-2,.47l-1-2c.64-1.16,1.83.47,2.52-.48.54-.38,1.33-.68.48-1.51C984,526.26,984.28,524.6,986,526.49Z" transform="translate(-905.09 -486.16)"/><path class="cls-210" d="M967.5,525.55l9-.53,1,.48h0l2,2.5-.5,1-1-.5c-.83-1.83-2.41-1.69-4-1.5-1.54.51-2.59-1-4-1Z" transform="translate(-905.09 -486.16)"/><path class="cls-211" d="M983.49,527.5c.85.83.06,1.13-.48,1.51l-3-1C980.86,525.81,982.16,526.52,983.49,527.5Z" transform="translate(-905.09 -486.16)"/><path class="cls-212" d="M980,528l3,1c-.69,1-1.88-.68-2.52.48L979,529l.5-1Z" transform="translate(-905.09 -486.16)"/><path class="cls-140" d="M990.5,527.5c-.33.48-.66.49-1,0Z" transform="translate(-905.09 -486.16)"/><path class="cls-213" d="M981.5,531.48c1.13,1.84,1.49.35,2-.47,2.17-.38,3.45.85,4.51,2.48.13,1.56-.94,1.55-2,1.52s-2.56-.53-2.5,1.48L982,534.35c1.89-1.29-.18-.79-.45-.9-1.75-.69-3.36.09-5,.56-1.91-1.21-2.5.61-3.49,1.52l0,0-.5-1.49a3.15,3.15,0,0,1,3.49-1.5A10.38,10.38,0,0,0,981.5,531.48Z" transform="translate(-905.09 -486.16)"/><path class="cls-194" d="M986,535c1.08,0,2.15,0,2-1.52h.5l1.48,1v.5l-2,1.51c-.5-.75-1-.14-1.5,0Z" transform="translate(-905.09 -486.16)"/><path class="cls-214" d="M990,534.5l-1.48-1c.68-.9,1.36-1.81,2,0l-.51,1Z" transform="translate(-905.09 -486.16)"/><path class="cls-194" d="M990,534.49l.51-1,.48,0h.51A1.48,1.48,0,0,1,990,534.49Z" transform="translate(-905.09 -486.16)"/><path class="cls-215" d="M942,543c-1.48-.46-2.85-1-2-3h0c.34-.84.67-1.67,1-2.5h.51c.56,1.34-1.51,3.28.93,4.19,1.58.6,1.7-1.15,2.58-1.68.49,1.16,1,2.33,1.49,3.49-.58.54-1.85.74-1,2,.68.75,1.2,1.77,2.49,1.5.8.44,1.53,1.48,2.51.25.39-.49,1.13-.86.7-1.65-1-1.81-2.14.42-3.2-.09h0l-.49-.49h0l.5-1,1-.52c.57-.13,1.26-.19.49-1v0c0-1.34-1.61-4,2-2.49-.81.1-1.79.61-1.32,1.33,1,1.47,1.75,3.29,3.83,3.66l.49,2,.5.51h0l-1.49.5c-.3-.22-.75-.7-.87-.62-1.07.62-.48,1.72-.64,2.62-.24,0-.58-.22-.71-.12-2.41,1.87-5-4.92-7.29.12.48-1.7-.81-2.74-1.5-4-.14-1,.37-2.1-.5-3Z" transform="translate(-905.09 -486.16)"/><path class="cls-216" d="M941.51,553c-.47-.86-.39-2.33-2.21-1.1s-3.11.6-2.8-1.89h0l.49-.49.52-1c.16-.33.32-.67.49-1h0c2.87-1,2.73,1.91,4,3h0l.5.49h0l.49.51h0v1l-.5.51Z" transform="translate(-905.09 -486.16)"/><path class="cls-217" d="M942,550.5c-1.27-1.09-1.13-4-4-3-.2-2,.51-2.78,2.49-2l1.5,1C941.86,547.83,941.34,549.17,942,550.5Z" transform="translate(-905.09 -486.16)"/><path class="cls-218" d="M933,543.48c0-.16,0-.32,0-.48,0-.33,0-.66,0-1l.49-.5,1-.51h.5l.5.49,1.49,1c0,.67,0,1.33,0,2,0,.16,0,.33,0,.5-.43.09-1.29.6-1.22,0C936.15,542.07,934.31,543.32,933,543.48Z" transform="translate(-905.09 -486.16)"/><path class="cls-219" d="M942,546.5l-1.5-1c0-1.13-.12-2.35,1.5-2.5h0c0,1,0,2,0,3Z" transform="translate(-905.09 -486.16)"/><path class="cls-178" d="M937,544.5c0-.67,0-1.33,0-2A1.23,1.23,0,0,1,937,544.5Z" transform="translate(-905.09 -486.16)"/><path class="cls-217" d="M938,547.5c-.17.33-.33.67-.49,1C937.67,548.17,937.83,547.83,938,547.5Z" transform="translate(-905.09 -486.16)"/><path class="cls-178" d="M935.5,541.5,935,541Z" transform="translate(-905.09 -486.16)"/><path class="cls-178" d="M937,549.51l-.49.49Z" transform="translate(-905.09 -486.16)"/><path class="cls-220" d="M941.51,553l1,0c.17.4.34.8.52,1.2.84-.37.35-1.13.49-1.71L944,554l.49,1c0,.16,0,.32,0,.48a9.06,9.06,0,0,1,1,4.51c0,.17,0,.33,0,.49L944,560l.16,0c1.58-.89.9-1.66-.12-2.43s-2.64-.42-3-2l-1.5-1c0-.17,0-.33,0-.49Z" transform="translate(-905.09 -486.16)"/><path class="cls-142" d="M939.48,554c0,.16,0,.32,0,.49L939,554Z" transform="translate(-905.09 -486.16)"/><path class="cls-221" d="M944,557.53c1,.77,1.7,1.54.12,2.43a2.59,2.59,0,0,1-.14-.45C944,558.85,944,558.19,944,557.53Z" transform="translate(-905.09 -486.16)"/><path class="cls-222" d="M944,560l1.52.48c0,1-.75,1-1.49,1C943.89,561,942.2,560.54,944,560Z" transform="translate(-905.09 -486.16)"/><path class="cls-223" d="M945.51,560a9.06,9.06,0,0,0-1-4.51c1.36-2-.35-3.66-.51-5.49,2.33-5,4.88,1.75,7.29-.12.13-.1.47.07.71.12-.64,1.22-.75,2.23,1,2.5-.15,1,.38,2.12-.5,3-.09-.5.23-1.22-.64-1.29a.66.66,0,0,0-.5.41c-.06.82.6.79,1.14.87l1,3V560H953c0-.72,0-1.44-1-1.48-1-.3-1.64-1.76-3-1C947,557.09,946.27,558.61,945.51,560Z" transform="translate(-905.09 -486.16)"/><path class="cls-224" d="M955.49,562c.53-.21,1.28-.26,1.55-.65.54-.78.16-2.21,1.69-2.25.07,0,.26.62.23.63-2,1,2.27,4.68-2,4.77l-2-2Z" transform="translate(-905.09 -486.16)"/><path class="cls-225" d="M955.49,562l-.49.51c-1.28.25-2.49.44-1.48-1.53l1,0A.86.86,0,0,1,955.49,562Z" transform="translate(-905.09 -486.16)"/><path class="cls-226" d="M954.54,561l-1,0,0-1c0-.5,0-1,0-1.5A3.09,3.09,0,0,1,954.54,561Z" transform="translate(-905.09 -486.16)"/><path class="cls-227" d="M952,558.52c1,0,1,.76,1,1.48C952,560,952,559.24,952,558.52Z" transform="translate(-905.09 -486.16)"/><path class="cls-223" d="M949,558.5v-1C949.49,557.84,949.49,558.17,949,558.5Z" transform="translate(-905.09 -486.16)"/><path class="cls-228" d="M965,556.5h-.51a3.4,3.4,0,0,1-.28-1.07c.09-.78,2.14,0,1.28-1.39-.33-.51-1.64-.41-2.51-.53a12.17,12.17,0,0,0-1.48,0,9.4,9.4,0,0,0,.8-2c.2-1.08.69-2.6.19-3.2-.86-1-1.88.3-2.7.82s-1.58.77-2.3-.15l.51-.51c2.5-2.17,2.57-2.17,4.45-1.14.22.12.7-.23,1.06-.36H964a11,11,0,0,1,4.5,6.5L968,555h0l-1.51,1h0c-.33-.49-.66-.5-1,0h0l-.49.49Z" transform="translate(-905.09 -486.16)"/><path class="cls-229" d="M961.5,553.5a12.17,12.17,0,0,1,1.48,0c.87.12,2.18,0,2.51.53.86,1.34-1.19.61-1.28,1.39a3.4,3.4,0,0,0,.28,1.07c-.29.44.76,2.81-1.24.82-.73-.72-1.34,0-1.75.68h0l-2-2-.5-1.5h0l.5-.5h0Z" transform="translate(-905.09 -486.16)"/><path class="cls-230" d="M953,552.5c-1.75-.27-1.64-1.28-1-2.5.16-.9-.43-2,.64-2.62.12-.08.57.4.87.62,0,1.31,1.77.89,2,2l-.5,2Z" transform="translate(-905.09 -486.16)"/><path class="cls-231" d="M955,552l.5-2a1.35,1.35,0,0,1,1.55,1.15c.23.8-1.34,4.43,2,1.62l.48,1.23h0l-.5.5h0l-2.5.5-.48,0-1-2v-1Z" transform="translate(-905.09 -486.16)"/><path class="cls-232" d="M956.5,555l2.5-.5.5,1.5c-.19.79.5,2.11-.67,2.27s-.53-1.24-.89-1.82A9,9,0,0,0,956.5,555Z" transform="translate(-905.09 -486.16)"/><path class="cls-233" d="M955,553l1,2c0,.51,0,1,0,1.53h-.5l-.5-.5h0c.58-1.13-1.79-1.77-.5-3Z" transform="translate(-905.09 -486.16)"/><path class="cls-234" d="M961.5,558c.73.43,1.3.94.41,1.7a1,1,0,0,1-1.53-.22c-.66-1.18,1-.82,1.12-1.48Z" transform="translate(-905.09 -486.16)"/><path class="cls-235" d="M955.5,556.5h.5c.41.23,1,.52.54,1a1.67,1.67,0,0,1-1.54.25c-.85-.46-.58-1.17,0-1.76h0Z" transform="translate(-905.09 -486.16)"/><path class="cls-223" d="M955,553h-.49l.5-.5Z" transform="translate(-905.09 -486.16)"/><path class="cls-236" d="M981,568.5h-.5c2.56-4,5.78-7.77,5.5-13,1,0,2,.07,2.56-.94a.85.85,0,0,0-.22-.8c-1-.65-1.57.43-2.34.74-1.89-1.45,0-1.31.68-1.47,1.42-.32,3,.47,4.32-.53a2.17,2.17,0,0,0,.69-.24c1.8-1.35,4.34-7.51,4.62.75,0,.33.45.66.69,1-2.8,1.26-1.58,5.34-4.68,6.52-1.32.51-.13,2.57-1.82,3.63C987.49,566,984.12,567,981,568.5Z" transform="translate(-905.09 -486.16)"/><path class="cls-237" d="M997,554c-.24-.33-.68-.66-.69-1-.28-8.26-2.82-2.1-4.62-.75a2.17,2.17,0,0,1-.69.24h-2c2.42-2,3-4.35,1-7v-2c1.29.24,1,4.24,3.84,1.2s-.43-3.94-1.34-5.7l1-2h0l1.75-.42-.76-1.08c.27-2,1.81-1.37,3-1.49,2.54,2.36,5.73,4.47.49,7.61-1.25.76,2.32,1.54,1.65,3.37-.13.34.88,1.07.2,1.18C994,547.07,998,551.41,997,554Z" transform="translate(-905.09 -486.16)"/><path class="cls-238" d="M989,552.5h2c-1.35,1-2.9.21-4.32.53-.68.16-2.57,0-.68,1.47v1c.28,5.23-2.94,9-5.5,13-1.94.7-3.52.73-4.25-1.73a2.3,2.3,0,0,0-1.68-1.19c-5.74-.64-6.09-1.31-3-6.2.17-.28.3-.58.45-.88.56-1.7,2.61-1.67,3.5-3l1,.5c-.39,1.64-1.61,3.41-.37,4.91,1,1.23,2.85.32,3.9-.12,4.4-1.87,4-6,4-9.79C986.11,550,986.83,553.7,989,552.5Z" transform="translate(-905.09 -486.16)"/><path class="cls-239" d="M976.5,556l-1-.5v-1c.8,0,1.72.1,1.75-1.15,0-.75.64-1.69-.75-1.85-1.22-.23-1.31-1.26-.72-1.83,3.4-3.21-.23-4.09-1.78-5.67v-3h.5c.63-.5.62-1,0-1.5V539h0l.5-.5h1c0,1.08.23,1.91,1.5,2,.19.94.64,1.85-.38,2.7-.59.49-.41,1.27.48.92,3.59-1.42,3.6,1.11,3.9,3.38C979.37,550.06,979.8,554.13,976.5,556Z" transform="translate(-905.09 -486.16)"/><path class="cls-240" d="M974,541v3c0,1.36-.89,2.72-.08,4.1-2.17.51,3.51,4-1.35,3.61-.6,0,0,.68.43.85l2.5.94v.5l-.5.5h0c-1.8,1.14-3.33-.34-5-.5l-.51-.5c.94-1.28.65-2.76.35-4.06C968.91,545.42,970.42,542.73,974,541Z" transform="translate(-905.09 -486.16)"/><path class="cls-186" d="M969.5,553.5l.51.5c.21.75.78,2,.6,2.15-1.27.79-1.37-1.48-2.61-1.14.17-.51.34-1,.5-1.51Z" transform="translate(-905.09 -486.16)"/><path class="cls-186" d="M966.5,556l1.51-1C968,556,967.88,557,966.5,556Z" transform="translate(-905.09 -486.16)"/><path class="cls-186" d="M965.51,556c.33-.49.66-.48,1,0Z" transform="translate(-905.09 -486.16)"/><path class="cls-238" d="M975.5,554.5v.5l-.5-.5h.5Z" transform="translate(-905.09 -486.16)"/><path class="cls-186" d="M965,556.5l.49-.49Z" transform="translate(-905.09 -486.16)"/><path class="cls-241" d="M993.5,537l-1,2-2-1.5h0c0-2.45-2.11.45-2.5-1l2-1.51C991.71,534.72,993,535.11,993.5,537Z" transform="translate(-905.09 -486.16)"/><path class="cls-242" d="M994.5,535.49l.76,1.08-1.75.42C993.49,536.26,993.52,535.56,994.5,535.49Z" transform="translate(-905.09 -486.16)"/><path class="cls-243" d="M936.51,534l-.51-3.51c.22-1.43,3.51,1,2.5-2h.5l2,2a22.82,22.82,0,0,1-.8,3.08c-.51,1.28,0,3.51-1.61,3.66S937.58,534.89,936.51,534Z" transform="translate(-905.09 -486.16)"/><path class="cls-244" d="M941,530.5l-2-2c.19-1.12-.49-3.42,2-1.38.74.62,1.19,0,1.54-.62.17.33.34.66.5,1a2.39,2.39,0,0,0-1,3Z" transform="translate(-905.09 -486.16)"/><path class="cls-177" d="M941,537.5c-.33.83-.66,1.66-1,2.5.09-.85-.28-1.79.5-2.51Z" transform="translate(-905.09 -486.16)"/><path class="cls-245" d="M938.5,528.5c1,3-2.28.56-2.5,2-.53-1.25-1.11-2.67.16-3.64.87-.65,1.37.51,1.84,1.15l.5.5Z" transform="translate(-905.09 -486.16)"/><path class="cls-243" d="M938.5,528.5l-.5-.5Z" transform="translate(-905.09 -486.16)"/><path class="cls-246" d="M949,543.5l-1,.52-1.51-.52c-.5-1.16-1-2.33-1.49-3.49h0l.49-.5c2.12-1.31,1.22-3.71,2-5.5l1.5-1c.18.61-1.18,2.24,1,1.5.34,1.56,1.62.8,2.5,1A2.68,2.68,0,0,0,954,539v2.5h-.49c-.67-1.1-1.4-2.17-2-3.32-.26-.53-.3-1.11-1.06-1.12a1.67,1.67,0,0,0-1.73,1.18c-.32,1.47-.91,3.09.73,4.26v0Z" transform="translate(-905.09 -486.16)"/><path class="cls-247" d="M952.5,529c1.68-1.07,3.25-2.54,5.5-1.5-.3.66-.74,1.37.51,1.51l-.51.49c-1.36,0-.7,1.56-1.49,2-.16-1-.83-1.5-1.69-1.28-1.05.28-.64,1.1-.31,1.77-.89.88-.36,2-.52,3h-1l-.53-.5C950.31,532.66,953.08,530.83,952.5,529Z" transform="translate(-905.09 -486.16)"/><path class="cls-248" d="M952.49,525.51l.51,2a.94.94,0,0,0-1,1c-.62.29-1.21.62-1.64-.31s.22-1,.87-1.29S952.08,526,952.49,525.51Z" transform="translate(-905.09 -486.16)"/><path class="cls-249" d="M952.49,534.5l.53.5-.52.52c-.88-.22-2.16.54-2.5-1Z" transform="translate(-905.09 -486.16)"/><path class="cls-250" d="M950.52,523c-.43.5-1,.7-1.34.06s.2-1,.82-1Z" transform="translate(-905.09 -486.16)"/><path class="cls-251" d="M967.5,525.55,970,526c0,.32,0,.65,0,1l-3,0-3,1,0-1c.09-1.31,1.56-.69,2-1.46Z" transform="translate(-905.09 -486.16)"/><path class="cls-252" d="M966,525.51c-.48.77-2,.15-2,1.47h-2c0-.16,0-.32,0-.48l-.49-1C963,523.93,964.5,526,966,525.51Z" transform="translate(-905.09 -486.16)"/><path class="cls-253" d="M970.51,524H972c-.1.49-.25,1-.87.86C970.88,524.78,970.72,524.3,970.51,524Z" transform="translate(-905.09 -486.16)"/><path class="cls-173" d="M977.49,525.5l-1-.48Z" transform="translate(-905.09 -486.16)"/><path class="cls-254" d="M962,526.51c0,.16,0,.32,0,.48,0,.64,0,1.29.8,1.51.55.13,1.11.41,1.19-.51l3-1c-.89,2.12-.86,4.8-4,5.42-1.24.24-.82,1.36,0,2.06-1.19,1.25-2.82-.89-4,.5-1.67.7-3.33,3.36-5,0h0c.16-1-.37-2.13.52-3l2-.49c.79-.44.13-2,1.49-2-.13,1.44.63,1.4,1.67,1.06.61-.2,1.72-.2,1.53-.86-.41-1.37-1.88,0-2.69-.69-1.25-.14-.81-.85-.51-1.51Z" transform="translate(-905.09 -486.16)"/><path class="cls-255" d="M947.5,534c-.78,1.79.12,4.19-2,5.5V539c0-.17,0-.33,0-.49L946,538a16.62,16.62,0,0,1,.1-2.45c.14-.87.88-2,0-2.48a2.47,2.47,0,0,0-3.07.43h0c.15-.89.31-1.78.45-2.68s0-1.72,1.21-1.8,1.33.76,1.62,1.53Z" transform="translate(-905.09 -486.16)"/><path class="cls-215" d="M941.5,536v-.5h.5l-.5,2h0Z" transform="translate(-905.09 -486.16)"/><path class="cls-255" d="M941.5,536v1.5H941Z" transform="translate(-905.09 -486.16)"/><path class="cls-255" d="M942,535l.5-1h0l0,1H942Z" transform="translate(-905.09 -486.16)"/><path class="cls-255" d="M942.49,534l.5-.5h0l-.49.5Z" transform="translate(-905.09 -486.16)"/><path class="cls-255" d="M942,535.5h-.5L942,535h0v.5Z" transform="translate(-905.09 -486.16)"/><path class="cls-256" d="M970,527c0-.33,0-.66,0-1,1.43,0,2.48,1.49,4,1,.94,1.56,2.47,1.53,4,1.5l1,.5,1.49.49,1,2a10.38,10.38,0,0,1-5.51,1l-3.49-2V530c.48-.33.49-.67,0-1C972.28,527.57,970.81,527.68,970,527Z" transform="translate(-905.09 -486.16)"/><path class="cls-212" d="M978,528.5c-1.53,0-3.06.06-4-1.5C975.59,526.81,977.17,526.67,978,528.5Z" transform="translate(-905.09 -486.16)"/><path class="cls-257" d="M976,538.5h-1v-1c0-.16,0-.33,0-.49a2.44,2.44,0,0,0,1.49-2.51c0-.16,0-.33,0-.49h0c1.64-.47,3.25-1.25,5-.56.27.11,2.34-.39.45.9l1.53,2.14h0V538l0,0-1.49.49c.06-2.79-2.38-.89-3.51-1.77S976.85,537.85,976,538.5Z" transform="translate(-905.09 -486.16)"/><path class="cls-258" d="M972.5,530.5l3.49,2a3.15,3.15,0,0,0-3.49,1.5c-.63.34-1.19.78-.78,1.54.08.17.83,0,1.28,0l0,0c0,.48,0,1,0,1.45-1.94.48-.34,1.67-.5,2.51l0,.54-.46.46c-.4,1.06-2.08,1.08-2,2.5h-3v-2c1-.15,2.11.37,3-.49,1.67-1.15,2.28-2.43.5-4l1.5-5Z" transform="translate(-905.09 -486.16)"/><path class="cls-259" d="M973,537c0-.49,0-1,0-1.45,1-.91,1.58-2.73,3.49-1.52h0l-.5.49L975,536l-1.5,1A3.86,3.86,0,0,0,973,537Z" transform="translate(-905.09 -486.16)"/><path class="cls-260" d="M986,535l.51,1.49h-3C983.43,534.48,984.94,535.13,986,535Z" transform="translate(-905.09 -486.16)"/><path class="cls-261" d="M973,535.5c-.45,0-1.2.22-1.28,0-.41-.76.15-1.2.78-1.54Z" transform="translate(-905.09 -486.16)"/><path class="cls-257" d="M988,536.51c.39,1.44,2.51-1.46,2.5,1l-4,2-2-.5-1-1,0,0,3-1.49h0C987,536.37,987.5,535.76,988,536.51Z" transform="translate(-905.09 -486.16)"/><path class="cls-262" d="M942.51,534l.49-.5a2.47,2.47,0,0,1,3.07-.43c.91.49.17,1.61,0,2.48A16.62,16.62,0,0,0,946,538l-.49.51c0,.16,0,.32,0,.49l-.48,1h0c-.88.53-1,2.28-2.58,1.68-2.44-.91-.37-2.85-.93-4.19l.5-2h0l.49-.51Z" transform="translate(-905.09 -486.16)"/><path class="cls-232" d="M959.5,554l-.48-1.23c-3.31,2.81-1.74-.82-2-1.62A1.35,1.35,0,0,0,955.5,550c-.22-1.11-2-.69-2-2l1.49-.5,2.49,1.51c.72.92,1.41.72,2.3.15s1.84-1.86,2.7-.82c.5.6,0,2.12-.19,3.2a9.4,9.4,0,0,1-.8,2Z" transform="translate(-905.09 -486.16)"/><path class="cls-263" d="M944,550c.16,1.83,1.87,3.52.51,5.49,0-.16,0-.32,0-.48-.16-.34-.32-.68-.49-1l-.51-1.5h0l-.49-1h0l-.49-.51h0l-.5-.49h0c-.66-1.33-.14-2.67,0-4l0-.49.48,0C943.19,547.26,944.48,548.3,944,550Z" transform="translate(-905.09 -486.16)"/><path class="cls-264" d="M949.49,542.49c-1.64-1.17-1-2.79-.73-4.26a1.67,1.67,0,0,1,1.73-1.18c.76,0,.8.59,1.06,1.12.56,1.15,1.29,2.22,2,3.32H953L951.5,540C947.88,538.45,949.52,541.15,949.49,542.49Z" transform="translate(-905.09 -486.16)"/><path class="cls-265" d="M951.5,540l1.51,1.49c.16.67.33,1.34.49,2h0l.48.5,0,1c-2.08-.37-2.88-2.19-3.83-3.66C949.71,540.61,950.69,540.1,951.5,540Z" transform="translate(-905.09 -486.16)"/><path class="cls-266" d="M954,545l0-1v-.5h0l3,3c-.64,1.15-.38,1.85,1,2l-.51.51L955,547.5h0l-.5-.51Z" transform="translate(-905.09 -486.16)"/><path class="cls-267" d="M948,545.5c1.06.51,2.21-1.72,3.2.09.43.79-.31,1.16-.7,1.65-1,1.23-1.71.19-2.51-.25C948,546.49,948,546,948,545.5Z" transform="translate(-905.09 -486.16)"/><path class="cls-268" d="M948,545.5c0,.5,0,1,0,1.49-1.29.27-1.81-.75-2.49-1.5.44-1.06,1.17-1,2-.5h0l.49.49Z" transform="translate(-905.09 -486.16)"/><path class="cls-267" d="M947.51,545c-.83-.47-1.56-.56-2,.5-.86-1.25.41-1.45,1-2L948,544Z" transform="translate(-905.09 -486.16)"/><path class="cls-177" d="M942.5,546l-.48,0c0-1,0-2,0-3C942.87,543.89,942.36,545,942.5,546Z" transform="translate(-905.09 -486.16)"/><path class="cls-264" d="M949,543.5l.49-1C950.27,543.31,949.58,543.37,949,543.5Z" transform="translate(-905.09 -486.16)"/><path class="cls-267" d="M948,545.49l-.49-.49Z" transform="translate(-905.09 -486.16)"/><path class="cls-232" d="M954.5,547l.5.51Z" transform="translate(-905.09 -486.16)"/><path class="cls-269" d="M943.5,552.5c-.14.58.35,1.34-.49,1.71-.18-.4-.35-.8-.52-1.2l.5-.51h.51Z" transform="translate(-905.09 -486.16)"/><path class="cls-178" d="M943.49,552.51H943c0-.33,0-.67,0-1C943.16,551.84,943.33,552.17,943.49,552.51Z" transform="translate(-905.09 -486.16)"/><path class="cls-178" d="M942.51,551l.49.51Z" transform="translate(-905.09 -486.16)"/><path class="cls-178" d="M942,550.5l.5.49Z" transform="translate(-905.09 -486.16)"/><path class="cls-223" d="M944,554c.17.33.33.67.49,1C944.34,554.67,944.18,554.33,944,554Z" transform="translate(-905.09 -486.16)"/><path class="cls-270" d="M952.5,555.49c-.54-.08-1.2,0-1.14-.87a.66.66,0,0,1,.5-.41c.87.07.55.79.64,1.29Z" transform="translate(-905.09 -486.16)"/><path class="cls-271" d="M973.5,537l1.5-1v1c0,.16,0,.33,0,.49l-.5,1.5h0c-.16.67-.33,1.34-.5,2h0c-3.58,1.73-5.09,4.42-4.15,8.44.3,1.3.59,2.78-.35,4.06h-1A11,11,0,0,0,964,547c.17-.66.34-1.33.5-2h0a5.63,5.63,0,0,0,5.49-2c0-1.42,1.64-1.44,2-2.5l.46-.46c0-.18,0-.36,0-.54C973.63,539,973.5,538,973.5,537Z" transform="translate(-905.09 -486.16)"/><path class="cls-272" d="M958,548.5c-1.38-.15-1.64-.85-1-2,.09-3.57,4.27-2.67,5.49-5l1,1.5,1,.5h0V545h0l-1,2c-.36.13-.84.48-1.06.36C960.57,546.33,960.5,546.33,958,548.5Z" transform="translate(-905.09 -486.16)"/><path class="cls-273" d="M963.51,547l1-2c-.16.67-.33,1.34-.5,2h-.49Z" transform="translate(-905.09 -486.16)"/><path class="cls-232" d="M959,554.5l.5-.5Z" transform="translate(-905.09 -486.16)"/><path class="cls-186" d="M955.5,556.5l-.5-.5Z" transform="translate(-905.09 -486.16)"/><path class="cls-274" d="M986,555.5v-1c.77-.31,1.31-1.39,2.34-.74a.85.85,0,0,1,.22.8C988,555.57,987,555.53,986,555.5Z" transform="translate(-905.09 -486.16)"/><path class="cls-275" d="M986.5,539.5l4-2h0c-2.2,1.83-2.79,3.8-.5,6v2c-3.21.32-5.06,2.39-6.5,5-1.49-.45-1.23-2.07-2-3-.3-2.27-.31-4.8-3.9-3.38-.89.35-1.07-.43-.48-.92,1-.85.57-1.76.38-2.7,1.4-.89,3.88.64,4.5-2l1.49-.49,1,1a3.88,3.88,0,0,1-2.4,2c-1.14.26-3.19-.67-3.26.67-.08,1.64,2.28.36,3.23,1.28.11.1.32.09.48.14,1.2.43,2.52,1.65,3.67.55S986.85,540.92,986.5,539.5Z" transform="translate(-905.09 -486.16)"/><path class="cls-236" d="M983.5,550.5c1.44-2.61,3.29-4.68,6.5-5,2,2.65,1.42,5-1,7-2.17,1.2-2.89-2.47-5-1.5Z" transform="translate(-905.09 -486.16)"/><path class="cls-276" d="M990,543.5c-2.29-2.2-1.7-4.17.5-6l2,1.5c.91,1.76,4.19,2.62,1.34,5.7S991.29,543.74,990,543.5Zm-.14-3-.09-.18s-.12.1-.12.15.05.12.08.18Z" transform="translate(-905.09 -486.16)"/><path class="cls-277" d="M983.5,550.5l.5.5c0,3.83.43,7.92-4,9.79-1,.44-2.9,1.35-3.9.12-1.24-1.5,0-3.27.37-4.91,3.3-1.87,2.87-5.94,5-8.5C982.27,548.43,982,550.05,983.5,550.5Z" transform="translate(-905.09 -486.16)"/><path class="cls-278" d="M975.5,553.5l-2.5-.94c-.44-.17-1-.89-.43-.85,4.86.35-.82-3.1,1.35-3.61-.81-1.38,0-2.74.08-4.1,1.55,1.58,5.18,2.46,1.78,5.67-.59.57-.5,1.6.72,1.83A1.79,1.79,0,0,1,975.5,553.5Z" transform="translate(-905.09 -486.16)"/><path class="cls-279" d="M982,538.5c-.62,2.64-3.1,1.11-4.5,2-1.27-.09-1.55-.92-1.5-2,.85-.65,1.44-2.58,2.49-1.77S982.06,535.71,982,538.5Z" transform="translate(-905.09 -486.16)"/><path class="cls-238" d="M975.5,553.5a1.79,1.79,0,0,0,1-2c1.39.16.78,1.1.75,1.85,0,1.25-1,1.1-1.75,1.15h0v-1Z" transform="translate(-905.09 -486.16)"/><path class="cls-240" d="M974,541c.17-.66.34-1.33.5-2v2Z" transform="translate(-905.09 -486.16)"/><path class="cls-257" d="M974.5,541v-1.5C975.12,540,975.13,540.5,974.5,541Z" transform="translate(-905.09 -486.16)"/><path class="cls-240" d="M974.5,539l.5-1.5v1Z" transform="translate(-905.09 -486.16)"/><path class="cls-192" d="M975.5,554v.5H975Z" transform="translate(-905.09 -486.16)"/><path class="cls-280" d="M962.49,541.5c-1.22,2.33-5.4,1.43-5.49,5l-3-3v-2c0-.17,0-.34,0-.51,2.11,1.83,3.57,1.49,4.31-1.29,0-.08.3-.11.45-.15,3-.78,5.82-.9,8.23,1.45v2h-.5C966,540.17,964.4,540.48,962.49,541.5Z" transform="translate(-905.09 -486.16)"/><path class="cls-281" d="M967,541c-2.41-2.35-5.26-2.23-8.23-1.45-.15,0-.43.07-.45.15-.74,2.78-2.2,3.12-4.31,1.29,0-.66,0-1.33,0-2,1.11,1,2,1.51,3.37,0a5.11,5.11,0,0,1,5.13-1.52c1.43-.63,2.5-.18,3.75.75,1,.77,1.42,2.62,3.25,2.25h.5C969.11,541.37,968,540.85,967,541Z" transform="translate(-905.09 -486.16)"/><path class="cls-282" d="M962.5,537.5a5.11,5.11,0,0,0-5.13,1.52c-1.36,1.49-2.26,1-3.37,0a2.68,2.68,0,0,1-1.5-3.48L953,535h1a2.15,2.15,0,0,0,.72,3.21c1.17.71,2.26.06,2.93-1s1.43-.93,2.35-.69C961,536.5,962,536.36,962.5,537.5Z" transform="translate(-905.09 -486.16)"/><path class="cls-264" d="M954,541.5v2h-.5v-2h.5Z" transform="translate(-905.09 -486.16)"/><path class="cls-215" d="M945,540l.48-1c0,.17,0,.33,0,.5Z" transform="translate(-905.09 -486.16)"/><path class="cls-283" d="M958.51,529c.81.67,2.28-.68,2.69.69.19.66-.92.66-1.53.86-1,.34-1.8.38-1.67-1.06Z" transform="translate(-905.09 -486.16)"/><path class="cls-284" d="M956.51,531.5l-2,.49c-.33-.67-.74-1.49.31-1.77C955.68,530,956.35,530.53,956.51,531.5Z" transform="translate(-905.09 -486.16)"/><path class="cls-285" d="M972,531.5l-1.5,5c-.56.8-.36,2-1.5,2.5h0l-.5-.5c-2.13-.92-1.54-5.58-5.5-4-.83-.7-1.25-1.82,0-2.06,3.15-.62,3.12-3.3,4-5.42l3,0c.82.68,2.29.57,2.51,2h0c-1.1.91-2.89,1.66-2.29,3.32.3.83.86-1.15,1.77-.85Z" transform="translate(-905.09 -486.16)"/><path class="cls-286" d="M964,528c-.08.92-.64.64-1.19.51-.85-.22-.79-.87-.8-1.51h2C964,527.31,964,527.65,964,528Z" transform="translate(-905.09 -486.16)"/><path class="cls-287" d="M963,534.5c4-1.58,3.37,3.08,5.5,4l.5.5h0l.5,1.5c-1.83.37-2.21-1.48-3.25-2.25-1.25-.93-2.32-1.38-3.75-.75-.51-1.14-1.53-1-2.5-1l-1-1.5C960.18,533.61,961.81,535.75,963,534.5Z" transform="translate(-905.09 -486.16)"/><path class="cls-247" d="M959,535l1,1.5c-.92-.24-1.74-.32-2.35.69s-1.76,1.74-2.93,1A2.15,2.15,0,0,1,954,535C955.67,538.36,957.33,535.7,959,535Z" transform="translate(-905.09 -486.16)"/><path class="cls-215" d="M945.51,538.51,946,538Z" transform="translate(-905.09 -486.16)"/><path class="cls-215" d="M942.49,535l-.49.51V535Z" transform="translate(-905.09 -486.16)"/><path class="cls-285" d="M972.5,530.5l-.5,1,0,0,.52-1.48h0Z" transform="translate(-905.09 -486.16)"/><path class="cls-285" d="M972.5,529c.49.33.48.67,0,1h0v-1Z" transform="translate(-905.09 -486.16)"/><path class="cls-194" d="M986.5,536.5l-3,1.49V536.5Z" transform="translate(-905.09 -486.16)"/><path class="cls-240" d="M975,537v-1c.34-.51.67-1,1-1.52h.49A2.44,2.44,0,0,1,975,537Z" transform="translate(-905.09 -486.16)"/><path class="cls-213" d="M976.5,534.5H976l.5-.49C976.51,534.17,976.51,534.34,976.5,534.5Z" transform="translate(-905.09 -486.16)"/><path class="cls-273" d="M966.5,543H970a5.63,5.63,0,0,1-5.49,2v-1.5C965.34,544,966.06,544,966.5,543Z" transform="translate(-905.09 -486.16)"/><path class="cls-288" d="M969.5,540.5,969,539c1.14-.45.94-1.7,1.5-2.5,1.78,1.58,1.17,2.86-.5,4Z" transform="translate(-905.09 -486.16)"/><path class="cls-289" d="M973.5,537c0,1,.13,2-1,2.45.16-.84-1.44-2,.5-2.51A3.86,3.86,0,0,1,973.5,537Z" transform="translate(-905.09 -486.16)"/><path class="cls-289" d="M972.49,540l-.46.46Z" transform="translate(-905.09 -486.16)"/><path class="cls-279" d="M986.5,539.5c.35,1.42.83,3-.28,4.13s-2.47-.12-3.67-.55c-.16-.05-.37,0-.48-.14-1-.92-3.31.36-3.23-1.28.07-1.34,2.12-.41,3.26-.67a3.88,3.88,0,0,0,2.4-2Z" transform="translate(-905.09 -486.16)"/><path class="cls-215" d="M953.5,541.5v2c-.16-.67-.33-1.34-.49-2Z" transform="translate(-905.09 -486.16)"/><path class="cls-215" d="M953.5,543.5H954v.5Z" transform="translate(-905.09 -486.16)"/><path class="cls-290" d="M966.5,543c-.44,1-1.16,1-2,.5h0l-1-.5-1-1.5C964.4,540.48,966,540.17,966.5,543Z" transform="translate(-905.09 -486.16)"/><path class="cls-273" d="M963.5,543l1,.5Z" transform="translate(-905.09 -486.16)"/><path class="cls-275" d="M989.86,540.52l-.13.15c0-.06-.09-.12-.08-.18s.07-.1.12-.15Z" transform="translate(-905.09 -486.16)"/><path class="cls-291" d="M972.5,529v1l-.52,1.48c-.91-.3-1.47,1.68-1.77.85C969.61,530.67,971.4,529.92,972.5,529Z" transform="translate(-905.09 -486.16)"/><path class="cls-288" d="M969,539l-.5-.5Z" transform="translate(-905.09 -486.16)"/></svg>